<svg xmlns="http://www.w3.org/2000/svg" xmlns:xlink="http://www.w3.org/1999/xlink" viewBox="0 0 69.69 45">
  <defs>
    <style>
      .cls-1, .cls-2 {
        stroke: #707070;
      }

      .cls-1 {
        fill: url(#linear-gradient);
      }

      .cls-2, .cls-6 {
        fill: #fff;
      }

      .cls-3 {
        fill: #ed9d9d;
      }

      .cls-4 {
        fill: #a8eac7;
      }

      .cls-5 {
        fill: #d9d9d9;
      }

      .cls-6 {
        font-size: 19px;
        font-family: Ubuntu-Medium, Ubuntu;
        font-weight: 500;
      }

      .cls-7 {
        stroke: none;
      }

      .cls-8 {
        fill: none;
      }
    </style>
    <linearGradient id="linear-gradient" x1="0.5" x2="0.5" y2="1" gradientUnits="objectBoundingBox">
      <stop offset="0" stop-color="#0dad7d"/>
      <stop offset="1" stop-color="#16c792"/>
    </linearGradient>
  </defs>
  <g id="Group_2413" data-name="Group 2413" transform="translate(-565 -6364)">
    <g id="Rectangle_1045" data-name="Rectangle 1045" class="cls-1" transform="translate(565 6364)">
      <rect class="cls-7" width="69.69" height="45" rx="5"/>
      <rect class="cls-8" x="0.5" y="0.5" width="68.69" height="44" rx="4.5"/>
    </g>
    <g id="Rectangle_1046" data-name="Rectangle 1046" class="cls-2" transform="translate(634.69 6373) rotate(180)">
      <path class="cls-7" d="M0,0H69.69a0,0,0,0,1,0,0V4a5,5,0,0,1-5,5H5A5,5,0,0,1,0,4V0A0,0,0,0,1,0,0Z"/>
      <path class="cls-8" d="M1,.5H68.69a.5.5,0,0,1,.5.5V4a4.5,4.5,0,0,1-4.5,4.5H5A4.5,4.5,0,0,1,.5,4V1A.5.5,0,0,1,1,.5Z"/>
    </g>
    <circle id="Ellipse_397" data-name="Ellipse 397" class="cls-3" cx="1.868" cy="1.868" r="1.868" transform="translate(568.15 6366.632)"/>
    <circle id="Ellipse_398" data-name="Ellipse 398" class="cls-4" cx="1.868" cy="1.868" r="1.868" transform="translate(572.632 6366.632)"/>
    <circle id="Ellipse_399" data-name="Ellipse 399" class="cls-5" cx="1.868" cy="1.868" r="1.868" transform="translate(577.115 6366.632)"/>
    <text id="DApp" class="cls-6" transform="translate(600 6396)"><tspan x="-24.557" y="0">DApp</tspan></text>
  </g>
</svg>
