<svg xmlns="http://www.w3.org/2000/svg" xmlns:xlink="http://www.w3.org/1999/xlink" viewBox="0 0 106.858 69">
  <defs>
    <style>
      .cls-1, .cls-2 {
        stroke: #707070;
      }

      .cls-1 {
        fill: url(#linear-gradient);
      }

      .cls-2, .cls-6 {
        fill: #fff;
      }

      .cls-3 {
        fill: #ed9d9d;
      }

      .cls-4 {
        fill: #a8eac7;
      }

      .cls-5 {
        fill: #d9d9d9;
      }

      .cls-6 {
        font-size: 16px;
        font-family: Ubuntu-Medium, Ubuntu;
        font-weight: 500;
      }

      .cls-7 {
        stroke: none;
      }

      .cls-8 {
        fill: none;
      }
    </style>
    <linearGradient id="linear-gradient" x1="0.5" x2="0.5" y2="1" gradientUnits="objectBoundingBox">
      <stop offset="0" stop-color="#2359f1"/>
      <stop offset="1" stop-color="#0aadf3"/>
    </linearGradient>
  </defs>
  <g id="Group_2416" data-name="Group 2416" transform="translate(-565 -6364)">
    <g id="Rectangle_1045" data-name="Rectangle 1045" class="cls-1" transform="translate(565 6364)">
      <rect class="cls-7" width="106.858" height="69" rx="5"/>
      <rect class="cls-8" x="0.5" y="0.5" width="105.858" height="68" rx="4.5"/>
    </g>
    <g id="Rectangle_1046" data-name="Rectangle 1046" class="cls-2" transform="translate(671.858 6377.8) rotate(180)">
      <path class="cls-7" d="M0,0H106.858a0,0,0,0,1,0,0V8.8a5,5,0,0,1-5,5H5a5,5,0,0,1-5-5V0A0,0,0,0,1,0,0Z"/>
      <path class="cls-8" d="M1,.5H105.858a.5.5,0,0,1,.5.5V8.8a4.5,4.5,0,0,1-4.5,4.5H5A4.5,4.5,0,0,1,.5,8.8V1A.5.5,0,0,1,1,.5Z"/>
    </g>
    <circle id="Ellipse_397" data-name="Ellipse 397" class="cls-3" cx="2.864" cy="2.864" r="2.864" transform="translate(569.83 6368.036)"/>
    <circle id="Ellipse_398" data-name="Ellipse 398" class="cls-4" cx="2.864" cy="2.864" r="2.864" transform="translate(576.703 6368.036)"/>
    <circle id="Ellipse_399" data-name="Ellipse 399" class="cls-5" cx="2.864" cy="2.864" r="2.864" transform="translate(583.576 6368.036)"/>
    <text id="Smart_Contract" data-name="Smart
Contract" class="cls-6" transform="translate(616.584 6403)"><tspan x="-22.08" y="0">Smart</tspan><tspan x="-32.424" y="18">Contract</tspan></text>
  </g>
</svg>
