<svg xmlns="http://www.w3.org/2000/svg" xmlns:xlink="http://www.w3.org/1999/xlink" viewBox="0 0 59.053 62.526">
  <defs>
    <style>
      .cls-1 {
        fill: url(#linear-gradient);
      }

      .cls-2 {
        fill: #fff;
      }

      .cls-3 {
        filter: url(#social-back);
      }
    </style>
    <linearGradient id="linear-gradient" x1="0.5" x2="0.5" y2="1" gradientUnits="objectBoundingBox">
      <stop offset="0" stop-color="#2359f1"/>
      <stop offset="1" stop-color="#0aadf3"/>
    </linearGradient>
    <filter id="social-back" x="0" y="0" width="59.053" height="62.526" filterUnits="userSpaceOnUse">
      <feOffset dy="3" input="SourceAlpha"/>
      <feGaussianBlur stdDeviation="5" result="blur"/>
      <feFlood flood-opacity="0.161"/>
      <feComposite operator="in" in2="blur"/>
      <feComposite in="SourceGraphic"/>
    </filter>
  </defs>
  <g id="tw" transform="translate(-435 -12171)">
    <g class="cls-3" transform="matrix(1, 0, 0, 1, 435, 12171)">
      <path id="social-back-2" data-name="social-back" class="cls-1" d="M14.916,33.026a3.4,3.4,0,0,1-1.565-.407L1.965,26.037A3.125,3.125,0,0,1,.4,23.335V8.39L13.372.907A3.047,3.047,0,0,1,14.937.5,3.4,3.4,0,0,1,16.5.907L27.888,7.49a3.125,3.125,0,0,1,1.565,2.7V25.136L16.5,32.619A3.181,3.181,0,0,1,14.916,33.026Z" transform="translate(14.6 11.5)"/>
    </g>
    <path id="Path_4238" data-name="Path 4238" class="cls-2" d="M5.551-8.094A6.311,6.311,0,0,0,7-9.6a6.168,6.168,0,0,1-1.641.465,2.849,2.849,0,0,0,1.258-1.586,5.841,5.841,0,0,1-1.832.684,3.247,3.247,0,0,0-.943-.656,2.739,2.739,0,0,0-1.162-.246,2.773,2.773,0,0,0-1.422.383A2.81,2.81,0,0,0,.219-9.5,2.847,2.847,0,0,0-.164-8.066a3.985,3.985,0,0,0,.055.656A7.948,7.948,0,0,1-3.4-8.285a7.917,7.917,0,0,1-2.611-2.133,2.749,2.749,0,0,0-.41,1.436A2.758,2.758,0,0,0-6.07-7.6a3.185,3.185,0,0,0,.93,1.039,2.7,2.7,0,0,1-1.285-.383v.055a2.753,2.753,0,0,0,.656,1.8A2.893,2.893,0,0,0-4.129-4.074a3.645,3.645,0,0,1-.766.082q-.246,0-.52-.027a2.855,2.855,0,0,0,1,1.408,2.671,2.671,0,0,0,1.682.561A5.692,5.692,0,0,1-6.316-.82Q-6.7-.82-7-.848A7.966,7.966,0,0,0-2.6.438,7.889,7.889,0,0,0,1.859-.848a7.809,7.809,0,0,0,2.762-3.09,8.108,8.108,0,0,0,.957-3.8A1.629,1.629,0,0,0,5.551-8.094Z" transform="translate(464.508 12204.632)"/>
  </g>
</svg>
