<svg xmlns="http://www.w3.org/2000/svg" xmlns:xlink="http://www.w3.org/1999/xlink" viewBox="0 0 177 185">
  <defs>
    <style>
      .cls-1 {
        stroke: #707070;
        opacity: 0.3;
      }

      .cls-2 {
        fill: url(#linear-gradient);
      }

      .cls-3, .cls-4 {
        fill: #fff;
      }

      .cls-3 {
        font-size: 16px;
        font-family: Ubuntu-Regular, Ubuntu;
      }

      .cls-5 {
        stroke: none;
      }

      .cls-6 {
        fill: none;
      }
    </style>
    <linearGradient id="linear-gradient" x1="0.5" x2="0.5" y2="1" gradientUnits="objectBoundingBox">
      <stop offset="0" stop-color="#2af598"/>
      <stop offset="1" stop-color="#009efd"/>
    </linearGradient>
  </defs>
  <g id="security_token" data-name="security token" transform="translate(-881 -5682)">
    <g id="Ellipse_374" data-name="Ellipse 374" class="cls-1" transform="translate(914 5814)">
      <ellipse class="cls-5" cx="55.5" cy="10" rx="55.5" ry="10"/>
      <ellipse class="cls-6" cx="55.5" cy="10" rx="55" ry="9.5"/>
    </g>
    <rect id="Rectangle_967" data-name="Rectangle 967" class="cls-2" width="142" height="142" rx="36" transform="translate(894.5 5682)"/>
    <text id="Security_token-2" data-name="Security token" class="cls-3" transform="translate(965.5 5748)"><tspan x="-52.048" y="0">Security token</tspan></text>
    <path id="ic_more_vert_24px" class="cls-4" d="M12,8a2,2,0,1,0-2-2A2.006,2.006,0,0,0,12,8Zm0,2a2,2,0,1,0,2,2A2.006,2.006,0,0,0,12,10Zm0,6a2,2,0,1,0,2,2A2.006,2.006,0,0,0,12,16Z" transform="translate(952 5772)"/>
  </g>
</svg>
