<svg xmlns="http://www.w3.org/2000/svg" xmlns:xlink="http://www.w3.org/1999/xlink" viewBox="0 0 177 185">
  <defs>
    <style>
      .cls-1 {
        stroke: #707070;
        opacity: 0.3;
      }

      .cls-2 {
        fill: url(#linear-gradient);
      }

      .cls-3, .cls-4 {
        fill: #fff;
      }

      .cls-3 {
        font-size: 18px;
        font-family: Ubuntu-Bold, Ubuntu;
        font-weight: 700;
      }

      .cls-5 {
        stroke: none;
      }

      .cls-6 {
        fill: none;
      }

      .cls-7 {
        filter: url(#Exchange_token);
      }
    </style>
    <linearGradient id="linear-gradient" x1="0.5" x2="0.5" y2="1" gradientUnits="objectBoundingBox">
      <stop offset="0" stop-color="#2af598"/>
      <stop offset="1" stop-color="#009efd"/>
    </linearGradient>
    <filter id="Exchange_token" x="33.5" y="39" width="102" height="59" filterUnits="userSpaceOnUse">
      <feOffset dy="3" input="SourceAlpha"/>
      <feGaussianBlur stdDeviation="3" result="blur"/>
      <feFlood flood-opacity="0.161"/>
      <feComposite operator="in" in2="blur"/>
      <feComposite in="SourceGraphic"/>
    </filter>
  </defs>
  <g id="_6" data-name="6" transform="translate(-1077 -5682)">
    <g id="Ellipse_375" data-name="Ellipse 375" class="cls-1" transform="translate(1110 5814)">
      <ellipse class="cls-5" cx="55.5" cy="10" rx="55.5" ry="10"/>
      <ellipse class="cls-6" cx="55.5" cy="10" rx="55" ry="9.5"/>
    </g>
    <rect id="Rectangle_968" data-name="Rectangle 968" class="cls-2" width="142" height="142" rx="36" transform="translate(1087.5 5682)"/>
    <g class="cls-7" transform="matrix(1, 0, 0, 1, 1077, 5682)">
      <text id="Exchange_token-2" data-name="Exchange
 token" class="cls-3" transform="translate(84.5 62)"><tspan x="-41.094" y="0">Exchange</tspan><tspan x="-26.883" y="21" xml:space="preserve"> token</tspan></text>
    </g>
    <path id="ic_more_vert_24px" class="cls-4" d="M12,8a2,2,0,1,0-2-2A2.006,2.006,0,0,0,12,8Zm0,2a2,2,0,1,0,2,2A2.006,2.006,0,0,0,12,10Zm0,6a2,2,0,1,0,2,2A2.006,2.006,0,0,0,12,16Z" transform="translate(1149 5772)"/>
  </g>
</svg>
