<svg xmlns="http://www.w3.org/2000/svg" xmlns:xlink="http://www.w3.org/1999/xlink" viewBox="0 0 630 521"><defs><style>.a{clip-path:url(#ar);}.b,.h,.i,.j,.o{fill:none;stroke:#6affe1;}.b{stroke-width:3px;}.c{fill:#6affe1;}.d{fill:#060606;opacity:0.5;}.e{fill:url(#a);}.f{fill:url(#b);}.g{fill:url(#d);}.h,.i{stroke-linecap:round;stroke-linejoin:round;stroke-miterlimit:10;}.i,.j{stroke-width:2px;}.k{fill:url(#j);}.l{fill:url(#k);}.m{fill:#fff;}.n{fill:url(#o);}.o{stroke-width:5px;}.p{fill:#4cbd88;}.q{fill:#4c86bd;}.r{fill:#1963aa;}.s{fill:url(#ak);}.t{filter:url(#ae);}.u{filter:url(#ac);}.v{filter:url(#t);}.w{filter:url(#p);}.x{filter:url(#l);}</style><linearGradient id="a" x1="0.645" y1="1.565" x2="0.595" y2="-0.053" gradientUnits="objectBoundingBox"><stop offset="0" stop-color="#81fbb8"/><stop offset="1" stop-color="#28c76f"/></linearGradient><linearGradient id="b" x1="0.5" x2="0.5" y2="1" gradientUnits="objectBoundingBox"><stop offset="0" stop-color="#0dad7d"/><stop offset="1" stop-color="#16c792"/></linearGradient><linearGradient id="d" x1="1.49" y1="0.5" x2="0" y2="0.75" xlink:href="#a"/><linearGradient id="j" x1="0.5" x2="0.5" y2="1" gradientUnits="objectBoundingBox"><stop offset="0" stop-color="#fad961"/><stop offset="1" stop-color="#f76b1c"/></linearGradient><radialGradient id="k" cx="0.5" cy="0.5" r="1.398" gradientTransform="translate(0.247 0.247) scale(0.507 0.507)" xlink:href="#j"/><filter id="l" x="174.053" y="-103.212" width="276.861" height="277.594" filterUnits="userSpaceOnUse"><feOffset dy="3" input="SourceAlpha"/><feGaussianBlur stdDeviation="35.5" result="m"/><feFlood flood-opacity="0.161"/><feComposite operator="in" in2="m"/><feComposite in="SourceGraphic"/></filter><radialGradient id="o" cx="0.5" cy="0.5" r="1.398" gradientTransform="translate(0.247 0.247) scale(0.507)" xlink:href="#j"/><filter id="p" x="212.433" y="-36.129" width="245.156" height="253.85" filterUnits="userSpaceOnUse"><feOffset dy="3" input="SourceAlpha"/><feGaussianBlur stdDeviation="35.5" result="q"/><feFlood flood-opacity="0.161"/><feComposite operator="in" in2="q"/><feComposite in="SourceGraphic"/></filter><filter id="t" x="172.66" y="-45.998" width="235.824" height="241.996" filterUnits="userSpaceOnUse"><feOffset dy="3" input="SourceAlpha"/><feGaussianBlur stdDeviation="35.5" result="u"/><feFlood flood-opacity="0.161"/><feComposite operator="in" in2="u"/><feComposite in="SourceGraphic"/></filter><filter id="ac" x="261.051" y="-52.911" width="258.54" height="259.063" filterUnits="userSpaceOnUse"><feOffset dy="3" input="SourceAlpha"/><feGaussianBlur stdDeviation="35.5" result="ad"/><feFlood flood-opacity="0.161"/><feComposite operator="in" in2="ad"/><feComposite in="SourceGraphic"/></filter><filter id="ae" x="256.451" y="134.43" width="73.274" height="92.82" filterUnits="userSpaceOnUse"><feOffset dx="5" dy="6" input="SourceAlpha"/><feGaussianBlur stdDeviation="5" result="af"/><feFlood flood-opacity="0.161"/><feComposite operator="in" in2="af"/><feComposite in="SourceGraphic"/></filter><linearGradient id="ak" x1="0.5" x2="0.5" y2="1" gradientUnits="objectBoundingBox"><stop offset="0" stop-color="#22ea7c"/><stop offset="1" stop-color="#28c76f"/></linearGradient><clipPath id="ar"><rect width="630" height="521"/></clipPath></defs><g id="aq" class="a"><path class="b" d="M979.314,1969.524,618.453,2125.7" transform="translate(-524 -1658)"/><g transform="translate(-648.089 -218.76)"><path class="b" d="M-564.214,1447.686l-115.031,45.175s-16.923,7.692-15.385,22.692,18.077,21.154,18.077,21.154l127.724,88.5" transform="translate(1355.285 -1022.463)"/><ellipse class="c" cx="8.904" cy="4.512" rx="8.904" ry="4.512" transform="translate(797.821 598.236)"/></g><g transform="translate(-438.089 -185.76)"><path class="b" d="M-564.214,1447.686l-138.462,56.923s-16.923,7.692-15.385,22.692,18.077,23.154,18.077,23.154,101.365,70.034,116.057,79.215,36.141,23.764,0,38.617-102.484,44.558-102.484,44.558" transform="translate(1375.285 -1030.463)"/></g><g transform="translate(-214.031 -128.76)"><path class="b" d="M-700.367,1447.686l79.078,32.51s9.665,4.393,8.786,12.96-10.324,12.081-10.324,12.081l-95.333,37.782" transform="translate(1359.513 -1022.463)"/><ellipse class="c" cx="8.512" cy="4.29" rx="8.512" ry="4.29" transform="translate(637.125 514.325)"/></g><path class="d" d="M88,0c48.6,0,88,13.655,88,30.5S136.6,61,88,61,0,47.345,0,30.5,39.4,0,88,0Z" transform="translate(229 244)"/><path class="d" d="M68,0c37.555,0,68,10.521,68,23.5S105.555,47,68,47,0,36.479,0,23.5,30.445,0,68,0Z" transform="translate(92 182)"/><path class="d" d="M68,0c37.555,0,68,10.521,68,23.5S105.555,47,68,47,0,36.479,0,23.5,30.445,0,68,0Z" transform="translate(398 285)"/><g transform="translate(-2978.754 -180.248)"><path class="e" d="M6.4,917.606,60.508,893.6l73.816,29.383L80.216,947.705Z" transform="translate(3078.781 -639.792)"/><path class="f" d="M0,0,75.608,29.566v99.075L0,99.075Z" transform="translate(3137.497 253)"/><path class="f" d="M0,0,75.608,29.741l.224,98.867L0,99.661Z" transform="translate(3083.748 277.411)"/><path class="g" d="M0-87.075,53.57-112.2v98.85L0,10.929Z" transform="translate(3159.221 394.945)"/><g transform="matrix(0.956, 0.292, -0.292, 0.956, 3088.787, 318.072)"><g transform="translate(0 0)"><path class="h" d="M0,0V15.962l13.911,4.452-.865,16.727" transform="translate(5.674 25.087) rotate(-17)"/><path class="h" d="M40.253,0,24.2.415l4.34,19.3L0,18.658" transform="translate(28.193 22.133)"/><path class="h" d="M0,0,20.948,0,26.1,23.418l43.7,3.076" transform="translate(20.339 29.994)"/><path class="c" d="M9.509,5.158H2.579A2.593,2.593,0,0,1,0,2.579H0A2.593,2.593,0,0,1,2.579,0H9.509a2.593,2.593,0,0,1,2.579,2.579h0A2.593,2.593,0,0,1,9.509,5.158Z" transform="matrix(0.995, -0.105, 0.105, 0.995, 21.014, 12.05)"/><path class="c" d="M6.326,3.791H1.9A1.905,1.905,0,0,1,0,1.9H0A1.905,1.905,0,0,1,1.9,0H6.3A1.905,1.905,0,0,1,8.2,1.9h0A1.871,1.871,0,0,1,6.326,3.791Z" transform="translate(4.772 11.195) rotate(-7)"/><path class="c" d="M7.067,3.72H1.86A1.865,1.865,0,0,1,0,1.86H0A1.865,1.865,0,0,1,1.86,0H7.067a1.865,1.865,0,0,1,1.86,1.86h0A1.842,1.842,0,0,1,7.067,3.72Z" transform="translate(59.105 6.841)"/><circle class="c" cx="3.236" cy="3.236" r="3.236" transform="translate(16.624 32.024) rotate(-76.767)"/><circle class="c" cx="3.236" cy="3.236" r="3.236" transform="translate(1.244 25.557) rotate(-76.767)"/><circle class="c" cx="2.702" cy="2.702" r="2.702" transform="translate(65.602 24.438) rotate(-76.767)"/><circle class="c" cx="1.674" cy="1.674" r="1.674" transform="translate(73.493 21.293)"/><path class="c" d="M1.785.893a.905.905,0,0,1-.893.893A.905.905,0,0,1,0,.893.905.905,0,0,1,.893,0,.859.859,0,0,1,1.785.893Z" transform="translate(60.275 3.769)"/><path class="c" d="M3.2,1.6A1.588,1.588,0,0,1,1.6,3.2,1.588,1.588,0,0,1,0,1.6,1.588,1.588,0,0,1,1.6,0,1.636,1.636,0,0,1,3.2,1.6Z" transform="translate(30.723 22.366)"/><circle class="c" cx="0.93" cy="0.93" r="0.93" transform="translate(7.7 0)"/></g></g><path class="f" d="M929,1867.83l74.241,29.9,54.567-24.971-76.455-29.6Z" transform="translate(2155.753 -1589.752)"/></g><rect class="c" width="60" height="4" rx="2" transform="translate(200.265 205.886) rotate(16)"/><g transform="translate(-2881.715 -228)"><path class="e" d="M6.4,938.552,107.716,893.6l138.219,55.019-101.316,46.3Z" transform="translate(3091.094 -639.089)"/><path class="f" d="M0,0,141.574,55.361V240.875L0,185.515Z" transform="translate(3195.456 253)"/><path class="f" d="M0,0,141.574,55.688l.419,185.126L0,186.613Z" transform="translate(3094.811 298.71)"/><path class="g" d="M0-65.151,100.309-112.2V72.89L0,118.359Z" transform="translate(3236.133 420.893)"/><g transform="matrix(0.956, 0.292, -0.292, 0.956, 2730.244, -215.473)"><g transform="translate(530 402)"><path class="i" d="M177.3,62.3V92.189l26.048,8.336-1.619,31.32" transform="translate(-176.89 92.41) rotate(-17)"/><path class="i" d="M139.268,92.873l-25.558.019,8.127,36.133L68.4,127.051" transform="translate(-15.352 2.506)"/><path class="i" d="M77.24,130.284l34.464-.294,9.656,43.849,81.826,5.76" transform="translate(-34.144 -20.651)"/><path class="c" d="M57.2,30.759H44.229A4.855,4.855,0,0,1,39.4,25.929h0A4.855,4.855,0,0,1,44.229,21.1H57.2a4.855,4.855,0,0,1,4.829,4.829h0A4.855,4.855,0,0,1,57.2,30.759Z" transform="matrix(0.995, -0.105, 0.105, 0.995, -41.137, 45.448)"/><path class="c" d="M25.845,39.2h-8.3A3.568,3.568,0,0,1,14,35.649h0A3.568,3.568,0,0,1,17.549,32.1H25.8a3.568,3.568,0,0,1,3.549,3.549h0A3.5,3.5,0,0,1,25.845,39.2Z" transform="translate(-8.619 43.985) rotate(-7)"/><path class="c" d="M143.533,6.965h-9.751A3.492,3.492,0,0,1,130.3,3.482h0A3.492,3.492,0,0,1,133.782,0h9.751a3.492,3.492,0,0,1,3.482,3.482h0A3.449,3.449,0,0,1,143.533,6.965Z" transform="translate(-19.376 65.985)"/><path class="j" d="M4.453,0c2.46,0,4.453,1.613,4.453,3.6S6.913,7.2,4.453,7.2,0,5.591,0,3.6,1.994,0,4.453,0Z" transform="translate(37.189 114.515) rotate(-108.767)"/><ellipse class="j" cx="3.559" cy="3.059" rx="3.559" ry="3.059" transform="translate(7.467 99.785) rotate(-105.767)"/><ellipse class="j" cx="5.059" cy="4.559" rx="5.059" ry="4.559" transform="matrix(-0.305, -0.952, 0.952, -0.305, 125.889, 101.263)"/><circle class="c" cx="3.134" cy="3.134" r="3.134" transform="translate(137.866 93.046)"/><path class="c" d="M177.343,42.572a1.672,1.672,0,1,1-1.672-1.672A1.609,1.609,0,0,1,177.343,42.572Z" transform="translate(-60.884 19.333)"/><path class="c" d="M96.69,120.595a2.995,2.995,0,1,1-2.995-2.995A3.064,3.064,0,0,1,96.69,120.595Z" transform="translate(-32.92 -22.544)"/><circle class="c" cx="1.741" cy="1.741" r="1.741" transform="translate(14.67 53.176)"/></g></g></g><g transform="matrix(0.695, 0.719, -0.719, 0.695, -772.791, -1072.939)"><ellipse class="k" cx="30.142" cy="15.281" rx="30.142" ry="15.281" transform="translate(1519 -22.487)"/><g class="x" transform="matrix(0.69, -0.72, 0.72, 0.69, 1308.63, 189.43)"><ellipse class="l" cx="30.142" cy="15.281" rx="30.142" ry="15.281" transform="matrix(0.69, 0.72, -0.72, 0.69, 302.54, 0.29)"/></g><path class="m" d="M17.613,14.816a22.321,22.321,0,0,0-1.19-7.408A13.915,13.915,0,0,0,13.209,2a6.172,6.172,0,0,0-4.4-2A6.172,6.172,0,0,0,4.4,2,13.915,13.915,0,0,0,1.19,7.408,22.321,22.321,0,0,0,0,14.816a22.321,22.321,0,0,0,1.19,7.408A13.915,13.915,0,0,0,4.4,27.631a6.172,6.172,0,0,0,4.4,2,6.172,6.172,0,0,0,4.4-2,13.915,13.915,0,0,0,3.214-5.407A22.321,22.321,0,0,0,17.613,14.816ZM12.57,12.725q-.178,1.972-1.207,2.39,1.42,1.255.888,3.943a3.137,3.137,0,0,1-1.278,2.211,2.646,2.646,0,0,1-2.131-.06L8.416,23.9l-.959-.358.391-2.688-.746-.3-.426,2.629-.959-.418.391-2.688L4.19,19.237l.462-1.852q.71.358.71.3.32.119.426-.358l.639-4.3.107.06-.107-.06.462-3.047a.9.9,0,0,0-.462-.956,1.511,1.511,0,0,0-.32-.119l-.355-.119L6,7.05l1.953.777.391-2.688.959.418L8.913,8.185l.781.3.391-2.569.959.358-.391,2.688a4.43,4.43,0,0,1,1.491,1.374A3.953,3.953,0,0,1,12.57,12.725Zm-2.2,5.2a2.17,2.17,0,0,0-.675-2.031,5.849,5.849,0,0,0-1.527-.836L7.919,15,7.386,18.58l.213.06a4.173,4.173,0,0,0,1.562.478Q10.191,19.118,10.369,17.923Zm.32-5.257a1.962,1.962,0,0,0-.568-1.792,4.352,4.352,0,0,0-1.278-.717l-.178-.06-.5,3.226.178.119a3.734,3.734,0,0,0,1.314.358Q10.511,13.741,10.688,12.666Z" transform="translate(1534.145 -4.879) rotate(-89)"/></g><g transform="matrix(0.423, 0.906, -0.906, 0.423, -331.651, -1297.478)"><ellipse class="k" cx="18.228" cy="9.241" rx="18.228" ry="9.241" transform="translate(1519 -24.666)"/><g class="w" transform="matrix(0.42, -0.91, 0.91, 0.42, 1316.08, 247.76)"><ellipse class="n" cx="18.228" cy="9.241" rx="18.228" ry="9.241" transform="matrix(0.42, 0.91, -0.91, 0.42, 335.68, 67.37)"/></g><path class="m" d="M10.651,8.96a13.5,13.5,0,0,0-.719-4.48A8.415,8.415,0,0,0,7.988,1.21,3.732,3.732,0,0,0,5.325,0,3.732,3.732,0,0,0,2.663,1.21,8.415,8.415,0,0,0,.719,4.48,13.5,13.5,0,0,0,0,8.96a13.5,13.5,0,0,0,.719,4.48,8.415,8.415,0,0,0,1.943,3.27,3.732,3.732,0,0,0,2.663,1.21,3.732,3.732,0,0,0,2.663-1.21,8.415,8.415,0,0,0,1.943-3.27A13.5,13.5,0,0,0,10.651,8.96ZM7.6,7.7q-.107,1.192-.73,1.445a2.365,2.365,0,0,1,.537,2.384,1.9,1.9,0,0,1-.773,1.337,1.6,1.6,0,0,1-1.288-.036l-.258,1.626-.58-.217.236-1.626-.451-.181-.258,1.59-.58-.253.236-1.626-1.16-.506.279-1.12q.429.217.429.181.193.072.258-.217l.387-2.6.064.036-.064-.036.279-1.843a.544.544,0,0,0-.279-.578.914.914,0,0,0-.193-.072l-.215-.072.15-1.048,1.181.47.236-1.626.58.253L5.39,4.95l.472.181L6.1,3.577l.58.217L6.442,5.419a2.679,2.679,0,0,1,.9.831A2.391,2.391,0,0,1,7.6,7.7ZM6.27,10.839A1.312,1.312,0,0,0,5.862,9.61,3.537,3.537,0,0,0,4.939,9.1l-.15-.036-.322,2.168.129.036a2.524,2.524,0,0,0,.945.289Q6.163,11.561,6.27,10.839Zm.193-3.179A1.187,1.187,0,0,0,6.12,6.575a2.632,2.632,0,0,0-.773-.434l-.107-.036-.3,1.951.107.072a2.258,2.258,0,0,0,.795.217Q6.356,8.31,6.463,7.659Z" transform="translate(1528.159 -14.018) rotate(-89)"/></g><g transform="matrix(0.423, 0.906, -0.906, 0.423, -376.285, -1307.346)"><ellipse class="k" cx="12.938" cy="6.559" rx="12.938" ry="6.559" transform="translate(1519 -25.634)"/><g class="v" transform="matrix(0.42, -0.91, 0.91, 0.42, 1343.88, 211.48)"><ellipse class="n" cx="12.938" cy="6.559" rx="12.938" ry="6.559" transform="matrix(0.42, 0.91, -0.91, 0.42, 291.05, 57.5)"/></g><path class="m" d="M7.56,6.36a9.581,9.581,0,0,0-.511-3.18A5.973,5.973,0,0,0,5.67.859,2.649,2.649,0,0,0,3.78,0,2.649,2.649,0,0,0,1.89.859,5.973,5.973,0,0,0,.511,3.18,9.581,9.581,0,0,0,0,6.36,9.581,9.581,0,0,0,.511,9.54,5.973,5.973,0,0,0,1.89,11.86a2.649,2.649,0,0,0,1.89.859,2.649,2.649,0,0,0,1.89-.859A5.973,5.973,0,0,0,7.049,9.54,9.581,9.581,0,0,0,7.56,6.36ZM5.4,5.462q-.076.846-.518,1.026A1.679,1.679,0,0,1,5.258,8.18a1.346,1.346,0,0,1-.549.949A1.136,1.136,0,0,1,3.8,9.1l-.183,1.154L3.2,10.1,3.368,8.95l-.32-.128L2.865,9.95l-.412-.18.168-1.154L1.8,8.257,2,7.462q.3.154.3.128.137.051.183-.154L2.759,5.59l.046.026L2.759,5.59l.2-1.308a.386.386,0,0,0-.2-.41.649.649,0,0,0-.137-.051L2.469,3.77l.107-.744.838.333.168-1.154.412.18L3.826,3.513l.335.128.168-1.1.412.154L4.573,3.847a1.9,1.9,0,0,1,.64.59A1.7,1.7,0,0,1,5.4,5.462ZM4.451,7.693a.932.932,0,0,0-.29-.872,2.511,2.511,0,0,0-.655-.359L3.4,6.437,3.17,7.975,3.262,8a1.791,1.791,0,0,0,.671.205Q4.374,8.206,4.451,7.693Zm.137-2.257a.842.842,0,0,0-.244-.769A1.868,1.868,0,0,0,3.8,4.359l-.076-.026L3.506,5.719l.076.051a1.6,1.6,0,0,0,.564.154Q4.512,5.9,4.588,5.437Z" transform="translate(1525.501 -18.076) rotate(-89)"/></g><rect class="c" width="60" height="4" rx="2" transform="translate(387.265 275.886) rotate(16)"/><g transform="translate(-2679.754 -68.248)"><path class="e" d="M6.4,917.606,60.508,893.6l73.816,29.383L80.216,947.705Z" transform="translate(3078.781 -639.792)"/><path class="f" d="M0,0,75.608,29.566v99.075L0,99.075Z" transform="translate(3137.497 253)"/><path class="f" d="M0,0,75.608,29.741l.224,98.867L0,99.661Z" transform="translate(3083.748 277.411)"/><path class="g" d="M0-87.075,53.57-112.2v98.85L0,10.929Z" transform="translate(3159.221 394.945)"/><g transform="matrix(0.956, 0.292, -0.292, 0.956, 3088.787, 318.072)"><g transform="translate(0 0)"><path class="h" d="M0,0V15.962l13.911,4.452-.865,16.727" transform="translate(5.674 25.087) rotate(-17)"/><path class="h" d="M40.253,0,24.2.415l4.34,19.3L0,18.658" transform="translate(28.193 22.133)"/><path class="h" d="M0,0,20.948,0,26.1,23.418l43.7,3.076" transform="translate(20.339 29.994)"/><path class="c" d="M9.509,5.158H2.579A2.593,2.593,0,0,1,0,2.579H0A2.593,2.593,0,0,1,2.579,0H9.509a2.593,2.593,0,0,1,2.579,2.579h0A2.593,2.593,0,0,1,9.509,5.158Z" transform="matrix(0.999, -0.035, 0.035, 0.999, 26.318, 7.949)"/><path class="c" d="M6.326,3.791H1.9A1.905,1.905,0,0,1,0,1.9H0A1.905,1.905,0,0,1,1.9,0H6.3A1.905,1.905,0,0,1,8.2,1.9h0A1.871,1.871,0,0,1,6.326,3.791Z" transform="translate(4.973 10.682)"/><path class="c" d="M7.067,3.72H1.86A1.865,1.865,0,0,1,0,1.86H0A1.865,1.865,0,0,1,1.86,0H7.067a1.865,1.865,0,0,1,1.86,1.86h0A1.842,1.842,0,0,1,7.067,3.72Z" transform="translate(59.105 6.841)"/><circle class="c" cx="3.236" cy="3.236" r="3.236" transform="translate(16.624 32.024) rotate(-76.767)"/><circle class="c" cx="3.236" cy="3.236" r="3.236" transform="translate(1.244 25.557) rotate(-76.767)"/><circle class="c" cx="2.702" cy="2.702" r="2.702" transform="translate(65.602 24.438) rotate(-76.767)"/><circle class="c" cx="1.674" cy="1.674" r="1.674" transform="translate(73.493 21.293)"/><path class="c" d="M1.785.893a.905.905,0,0,1-.893.893A.905.905,0,0,1,0,.893.905.905,0,0,1,.893,0,.859.859,0,0,1,1.785.893Z" transform="translate(60.275 3.769)"/><path class="c" d="M3.2,1.6A1.588,1.588,0,0,1,1.6,3.2,1.588,1.588,0,0,1,0,1.6,1.588,1.588,0,0,1,1.6,0,1.636,1.636,0,0,1,3.2,1.6Z" transform="translate(30.723 22.366)"/><circle class="c" cx="0.93" cy="0.93" r="0.93" transform="translate(7.7 0)"/></g></g><path class="f" d="M929,1867.83l74.241,29.9,54.567-24.971-76.455-29.6Z" transform="translate(2155.753 -1589.752)"/></g><g transform="matrix(0.695, 0.719, -0.719, 0.695, -689.272, -1025.368)"><ellipse class="k" cx="21.495" cy="10.897" rx="21.495" ry="10.897" transform="translate(1519 -28)"/><g class="u" transform="matrix(0.69, -0.72, 0.72, 0.69, 1216.4, 216.46)"><ellipse class="l" cx="21.495" cy="10.897" rx="21.495" ry="10.897" transform="matrix(0.69, 0.72, -0.72, 0.69, 383.23, 50.59)"/></g><path class="m" d="M0,10.717a16.144,16.144,0,0,0,.86,5.358,10.065,10.065,0,0,0,2.324,3.911A4.464,4.464,0,0,0,6.37,21.433a4.464,4.464,0,0,0,3.185-1.448,10.065,10.065,0,0,0,2.324-3.911,16.144,16.144,0,0,0,.86-5.358,16.144,16.144,0,0,0-.86-5.358A10.065,10.065,0,0,0,9.554,1.448,4.464,4.464,0,0,0,6.37,0,4.464,4.464,0,0,0,3.185,1.448,10.065,10.065,0,0,0,.86,5.358,16.145,16.145,0,0,0,0,10.717Zm3.647,1.512Q3.776,10.8,4.52,10.5a2.829,2.829,0,0,1-.642-2.852A2.269,2.269,0,0,1,4.8,6.05a1.914,1.914,0,0,1,1.541.043l.308-1.945.693.259L7.063,6.352l.539.216.308-1.9.693.3L8.322,6.914l1.387.6-.334,1.34q-.514-.259-.514-.216-.231-.086-.308.259L8.09,12.013l-.077-.043.077.043-.334,2.2a.651.651,0,0,0,.334.691,1.093,1.093,0,0,0,.231.086l.257.086L8.4,16.334l-1.413-.562L6.7,17.717l-.693-.3.283-1.9L5.727,15.3l-.283,1.858L4.751,16.9l.283-1.945a3.2,3.2,0,0,1-1.079-.994A2.859,2.859,0,0,1,3.647,12.229ZM5.239,8.47a1.57,1.57,0,0,0,.488,1.469,4.231,4.231,0,0,0,1.1.6l.18.043L7.4,7.994l-.154-.043a3.019,3.019,0,0,0-1.13-.346Q5.368,7.605,5.239,8.47Zm-.231,3.8a1.419,1.419,0,0,0,.411,1.3,3.148,3.148,0,0,0,.925.519l.128.043.36-2.333L6.7,11.711a2.7,2.7,0,0,0-.95-.259Q5.137,11.495,5.008,12.272Z" transform="translate(1551.078 -19.224) rotate(89)"/></g><g class="t" transform="matrix(1, 0, 0, 1, 0, 0)"><path class="m" d="M87.389,54.76q-9.832-8.06-19.727-16A1.781,1.781,0,0,1,67,37.214c.032-2.809,0-5.659,0-8.712,1.639,1.262,3.12,2.442,4.6,3.623,5.2,4.071,10.368,8.143,15.568,12.3a1.249,1.249,0,0,0,1.8.041c6.429-4.642,13.046-8.876,19.223-14.087a2.074,2.074,0,0,1,.567-.326q.024.026.046.053-.021-.027-.046-.053c.126-.163.284-.325.41-.488V40.144h-.157a36.488,36.488,0,0,1-4.381,3.257c-3.4,2.484-6.807,4.927-10.242,7.37-1.891,1.343-3.782,2.687-5.641,4.07a1.079,1.079,0,0,1-.628.251A1.188,1.188,0,0,1,87.389,54.76Zm.095-16.243c-3.057-2.484-6.145-4.967-9.2-7.451a1.4,1.4,0,0,1-.536-1.262c.032-4.315.032-8.591,0-12.906,0-.569.064-.977.5-1.262,1.04-.733,2.08-1.506,3.12-2.279A7.035,7.035,0,0,0,84.4,15.636l3.563,2.544V18.16a24.89,24.89,0,0,0,4.507-2.687c-1.355-.9-2.521-1.71-3.719-2.483-.158-.123-.347-.285-.567-.164A12.943,12.943,0,0,0,84.364,15.6a7.387,7.387,0,0,1-3.026-2.28c1.8-1.385,3.561-2.809,5.357-4.153a2.549,2.549,0,0,1,3.151.244c2.489,1.832,4.948,3.665,7.438,5.537a2.308,2.308,0,0,1,.882,2c-.032,2.524-.032,5.088,0,7.613a1.572,1.572,0,0,1-.693,1.507c-.756.529-1.449,1.14-2.363,1.831V19.707c0-1.506,0-1.466-1.072-.773a16.591,16.591,0,0,1-3.466,2.035,11.531,11.531,0,0,1-2.144,1.547c-.378.285-.693-.041-1.008-.244-1.8-1.181-3.624-2.362-5.42-3.583-.63-.448-.946-.488-.914.652.031,2.687.031,5.333,0,8.02a1.607,1.607,0,0,0,.63,1.466c1.891,1.506,3.781,3.053,5.609,4.682.5.448.883.325,1.355,0,3.12-2.239,6.334-4.315,9.485-7v4.4a1.1,1.1,0,0,1-.473.937c-3.12,2.279-6.271,4.518-9.391,6.8a.574.574,0,0,1-.331.122A.824.824,0,0,1,87.484,38.517Zm1.639-19.054c.354.286.849.391,1.166.8-.319-.408-.821-.522-1.2-.837-.319-.286-.792-.349-1.015-.787C88.281,19.111,88.793,19.169,89.123,19.463ZM72.358,31.84c-1.576-1.222-3.12-2.443-4.665-3.7a1.26,1.26,0,0,1-.629-1.141c-.032-5.863-.032-11.725-.032-17.832,2.3,1.506,4.475,2.972,6.65,4.438.315.2.315.61.315.977v18.4A4.626,4.626,0,0,1,72.358,31.84ZM102.8,18.079c-.032-1.71.473-3.7-.19-5.048-.661-1.262-2.111-1.832-3.214-2.687-3.277-2.524-6.586-4.967-9.863-7.532a1.246,1.246,0,0,0-1.733-.04Q82.788,6.435,77.778,9.977c-.315.244-.661.407-.977.61-1.7-1.3-3.466-2.483-5.231-3.664C71.1,6.6,70.5,6.435,70.4,5.539c4.412-3.379,8.823-6.717,13.235-10.178A15.51,15.51,0,0,1,87.421-7h1.8a16.383,16.383,0,0,1,4.065,2.158c4.443,3.38,8.918,6.758,13.425,10.056A7.114,7.114,0,0,1,109.2,8.226c-.032,2.891-.032,5.66-.032,8.387-1.859,1.3-3.561,3.013-5.357,4.438a10.608,10.608,0,0,0-1.008.855C102.8,20.522,102.831,19.3,102.8,18.079ZM71.79,11.239C70.341,10.1,68.8,9.2,67.126,8.063c1.166-.9,2.206-1.669,3.245-2.4.063.9.693,1.058,1.166,1.385,1.765,1.14,3.53,2.32,5.231,3.664-.22.285-.567.325-.756.529a2.355,2.355,0,0,1-1.855,1.146A4.2,4.2,0,0,1,71.79,11.239Z" transform="translate(200.42 149.26) rotate(1)"/></g><path class="o" d="M787.6,1857.626" transform="translate(-524 -1658)"/><ellipse class="c" cx="8.512" cy="4.29" rx="8.512" ry="4.29" transform="translate(243.094 491.565)"/><ellipse class="c" cx="8.512" cy="4.29" rx="8.512" ry="4.29" transform="translate(86.094 463.565)"/><g transform="translate(160 240)"><path class="f" d="M39.1,35.8,19.5,47.1,0,35.8,19.5,24.6Z"/><path class="c" d="M19.5,54.3,0,43.1V35.8L19.5,47.1Z"/><path class="p" d="M39.1,43.1,19.5,54.3V47.1L39.1,35.8Z"/><path class="q" d="M25,35.9V32.1s-11.1.1-11,.2v3.6a2.429,2.429,0,0,0,1.6,2.4,8.9,8.9,0,0,0,7.8,0C24.6,37.6,25.1,36.7,25,35.9Z"/><ellipse class="r" cx="5.5" cy="3.2" rx="5.5" ry="3.2" transform="translate(14 29)"/><path class="f" d="M39.1,27.7,19.5,38.9,0,27.7,19.5,16.4Z"/><path class="c" d="M19.5,46.1,0,34.9V27.7L19.5,38.9Z"/><path class="p" d="M39.1,34.9,19.5,46.1V38.9L39.1,27.7Z"/><path class="q" d="M25,27.7V23.9s-11.1.1-11,.2v3.6a2.429,2.429,0,0,0,1.6,2.4,8.9,8.9,0,0,0,7.8,0C24.6,29.4,25.1,28.6,25,27.7Z"/><path class="r" d="M23.4,21.7c2.2,1.2,2.2,3.3,0,4.5a8.9,8.9,0,0,1-7.8,0c-2.2-1.2-2.2-3.3,0-4.5A8.9,8.9,0,0,1,23.4,21.7Z"/><path class="f" d="M39.1,19.5,19.5,30.7,0,19.5,19.5,8.2Z"/><path class="c" d="M19.5,38,0,26.7V19.5L19.5,30.7Z"/><path class="p" d="M39.1,26.7,19.5,38V30.7L39.1,19.5Z"/><path class="q" d="M25,19.5V15.7s-11.1.1-11,.2v3.6a2.429,2.429,0,0,0,1.6,2.4,8.9,8.9,0,0,0,7.8,0A2.429,2.429,0,0,0,25,19.5Z"/><ellipse class="r" cx="5.5" cy="3.2" rx="5.5" ry="3.2" transform="translate(14 12.6)"/><path class="f" d="M39.1,11.3,19.5,22.6,0,11.3,19.5,0Z"/><path class="c" d="M19.5,29.8,0,18.5V11.3L19.5,22.6Z"/><path class="p" d="M39.1,18.5,19.5,29.8V22.6L39.1,11.3Z"/><path class="c" d="M25,11.3V7.5s-11.1.1-11,.2v3.6a2.429,2.429,0,0,0,1.6,2.4,8.9,8.9,0,0,0,7.8,0A2.429,2.429,0,0,0,25,11.3Z"/><ellipse class="s" cx="5.5" cy="3.2" rx="5.5" ry="3.2" transform="translate(14 4.4)"/></g><g transform="translate(406 318)"><path class="f" d="M39.1,35.8,19.5,47.1,0,35.8,19.5,24.6Z"/><path class="c" d="M19.5,54.3,0,43.1V35.8L19.5,47.1Z"/><path class="p" d="M39.1,43.1,19.5,54.3V47.1L39.1,35.8Z"/><path class="q" d="M25,35.9V32.1s-11.1.1-11,.2v3.6a2.429,2.429,0,0,0,1.6,2.4,8.9,8.9,0,0,0,7.8,0C24.6,37.6,25.1,36.7,25,35.9Z"/><ellipse class="r" cx="5.5" cy="3.2" rx="5.5" ry="3.2" transform="translate(14 29)"/><path class="f" d="M39.1,27.7,19.5,38.9,0,27.7,19.5,16.4Z"/><path class="c" d="M19.5,46.1,0,34.9V27.7L19.5,38.9Z"/><path class="p" d="M39.1,34.9,19.5,46.1V38.9L39.1,27.7Z"/><path class="q" d="M25,27.7V23.9s-11.1.1-11,.2v3.6a2.429,2.429,0,0,0,1.6,2.4,8.9,8.9,0,0,0,7.8,0C24.6,29.4,25.1,28.6,25,27.7Z"/><path class="r" d="M23.4,21.7c2.2,1.2,2.2,3.3,0,4.5a8.9,8.9,0,0,1-7.8,0c-2.2-1.2-2.2-3.3,0-4.5A8.9,8.9,0,0,1,23.4,21.7Z"/><path class="f" d="M39.1,19.5,19.5,30.7,0,19.5,19.5,8.2Z"/><path class="c" d="M19.5,38,0,26.7V19.5L19.5,30.7Z"/><path class="p" d="M39.1,26.7,19.5,38V30.7L39.1,19.5Z"/><path class="q" d="M25,19.5V15.7s-11.1.1-11,.2v3.6a2.429,2.429,0,0,0,1.6,2.4,8.9,8.9,0,0,0,7.8,0A2.429,2.429,0,0,0,25,19.5Z"/><ellipse class="r" cx="5.5" cy="3.2" rx="5.5" ry="3.2" transform="translate(14 12.6)"/><path class="f" d="M39.1,11.3,19.5,22.6,0,11.3,19.5,0Z"/><path class="c" d="M19.5,29.8,0,18.5V11.3L19.5,22.6Z"/><path class="p" d="M39.1,18.5,19.5,29.8V22.6L39.1,11.3Z"/><path class="c" d="M25,11.3V7.5s-11.1.1-11,.2v3.6a2.429,2.429,0,0,0,1.6,2.4,8.9,8.9,0,0,0,7.8,0A2.429,2.429,0,0,0,25,11.3Z"/><ellipse class="s" cx="5.5" cy="3.2" rx="5.5" ry="3.2" transform="translate(14 4.4)"/></g></g></svg>