<svg xmlns="http://www.w3.org/2000/svg" xmlns:xlink="http://www.w3.org/1999/xlink" viewBox="0 0 59.053 62.526">
  <defs>
    <style>
      .cls-1 {
        fill: url(#linear-gradient);
      }

      .cls-2 {
        fill: #fff;
      }

      .cls-3 {
        filter: url(#social-back);
      }
    </style>
    <linearGradient id="linear-gradient" x1="0.5" x2="0.5" y2="1" gradientUnits="objectBoundingBox">
      <stop offset="0" stop-color="#2359f1"/>
      <stop offset="1" stop-color="#0aadf3"/>
    </linearGradient>
    <filter id="social-back" x="0" y="0" width="59.053" height="62.526" filterUnits="userSpaceOnUse">
      <feOffset dy="3" input="SourceAlpha"/>
      <feGaussianBlur stdDeviation="5" result="blur"/>
      <feFlood flood-opacity="0.161"/>
      <feComposite operator="in" in2="blur"/>
      <feComposite in="SourceGraphic"/>
    </filter>
  </defs>
  <g id="dc" transform="translate(-435 -12171)">
    <g class="cls-3" transform="matrix(1, 0, 0, 1, 435, 12171)">
      <path id="social-back-2" data-name="social-back" class="cls-1" d="M14.916,33.026a3.4,3.4,0,0,1-1.565-.407L1.965,26.037A3.125,3.125,0,0,1,.4,23.335V8.39L13.372.907A3.047,3.047,0,0,1,14.937.5,3.4,3.4,0,0,1,16.5.907L27.888,7.49a3.125,3.125,0,0,1,1.565,2.7V25.136L16.5,32.619A3.181,3.181,0,0,1,14.916,33.026Z" transform="translate(14.6 11.5)"/>
    </g>
    <path id="Path_4232" data-name="Path 4232" class="cls-2" d="M2-5.605a.769.769,0,0,0-.205-.547.666.666,0,0,0-.506-.219.666.666,0,0,0-.506.219.769.769,0,0,0-.205.547.818.818,0,0,0,.205.561.648.648,0,0,0,.506.232.648.648,0,0,0,.506-.232A.818.818,0,0,0,2-5.605Zm-3.254-.766a.666.666,0,0,1,.506.219.769.769,0,0,1,.205.547.818.818,0,0,1-.205.561.648.648,0,0,1-.506.232.648.648,0,0,1-.506-.232.818.818,0,0,1-.205-.561.769.769,0,0,1,.205-.547A.666.666,0,0,1-1.258-6.371ZM6.125-10.8A1.4,1.4,0,0,0,5.7-11.826a1.366,1.366,0,0,0-1-.424H-4.7a1.366,1.366,0,0,0-1,.424A1.4,1.4,0,0,0-6.125-10.8V-1.34A1.4,1.4,0,0,0-5.7-.314a1.366,1.366,0,0,0,1,.424H3.254L2.871-1.2l.52.492Q4.594.383,5.441,1.148l.684.6Zm-2,6.617L4.02-4.02a2.39,2.39,0,0,1-.383.355,1.922,1.922,0,0,1-.656.355A2.56,2.56,0,0,1,2-3.117l-.465-.547A3.078,3.078,0,0,0,2.27-4.02a2.315,2.315,0,0,0,.41-.328l.109-.164A2.989,2.989,0,0,1,2-4.1a5.008,5.008,0,0,1-2.324.383,5.187,5.187,0,0,1-2.051-.629l-.3-.164.137.164a3.57,3.57,0,0,0,.383.328,2.523,2.523,0,0,0,.711.328l-.465.574A2.56,2.56,0,0,1-2.9-3.309a1.922,1.922,0,0,1-.656-.355,2.39,2.39,0,0,1-.383-.355l-.109-.164a8.251,8.251,0,0,1,.273-2.051,7.479,7.479,0,0,1,.465-1.449l.273-.574a3.742,3.742,0,0,1,.957-.52,3.431,3.431,0,0,1,.711-.191l.3-.027.055.082a6.485,6.485,0,0,0-1.039.41,4.757,4.757,0,0,0-.6.355l-.191.164.41-.219A6.352,6.352,0,0,1,.191-8.7a5.391,5.391,0,0,1,2.6.711h0a2.173,2.173,0,0,0-.41-.3,6.225,6.225,0,0,0-1.312-.6L1.148-9h0a2.753,2.753,0,0,1,.6.082,3.95,3.95,0,0,1,1.367.656h0a10.217,10.217,0,0,1,.52,1.2A9.055,9.055,0,0,1,4.129-4.184Z" transform="translate(464.508 12204.632)"/>
  </g>
</svg>
