<svg xmlns="http://www.w3.org/2000/svg" xmlns:xlink="http://www.w3.org/1999/xlink" viewBox="0 0 509.337 388.689">
  <defs>
    <style>
      .cls-1, .cls-4, .cls-5 {
        fill: #6affe1;
      }

      .cls-1 {
        opacity: 0.15;
      }

      .cls-2 {
        fill: #16307a;
        opacity: 0.57;
      }

      .cls-3 {
        opacity: 0.28;
      }

      .cls-5 {
        opacity: 0.26;
      }

      .cls-10, .cls-6 {
        fill: #6c63ff;
      }

      .cls-23, .cls-6, .cls-8 {
        opacity: 0.1;
      }

      .cls-7 {
        fill: url(#linear-gradient);
      }

      .cls-9 {
        fill: #e6e8ec;
      }

      .cls-11 {
        opacity: 0.2;
      }

      .cls-12 {
        fill: url(#linear-gradient-2);
      }

      .cls-13 {
        fill: #f5ecd0;
      }

      .cls-14 {
        fill: #444053;
      }

      .cls-15 {
        opacity: 0.05;
      }

      .cls-16 {
        fill: #85d459;
      }

      .cls-17, .cls-19 {
        fill: #575988;
      }

      .cls-18 {
        fill: #dce6f2;
      }

      .cls-19 {
        opacity: 0.5;
      }

      .cls-20 {
        fill: #67647e;
      }

      .cls-21 {
        fill: #585268;
      }

      .cls-22 {
        fill: #e4aab4;
      }
    </style>
    <linearGradient id="linear-gradient" x1="0.5" x2="0.5" y2="1" gradientUnits="objectBoundingBox">
      <stop offset="0" stop-color="#abdcff"/>
      <stop offset="1" stop-color="#0396ff"/>
    </linearGradient>
    <linearGradient id="linear-gradient-2" x1="0.871" y1="1" x2="0.871" gradientUnits="objectBoundingBox">
      <stop offset="0" stop-color="gray" stop-opacity="0.251"/>
      <stop offset="0.54" stop-color="gray" stop-opacity="0.122"/>
      <stop offset="1" stop-color="gray" stop-opacity="0.102"/>
    </linearGradient>
  </defs>
  <g id="ico-1" transform="translate(-0.023 0.02)">
    <path id="Path_3246" data-name="Path 3246" class="cls-1" d="M377.139,125.829c-32.087-1.116-62.647-11.472-91.834-22.806s-58.086-23.887-89.4-29.9c-20.144-3.862-43.178-4.408-59.41,6.391-15.617,10.411-20.664,28.334-23.381,44.982-2.038,12.523-3.237,25.706,2.355,37.432,3.882,8.141,10.778,14.983,15.548,22.776,16.589,27.129,4.864,60.6-13.109,87.074-8.428,12.429-18.215,24.293-24.725,37.511s-9.519,28.384-3.827,41.879c5.647,13.386,19.1,23.421,33.669,30.486,29.588,14.378,64.452,18.458,98.468,20.783,75.27,5.151,150.946,2.92,226.414.689,27.932-.828,55.984-1.666,83.465-5.984,15.255-2.395,31.011-6.2,42.087-15.369,14.06-11.666,17.546-31.418,8.126-46.048-15.806-24.536-59.494-30.63-70.555-56.961-6.083-14.5.164-30.639,9-44.085,18.959-28.835,50.734-54.135,52.409-87.094,1.15-22.637-14.125-45.31-37.744-56.024-24.759-11.225-59.087-9.812-77.342,8.77C438.517,119.449,405.458,126.821,377.139,125.829Z" transform="translate(-86.32 -64.372)"/>
    <ellipse id="Ellipse_421" data-name="Ellipse 421" class="cls-2" cx="183.926" cy="13.674" rx="183.926" ry="13.674" transform="translate(103.536 346.543)"/>
    <g id="Group_2436" data-name="Group 2436" class="cls-3">
      <path id="Path_3247" data-name="Path 3247" class="cls-4" d="M379.26,695.106s10.411-1.666,16.658,5.7c0,0-4.581,3.609-14.437-1.388Z" transform="translate(-234.013 -379.178)"/>
      <path id="Path_3248" data-name="Path 3248" class="cls-4" d="M372.647,695s-6.639,8.19-3.381,17.278c0,0,5.414-2.172,6-13.208Z" transform="translate(-228.52 -379.206)"/>
      <path id="Path_3249" data-name="Path 3249" class="cls-4" d="M365,665.143s4.165-7.635,20.823,3.054c0,0-2.221,5.136-9.579,4.72S366.934,669.194,365,665.143Z" transform="translate(-226.823 -362.82)"/>
      <path id="Path_3250" data-name="Path 3250" class="cls-4" d="M353.169,666.712s-8.641-.992-9.479,18.8c0,0,5.478,1.135,9.37-5.121S355.346,670.618,353.169,666.712Z" transform="translate(-216.078 -364.938)"/>
      <path id="Path_3251" data-name="Path 3251" class="cls-4" d="M352.66,627.449s4.859-13.465,22.489-3.887c0,0-4.026,12.355-20.684,8.468Z" transform="translate(-220.601 -341.451)"/>
      <path id="Path_3252" data-name="Path 3252" class="cls-4" d="M341.73,587.839s9.167-13.609,25.409-.992c0,0-5.692,12.771-24.021,5.83Z" transform="translate(-215.09 -321.97)"/>
      <path id="Path_3253" data-name="Path 3253" class="cls-4" d="M337.81,550s10.694-12.494,26.8,0c0,0-10.134,10.967-26.8,3.193Z" transform="translate(-213.114 -303.296)"/>
      <path id="Path_3254" data-name="Path 3254" class="cls-4" d="M334.45,512.017s10.833-13.049,26.242-.694c0,0-12.216,11.522-26.242,3.748Z" transform="translate(-211.419 -283.912)"/>
      <path id="Path_3255" data-name="Path 3255" class="cls-4" d="M336.41,475.278s11.4-16.8,25.825-5.414c0,0-12.216,14.437-25.825,8.607Z" transform="translate(-212.408 -263.692)"/>
      <path id="Path_3256" data-name="Path 3256" class="cls-4" d="M341.73,437.027s12.082-16.658,26.1-3.887c0,0-14.3,14.442-26.1,6.941Z" transform="translate(-215.09 -244.742)"/>
      <path id="Path_3257" data-name="Path 3257" class="cls-4" d="M349.225,400.019s14.3-15.652,26.772-9.42c0,0-14.9,16.624-27.4,13.57Z" transform="translate(-218.554 -224.983)"/>
      <path id="Path_3258" data-name="Path 3258" class="cls-4" d="M358.75,363.806s16.52-19.157,26.1-12.771c0,0-12.157,14.874-27.268,16.361Z" transform="translate(-223.082 -205.116)"/>
      <path id="Path_3259" data-name="Path 3259" class="cls-4" d="M372.518,327.269s14.442-15.657,24.992-11.77c0,0-12.355,16.242-26.931,16.658Z" transform="translate(-229.637 -187.543)"/>
      <path id="Path_3260" data-name="Path 3260" class="cls-4" d="M386.954,291.2s15.964-15,22.905-12.36c0,0-11.522,16.663-23.6,15.692Z" transform="translate(-237.543 -169.216)"/>
      <path id="Path_3261" data-name="Path 3261" class="cls-4" d="M400.54,254.121s13.743-17.908,21.239-16.52c0,0-8.329,15.964-21.239,18.344Z" transform="translate(-244.743 -148.54)"/>
      <path id="Path_3262" data-name="Path 3262" class="cls-4" d="M414.011,212.568s12.147-13.733,18.706-13.7c0,0-9.588,18.344-19.207,18.175Z" transform="translate(-251.283 -129.049)"/>
      <path id="Path_3263" data-name="Path 3263" class="cls-4" d="M421.282,167.752l11.73-28.6s.59,25.855-13.223,33.907Z" transform="translate(-254.449 -98.937)"/>
      <path id="Path_3264" data-name="Path 3264" class="cls-4" d="M432.324,106.96s1.943-23.877.694-25.82c0,0,8.389,19.831-.778,36.371Z" transform="translate(-260.727 -69.688)"/>
      <path id="Path_3265" data-name="Path 3265" class="cls-4" d="M331.355,632.7s-12.167-7.541-20.045,10.907c0,0,10.828,7.184,21.472-6.2Z" transform="translate(-199.752 -347.023)"/>
      <path id="Path_3266" data-name="Path 3266" class="cls-4" d="M318.456,591.563s-14.923-6.807-22.166,12.454c0,0,11.532,7.933,23.525-7.585Z" transform="translate(-192.179 -326.463)"/>
      <path id="Path_3267" data-name="Path 3267" class="cls-4" d="M309.182,552.353s-10.689-12.494-26.772,0c0,0,10.134,10.967,26.772,3.193Z" transform="translate(-185.18 -304.481)"/>
      <path id="Path_3268" data-name="Path 3268" class="cls-4" d="M307.032,512.017s-10.828-13.049-26.242-.694c0,0,12.221,11.522,26.242,3.748Z" transform="translate(-184.363 -283.912)"/>
      <path id="Path_3269" data-name="Path 3269" class="cls-4" d="M311.895,472.8s-7.6-18.84-24.1-10.724c0,0,8.924,16.683,23.436,13.842Z" transform="translate(-187.893 -260.738)"/>
      <path id="Path_3270" data-name="Path 3270" class="cls-4" d="M318.953,432.863S311.408,413.72,294.66,422.6c0,0,10.253,17.546,23.55,13.223Z" transform="translate(-191.357 -240.672)"/>
      <path id="Path_3271" data-name="Path 3271" class="cls-4" d="M335.957,388.036s-2.975-20.987-16.857-22.866c0,0,2.94,22.132,14.983,26.648Z" transform="translate(-203.68 -212.9)"/>
      <path id="Path_3272" data-name="Path 3272" class="cls-4" d="M347.8,351.583s-1.16-25.285-12.638-26.163c0,0,.387,19.192,11.344,29.747Z" transform="translate(-211.777 -192.858)"/>
      <path id="Path_3273" data-name="Path 3273" class="cls-4" d="M362.268,314.409s-3.426-21.026-14.378-23.6c0,0,1.358,20.367,13.3,28.755Z" transform="translate(-218.196 -175.407)"/>
      <path id="Path_3274" data-name="Path 3274" class="cls-4" d="M382.386,278.841s-.119-21.9-6.807-25.121c0,0-4.155,19.831,4.869,27.918Z" transform="translate(-231.676 -156.705)"/>
      <path id="Path_3275" data-name="Path 3275" class="cls-4" d="M393.288,244.381s-.937-22.553-7.868-25.731c0,0-2.375,17.848,6.827,27.209Z" transform="translate(-236.981 -139.022)"/>
      <path id="Path_3276" data-name="Path 3276" class="cls-4" d="M409.752,207.092s-.045-18.344-4.988-22.642c0,0-4.923,20.094,2.4,26.336Z" transform="translate(-246.057 -121.778)"/>
      <path id="Path_3277" data-name="Path 3277" class="cls-4" d="M414.858,163.945l-4.809-30.535s-6.539,25.017,5.042,36.039Z" transform="translate(-248.61 -96.043)"/>
      <path id="Path_3278" data-name="Path 3278" class="cls-4" d="M411.208,110.616s-12.355-20.525-12.1-22.806c0,0,1.314,21.512,16.857,32.226Z" transform="translate(-244.018 -73.051)"/>
      <path id="Path_3279" data-name="Path 3279" class="cls-4" d="M409.216,89.522S397.555,60.37,392.28,58c0,0,16.658,8.468,17.908,30.679Z" transform="translate(-240.578 -58.02)"/>
      <path id="Path_3280" data-name="Path 3280" class="cls-4" d="M412.573,176.352l-.793-.248c9.841-32.087,12.3-52.553,6.911-57.679l.575-.6C424.973,123.234,422.657,143.472,412.573,176.352Z" transform="translate(-250.411 -88.182)"/>
      <path id="Path_3281" data-name="Path 3281" class="cls-5" d="M357.53,308.591l-1.18-.416c1.041-2.94,2.172-5.925,3.352-8.865,10.273-25.617,19.013-49.415,24.621-67.7l1.026-.5c-5.617,18.289-14.2,43.029-24.487,68.666C359.687,302.7,358.566,305.666,357.53,308.591Z" transform="translate(-222.462 -145.305)"/>
      <path id="Path_3282" data-name="Path 3282" class="cls-5" d="M370.1,561.244c-.159-.178-16.113-18.136-27.228-48.8a180.672,180.672,0,0,1-10.759-55.909c-.759-23.862,4.244-50.51,12.826-74.71l.932,1.091c-19.256,54.318-11.606,100.867-1.458,128.894,11,30.387,26.772,48.15,26.926,48.329Z" transform="translate(-210.203 -221.295)"/>
    </g>
    <ellipse id="Ellipse_422" data-name="Ellipse 422" class="cls-6" cx="13.351" cy="2.256" rx="13.351" ry="2.256" transform="translate(38.053 371.173)"/>
    <ellipse id="Ellipse_423" data-name="Ellipse 423" class="cls-6" cx="13.351" cy="2.256" rx="13.351" ry="2.256" transform="translate(461.542 371.173)"/>
    <ellipse id="Ellipse_424" data-name="Ellipse 424" class="cls-6" cx="13.351" cy="2.256" rx="13.351" ry="2.256" transform="translate(333.684 384.158)"/>
    <ellipse id="Ellipse_425" data-name="Ellipse 425" class="cls-6" cx="13.351" cy="2.256" rx="13.351" ry="2.256" transform="translate(482.657 351.619)"/>
    <ellipse id="Ellipse_426" data-name="Ellipse 426" class="cls-6" cx="13.351" cy="2.256" rx="13.351" ry="2.256" transform="translate(64.037 350.211)"/>
    <ellipse id="Ellipse_427" data-name="Ellipse 427" class="cls-6" cx="13.351" cy="2.256" rx="13.351" ry="2.256" transform="translate(9.189 356.543)"/>
    <rect id="Rectangle_1194" data-name="Rectangle 1194" class="cls-7" width="213.856" height="317.986" rx="9.8" transform="translate(150.105 39.524)"/>
    <rect id="Rectangle_1195" data-name="Rectangle 1195" class="cls-8" width="177.357" height="62.513" rx="29.21" transform="translate(169.679 66.856)"/>
    <rect id="Rectangle_1196" data-name="Rectangle 1196" class="cls-9" width="174.669" height="60.461" rx="10.2" transform="translate(170.819 68.076)"/>
    <rect id="Rectangle_1197" data-name="Rectangle 1197" class="cls-8" width="35.27" height="39.187" rx="10.79" transform="translate(175.856 155.408)"/>
    <rect id="Rectangle_1198" data-name="Rectangle 1198" class="cls-8" width="35.27" height="39.187" rx="10.79" transform="translate(218.965 155.408)"/>
    <rect id="Rectangle_1199" data-name="Rectangle 1199" class="cls-8" width="35.27" height="39.187" rx="10.79" transform="translate(262.073 155.408)"/>
    <rect id="Rectangle_1200" data-name="Rectangle 1200" class="cls-8" width="35.27" height="39.187" rx="17.635" transform="translate(305.181 156.241)"/>
    <rect id="Rectangle_1201" data-name="Rectangle 1201" class="cls-10" width="35.27" height="39.187" rx="10.79" transform="translate(305.181 155.408)"/>
    <rect id="Rectangle_1202" data-name="Rectangle 1202" class="cls-8" width="35.27" height="39.187" rx="10.79" transform="translate(175.856 198.516)"/>
    <rect id="Rectangle_1203" data-name="Rectangle 1203" class="cls-8" width="35.27" height="39.187" rx="10.79" transform="translate(218.965 198.516)"/>
    <rect id="Rectangle_1204" data-name="Rectangle 1204" class="cls-8" width="35.27" height="39.187" rx="10.79" transform="translate(262.073 198.516)"/>
    <rect id="Rectangle_1205" data-name="Rectangle 1205" class="cls-8" width="35.27" height="39.187" rx="10.79" transform="translate(175.856 246.102)"/>
    <rect id="Rectangle_1206" data-name="Rectangle 1206" class="cls-8" width="35.27" height="39.187" rx="10.79" transform="translate(218.965 246.102)"/>
    <rect id="Rectangle_1207" data-name="Rectangle 1207" class="cls-8" width="35.27" height="39.187" rx="10.79" transform="translate(262.073 246.102)"/>
    <rect id="Rectangle_1208" data-name="Rectangle 1208" class="cls-8" width="35.27" height="39.187" rx="10.79" transform="translate(262.073 293.687)"/>
    <rect id="Rectangle_1209" data-name="Rectangle 1209" class="cls-8" width="35.27" height="39.187" rx="17.635" transform="translate(305.181 199.349)"/>
    <rect id="Rectangle_1210" data-name="Rectangle 1210" class="cls-10" width="35.27" height="39.187" rx="11.3" transform="translate(305.181 198.516)"/>
    <rect id="Rectangle_1211" data-name="Rectangle 1211" class="cls-11" width="35.27" height="39.187" rx="11.3" transform="translate(305.181 198.516)"/>
    <rect id="Rectangle_1212" data-name="Rectangle 1212" class="cls-8" width="78.378" height="39.187" rx="10.04" transform="translate(175.856 293.687)"/>
    <rect id="Rectangle_1213" data-name="Rectangle 1213" class="cls-8" width="38.626" height="86.777" rx="11.66" transform="translate(301.82 246.102)"/>
    <rect id="Rectangle_1214" data-name="Rectangle 1214" class="cls-10" width="15.439" height="1.671" transform="translate(322.207 117.976)"/>
    <rect id="Rectangle_1215" data-name="Rectangle 1215" class="cls-10" width="15.439" height="1.671" transform="translate(299.604 117.976)"/>
    <rect id="Rectangle_1216" data-name="Rectangle 1216" class="cls-10" width="15.439" height="1.671" transform="translate(276.996 117.976)"/>
    <rect id="Rectangle_1217" data-name="Rectangle 1217" class="cls-10" width="15.439" height="1.671" transform="translate(254.393 117.976)"/>
    <path id="Path_3286" data-name="Path 3286" class="cls-12" d="M862.293,460.024a21.036,21.036,0,0,0,0-10.709v-5.052s1.82-9.876-6.3-16.212l-5.384-4.75s-3.019-2.593-3.9-2.757a3.966,3.966,0,0,0-.5-.074l-.159-.094a16.216,16.216,0,0,1-1.18-2.479,2.3,2.3,0,0,0,1.919-.654,2.479,2.479,0,0,0,.451-.759h0c.312-.7.367-1.547.63-2.29a5.454,5.454,0,0,1,.992-1.646c-.055.089-.114.174-.164.268.763-.952,1.76-1.765,2.479-2.766a6.2,6.2,0,0,0,.392-.62c-.03.045-.069.084-.1.129a14.094,14.094,0,0,0,1.582-5.379,4.84,4.84,0,0,0,.03-1.924,7.007,7.007,0,0,0-.535-1.22c-1.17-2.414-1.15-5.454-3.019-7.382-1.408-1.443-3.54-1.884-5.548-2.132s-4.12-.392-5.845-1.443a6.167,6.167,0,0,0-1.582-.868,1.3,1.3,0,0,0-1.552.575,1.022,1.022,0,0,1-.208.421.674.674,0,0,1-.6.035l-2.672-.714.03.134h-.069l.1.421a.228.228,0,0,1,.253.144l-.431.664a6.7,6.7,0,0,1-2.41-.5.562.562,0,0,0,0,.129h-.04c-.05.754.808,1.244,1.071,1.953a1.488,1.488,0,0,1,0,.957,2.1,2.1,0,0,1-.5.764c-.947.937-2.162.754-3.252,1.344a.7.7,0,0,0-.4.441.322.322,0,0,0-.035.243.575.575,0,0,0,.223.278,4.958,4.958,0,0,0,1.036.645c-.109.1-.213.2-.312.3a11.948,11.948,0,0,0,4.13,19.494c.04.208.069.421.1.645v.064l.03.288-3.6,1.532a2.866,2.866,0,0,1-2.578-1.661c-.838-1.73-3.8,0-3.8,0s-9.028-.674-12.395.992c0,0-5.389-2.261-6.148-2.414s-1.894-.754-2.424-.6-1.215-.992-1.6-.907-.531-.754-1.745-1.056-1.671.079-3.034-1.279-12.449-6.713-12.449-6.713l-4.978-4.1L771,397.516l-.094.174c-.035-.124-.069-.253-.1-.392a50.86,50.86,0,0,0-1.983-6.192c-.342-.818-.5-1.849-.957-1.3-.283.327-.763-.392-1.487-.878a1.254,1.254,0,0,0-1.869.545h0c-4.135,6.485-5.617,6.941-3.223,9.326,2.137,2.117,3.555,3.966,5.295,4.551l.208.064a.222.222,0,0,1-.114,0l10.094,12.067s7.283,6.336,12.3,8.369,4.626,2.643,4.626,2.643,15.181,7.69,17.531,7.541,1.9,15.761.912,18.344-2.578,21.115-2.578,21.115-1.522,3.922.074,6.634c0,0,.352,5.2.035,6.445a22.153,22.153,0,0,0-3.679,9.474,5.507,5.507,0,0,1-.06.575,1.339,1.339,0,0,1-.357.293l.337-.1a19.084,19.084,0,0,1-.992,4.551,18.5,18.5,0,0,0-1.254,6.475v11.978l-.992,7.437s-1.215,5.627,0,6.941a3.213,3.213,0,0,1,.664,2.31,4.3,4.3,0,0,0,.773,2.7,2.018,2.018,0,0,1,.5,1.73c-.4,1.3.595,15.181.595,15.181s-.292,3.823-.694,4.026.694,4.422.694,4.422-4.1,3.421-3.054,5.231l1.046,1.606-.278.273-.169.174a1.616,1.616,0,0,0-1.046-.2,39.956,39.956,0,0,1-4.125,3.674,44.789,44.789,0,0,1-6.881,3.267l-3.966.322h-.074s-1.9-.179-.833,2.762,10.595,2.038,10.595,2.038l5.563-.878s9.916.05,12.757-.58c1.185-.263,1.487-.9,1.388-1.537h0l-.03-.03a3.966,3.966,0,0,0-.813-1.661.638.638,0,0,0-.069-.089l.178-2.033c4.209-2.424-1.19-7.194-1.19-7.194a49.931,49.931,0,0,1,2.8-5.325c.947-1.3.947-20.516.947-20.516s.5-6.941-.808-8.547a2.89,2.89,0,0,1,1.418-2.613c.937-.64,3.768-9.45,5.989-16.762l1.4,8.617s-.3,4.125.6,5.33a2.053,2.053,0,0,1,.377,1.606,7.238,7.238,0,0,0,.2,3.47,2.3,2.3,0,0,0,.739,1.239c.808.4.858,1.834,1.16,2.137s2.177-.426,2.276.679a25.056,25.056,0,0,1,0,2.915l.61,17.9s-.992,1.487-1.215,5.454a7.015,7.015,0,0,1-.729,3.2,1.641,1.641,0,0,0,.149,1.924l.174.2-.749.575a1.651,1.651,0,0,0-.466,2.038,1.6,1.6,0,0,0-.461,1.735,1.21,1.21,0,0,0,.129.283,2.817,2.817,0,0,0-1.512.749,12.4,12.4,0,0,1-2.672,2.687,51.427,51.427,0,0,0-4.259,3.649,6.118,6.118,0,0,1-2.479,1.983,4.088,4.088,0,0,1-.749.223c-1.983.407-1.363,2.479.253,2.821s6.981,1.983,11.155,1.026a3.939,3.939,0,0,0,3.059-.426,44.932,44.932,0,0,1,5.88-2.052s2.276,0,2.583-.9a3.541,3.541,0,0,0,.129-.883l.065-.064-.06-.055a12.023,12.023,0,0,0-.154-2.018c-.06-.347-.124-.655-.183-.9-.193-.754-.555-1.73-.709-2.142a.748.748,0,0,0,.069-.1c.868-1.487-.575-5.017-.575-5.017a9.618,9.618,0,0,1,1.71-2.028c.808-.6,2.935-16.291,2.935-16.291s-.1-4.021.992-5.83-1.517-12.766-1.517-12.766-1.116-2.514-.709-3.421-.407-4.224-.407-4.224v-3.966a4.381,4.381,0,0,0-.233-1.388,6.574,6.574,0,0,1-.273-4.006c.709-1.81,2.325-12.97,2.325-12.97s-1.264-4.923.59-8.845a7.7,7.7,0,0,1,.5-.907c1.373-2.157.962-5.989.283-9.078-.1-.5-.213-.942-.327-1.373-.045-.188-.094-.367-.144-.545l.218-.089a6.423,6.423,0,0,1,.069-.793,5.573,5.573,0,0,0,3.649-2.524s4.631-5.206,8.726-7.392,4.4-5.354,4.4-5.354c-.6-1.056,1.086-5.354,1.086-5.354Zm-16.138-39.479Zm2.781,46.42-4.383,5.082v-.03c-1.14-1.587,1.061-5.131,1.061-5.131l3.644-8.131a4.6,4.6,0,0,1-.5,2.395c-.992,1.358,1.824,3.624,1.824,3.624C849.085,464.779,848.937,466.965,848.937,466.965Z" transform="translate(-426.056 -224.765)"/>
    <path id="Path_3287" data-name="Path 3287" class="cls-13" d="M772.913,402.055l-2.395,4.645a9.418,9.418,0,0,1-2.226-.466,8.429,8.429,0,0,1-5.231-4.522c-2.137-4.72,1.4-7.769,3.044-8.671s3.178-1.929,4.412,1.031a51.174,51.174,0,0,1,1.938,6.153C772.744,401.311,772.913,402.055,772.913,402.055Z" transform="translate(-427.196 -226.483)"/>
    <path id="Path_3288" data-name="Path 3288" class="cls-13" d="M917.808,445.77l-3.823,5.692s-18.061,8.617-14.611-1.487A22.7,22.7,0,0,0,900.8,440v-.064a8.023,8.023,0,0,0-1.418-4.046s17.605-9.013,14.983-2.851a8.487,8.487,0,0,0-.62,4.056,13.821,13.821,0,0,0,1.894,5.627,18.694,18.694,0,0,0,2.172,3.049Z" transform="translate(-496.043 -246.034)"/>
    <path id="Path_3289" data-name="Path 3289" class="cls-14" d="M884.943,634.147s2.6,10.907,1.487,12.687-.992,5.8-.992,5.8-2.1,15.587-2.9,16.182a9.526,9.526,0,0,0-1.7,1.983s1.428,3.53.57,4.988a1.21,1.21,0,0,1-.57.5c-1.339.565-6.286-1.943-9.1-3.47a1.606,1.606,0,0,1-.288-2.618,1.636,1.636,0,0,1,.456-2.023l.744-.575-.174-.2a1.641,1.641,0,0,1-.149-1.914,6.944,6.944,0,0,0,.719-3.178c.2-3.9,1.2-5.394,1.2-5.394l-.6-17.789a24.663,24.663,0,0,0,0-2.9c-.1-1.1-1.948-.372-2.246-.674s-.352-1.72-1.15-2.122a2.276,2.276,0,0,1-.724-1.234,7.134,7.134,0,0,1-.2-3.471,2.048,2.048,0,0,0-.372-1.6c-.9-1.2-.6-5.29-.6-5.29l-1.378-8.567c-2.2,7.268-4.988,16.024-5.915,16.658a2.88,2.88,0,0,0-1.4,2.593c1.3,1.6.8,8.5.8,8.5s0,19.078-.937,20.382a49.335,49.335,0,0,0-2.751,5.315s5.354,4.764,1.14,7.169h-.045c-4.3,2.4-13.188-4.293-13.188-4.293l.927-.927.273-.273-1.051-1.567c-1.031-1.8,3.014-5.2,3.014-5.2s-1.081-4.2-.684-4.4.684-4,.684-4-.992-13.788-.585-15.087a2.032,2.032,0,0,0-.5-1.72,4.279,4.279,0,0,1-.763-2.677,3.183,3.183,0,0,0-.659-2.3c-1.2-1.3,0-6.891,0-6.891l.992-7.4V605.416a18.725,18.725,0,0,1,1.254-6.629,19.834,19.834,0,0,0,1.091-5.32c.327-3.788,2.365-7.467,3.733-9.564.724-1.111,1.264-1.775,1.264-1.775l31.968-1.249s.5,1.423,1.031,3.4c.109.431.218.887.322,1.363.669,3.074,1.071,6.881-.283,9.023a8.4,8.4,0,0,0-.5.9c-1.829,3.9-.58,8.79-.58,8.79s-1.6,11.086-2.3,12.89a6.475,6.475,0,0,0,.273,3.966,4.515,4.515,0,0,1,.223,1.383v3.951s.8,3.3.4,4.2S884.943,634.147,884.943,634.147Z" transform="translate(-468.676 -321.665)"/>
    <path id="Path_3290" data-name="Path 3290" class="cls-8" d="M925.477,600.153a7.588,7.588,0,0,0-.5.9l-1.8-.1c.174-.927-1.051-9.618-1.051-9.618l3.624-.2C926.423,594.2,926.83,598.007,925.477,600.153Z" transform="translate(-507.737 -326.833)"/>
    <path id="Path_3291" data-name="Path 3291" class="cls-14" d="M926.077,599.543a8.4,8.4,0,0,0-.5.9l-1.8-.1c.174-.922-1.051-9.618-1.051-9.618l3.624-.2C927.028,593.594,927.43,597.4,926.077,599.543Z" transform="translate(-508.04 -326.525)"/>
    <path id="Path_3292" data-name="Path 3292" class="cls-15" d="M926.077,599.543a8.4,8.4,0,0,0-.5.9l-1.8-.1c.174-.922-1.051-9.618-1.051-9.618l3.624-.2C927.028,593.594,927.43,597.4,926.077,599.543Z" transform="translate(-508.04 -326.525)"/>
    <path id="Path_3293" data-name="Path 3293" class="cls-8" d="M908.2,768.374a1.21,1.21,0,0,1-.57.5c-1.339.565-6.287-1.943-9.1-3.471a1.621,1.621,0,0,1-.749-.892c1.606-.293,2.657,1.487,2.657,1.487a2.37,2.37,0,0,1,3.3.8c1.373,2.023,4.318,1.17,4.318,1.17Z" transform="translate(-495.46 -414.236)"/>
    <path id="Path_3294" data-name="Path 3294" class="cls-16" d="M896.177,774.815c-.3.9-2.548.9-2.548.9a47.96,47.96,0,0,0-5.82,2.048,3.98,3.98,0,0,1-3.019.426c-4.12.947-9.42-.7-11.016-1.026s-2.221-2.395-.248-2.8a4,4,0,0,0,.739-.228,6.03,6.03,0,0,0,2.479-1.983,50.7,50.7,0,0,1,4.209-3.624,12.306,12.306,0,0,0,2.638-2.672c2.35-2.072,4.021.773,4.021.773a2.37,2.37,0,0,1,3.3.8c1.373,2.023,4.318,1.165,4.318,1.165s.531,1.353.778,2.325c.059.248.124.555.183.9A8.191,8.191,0,0,1,896.177,774.815Z" transform="translate(-482.607 -414.554)"/>
    <circle id="Ellipse_428" data-name="Ellipse 428" class="cls-17" cx="0.273" cy="0.273" r="0.273" transform="translate(406.425 353.399)"/>
    <circle id="Ellipse_429" data-name="Ellipse 429" class="cls-17" cx="0.273" cy="0.273" r="0.273" transform="translate(404.08 355.596)"/>
    <circle id="Ellipse_430" data-name="Ellipse 430" class="cls-17" cx="0.273" cy="0.273" r="0.273" transform="translate(401.696 357.569)"/>
    <circle id="Ellipse_431" data-name="Ellipse 431" class="cls-17" cx="0.273" cy="0.273" r="0.273" transform="translate(402.93 356.686)"/>
    <circle id="Ellipse_432" data-name="Ellipse 432" class="cls-17" cx="0.273" cy="0.273" r="0.273" transform="translate(405.305 354.43)"/>
    <path id="Path_3295" data-name="Path 3295" class="cls-18" d="M896.177,781.645c-.3.9-2.548.9-2.548.9a47.971,47.971,0,0,0-5.82,2.048,3.98,3.98,0,0,1-3.019.426c-4.12.947-9.42-.7-11.016-1.026s-2.221-2.395-.248-2.8a4,4,0,0,0,.739-.228,19.183,19.183,0,0,0,5.4,1.026c4.07.173,7.293,0,7.293,0l4.12-1.324a6.884,6.884,0,0,1,2.548-.922,6.664,6.664,0,0,0,2.533-1.1A7.778,7.778,0,0,1,896.177,781.645Z" transform="translate(-482.607 -421.384)"/>
    <path id="Path_3296" data-name="Path 3296" class="cls-19" d="M899.094,786.1a3.419,3.419,0,0,1-.684-.064l.06-.293a4.362,4.362,0,0,0,2.479-.347c.367-.144.734-.317,1.091-.5a13.707,13.707,0,0,1,1.3-.565l.406-.139c.223-.079.451-.154.669-.248.124-.05.248-.109.367-.169a4.216,4.216,0,0,1,.922-.352,4.517,4.517,0,0,1,.5-.064,4.4,4.4,0,0,0,.456-.055,4.287,4.287,0,0,0,.868-.322,4.2,4.2,0,0,1,.932-.347l.218-.035a1.066,1.066,0,0,0,.645-.238l.223.2a1.344,1.344,0,0,1-.818.332l-.208.035a4,4,0,0,0-.868.322,4.555,4.555,0,0,1-.932.342,3.312,3.312,0,0,1-.5.06,4.414,4.414,0,0,0-.466.06,3.96,3.96,0,0,0-.858.332l-.377.173c-.228.094-.466.174-.694.253l-.4.139c-.436.159-.863.362-1.279.555s-.734.347-1.111.5A5.409,5.409,0,0,1,899.094,786.1Z" transform="translate(-495.777 -423.259)"/>
    <path id="Path_3297" data-name="Path 3297" class="cls-8" d="M901.73,686.346a7.417,7.417,0,0,1,5.622-2.975,22.426,22.426,0,0,0,5.067-.4,12.683,12.683,0,0,1-3.842,1.522A67.107,67.107,0,0,0,901.73,686.346Z" transform="translate(-497.451 -373.14)"/>
    <path id="Path_3298" data-name="Path 3298" class="cls-8" d="M904.15,689.667a8.347,8.347,0,0,1,2.945-1.349c1.071-.05,1.983-.149,1.983-.149a5.733,5.733,0,0,1-1.646.8C906.555,689.216,904.15,689.667,904.15,689.667Z" transform="translate(-498.672 -375.762)"/>
    <path id="Path_3299" data-name="Path 3299" class="cls-8" d="M905,693s2.821.223,2.846.992" transform="translate(-499.1 -378.198)"/>
    <path id="Path_3300" data-name="Path 3300" class="cls-8" d="M851.93,602.625c.149.025,2.672-2.623,2.846-3.669a2.564,2.564,0,0,1,1.1-1.616s1.626.649.178,2.643A8.025,8.025,0,0,1,851.93,602.625Z" transform="translate(-472.341 -329.964)"/>
    <path id="Path_3301" data-name="Path 3301" class="cls-8" d="M914.753,433.018c-.575,1.358-1.081,1.487-.992,2.781a9.915,9.915,0,0,1-2.286,1.8c-1.785,1.061-3.728,3.138-5.949,3.138a11.854,11.854,0,0,1-4.348-.823,8.023,8.023,0,0,0-1.418-4.046S917.37,426.856,914.753,433.018Z" transform="translate(-496.458 -246.024)"/>
    <path id="Path_3302" data-name="Path 3302" class="cls-13" d="M911.238,413.439a11.9,11.9,0,1,1-11.9-11.9A11.9,11.9,0,0,1,911.238,413.439Z" transform="translate(-490.246 -231.239)"/>
    <path id="Path_3303" data-name="Path 3303" class="cls-8" d="M917.808,455.041l-3.823,5.692s-18.061,8.617-14.611-1.487a22.7,22.7,0,0,0,1.423-9.975h.03a9.556,9.556,0,0,1,.362,2.3c.055,1.557.094,3.525,3.966,4.174a10.769,10.769,0,0,0,10.491-3.733A18.691,18.691,0,0,0,917.808,455.041Z" transform="translate(-496.043 -255.305)"/>
    <path id="Path_3304" data-name="Path 3304" class="cls-8" d="M778.7,410.224l-2.395,4.645a9.418,9.418,0,0,1-2.226-.466l-.208-.248c.992.377,4.269-5.845,4.269-5.845l.1.084C778.53,409.48,778.7,410.224,778.7,410.224Z" transform="translate(-432.982 -234.652)"/>
    <path id="Path_3305" data-name="Path 3305" class="cls-8" d="M894.417,584.311c-7.714,3.352-34.4.5-34.4.5a3.656,3.656,0,0,0,.134-.873c.724-1.111,1.264-1.775,1.264-1.775l31.968-1.249S893.907,582.333,894.417,584.311Z" transform="translate(-476.421 -321.68)"/>
    <path id="Path_3306" data-name="Path 3306" class="cls-20" d="M838.054,429.218l-3.56,1.522a2.821,2.821,0,0,1-2.543-1.651c-.828-1.72-3.748,0-3.748,0s-8.924-.674-12.216.992c0,0-5.32-2.251-6.068-2.4s-1.874-.749-2.4-.6-1.195-.992-1.572-.9-.526-.749-1.725-1.051-1.646.074-2.975-1.274-12.291-6.668-12.291-6.668L784,413.144l-5.245-4.194s-3.3,6.217-4.274,5.84l9.965,11.993s7.194,6.292,12.142,8.314,4.571,2.623,4.571,2.623,14.987,7.645,17.308,7.5,1.884,15.642.892,18.19-2.543,20.982-2.543,20.982-1.487,3.9.074,6.594c0,0,.372,5.548,0,6.52,0,0,26.847,2.871,34.467-.526,0,0,1.125-12.439,0-14.011s1.051-5.077,1.051-5.077l4.794-10.714,11.691-11.765s1.795-9.816-6.222-16.108l-5.32-4.725S854.376,432,853.5,431.84s-.55,0-.55,0a10.734,10.734,0,0,1-10.59,3.862c-3.857-.649-3.9-2.618-3.966-4.17A9.719,9.719,0,0,0,838.054,429.218Z" transform="translate(-433.29 -234.975)"/>
    <path id="Path_3307" data-name="Path 3307" class="cls-8" d="M912.142,531.19s-16.49.674-19.782,5.855c0,0,4.274-2.028,8.091-1.428S912.142,531.19,912.142,531.19Z" transform="translate(-492.727 -296.61)"/>
    <path id="Path_3308" data-name="Path 3308" class="cls-8" d="M895.53,563.8s7.794.526,9.445-1.125,1.656-2.623,1.656-2.623Z" transform="translate(-494.325 -311.162)"/>
    <path id="Path_3309" data-name="Path 3309" class="cls-8" d="M932.844,499.14s-6.6,7.794,1.423,11.165Z" transform="translate(-511.852 -280.45)"/>
    <path id="Path_3310" data-name="Path 3310" class="cls-8" d="M856.69,468.77s2.4,4.893,3.6,5.216Z" transform="translate(-474.742 -265.137)"/>
    <path id="Path_3311" data-name="Path 3311" class="cls-8" d="M840.37,464.53s5.994,5.4,7.12,5.92C847.49,470.45,841.267,464.53,840.37,464.53Z" transform="translate(-466.513 -262.999)"/>
    <path id="Path_3312" data-name="Path 3312" class="cls-8" d="M885.236,454.11s-5.771,8.617-2.023,13.882C883.213,467.972,881.116,461.75,885.236,454.11Z" transform="translate(-487.477 -257.745)"/>
    <path id="Path_3313" data-name="Path 3313" class="cls-13" d="M898.914,580.874l-1.765,1.661-.248.228-2.043,1.934c-.144.109-.288.218-.436.317-8.314,5.949-9.98-3.094-9.98-3.094s-3.669,2.4-4.194.451,8.542-4.72,9.916-4.571a1.775,1.775,0,0,0,.362,0,5.67,5.67,0,0,0,1.864-.659l.4-.213a15.883,15.883,0,0,0,1.344-.848Z" transform="translate(-486.609 -319.245)"/>
    <path id="Path_3314" data-name="Path 3314" class="cls-8" d="M915.231,413.432a11.9,11.9,0,0,1-5.8,10.243,6.771,6.771,0,0,1-.436-.868c-.426-.992-.689-2.062-1.12-3.059a9.418,9.418,0,0,0-1.983-2.915,1.265,1.265,0,0,0-.531-.367,1.428,1.428,0,0,0-1.091.3,5.013,5.013,0,0,1-1.661.729,1.765,1.765,0,0,1-1.666-.5,2.493,2.493,0,0,1-.268-2.077,25.873,25.873,0,0,0,.783-4.655,4.556,4.556,0,0,0-1.983-4.056c-1.21-.689-2.712-.5-4.055-.883a4.425,4.425,0,0,1-.61-.208,11.9,11.9,0,0,1,20.421,8.309Z" transform="translate(-493.962 -231.232)"/>
    <path id="Path_3315" data-name="Path 3315" class="cls-21" d="M892.766,398.473c-.213.114-.451.322-.387.56a.565.565,0,0,0,.218.278,5.2,5.2,0,0,0,1.884.967c1.344.367,2.851.193,4.06.883a4.6,4.6,0,0,1,1.983,4.056,26.183,26.183,0,0,1-.778,4.65,2.5,2.5,0,0,0,.263,2.082,1.78,1.78,0,0,0,1.666.5,4.958,4.958,0,0,0,1.661-.724,1.443,1.443,0,0,1,1.1-.307,1.348,1.348,0,0,1,.53.367,9.421,9.421,0,0,1,1.983,2.92c.436.992.694,2.057,1.12,3.059a4.957,4.957,0,0,0,1.983,2.479,2.5,2.5,0,0,0,3-.317c.734-.813.674-1.929,1.021-2.905.595-1.7,2.256-2.766,3.3-4.234a13.311,13.311,0,0,0,1.8-5.721,4.7,4.7,0,0,0,.03-1.914,6.871,6.871,0,0,0-.526-1.21c-1.16-2.4-1.135-5.419-2.975-7.333-1.388-1.438-3.5-1.874-5.478-2.122s-4.065-.387-5.766-1.433a6.273,6.273,0,0,0-1.562-.863,1.279,1.279,0,0,0-1.537.575,1.022,1.022,0,0,1-.2.416.659.659,0,0,1-.59.035l-2.638-.709.3,1.329a6.6,6.6,0,0,1-2.8-.5c-.05.754.8,1.239,1.061,1.943a1.8,1.8,0,0,1-.5,1.824C895.041,398.066,893.847,397.883,892.766,398.473Z" transform="translate(-492.731 -226.486)"/>
    <path id="Path_3316" data-name="Path 3316" class="cls-8" d="M858.042,761.966l-.109,1.195h-.045c-4.3,2.4-13.188-4.294-13.188-4.294l.927-.927a1.616,1.616,0,0,1,.407,1.254l1.815.1,2.172,2.345s5.875.679,7.466.3Z" transform="translate(-468.696 -410.941)"/>
    <path id="Path_3317" data-name="Path 3317" class="cls-16" d="M840.734,768.47c-2.8.625-12.588.58-12.588.58l-5.493.868s-9.42.9-10.466-2.023.823-2.742.823-2.742h.074l3.922-.317a44.87,44.87,0,0,0,6.8-3.247,39.483,39.483,0,0,0,4.07-3.649s1.636-.317,1.606,1.577l1.815.1,2.172,2.35s5.875.679,7.466.3h.555l-.253,2.9.069.084C841.681,765.7,843.232,767.915,840.734,768.47Z" transform="translate(-452.142 -410.931)"/>
    <circle id="Ellipse_433" data-name="Ellipse 433" class="cls-17" cx="0.273" cy="0.273" r="0.273" transform="translate(378.181 349.998)"/>
    <circle id="Ellipse_434" data-name="Ellipse 434" class="cls-17" cx="0.273" cy="0.273" r="0.273" transform="translate(371.135 353.052)"/>
    <circle id="Ellipse_435" data-name="Ellipse 435" class="cls-17" cx="0.273" cy="0.273" r="0.273" transform="translate(367.506 354.153)"/>
    <circle id="Ellipse_436" data-name="Ellipse 436" class="cls-17" cx="0.273" cy="0.273" r="0.273" transform="translate(372.985 352.467)"/>
    <circle id="Ellipse_437" data-name="Ellipse 437" class="cls-17" cx="0.273" cy="0.273" r="0.273" transform="translate(369.316 353.603)"/>
    <circle id="Ellipse_438" data-name="Ellipse 438" class="cls-17" cx="0.273" cy="0.273" r="0.273" transform="translate(374.854 351.6)"/>
    <circle id="Ellipse_439" data-name="Ellipse 439" class="cls-17" cx="0.273" cy="0.273" r="0.273" transform="translate(376.703 350.796)"/>
    <path id="Path_3318" data-name="Path 3318" class="cls-18" d="M840.734,775.824c-2.8.625-12.588.58-12.588.58l-5.493.868s-9.42.9-10.466-2.023.823-2.742.823-2.742h.074c.6.778,1.8,1.661,4.17,1.705l6.772.273,7.015-.5s6.574-.193,7.645-.421a15.661,15.661,0,0,0,2.618-.962C841.681,773.058,843.232,775.269,840.734,775.824Z" transform="translate(-452.142 -418.285)"/>
    <path id="Path_3319" data-name="Path 3319" class="cls-19" d="M833.561,778.188a4.065,4.065,0,0,1-1.111-.139l.079-.288a5.5,5.5,0,0,0,2.786-.124c.332-.089.659-.183.992-.283a15.684,15.684,0,0,1,1.829-.461,15.154,15.154,0,0,1,3.014-.089h.213a46.415,46.415,0,0,0,8.994-.4,3.366,3.366,0,0,0,1.924-.773l.213.213a3.649,3.649,0,0,1-2.087.858,46.64,46.64,0,0,1-9.053.4h-.218a11.141,11.141,0,0,0-4.764.54c-.332.1-.664.2-.992.283a7.536,7.536,0,0,1-1.819.263Z" transform="translate(-462.519 -419.861)"/>
    <path id="Path_3320" data-name="Path 3320" class="cls-8" d="M911.668,580.869,909.9,582.53l-4.383-5.612a15.883,15.883,0,0,0,1.344-.848Z" transform="translate(-499.362 -319.239)"/>
    <path id="Path_3321" data-name="Path 3321" class="cls-20" d="M931.256,493l3.471,4.794v5.022a21.023,21.023,0,0,1,0,10.64l.169,4.645s-1.671,4.269-1.071,5.32c0,0-.3,3.148-4.343,5.32s-8.637,7.318-8.637,7.318-1.725,3.3-6.371,2.548l-4.422,1.874-5.092-6.52,6.891-3.748s2.4-3.218,3.823-3.069l5.845-6.822s.149-2.172,1.646-2.172c0,0-2.771-2.246-1.8-3.594s.154-7.347.154-7.347Z" transform="translate(-499.08 -277.354)"/>
    <path id="Path_3322" data-name="Path 3322" class="cls-8" d="M945,536.911s7.868-.149,8.84,1.874S947.375,535.785,945,536.911Z" transform="translate(-519.269 -299.411)"/>
    <path id="Path_3323" data-name="Path 3323" class="cls-8" d="M907.379,583.44a2.056,2.056,0,0,1-.035.392,2.647,2.647,0,0,1-2.479,2.251h-.139a2.648,2.648,0,0,1-2.648-2.647,2.578,2.578,0,0,1,.149-.858c-1.249-.992-1.319-2.816-1.284-3.718a5.673,5.673,0,0,0,1.864-.659,12.332,12.332,0,0,0,1.3,2.662,2.78,2.78,0,0,1,.615-.074,2.652,2.652,0,0,1,2.652,2.653Z" transform="translate(-497.052 -320.313)"/>
    <path id="Path_3324" data-name="Path 3324" class="cls-17" d="M903.35,577s-1.775.4-1.775.724-.4,3.247,1.547,4.462,1.75-1.676,1.75-1.676S903.2,577.942,903.35,577Z" transform="translate(-497.356 -319.708)"/>
    <circle id="Ellipse_440" data-name="Ellipse 440" class="cls-22" cx="2.647" cy="2.647" r="2.647" transform="translate(405.325 260.479)"/>
    <circle id="Ellipse_441" data-name="Ellipse 441" class="cls-18" cx="2.271" cy="2.271" r="2.271" transform="translate(405.701 260.856)"/>
    <path id="Path_3325" data-name="Path 3325" class="cls-8" d="M888.339,590.84a13.117,13.117,0,0,0,12.786,1.7v2.251s-4.794,3.3-9.137,1.3S888.339,590.84,888.339,590.84Z" transform="translate(-490.679 -326.687)"/>
    <path id="Path_3326" data-name="Path 3326" class="cls-8" d="M888.339,589.63a13.1,13.1,0,0,0,12.786,1.7v2.251s-4.794,3.3-9.137,1.3S888.339,589.63,888.339,589.63Z" transform="translate(-490.679 -326.077)"/>
    <path id="Path_3327" data-name="Path 3327" class="cls-14" d="M888.339,589.63a13.1,13.1,0,0,0,12.786,1.7v2.251s-4.794,3.3-9.137,1.3S888.339,589.63,888.339,589.63Z" transform="translate(-490.679 -326.077)"/>
    <path id="Path_3328" data-name="Path 3328" class="cls-15" d="M888.638,589.63a13.109,13.109,0,0,0,12.791,1.7v2.251s-4.794,3.3-9.142,1.3S888.638,589.63,888.638,589.63Z" transform="translate(-490.829 -326.077)"/>
    <path id="Path_3329" data-name="Path 3329" class="cls-8" d="M852.91,757.94s7.5,1.378,8.592,1.676-.3.823-.3.823S854.363,759.214,852.91,757.94Z" transform="translate(-472.836 -410.941)"/>
    <path id="Path_3330" data-name="Path 3330" class="cls-8" d="M852.56,746.073c.124,0,5.1-1.4,6.168-3.793" transform="translate(-472.659 -403.045)"/>
    <path id="Path_3331" data-name="Path 3331" class="cls-8" d="M867.19,692.1s2.013,2.648,3.312,2.573S868.37,692,867.19,692.1Z" transform="translate(-480.036 -377.741)"/>
    <path id="Path_3332" data-name="Path 3332" class="cls-8" d="M869.44,701s.848,1.869,2.1,1.269" transform="translate(-481.17 -382.231)"/>
    <path id="Path_3333" data-name="Path 3333" class="cls-15" d="M879,617.979l5.315,14.016s.749-9.018-.833-11.715A4.675,4.675,0,0,0,879,617.979Z" transform="translate(-485.991 -340.36)"/>
    <g id="Group_2435" data-name="Group 2435" class="cls-23" transform="translate(399.604 166.132)">
      <path id="Path_3334" data-name="Path 3334" d="M904.427,393.561l-.045-.2-.853-.228.094.416A7.233,7.233,0,0,0,904.427,393.561Z" transform="translate(-897.963 -393.13)"/>
      <path id="Path_3335" data-name="Path 3335" d="M899.519,397.825l.089-.079a1.8,1.8,0,0,0,.5-1.824,2.4,2.4,0,0,0-.426-.679,7.006,7.006,0,0,1-1.229-.362c-.05.749.793,1.234,1.056,1.939A1.487,1.487,0,0,1,899.519,397.825Z" transform="translate(-895.399 -394.012)"/>
      <path id="Path_3336" data-name="Path 3336" d="M910.595,425.916a4.958,4.958,0,0,1-2.008-2.479c-.421-.992-.684-2.062-1.115-3.054a9.42,9.42,0,0,0-1.983-2.92,1.3,1.3,0,0,0-.53-.367,1.448,1.448,0,0,0-1.091.3,5.013,5.013,0,0,1-1.661.729,1.775,1.775,0,0,1-1.666-.5,2.5,2.5,0,0,1-.268-2.082,25.831,25.831,0,0,0,.783-4.65,4.556,4.556,0,0,0-1.983-4.056c-1.21-.689-2.712-.5-4.056-.883a5.22,5.22,0,0,1-1.889-.967.892.892,0,0,1-.1-.094,2.476,2.476,0,0,0-.327.154c-.218.114-.451.322-.392.56a.6.6,0,0,0,.223.278,5.161,5.161,0,0,0,1.884.967c1.344.367,2.846.193,4.056.883a4.6,4.6,0,0,1,1.983,4.056,25.752,25.752,0,0,1-.783,4.65,2.5,2.5,0,0,0,.268,2.082,1.775,1.775,0,0,0,1.666.5,4.958,4.958,0,0,0,1.661-.724,1.433,1.433,0,0,1,1.091-.307,1.313,1.313,0,0,1,.531.367,9.524,9.524,0,0,1,1.983,2.92c.436.992.694,2.057,1.121,3.059a4.958,4.958,0,0,0,1.983,2.479,2.452,2.452,0,0,0,2.975-.317,2.33,2.33,0,0,0,.446-.754A2.558,2.558,0,0,1,910.595,425.916Z" transform="translate(-892.301 -399.065)"/>
      <path id="Path_3337" data-name="Path 3337" d="M937.84,436.181c.749-.947,1.735-1.755,2.439-2.747.139-.2.268-.407.387-.615C939.759,433.975,938.514,434.892,937.84,436.181Z" transform="translate(-915.263 -413.142)"/>
    </g>
  </g>
</svg>
