<svg xmlns="http://www.w3.org/2000/svg" xmlns:xlink="http://www.w3.org/1999/xlink" viewBox="0 0 120.5 83">
  <defs>
    <style>
      .cls-1, .cls-2, .cls-5 {
        fill: none;
      }

      .cls-2 {
        stroke: #ffd037;
        stroke-width: 2px;
      }

      .cls-3 {
        fill: url(#linear-gradient);
      }

      .cls-4 {
        opacity: 0.5;
        clip-path: url(#clip-path);
      }

      .cls-5 {
        stroke: #707070;
        stroke-width: 0.5px;
        stroke-dasharray: 3;
      }
    </style>
    <linearGradient id="linear-gradient" x1="0.5" x2="0.5" y2="1" gradientUnits="objectBoundingBox">
      <stop offset="0" stop-color="#2af598"/>
      <stop offset="1" stop-color="#009efd"/>
    </linearGradient>
    <clipPath id="clip-path">
      <rect class="cls-1" width="116" height="83"/>
    </clipPath>
  </defs>
  <g id="icon-graph" transform="translate(-607 -5887.5)">
    <path id="Path_2998" data-name="Path 2998" class="cls-2" d="M3814.379,5950.971l20.074-12.678,19.018,12.678,22.188-25.357,24.3,12.679,20.074-25.357" transform="translate(-3203 -13)"/>
    <circle id="Ellipse_376" data-name="Ellipse 376" class="cls-3" cx="4.5" cy="4.5" r="4.5" transform="translate(607 5933)"/>
    <circle id="Ellipse_377" data-name="Ellipse 377" class="cls-3" cx="4.5" cy="4.5" r="4.5" transform="translate(645 5933)"/>
    <circle id="Ellipse_378" data-name="Ellipse 378" class="cls-3" cx="4.5" cy="4.5" r="4.5" transform="translate(668 5907)"/>
    <circle id="Ellipse_379" data-name="Ellipse 379" class="cls-3" cx="4.5" cy="4.5" r="4.5" transform="translate(693 5919)"/>
    <circle id="Ellipse_380" data-name="Ellipse 380" class="cls-3" cx="4.5" cy="4.5" r="4.5" transform="translate(713 5895)"/>
    <g id="Repeat_Grid_8" data-name="Repeat Grid 8" class="cls-4" transform="translate(611.5 5887.5)">
      <g transform="translate(-611.5 -5887.5)">
        <line id="Line_156" data-name="Line 156" class="cls-5" y2="83" transform="translate(611.5 5887.5)"/>
      </g>
      <g transform="translate(-590.5 -5887.5)">
        <line id="Line_156-2" data-name="Line 156" class="cls-5" y2="83" transform="translate(611.5 5887.5)"/>
      </g>
      <g transform="translate(-569.5 -5887.5)">
        <line id="Line_156-3" data-name="Line 156" class="cls-5" y2="83" transform="translate(611.5 5887.5)"/>
      </g>
      <g transform="translate(-548.5 -5887.5)">
        <line id="Line_156-4" data-name="Line 156" class="cls-5" y2="83" transform="translate(611.5 5887.5)"/>
      </g>
      <g transform="translate(-527.5 -5887.5)">
        <line id="Line_156-5" data-name="Line 156" class="cls-5" y2="83" transform="translate(611.5 5887.5)"/>
      </g>
      <g transform="translate(-506.5 -5887.5)">
        <line id="Line_156-6" data-name="Line 156" class="cls-5" y2="83" transform="translate(611.5 5887.5)"/>
      </g>
    </g>
  </g>
</svg>
