<svg xmlns="http://www.w3.org/2000/svg" xmlns:xlink="http://www.w3.org/1999/xlink" viewBox="0 0 287.347 305.567">
  <defs>
    <style>
      .cls-1, .cls-3 {
        fill: #fff;
      }

      .cls-1 {
        opacity: 0.29;
      }

      .cls-2 {
        fill: url(#linear-gradient);
      }

      .cls-4 {
        fill: url(#linear-gradient-2);
      }

      .cls-5 {
        fill: url(#linear-gradient-3);
      }

      .cls-6 {
        fill: url(#linear-gradient-4);
      }

      .cls-7 {
        filter: url(#Path_2995);
      }
    </style>
    <linearGradient id="linear-gradient" x1="0.5" x2="0.5" y2="1" gradientUnits="objectBoundingBox">
      <stop offset="0" stop-color="#2359f1"/>
      <stop offset="1" stop-color="#0aadf3"/>
    </linearGradient>
    <filter id="Path_2995" x="55.285" y="0" width="189.347" height="204.094" filterUnits="userSpaceOnUse">
      <feOffset dy="3" input="SourceAlpha"/>
      <feGaussianBlur stdDeviation="11" result="blur"/>
      <feFlood flood-opacity="0.161"/>
      <feComposite operator="in" in2="blur"/>
      <feComposite in="SourceGraphic"/>
    </filter>
    <linearGradient id="linear-gradient-2" x1="0.5" x2="0.5" y2="1" gradientUnits="objectBoundingBox">
      <stop offset="0" stop-color="#0dad7d"/>
      <stop offset="1" stop-color="#16c792"/>
    </linearGradient>
    <linearGradient id="linear-gradient-3" x1="0.5" x2="0.5" y2="1" gradientUnits="objectBoundingBox">
      <stop offset="0" stop-color="#22ea7c"/>
      <stop offset="1" stop-color="#28c76f"/>
    </linearGradient>
    <linearGradient id="linear-gradient-4" x1="0.5" x2="0.5" y2="1" gradientUnits="objectBoundingBox">
      <stop offset="0" stop-color="#81fbb8"/>
      <stop offset="1" stop-color="#28c76f"/>
    </linearGradient>
  </defs>
  <g id="illustration-3" transform="translate(-2630.119 -3607.09)">
    <g id="_021-management-1" data-name="021-management-1" transform="translate(2654.601 3637.09)">
      <g id="Group_1145" data-name="Group 1145" transform="translate(113.274 90.001)">
        <g id="Group_1144" data-name="Group 1144">
          <path id="Path_2440" data-name="Path 2440" d="M335.693,157.889a6.173,6.173,0,1,0,1.81,4.367A6.225,6.225,0,0,0,335.693,157.889Z" transform="translate(-325.149 -156.079)"/>
        </g>
      </g>
      <path id="Union_13" data-name="Union 13" class="cls-1" d="M1368.192-4658.638v-19.275a12.367,12.367,0,0,1,12.353-12.354h27.18a6.176,6.176,0,0,1,6.176,6.177,6.177,6.177,0,0,1-6.177,6.178h-27.179v19.275a6.178,6.178,0,0,1-6.177,6.177A6.177,6.177,0,0,1,1368.192-4658.638Zm234.026,0v-19.275H1575.04a6.176,6.176,0,0,1-6.177-6.177,6.176,6.176,0,0,1,6.175-6.177h27.179a12.368,12.368,0,0,1,12.353,12.354v19.275a6.177,6.177,0,0,1-6.177,6.177A6.177,6.177,0,0,1,1602.217-4658.639Zm-116.057-1.318v-19.275s-2.763-13.135,6.177-13.023,5.83,10.215,6.177,13.023v19.275a6.178,6.178,0,0,1-6.177,6.177A6.178,6.178,0,0,1,1486.161-4659.957Zm63.7-19.768a6.213,6.213,0,0,1-1.811-4.367,6.226,6.226,0,0,1,1.811-4.367,6.213,6.213,0,0,1,4.365-1.81,6.226,6.226,0,0,1,4.367,1.81,6.213,6.213,0,0,1,1.811,4.367,6.22,6.22,0,0,1-1.811,4.367,6.215,6.215,0,0,1-4.367,1.811A6.221,6.221,0,0,1,1549.861-4679.724Zm-22.42,0a6.213,6.213,0,0,1-1.811-4.367,6.227,6.227,0,0,1,1.811-4.367,6.211,6.211,0,0,1,4.365-1.81,6.229,6.229,0,0,1,4.367,1.81,6.213,6.213,0,0,1,1.811,4.367,6.22,6.22,0,0,1-1.811,4.367,6.215,6.215,0,0,1-4.367,1.811A6.219,6.219,0,0,1,1527.441-4679.724Zm-22.421,0a6.217,6.217,0,0,1-1.81-4.367,6.225,6.225,0,0,1,1.81-4.367,6.216,6.216,0,0,1,4.367-1.81,6.229,6.229,0,0,1,4.367,1.81,6.207,6.207,0,0,1,1.81,4.367,6.22,6.22,0,0,1-1.81,4.367,6.215,6.215,0,0,1-4.367,1.811A6.223,6.223,0,0,1,1505.02-4679.724Zm-34.289,0a6.213,6.213,0,0,1-1.811-4.367,6.226,6.226,0,0,1,1.811-4.367,6.213,6.213,0,0,1,4.365-1.81,6.224,6.224,0,0,1,4.367,1.81,6.213,6.213,0,0,1,1.811,4.367,6.22,6.22,0,0,1-1.811,4.367,6.213,6.213,0,0,1-4.367,1.811A6.221,6.221,0,0,1,1470.731-4679.724Zm-22.42,0a6.213,6.213,0,0,1-1.811-4.367,6.226,6.226,0,0,1,1.811-4.367,6.213,6.213,0,0,1,4.365-1.81,6.226,6.226,0,0,1,4.367,1.81,6.213,6.213,0,0,1,1.811,4.367,6.22,6.22,0,0,1-1.811,4.367,6.215,6.215,0,0,1-4.367,1.811A6.219,6.219,0,0,1,1448.312-4679.724Zm-22.42,0a6.213,6.213,0,0,1-1.811-4.367,6.226,6.226,0,0,1,1.811-4.367,6.211,6.211,0,0,1,4.365-1.81,6.229,6.229,0,0,1,4.367,1.81,6.213,6.213,0,0,1,1.811,4.367,6.22,6.22,0,0,1-1.811,4.367,6.215,6.215,0,0,1-4.367,1.811A6.219,6.219,0,0,1,1425.892-4679.724Z" transform="translate(-1368.191 4846.976)"/>
      <g id="logo-primary" transform="translate(63.802 0)">
        <g class="cls-7" transform="matrix(1, 0, 0, 1, -88.28, -30)">
          <path id="Path_2995-2" data-name="Path 2995" class="cls-2" d="M62.028,138.594a14.455,14.455,0,0,1-6.645-1.73L7.045,108.918A13.268,13.268,0,0,1,.4,97.448V34L55.474,2.23A12.938,12.938,0,0,1,62.119.5a14.454,14.454,0,0,1,6.645,1.73L117.1,30.176a13.268,13.268,0,0,1,6.645,11.47v63.449l-54.983,31.77A13.507,13.507,0,0,1,62.028,138.594Z" transform="translate(87.88 29.5)"/>
        </g>
        <g id="Group_2333" data-name="Group 2333" transform="translate(36.173 38.978)">
          <path id="Path_2997" data-name="Path 2997" class="cls-3" d="M66.476,64.575c-1.591,1.432-3.659,1.989-5.409,3.023-.955.557-1.75-.08-2.546-.477-4.534-2.307-9.148-4.614-13.682-7-1.591-.875-2.386-.955-2.307,1.273.08,5.25.08,10.421,0,15.671a2.9,2.9,0,0,0,1.591,2.864c4.773,2.943,9.546,5.966,14.159,9.148a2.863,2.863,0,0,0,3.421,0c7.875-4.375,15.989-8.432,23.944-13.682v8.591a2.054,2.054,0,0,1-1.193,1.83c-7.875,4.455-15.83,8.83-23.705,13.284a1.776,1.776,0,0,1-2.068-.239c-7.716-4.852-15.512-9.7-23.228-14.557A2.52,2.52,0,0,1,34.1,81.837c.08-8.432.08-16.784,0-25.216a2.3,2.3,0,0,1,1.273-2.466c2.625-1.432,5.25-2.943,7.875-4.455a18.117,18.117,0,0,0,7.637,4.455l9.068,5.011c.08,1.75,1.83,1.75,2.864,2.466C64.089,62.428,66.078,62.507,66.476,64.575Z" transform="translate(-34.1 -40.642)"/>
          <path id="Path_2996" data-name="Path 2996" class="cls-3" d="M68.807,62.246c-.4-2.068-2.386-2.148-3.739-3.023-1.034-.716-2.7-.716-2.864-2.466,3.9-1.114,7.4-3.261,11.375-5.25-3.421-1.75-6.364-3.341-9.387-4.852a1.526,1.526,0,0,0-1.432-.318c-3.341,1.591-6.921,2.784-9.625,5.409A18.985,18.985,0,0,1,45.5,47.292c4.534-2.7,8.989-5.489,13.523-8.114,2.625-1.432,5.409-.955,7.955.477,6.284,3.58,12.489,7.159,18.773,10.818a4.174,4.174,0,0,1,2.227,3.9c-.08,4.932-.08,9.943,0,14.875a2.886,2.886,0,0,1-1.75,2.943c-1.909,1.034-3.659,2.227-5.966,3.58V59.78c0-2.943,0-2.864-2.7-1.511C74.773,59.621,71.989,61.451,68.807,62.246Z" transform="translate(-36.432 -38.313)"/>
        </g>
      </g>
    </g>
    <g id="Group_2709" data-name="Group 2709" transform="translate(2630.119 3844.093)">
      <circle id="Ellipse_559" data-name="Ellipse 559" class="cls-4" cx="34.282" cy="34.282" r="34.282" transform="translate(9.039)"/>
      <path id="Subtraction_3" data-name="Subtraction 3" class="cls-5" d="M34.282,68.564A34.291,34.291,0,0,1,20.938,2.694,34.067,34.067,0,0,1,34.282,0c1,0,2.018.044,3.013.131A34.49,34.49,0,0,0,6.026,34.282,34.49,34.49,0,0,0,37.3,68.434C36.3,68.521,35.282,68.564,34.282,68.564Z" transform="translate(0 0)"/>
      <path id="Path_4078" data-name="Path 4078" class="cls-3" d="M.218-28.944a7.942,7.942,0,0,1,3.517,2.2,7.705,7.705,0,0,1,1.919,3.659,7.821,7.821,0,0,1-.249,4.228,7.455,7.455,0,0,1-2.913,3.73,8.532,8.532,0,0,1-4.619,1.457v3.411a1.107,1.107,0,0,1-.32.817,1.107,1.107,0,0,1-.817.32H-5.537a1.107,1.107,0,0,1-.817-.32,1.107,1.107,0,0,1-.32-.817v-3.411A9.892,9.892,0,0,1-12.856-15.8a1.47,1.47,0,0,1-.426-.853,1.058,1.058,0,0,1,.355-.924l2.416-2.416a1.577,1.577,0,0,1,.675-.284.9.9,0,0,1,.746.213,4.256,4.256,0,0,0,2.416.711h4.761a1.985,1.985,0,0,0,1.457-.6,2.071,2.071,0,0,0,.6-1.528,1.979,1.979,0,0,0-.426-1.208,2.168,2.168,0,0,0-1.066-.782L-8.664-25.6a8.495,8.495,0,0,1-4.05-2.558,7.646,7.646,0,0,1-1.919-4.263,8.044,8.044,0,0,1,.853-4.228,7.862,7.862,0,0,1,2.842-3.126,7.532,7.532,0,0,1,4.121-1.172h.142v-3.411a1.107,1.107,0,0,1,.32-.817,1.107,1.107,0,0,1,.817-.32h2.274a1.107,1.107,0,0,1,.817.32,1.107,1.107,0,0,1,.32.817v3.411a9.6,9.6,0,0,1,6.111,2.132,1.334,1.334,0,0,1,.5.853.894.894,0,0,1-.355.853L1.71-34.628a1.577,1.577,0,0,1-.675.284,1.045,1.045,0,0,1-.746-.142,3.982,3.982,0,0,0-2.416-.782H-6.887a1.985,1.985,0,0,0-1.457.6,2.071,2.071,0,0,0-.6,1.528,1.979,1.979,0,0,0,.426,1.208,2.168,2.168,0,0,0,1.066.782Z" transform="translate(47.722 63.341)"/>
    </g>
    <g id="Group_2717" data-name="Group 2717" transform="translate(2734.991 3844.093)">
      <circle id="Ellipse_559-2" data-name="Ellipse 559" class="cls-6" cx="34.282" cy="34.282" r="34.282" transform="translate(9.039)"/>
      <path id="Subtraction_3-2" data-name="Subtraction 3" class="cls-5" d="M34.282,68.564A34.291,34.291,0,0,1,20.938,2.694,34.067,34.067,0,0,1,34.282,0c1,0,2.018.044,3.013.131A34.49,34.49,0,0,0,6.026,34.282,34.49,34.49,0,0,0,37.3,68.434C36.3,68.521,35.282,68.564,34.282,68.564Z" transform="translate(0 0)"/>
      <path id="Path_4078-2" data-name="Path 4078" class="cls-3" d="M.218-28.944a7.942,7.942,0,0,1,3.517,2.2,7.705,7.705,0,0,1,1.919,3.659,7.821,7.821,0,0,1-.249,4.228,7.455,7.455,0,0,1-2.913,3.73,8.532,8.532,0,0,1-4.619,1.457v3.411a1.107,1.107,0,0,1-.32.817,1.107,1.107,0,0,1-.817.32H-5.537a1.107,1.107,0,0,1-.817-.32,1.107,1.107,0,0,1-.32-.817v-3.411A9.892,9.892,0,0,1-12.856-15.8a1.47,1.47,0,0,1-.426-.853,1.058,1.058,0,0,1,.355-.924l2.416-2.416a1.577,1.577,0,0,1,.675-.284.9.9,0,0,1,.746.213,4.256,4.256,0,0,0,2.416.711h4.761a1.985,1.985,0,0,0,1.457-.6,2.071,2.071,0,0,0,.6-1.528,1.979,1.979,0,0,0-.426-1.208,2.168,2.168,0,0,0-1.066-.782L-8.664-25.6a8.495,8.495,0,0,1-4.05-2.558,7.646,7.646,0,0,1-1.919-4.263,8.044,8.044,0,0,1,.853-4.228,7.862,7.862,0,0,1,2.842-3.126,7.532,7.532,0,0,1,4.121-1.172h.142v-3.411a1.107,1.107,0,0,1,.32-.817,1.107,1.107,0,0,1,.817-.32h2.274a1.107,1.107,0,0,1,.817.32,1.107,1.107,0,0,1,.32.817v3.411a9.6,9.6,0,0,1,6.111,2.132,1.334,1.334,0,0,1,.5.853.894.894,0,0,1-.355.853L1.71-34.628a1.577,1.577,0,0,1-.675.284,1.045,1.045,0,0,1-.746-.142,3.982,3.982,0,0,0-2.416-.782H-6.887a1.985,1.985,0,0,0-1.457.6,2.071,2.071,0,0,0-.6,1.528,1.979,1.979,0,0,0,.426,1.208,2.168,2.168,0,0,0,1.066.782Z" transform="translate(47.722 63.341)"/>
    </g>
    <g id="Group_2718" data-name="Group 2718" transform="translate(2839.862 3844.093)">
      <circle id="Ellipse_559-3" data-name="Ellipse 559" class="cls-4" cx="34.282" cy="34.282" r="34.282" transform="translate(9.039)"/>
      <path id="Subtraction_3-3" data-name="Subtraction 3" class="cls-5" d="M34.282,68.564A34.291,34.291,0,0,1,20.938,2.694,34.067,34.067,0,0,1,34.282,0c1,0,2.018.044,3.013.131A34.49,34.49,0,0,0,6.026,34.282,34.49,34.49,0,0,0,37.3,68.434C36.3,68.521,35.282,68.564,34.282,68.564Z" transform="translate(0 0)"/>
      <path id="Path_4078-3" data-name="Path 4078" class="cls-3" d="M.218-28.944a7.942,7.942,0,0,1,3.517,2.2,7.705,7.705,0,0,1,1.919,3.659,7.821,7.821,0,0,1-.249,4.228,7.455,7.455,0,0,1-2.913,3.73,8.532,8.532,0,0,1-4.619,1.457v3.411a1.107,1.107,0,0,1-.32.817,1.107,1.107,0,0,1-.817.32H-5.537a1.107,1.107,0,0,1-.817-.32,1.107,1.107,0,0,1-.32-.817v-3.411A9.892,9.892,0,0,1-12.856-15.8a1.47,1.47,0,0,1-.426-.853,1.058,1.058,0,0,1,.355-.924l2.416-2.416a1.577,1.577,0,0,1,.675-.284.9.9,0,0,1,.746.213,4.256,4.256,0,0,0,2.416.711h4.761a1.985,1.985,0,0,0,1.457-.6,2.071,2.071,0,0,0,.6-1.528,1.979,1.979,0,0,0-.426-1.208,2.168,2.168,0,0,0-1.066-.782L-8.664-25.6a8.495,8.495,0,0,1-4.05-2.558,7.646,7.646,0,0,1-1.919-4.263,8.044,8.044,0,0,1,.853-4.228,7.862,7.862,0,0,1,2.842-3.126,7.532,7.532,0,0,1,4.121-1.172h.142v-3.411a1.107,1.107,0,0,1,.32-.817,1.107,1.107,0,0,1,.817-.32h2.274a1.107,1.107,0,0,1,.817.32,1.107,1.107,0,0,1,.32.817v3.411a9.6,9.6,0,0,1,6.111,2.132,1.334,1.334,0,0,1,.5.853.894.894,0,0,1-.355.853L1.71-34.628a1.577,1.577,0,0,1-.675.284,1.045,1.045,0,0,1-.746-.142,3.982,3.982,0,0,0-2.416-.782H-6.887a1.985,1.985,0,0,0-1.457.6,2.071,2.071,0,0,0-.6,1.528,1.979,1.979,0,0,0,.426,1.208,2.168,2.168,0,0,0,1.066.782Z" transform="translate(47.722 63.341)"/>
    </g>
  </g>
</svg>
