<svg xmlns="http://www.w3.org/2000/svg" xmlns:xlink="http://www.w3.org/1999/xlink" viewBox="0 0 425 425">
  <defs>
    <style>
      .cls-1 {
        clip-path: url(#clip-img-1);
      }

      .cls-11, .cls-2 {
        fill: #066de8;
      }

      .cls-12, .cls-2, .cls-6 {
        opacity: 0.1;
      }

      .cls-3 {
        fill: #d6d6e3;
      }

      .cls-4 {
        fill: #aebee1;
      }

      .cls-5 {
        fill: #535461;
      }

      .cls-13, .cls-6 {
        fill: #585858;
      }

      .cls-7 {
        fill: #e3edf9;
      }

      .cls-8 {
        fill: url(#linear-gradient);
      }

      .cls-9 {
        fill: #f8b9bf;
      }

      .cls-10 {
        fill: #d9dfe8;
      }

      .cls-14 {
        fill: #68739d;
      }

      .cls-15 {
        fill: #6394e2;
      }

      .cls-16 {
        fill: #b96b6b;
      }

      .cls-17 {
        fill: none;
        stroke: #535461;
        stroke-miterlimit: 10;
        stroke-width: 2px;
      }
    </style>
    <linearGradient id="linear-gradient" x1="0.531" y1="1.017" x2="0.531" y2="-0.007" gradientUnits="objectBoundingBox">
      <stop offset="0" stop-color="gray" stop-opacity="0.251"/>
      <stop offset="0.54" stop-color="gray" stop-opacity="0.122"/>
      <stop offset="1" stop-color="gray" stop-opacity="0.102"/>
    </linearGradient>
    <clipPath id="clip-img-1">
      <rect width="425" height="425"/>
    </clipPath>
  </defs>
  <g id="img-1" class="cls-1">
    <g id="undraw_co-working_825n" transform="translate(-102.378 -21.314)">
      <path id="Path_298" data-name="Path 298" class="cls-2" d="M520.73,242.425c-18.916,28.454-14.129,68-4.6,99.331,3.207,10.487,6.831,21.569,4.677,33.159-2.634,14.174-13.373,25.092-24.382,31.2-20.061,11.146-43.348,10.23-60.624-2.378-14.93-10.9-25.078-29.494-40.315-39.857-25.467-17.281-59.474-8.036-88.84,6.817-20.776,10.5-43.586,23.882-63.277,15.485-13.854-5.91-22.833-21.825-27.3-39.01-2.153-8.3-3.564-17.336-8.155-23.736a30.441,30.441,0,0,0-10.212-8.535C163.02,295.325,108.6,152.81,231.789,94.45c16.451,4.238,34.181.261,51.471-1.833,28.908-3.459,57.555-1.535,86.009.751,27.245,2.19,54.664,4.76,80.25,14.1,18.105,6.606,32.225,19.764,49.2,28.514,11.064,5.7,23.387,6.7,33.755,14.2,12.773,9.231,24.061,25.971,19.622,46.656C547.874,216.532,530.768,227.307,520.73,242.425Z" transform="translate(-39.7 -18.74)"/>
      <rect id="Rectangle_95" data-name="Rectangle 95" class="cls-2" width="18.733" height="28.358" transform="translate(403.515 117.473)"/>
      <rect id="Rectangle_96" data-name="Rectangle 96" class="cls-2" width="15.091" height="22.842" transform="translate(405.334 120.231)"/>
      <rect id="Rectangle_97" data-name="Rectangle 97" class="cls-2" width="28.77" height="28.358" transform="translate(365.491 97.773)"/>
      <rect id="Rectangle_98" data-name="Rectangle 98" class="cls-2" width="23.177" height="22.842" transform="translate(368.285 100.531)"/>
      <rect id="Rectangle_99" data-name="Rectangle 99" class="cls-2" width="87.938" height="2.341" transform="translate(152.601 117.58)"/>
      <rect id="Rectangle_100" data-name="Rectangle 100" class="cls-2" width="87.938" height="2.341" transform="translate(152.601 129.028)"/>
      <rect id="Rectangle_101" data-name="Rectangle 101" class="cls-3" width="8.984" height="100.394" transform="translate(177.947 207.362)"/>
      <path id="Path_299" data-name="Path 299" class="cls-4" d="M949.2,373.337V280.731A9.735,9.735,0,0,1,958.938,271h0a9.735,9.735,0,0,1,9.717,9.731V392.807a9.735,9.735,0,0,1-9.735,9.735H898.625a9.735,9.735,0,0,1-9.735-9.735h0a9.735,9.735,0,0,1,9.735-9.735h40.842A9.735,9.735,0,0,0,949.2,373.337Z" transform="translate(-499.856 -155.433)"/>
      <path id="Path_300" data-name="Path 300" class="cls-5" d="M949.2,373.337V280.731A9.735,9.735,0,0,1,958.938,271h0a9.735,9.735,0,0,1,9.717,9.731V392.807a9.735,9.735,0,0,1-9.735,9.735H898.625a9.735,9.735,0,0,1-9.735-9.735h0a9.735,9.735,0,0,1,9.735-9.735h40.842A9.735,9.735,0,0,0,949.2,373.337Z" transform="translate(-499.856 -155.433)"/>
      <path id="Path_301" data-name="Path 301" class="cls-3" d="M888.92,392.285a9.735,9.735,0,0,1,9.722-9.213h40.842a9.735,9.735,0,0,0,9.735-9.735V280.731A9.735,9.735,0,0,1,958.487,271V392.285Z" transform="translate(-499.872 -155.433)"/>
      <rect id="Rectangle_102" data-name="Rectangle 102" class="cls-3" width="8.984" height="102.735" transform="translate(355.687 207.362)"/>
      <rect id="Rectangle_103" data-name="Rectangle 103" class="cls-6" width="8.984" height="7.422" transform="translate(177.947 207.362)"/>
      <rect id="Rectangle_104" data-name="Rectangle 104" class="cls-6" width="8.984" height="7.422" transform="translate(355.687 207.362)"/>
      <path id="Path_313" data-name="Path 313" class="cls-6" d="M400.563,446.66a.723.723,0,0,1,.023.188.788.788,0,0,1-.783.783H398.63a.783.783,0,0,1-.783-.783.38.38,0,0,1,0-.092Z" transform="translate(-233.772 -250.618)"/>
      <path id="Path_314" data-name="Path 314" class="cls-6" d="M408.2,446.39a.807.807,0,0,1,.064.307.788.788,0,0,1-.783.783H406.3a.783.783,0,0,1-.783-.783.77.77,0,0,1,.032-.215Z" transform="translate(-237.931 -250.472)"/>
      <path id="Path_317" data-name="Path 317" class="cls-3" d="M414.544,449.84H391.89V448.81a1.764,1.764,0,0,1,1.7-1.764l18.169-.628a2.694,2.694,0,0,1,2.785,2.689Z" transform="translate(-230.546 -250.486)"/>
      <path id="Path_318" data-name="Path 318" class="cls-5" d="M685.309,387.9a2.772,2.772,0,0,0,2.6,2.96H715.34V388H692.5a1.433,1.433,0,0,1-1.1-2.144l20.689-42.079a1.832,1.832,0,0,1,1.6-1.035h10.239v-4.81H711.01a1.283,1.283,0,0,0-1.1.719l-23.717,45.813a7.787,7.787,0,0,0-.88,3.436Z" transform="translate(-389.541 -191.7)"/>
      <path id="Path_319" data-name="Path 319" class="cls-5" d="M779.044,329.438l.376.632,3.514-2.346L772.062,244.13h-2.8s-.114.385-.3,1.118C767.082,252.472,757.86,293.388,779.044,329.438Z" transform="translate(-432.914 -140.873)"/>
      <path id="Path_320" data-name="Path 320" class="cls-6" d="M773.23,245.248l10.079,84.19.376.632,3.514-2.346L776.332,244.13h-2.8S773.418,244.529,773.23,245.248Z" transform="translate(-437.183 -140.873)"/>
      <rect id="Rectangle_106" data-name="Rectangle 106" class="cls-3" width="6.643" height="86.719" transform="translate(336.293 103.175) rotate(-6.83)"/>
      <path id="Path_321" data-name="Path 321" class="cls-7" d="M860,446.149a.788.788,0,0,0,.783.783h1.173a.783.783,0,0,0,.783-.783.383.383,0,0,0,0-.092.783.783,0,0,0-.774-.687h-1.173a.788.788,0,0,0-.756.6A.725.725,0,0,0,860,446.149Z" transform="translate(-484.201 -249.919)"/>
      <path id="Path_322" data-name="Path 322" class="cls-7" d="M852.328,446.149a.788.788,0,0,0,.783.783h1.173a.784.784,0,0,0,.783-.784.775.775,0,0,0-.032-.215.738.738,0,0,0-.2-.334.765.765,0,0,0-.55-.229h-1.2a.788.788,0,0,0-.719.458.805.805,0,0,0-.046.321Z" transform="translate(-480.043 -249.919)"/>
      <path id="Path_323" data-name="Path 323" class="cls-7" d="M845.51,446.143a.788.788,0,0,0,.783.783h1.173a.783.783,0,0,0,.783-.783.741.741,0,0,0-.069-.325.8.8,0,0,0-.71-.458H846.3a.779.779,0,0,0-.784.783Z" transform="translate(-476.35 -249.914)"/>
      <path id="Path_324" data-name="Path 324" class="cls-7" d="M837.83,446.149a.788.788,0,0,0,.783.783h1.173a.783.783,0,0,0,.641-1.232l-.092-.1a.765.765,0,0,0-.55-.229h-1.173a.788.788,0,0,0-.568.252A.756.756,0,0,0,837.83,446.149Z" transform="translate(-472.188 -249.919)"/>
      <path id="Path_325" data-name="Path 325" class="cls-6" d="M860.023,446.66a.728.728,0,0,0-.023.188.788.788,0,0,0,.783.783h1.173a.783.783,0,0,0,.783-.783.371.371,0,0,0,0-.092Z" transform="translate(-484.201 -250.618)"/>
      <path id="Path_326" data-name="Path 326" class="cls-6" d="M852.394,446.39a.807.807,0,0,0-.064.307.788.788,0,0,0,.783.783h1.173a.783.783,0,0,0,.783-.783.775.775,0,0,0-.032-.215Z" transform="translate(-480.045 -250.472)"/>
      <path id="Path_327" data-name="Path 327" class="cls-6" d="M845.619,446.16a.781.781,0,0,0,.664,1.2h1.173a.783.783,0,0,0,.783-.783.742.742,0,0,0-.069-.325Z" transform="translate(-476.344 -250.347)"/>
      <path id="Path_328" data-name="Path 328" class="cls-6" d="M837.83,446.441a.788.788,0,0,0,.783.783h1.173a.783.783,0,0,0,.641-1.232l-2.382-.082a.756.756,0,0,0-.215.531Z" transform="translate(-472.188 -250.212)"/>
      <path id="Path_329" data-name="Path 329" class="cls-3" d="M822.485,449.84h22.654V448.81a1.764,1.764,0,0,0-1.7-1.764l-18.169-.628a2.694,2.694,0,0,0-2.785,2.689Z" transform="translate(-463.87 -250.486)"/>
      <path id="Path_330" data-name="Path 330" class="cls-8" d="M896.5,330.4c10.569-17.927,6.739-54.087,7.165-54.778.38-.609-1.077-17.638-10.789-21.8-1.755-3.477-3.482-7.394-3.482-7.394a3.086,3.086,0,0,1-.559.417q-.115-.312-.224-.632c-.124-.362-.238-.733-.353-1.1a7.124,7.124,0,0,0,.829.211,3.454,3.454,0,0,0,2.217-.2,2.469,2.469,0,0,0,.637-.49,4.828,4.828,0,0,0,1.544-2.291l2.827-6.771a52.706,52.706,0,0,0,3.234-9.369,26.378,26.378,0,0,0-1.127-14.6,9.312,9.312,0,0,0-3.166-4.618c-3.147-2.135-7.527-.66-11.123-1.91-1.182-.412-2.249-1.109-3.431-1.53a10.552,10.552,0,0,0-7.889.715c-2.456,1.141-4.444,2.955-6.592,4.581-1.058.811-2.749,1.649-3.995,2.749-1.209.944-2.139,2.084-1.961,3.587.2,1.718,2.011,2.749,3.7,3.152.279.064.568.115.852.165a16.493,16.493,0,0,0,7.041,27.4,38.643,38.643,0,0,1,2.227,5.007q.124.353.243.71a28.6,28.6,0,0,0-5.383,1.805c-1.315,1.09,1.439,10.638,1.439,10.638-.7.889-1.416,1.9-2.139,2.987a64.391,64.391,0,0,0-10.152,27.749c-.458,3.624-1.054,7.33-1.81,10.853l-32.834-6.583-.069.811-.783-.192h0l-2.465-.609-.1.554-.376-.179c-6.107-2.863-16.4-6.519-23.365-2.749-7.353,3.958,8.517,9.218,18.7,12.017a16.544,16.544,0,0,0-9.163,2.872c-7.385,5.534,13.5,8.416,23.365,9.437l.4.041v.211l3.418.316.8.073.078,1.219s4.893.8,11.43,1.773a199.373,199.373,0,0,1-23.09,3.912,16.894,16.894,0,0,0-14.394,12.117,10.774,10.774,0,0,0-.165,5.827c1.906,6.657-.422,55.626-.948,66.172l-12.072,6.95s-18.783,2.291-6.272,6.693a25.724,25.724,0,0,0,3.45.916c-1.649,1.063-1.507,2.451,3.354,4.155,12.521,4.389,41.625-.192,41.625-.192s-.637-5.158-1.672-9.447l.321.027s-3.005-11.183,1.553-16.822-.765-48.562-.765-48.562,7.981-3.3,31.835-3.518c19.241,4.939,28.619-12.741,28.486-21.88A4.861,4.861,0,0,1,896.5,330.4Z" transform="translate(-443.061 -118.622)"/>
      <path id="Path_331" data-name="Path 331" class="cls-9" d="M839.341,412.225l-2.039,8.246s-1.832-.412-4.581-1.118c-9.309-2.41-28.945-8.2-21.074-12.443,6.785-3.665,16.777-.1,22.709,2.68,2.172,1.022,3.8,1.938,4.531,2.369C839.194,412.133,839.341,412.225,839.341,412.225Z" transform="translate(-457.014 -228.232)"/>
      <path id="Path_332" data-name="Path 332" class="cls-6" d="M865.847,419.615l-1.466,5.956s-1.832-.412-4.581-1.118l1.654-9.763c2.172,1.022,3.8,1.938,4.531,2.369Z" transform="translate(-484.093 -233.295)"/>
      <path id="Path_333" data-name="Path 333" class="cls-10" d="M826.58,406.933l-5.69-1.406,1.768-10.427,4.549,1.122Z" transform="translate(-444.821 -214.094)"/>
      <path id="Path_334" data-name="Path 334" class="cls-6" d="M830.406,407.632l-2.456-.6.925-10.638,2.158.531Z" transform="translate(-448.647 -214.793)"/>
      <path id="Path_335" data-name="Path 335" class="cls-11" d="M925.788,344.14s-10.926-6.313-15.782,11.8-5.314,26.452-5.314,26.452l-34.506-6.9-1.095,12.6S905.983,400,910.624,399.138s19.7-26.113,19.7-26.113S944.012,353.458,925.788,344.14Z" transform="translate(-489.127 -194.488)"/>
      <g id="Group_72" data-name="Group 72" class="cls-12" transform="translate(352.813 149.045)">
        <path id="Path_336" data-name="Path 336" class="cls-13" d="M839.341,412.225l-2.039,8.246s-1.832-.412-4.581-1.118c-9.309-2.41-28.945-8.2-21.074-12.443,6.785-3.665,16.777-.1,22.709,2.68,2.172,1.022,3.8,1.938,4.531,2.369C839.194,412.133,839.341,412.225,839.341,412.225Z" transform="translate(-809.826 -377.277)"/>
        <path id="Path_337" data-name="Path 337" class="cls-6" d="M865.847,419.615l-1.466,5.956s-1.832-.412-4.581-1.118l1.654-9.763c2.172,1.022,3.8,1.938,4.531,2.369Z" transform="translate(-836.906 -382.339)"/>
        <path id="Path_338" data-name="Path 338" class="cls-13" d="M826.58,406.933l-5.69-1.406,1.768-10.427,4.549,1.122Z" transform="translate(-797.634 -363.139)"/>
        <path id="Path_339" data-name="Path 339" class="cls-6" d="M830.406,407.632l-2.456-.6.925-10.638,2.158.531Z" transform="translate(-801.459 -363.838)"/>
        <path id="Path_340" data-name="Path 340" class="cls-13" d="M925.788,345.14s-10.926-6.313-15.782,11.8-5.314,26.452-5.314,26.452l-34.506-6.9-1.095,12.6S905.983,401,910.624,400.138s19.7-26.113,19.7-26.113S944.012,354.458,925.788,345.14Z" transform="translate(-841.94 -344.075)"/>
      </g>
      <path id="Path_341" data-name="Path 341" class="cls-14" d="M812.339,650.724l-14.087,8.113s-18.252,2.236-6.093,6.5,40.425-.188,40.425-.188-1.571-12.7-3.761-14.472S812.339,650.724,812.339,650.724Z" transform="translate(-445.177 -360.747)"/>
      <path id="Path_342" data-name="Path 342" class="cls-15" d="M893.141,452.752s-7.009,3.665-19.461,6.831a195.031,195.031,0,0,1-22.746,3.876A16.406,16.406,0,0,0,836.952,475.2a10.463,10.463,0,0,0-.16,5.681c2.075,7.252-1.022,66.2-1.022,66.2l21.395,1.979s-2.918-10.862,1.512-16.337-.742-47.146-.742-47.146,7.751-3.207,30.914-3.418c21.459,5.5,30.3-17.991,26.988-24.574S893.141,452.752,893.141,452.752Z" transform="translate(-471.072 -253.806)"/>
      <g id="Group_73" data-name="Group 73" class="cls-12" transform="translate(342.805 198.737)">
        <path id="Path_343" data-name="Path 343" class="cls-13" d="M812.339,650.724l-14.087,8.113s-18.252,2.236-6.093,6.5,40.425-.188,40.425-.188-1.571-12.7-3.761-14.472S812.339,650.724,812.339,650.724Z" transform="translate(-787.982 -559.484)"/>
        <path id="Path_344" data-name="Path 344" class="cls-13" d="M893.141,452.752s-7.009,3.665-19.461,6.831a195.031,195.031,0,0,1-22.746,3.876A16.406,16.406,0,0,0,836.952,475.2a10.463,10.463,0,0,0-.16,5.681c2.075,7.252-1.022,66.2-1.022,66.2l21.395,1.979s-2.918-10.862,1.512-16.337-.742-47.146-.742-47.146,7.751-3.207,30.914-3.418c21.459,5.5,30.3-17.991,26.988-24.574S893.141,452.752,893.141,452.752Z" transform="translate(-813.877 -452.543)"/>
      </g>
      <path id="Path_345" data-name="Path 345" class="cls-14" d="M826.764,661.474l-14.087,8.113s-18.243,2.217-6.093,6.5,40.425-.188,40.425-.188-1.571-12.7-3.761-14.472S826.764,661.474,826.764,661.474Z" transform="translate(-452.995 -366.572)"/>
      <path id="Path_346" data-name="Path 346" class="cls-15" d="M903.219,492.9c-23.163.211-30.914,3.418-30.914,3.418s5.172,41.69.742,47.146-1.512,16.337-1.512,16.337l-21.394-1.979s.037-.7.1-1.943c.513-10.244,2.772-57.8.916-64.261a10.464,10.464,0,0,1,.16-5.663A16.41,16.41,0,0,1,865.29,474.19a189.488,189.488,0,0,0,22.741-3.876l.357-.092c12.232-3.143,19.1-6.739,19.1-6.739s19.383-1.741,22.7,4.842a7.786,7.786,0,0,1,.678,3.321C931.031,480.531,921.915,497.7,903.219,492.9Z" transform="translate(-478.859 -259.622)"/>
      <path id="Path_347" data-name="Path 347" class="cls-9" d="M860.51,438.135l-.783,8.475s-1.883-.133-4.682-.426c-9.561-.994-29.842-3.789-22.673-9.163,6.166-4.618,16.575-2.6,22.856-.733,2.291.687,4.05,1.352,4.833,1.668C860.349,438.066,860.51,438.135,860.51,438.135Z" transform="translate(-468.415 -243.866)"/>
      <path id="Path_348" data-name="Path 348" class="cls-9" d="M990.822,296.692s-2.868,2.245-6.373,4.71c-3.844.87-8.306,1.59-11.522,2.057,1.15-3.665.458-7.788-.838-11.4a42.923,42.923,0,0,0-5.75-10.574l19.388-6.052c-1.521,3.853-.834,8.246.458,12.067A39.788,39.788,0,0,0,990.822,296.692Z" transform="translate(-541.824 -157.833)"/>
      <path id="Path_349" data-name="Path 349" class="cls-6" d="M888.886,442.988l-.564,6.089s-1.883-.133-4.682-.426l.183-9.9c2.291.687,4.05,1.351,4.833,1.668Z" transform="translate(-497.011 -246.332)"/>
      <path id="Path_350" data-name="Path 350" class="cls-10" d="M850.617,430.184l-5.836-.541.192-10.574,4.668.431Z" transform="translate(-457.767 -227.083)"/>
      <path id="Path_351" data-name="Path 351" class="cls-6" d="M997.623,310.938s-2.868,2.245-6.372,4.71c-3.844.87-8.306,1.59-11.522,2.057,1.15-3.665.458-7.788-.838-11.4,4.737-1.374,11.513-3.152,14.1-4.581A39.789,39.789,0,0,0,997.623,310.938Z" transform="translate(-548.625 -172.079)"/>
      <path id="Path_352" data-name="Path 352" class="cls-10" d="M987.431,302.22s3.244,7.362,5.287,10.688-23.74,6.414-23.74,6.414-2.676-9.268-1.4-10.331S985.274,304.373,987.431,302.22Z" transform="translate(-542.309 -172.35)"/>
      <path id="Path_353" data-name="Path 353" class="cls-6" d="M976.166,471.652a23.2,23.2,0,0,1-4.013,5.2c-11.389,10.821-30.058-.458-38.483-6.624,12.232-3.143,19.1-6.739,19.1-6.739s19.383-1.741,22.7,4.842A7.788,7.788,0,0,1,976.166,471.652Z" transform="translate(-524.121 -259.622)"/>
      <path id="Path_354" data-name="Path 354" class="cls-11" d="M967.187,396.246c-12.947,12.3-35.276-3.986-41.3-8.782-.976-.779-1.521-1.26-1.521-1.26,2.378-2.227,4.467-6.945,6.121-12.718a111.6,111.6,0,0,0,3.331-16.85,62.535,62.535,0,0,1,9.859-26.952c.7-1.054,1.374-2.039,2.075-2.9,4.888-6.217,13.1-10.166,13.1-10.166,17.335-5.067,19.667,20.648,19.2,21.39S982.236,381.948,967.187,396.246Z" transform="translate(-519.082 -179.794)"/>
      <path id="Path_355" data-name="Path 355" class="cls-6" d="M968.863,380.9s-11.146,27.213-15.6,28.766c-2.552.884-16.181-.793-27.369-2.391-.976-.779-1.521-1.26-1.521-1.26,2.378-2.226,4.467-6.945,6.121-12.718l14.408.687s-.8-8.31,1.315-26.947,13.849-14.019,13.849-14.019C979.474,359.521,968.863,380.9,968.863,380.9Z" transform="translate(-519.082 -199.603)"/>
      <path id="Path_356" data-name="Path 356" class="cls-6" d="M853.749,430.455l-2.52-.234-.669-10.651,2.213.2Z" transform="translate(-460.899 -227.354)"/>
      <path id="Path_357" data-name="Path 357" class="cls-11" d="M942.156,350.4s-11.733-4.613-13.849,14.019-1.315,26.947-1.315,26.947l-35.152-1.681.793,12.626s38.258,6.281,42.716,4.732,15.6-28.766,15.6-28.766S961.549,356.9,942.156,350.4Z" transform="translate(-501.455 -198.184)"/>
      <path id="Path_358" data-name="Path 358" class="cls-6" d="M984.527,284.429c-.513-2.785,2.4-2.749,3.441-5.369l-19.388,6.052a42.764,42.764,0,0,1,3.592,5.713,16.086,16.086,0,0,0,3.083.6C979.877,291.86,981.32,287.311,984.527,284.429Z" transform="translate(-543.038 -159.8)"/>
      <circle id="Ellipse_62" data-name="Ellipse 62" class="cls-9" cx="16.016" cy="16.016" r="16.016" transform="translate(415.227 128.473) rotate(-84.72)"/>
      <path id="Path_359" data-name="Path 359" class="cls-6" d="M949.574,222.491c.2,1.668,1.956,2.685,3.592,3.06s3.408.394,4.842,1.269c2.291,1.411,2.909,4.545,2.62,7.238-.16,1.521-.39,3.386.857,4.27a3.321,3.321,0,0,0,1.283.458,12.03,12.03,0,0,0,3.949.137,5.615,5.615,0,0,1,2.291-.06,3.486,3.486,0,0,1,2.144,2.836c.234,1.223.105,2.5.293,3.729a7.742,7.742,0,0,0,6.1,6.295,3.359,3.359,0,0,0,2.153-.192,4.3,4.3,0,0,0,1.691-2.346l2.749-6.579a51.252,51.252,0,0,0,3.143-9.1,25.618,25.618,0,0,0-1.095-14.174,9.084,9.084,0,0,0-3.074-4.485c-3.056-2.075-7.33-.641-10.8-1.833-1.15-.4-2.185-1.077-3.331-1.484a10.257,10.257,0,0,0-7.664.7A36.247,36.247,0,0,0,954.9,216.7C953.084,218.112,949.231,219.61,949.574,222.491Z" transform="translate(-532.728 -122.959)"/>
      <path id="Path_360" data-name="Path 360" class="cls-16" d="M950.5,221.721c.2,1.668,1.956,2.685,3.592,3.06s3.408.394,4.843,1.269c2.291,1.411,2.909,4.545,2.62,7.238-.16,1.521-.389,3.386.857,4.27a3.322,3.322,0,0,0,1.283.458,12.03,12.03,0,0,0,3.949.137,5.615,5.615,0,0,1,2.291-.06,3.486,3.486,0,0,1,2.144,2.836c.234,1.223.105,2.5.293,3.729a7.742,7.742,0,0,0,6.1,6.295,3.358,3.358,0,0,0,2.153-.192,4.3,4.3,0,0,0,1.691-2.346l2.749-6.579a51.262,51.262,0,0,0,3.143-9.1,25.617,25.617,0,0,0-1.095-14.174,9.084,9.084,0,0,0-3.074-4.485c-3.056-2.075-7.33-.641-10.8-1.833-1.15-.4-2.185-1.077-3.331-1.484a10.257,10.257,0,0,0-7.664.7,36.242,36.242,0,0,0-6.414,4.467C954.009,217.342,950.156,218.84,950.5,221.721Z" transform="translate(-533.227 -122.542)"/>
      <path id="Path_361" data-name="Path 361" class="cls-6" d="M960.324,373.34s-6.116,23.759-12.2,25.958-3.4,2.822-3.4,2.822" transform="translate(-529.788 -210.888)"/>
      <rect id="Rectangle_107" data-name="Rectangle 107" class="cls-3" width="6.647" height="43.692" transform="translate(424.177 249.487)"/>
      <rect id="Rectangle_108" data-name="Rectangle 108" class="cls-6" width="6.647" height="3.239" transform="translate(424.177 249.487)"/>
      <path id="Path_362" data-name="Path 362" class="cls-3" d="M936.57,560.279v.916a2.148,2.148,0,0,0,2.149,2.149h28.944a2.149,2.149,0,0,0,2.149-2.149v-.916a2.149,2.149,0,0,0-2.149-2.149H938.719A2.148,2.148,0,0,0,936.57,560.279Z" transform="translate(-525.693 -311.021)"/>
      <path id="Path_363" data-name="Path 363" class="cls-6" d="M937.65,558.913h32.257a2.14,2.14,0,0,0-1.658-.783H939.3A2.139,2.139,0,0,0,937.65,558.913Z" transform="translate(-526.278 -311.021)"/>
      <rect id="Rectangle_109" data-name="Rectangle 109" class="cls-3" width="54.613" height="5.223" rx="2.611" transform="translate(400.198 290.801)"/>
      <circle id="Ellipse_63" data-name="Ellipse 63" class="cls-5" cx="3.326" cy="3.326" r="3.326" transform="translate(448.398 296.024)"/>
      <circle id="Ellipse_64" data-name="Ellipse 64" class="cls-5" cx="3.326" cy="3.326" r="3.326" transform="translate(399.956 296.024)"/>
      <circle id="Ellipse_65" data-name="Ellipse 65" class="cls-5" cx="3.326" cy="3.326" r="3.326" transform="translate(424.177 296.024)"/>
      <rect id="Rectangle_110" data-name="Rectangle 110" class="cls-3" width="52.24" height="8.072" rx="4.036" transform="translate(420.438 195.822)"/>
      <path id="Path_364" data-name="Path 364" class="cls-6" d="M972.247,653.5s-2.611,2.579-6.647,0" transform="translate(-541.423 -362.699)"/>
      <path id="Path_365" data-name="Path 365" class="cls-6" d="M1009.68,455.17v.637a3.321,3.321,0,0,1-3.321,3.321h-45.6a3.321,3.321,0,0,1-3.321-3.321v-.637Z" transform="translate(-537.001 -255.23)"/>
      <rect id="Rectangle_111" data-name="Rectangle 111" class="cls-3" width="8.984" height="114.468" transform="translate(376.779 207.362)"/>
      <rect id="Rectangle_112" data-name="Rectangle 112" class="cls-6" width="8.984" height="7.422" transform="translate(376.779 207.362)"/>
      <path id="Path_369" data-name="Path 369" class="cls-17" d="M631.534,318.334s-7.458-13.556-4.732-25.339a23.442,23.442,0,0,0-1.306-14.77,39.417,39.417,0,0,0-3.5-6.295" transform="translate(-355.236 -155.937)"/>
      <path id="Path_370" data-name="Path 370" class="cls-11" d="M617.829,252.337c.389,1.778-1.7,7.637-1.7,7.637s-4.348-4.444-4.742-6.221a3.294,3.294,0,1,1,6.414-1.416Z" transform="translate(-349.411 -143.784)"/>
      <path id="Path_371" data-name="Path 371" class="cls-11" d="M634.428,269.22c-.637,1.7-5.571,5.5-5.571,5.5s-1.237-6.093-.6-7.788a3.294,3.294,0,1,1,6.171,2.291Z" transform="translate(-358.529 -151.994)"/>
      <path id="Path_372" data-name="Path 372" class="cls-11" d="M640.532,304.523c-1.411,1.15-7.582,1.924-7.582,1.924s2.011-5.882,3.422-7.032a3.294,3.294,0,1,1,4.16,5.108Z" transform="translate(-361.169 -170.429)"/>
      <path id="Path_373" data-name="Path 373" class="cls-11" d="M640.5,334.034c-1.2,1.374-7.147,3.179-7.147,3.179s.985-6.139,2.181-7.509a3.294,3.294,0,1,1,4.962,4.329Z" transform="translate(-361.386 -186.59)"/>
      <path id="Path_374" data-name="Path 374" class="cls-11" d="M613.265,283.306c1.548.957,7.765.916,7.765.916s-2.749-5.575-4.3-6.533a3.294,3.294,0,1,0-3.468,5.6Z" transform="translate(-349.616 -158.764)"/>
      <path id="Path_375" data-name="Path 375" class="cls-11" d="M612.222,317.061c1.764.458,7.687-1.429,7.687-1.429s-4.293-4.5-6.056-4.948a3.294,3.294,0,0,0-1.631,6.377Z" transform="translate(-348.664 -176.897)"/>
      <path id="Path_376" data-name="Path 376" class="cls-11" d="M617.023,350.4c1.658.742,7.82-.11,7.82-.11s-3.473-5.159-5.131-5.9a3.294,3.294,0,1,0-2.689,6.015Z" transform="translate(-351.482 -195.045)"/>
      <path id="Path_377" data-name="Path 377" class="cls-11" d="M617.829,252.337c.389,1.778-1.7,7.637-1.7,7.637s-4.348-4.444-4.742-6.221a3.294,3.294,0,1,1,6.414-1.416Z" transform="translate(-349.411 -143.784)"/>
      <path id="Path_378" data-name="Path 378" class="cls-11" d="M634.428,269.22c-.637,1.7-5.571,5.5-5.571,5.5s-1.237-6.093-.6-7.788a3.294,3.294,0,1,1,6.171,2.291Z" transform="translate(-358.529 -151.994)"/>
      <path id="Path_379" data-name="Path 379" class="cls-11" d="M640.532,304.523c-1.411,1.15-7.582,1.924-7.582,1.924s2.011-5.882,3.422-7.032a3.294,3.294,0,1,1,4.16,5.108Z" transform="translate(-361.169 -170.429)"/>
      <path id="Path_380" data-name="Path 380" class="cls-11" d="M640.5,334.034c-1.2,1.374-7.147,3.179-7.147,3.179s.985-6.139,2.181-7.509a3.294,3.294,0,1,1,4.962,4.329Z" transform="translate(-361.386 -186.59)"/>
      <path id="Path_381" data-name="Path 381" class="cls-11" d="M613.265,283.306c1.548.957,7.765.916,7.765.916s-2.749-5.575-4.3-6.533a3.294,3.294,0,1,0-3.468,5.6Z" transform="translate(-349.616 -158.764)"/>
      <path id="Path_382" data-name="Path 382" class="cls-11" d="M612.222,317.061c1.764.458,7.687-1.429,7.687-1.429s-4.293-4.5-6.056-4.948a3.294,3.294,0,0,0-1.631,6.377Z" transform="translate(-348.664 -176.897)"/>
      <path id="Path_383" data-name="Path 383" class="cls-11" d="M617.023,350.4c1.658.742,7.82-.11,7.82-.11s-3.473-5.159-5.131-5.9a3.294,3.294,0,1,0-2.689,6.015Z" transform="translate(-351.482 -195.045)"/>
      <path id="Path_384" data-name="Path 384" class="cls-11" d="M626.9,404.289h0a7.852,7.852,0,0,1-7.839-8.347l2.194-34.772h11.288l2.194,34.772a7.852,7.852,0,0,1-7.839,8.347Z" transform="translate(-353.635 -204.294)"/>
      <rect id="Rectangle_116" data-name="Rectangle 116" class="cls-2" width="6.414" height="26.571" transform="translate(161.296 91.054)"/>
      <rect id="Rectangle_117" data-name="Rectangle 117" class="cls-2" width="6.414" height="26.571" transform="translate(169.542 91.054)"/>
      <rect id="Rectangle_118" data-name="Rectangle 118" class="cls-2" width="6.414" height="26.571" transform="translate(177.788 91.054)"/>
      <rect id="Rectangle_119" data-name="Rectangle 119" class="cls-2" width="6.414" height="26.571" transform="translate(186.035 91.054)"/>
      <rect id="Rectangle_120" data-name="Rectangle 120" class="cls-2" width="6.414" height="26.571" transform="translate(202.527 91.054)"/>
      <rect id="Rectangle_121" data-name="Rectangle 121" class="cls-2" width="6.414" height="26.571" transform="translate(210.774 91.054)"/>
      <rect id="Rectangle_122" data-name="Rectangle 122" class="cls-2" width="6.414" height="1.374" transform="translate(161.296 96.094)"/>
      <rect id="Rectangle_123" data-name="Rectangle 123" class="cls-2" width="6.414" height="1.374" transform="translate(161.296 112.586)"/>
      <rect id="Rectangle_124" data-name="Rectangle 124" class="cls-2" width="6.414" height="1.374" transform="translate(169.542 96.094)"/>
      <rect id="Rectangle_125" data-name="Rectangle 125" class="cls-2" width="6.414" height="1.374" transform="translate(169.542 112.586)"/>
      <rect id="Rectangle_126" data-name="Rectangle 126" class="cls-2" width="6.414" height="1.374" transform="translate(177.788 96.094)"/>
      <rect id="Rectangle_127" data-name="Rectangle 127" class="cls-2" width="6.414" height="1.374" transform="translate(177.788 112.586)"/>
      <rect id="Rectangle_128" data-name="Rectangle 128" class="cls-2" width="6.414" height="1.374" transform="translate(186.035 96.094)"/>
      <rect id="Rectangle_129" data-name="Rectangle 129" class="cls-2" width="6.414" height="1.374" transform="translate(186.035 112.586)"/>
      <rect id="Rectangle_130" data-name="Rectangle 130" class="cls-2" width="6.414" height="1.374" transform="translate(194.281 96.094)"/>
      <rect id="Rectangle_131" data-name="Rectangle 131" class="cls-2" width="6.414" height="1.374" transform="translate(194.281 112.586)"/>
      <rect id="Rectangle_132" data-name="Rectangle 132" class="cls-2" width="6.414" height="1.374" transform="translate(202.527 96.094)"/>
      <rect id="Rectangle_133" data-name="Rectangle 133" class="cls-2" width="6.414" height="1.374" transform="translate(202.527 112.586)"/>
      <rect id="Rectangle_134" data-name="Rectangle 134" class="cls-2" width="6.414" height="1.374" transform="translate(210.774 96.094)"/>
      <rect id="Rectangle_135" data-name="Rectangle 135" class="cls-2" width="6.414" height="1.374" transform="translate(210.774 112.586)"/>
      <rect id="Rectangle_136" data-name="Rectangle 136" class="cls-2" width="6.414" height="26.571" transform="translate(194.281 91.054)"/>
      <rect id="Rectangle_137" data-name="Rectangle 137" class="cls-2" width="6.414" height="26.571" transform="translate(217.398 93.626) rotate(-24.84)"/>
      <rect id="Rectangle_138" data-name="Rectangle 138" class="cls-2" width="6.414" height="1.374" transform="translate(219.517 98.204) rotate(-24.84)"/>
      <rect id="Rectangle_139" data-name="Rectangle 139" class="cls-2" width="6.414" height="1.374" transform="translate(226.442 113.169) rotate(-24.84)"/>
      <rect id="Rectangle_141" data-name="Rectangle 141" class="cls-3" width="8.984" height="114.454" transform="translate(156.855 207.362)"/>
      <rect id="Rectangle_142" data-name="Rectangle 142" class="cls-6" width="8.984" height="7.422" transform="translate(156.855 207.362)"/>
      <rect id="Rectangle_143" data-name="Rectangle 143" class="cls-3" width="237.503" height="14.843" transform="translate(152.558 199.157)"/>
    </g>
  </g>
</svg>
