<svg xmlns="http://www.w3.org/2000/svg" xmlns:xlink="http://www.w3.org/1999/xlink" viewBox="0 0 693 507">
  <defs>
    <style>
      .cls-1 {
        clip-path: url(#clip-img-10);
      }

      .cls-2, .cls-4 {
        fill: #6c63ff;
      }

      .cls-13, .cls-2, .cls-3 {
        opacity: 0.1;
      }

      .cls-5 {
        fill: url(#linear-gradient);
      }

      .cls-6 {
        fill: #535461;
      }

      .cls-7 {
        fill: #f6f7f9;
      }

      .cls-20, .cls-8 {
        opacity: 0.2;
      }

      .cls-9 {
        fill: #dce0ed;
      }

      .cls-10 {
        fill: url(#linear-gradient-2);
      }

      .cls-11 {
        fill: #65617d;
      }

      .cls-12 {
        fill: #a27772;
      }

      .cls-14 {
        fill: #fbbebe;
      }

      .cls-15 {
        fill: #7c7cdd;
      }

      .cls-16 {
        opacity: 0.05;
      }

      .cls-17 {
        fill: #7c5c5c;
      }

      .cls-18 {
        fill: #ffd037;
      }

      .cls-19 {
        fill: #a8a8a8;
      }
    </style>
    <linearGradient id="linear-gradient" x1="0.5" y1="1" x2="0.5" gradientUnits="objectBoundingBox">
      <stop offset="0" stop-color="gray" stop-opacity="0.251"/>
      <stop offset="0.54" stop-color="gray" stop-opacity="0.122"/>
      <stop offset="1" stop-color="gray" stop-opacity="0.102"/>
    </linearGradient>
    <linearGradient id="linear-gradient-2" x1="0.5" y1="1" x2="0.5" y2="0" xlink:href="#linear-gradient"/>
    <clipPath id="clip-img-10">
      <rect width="693" height="507"/>
    </clipPath>
  </defs>
  <g id="img-10" class="cls-1">
    <g id="undraw_report_mx0a" transform="translate(20.133 1.77)">
      <path id="Path_2999" data-name="Path 2999" class="cls-2" d="M201.069,32.022c-20.989-.773-42.914-1.316-61.892,7.681S105.526,70.5,111.89,90.539c2.077,6.533,6.123,12.227,9.534,18.175,17.058,29.744,17.849,68.19,2.035,98.617-12.173,23.422-32.806,41.247-47.66,63.07s-23.3,52.068-8.683,74.053c10.005,15.053,28.573,22.378,46.561,24.153s36.079-1.02,54.145-1.739a233.227,233.227,0,0,1,102.4,19.365c44.375,19.455,82.6,52.738,129.327,65.581,5.61,1.54,11.473,2.784,17.209,1.739,10.174-1.854,17.571-10.265,25.536-16.907,25.427-21.055,60.63-24.986,93.635-25.964s67.381-.223,97.216-14.4c26.049-12.372,46.1-35.39,58.571-61.391S709.6,280,711.639,251.229c1.208-17.124,1.165-34.8-4.963-50.836-6.89-18.024-20.862-32.377-35.517-44.925-15.313-13.115-32-25-50.908-32.075-22.583-8.454-47.1-9.661-71.143-11.666a977.293,977.293,0,0,1-146.343-23.5c-45.667-10.917-95.809-22.843-137.4-45.082C244.49,31.98,224.6,32.868,201.069,32.022Z" transform="translate(-59.52 -31.65)"/>
      <g id="Group_2336" data-name="Group 2336" class="cls-3" transform="translate(420.007 275.51)">
        <path id="Path_3000" data-name="Path 3000" class="cls-4" d="M773.4,605.087s2.138-29.956,19-46.289a45.485,45.485,0,0,0,13.441-25.451,76.905,76.905,0,0,0,.906-13.966" transform="translate(-762.348 -500.394)"/>
        <path id="Path_3001" data-name="Path 3001" class="cls-4" d="M838.018,496.568c-1.238,3.309-10.808,10.664-10.808,10.664s-2.415-11.829-1.165-15.138a6.391,6.391,0,1,1,11.974,4.474Z" transform="translate(-783.062 -487.937)"/>
        <path id="Path_3002" data-name="Path 3002" class="cls-4" d="M841.416,531.2c-2.838,2.1-14.866,3.074-14.866,3.074s4.408-11.237,7.246-13.345a6.395,6.395,0,0,1,7.62,10.265Z" transform="translate(-783.405 -500.549)"/>
        <path id="Path_3003" data-name="Path 3003" class="cls-4" d="M821.639,581.944c-3.514.386-14.389-4.831-14.389-4.831s9.48-7.475,12.988-7.85a6.388,6.388,0,0,1,1.4,12.68Z" transform="translate(-775.759 -520.153)"/>
        <path id="Path_3004" data-name="Path 3004" class="cls-4" d="M797.249,617.61c-3.393.972-15-2.349-15-2.349s8.079-8.967,11.473-9.939a6.394,6.394,0,1,1,3.526,12.288Z" transform="translate(-765.854 -534.323)"/>
        <path id="Path_3005" data-name="Path 3005" class="cls-4" d="M804.975,531.186c1.51,3.188,11.666,9.7,11.666,9.7s1.4-11.986-.115-15.18a6.395,6.395,0,0,0-11.551,5.477Z" transform="translate(-774.643 -501.519)"/>
        <path id="Path_3006" data-name="Path 3006" class="cls-4" d="M776.685,572.016c2.415,2.59,14.039,5.773,14.039,5.773s-2.252-11.859-4.65-14.456a6.395,6.395,0,0,0-9.39,8.683Z" transform="translate(-762.976 -516.994)"/>
        <path id="Path_3007" data-name="Path 3007" class="cls-4" d="M756.035,617.157c1.92,2.959,12.861,8.061,12.861,8.061s-.217-12.076-2.144-15.029a6.394,6.394,0,0,0-10.718,6.968Z" transform="translate(-755.097 -535.277)"/>
        <path id="Path_3008" data-name="Path 3008" class="cls-4" d="M838.018,496.568c-1.238,3.309-10.808,10.664-10.808,10.664s-2.415-11.829-1.165-15.138a6.391,6.391,0,1,1,11.974,4.474Z" transform="translate(-783.062 -487.937)"/>
        <path id="Path_3009" data-name="Path 3009" class="cls-4" d="M841.416,531.2c-2.838,2.1-14.866,3.074-14.866,3.074s4.408-11.237,7.246-13.345a6.395,6.395,0,0,1,7.62,10.265Z" transform="translate(-783.405 -500.549)"/>
        <path id="Path_3010" data-name="Path 3010" class="cls-4" d="M821.639,581.944c-3.514.386-14.389-4.831-14.389-4.831s9.48-7.475,12.988-7.85a6.388,6.388,0,0,1,1.4,12.68Z" transform="translate(-775.759 -520.153)"/>
        <path id="Path_3011" data-name="Path 3011" class="cls-4" d="M797.249,617.61c-3.393.972-15-2.349-15-2.349s8.079-8.967,11.473-9.939a6.394,6.394,0,1,1,3.526,12.288Z" transform="translate(-765.854 -534.323)"/>
        <path id="Path_3012" data-name="Path 3012" class="cls-4" d="M804.975,531.186c1.51,3.188,11.666,9.7,11.666,9.7s1.4-11.986-.115-15.18a6.395,6.395,0,0,0-11.551,5.477Z" transform="translate(-774.643 -501.519)"/>
        <path id="Path_3013" data-name="Path 3013" class="cls-4" d="M776.685,572.016c2.415,2.59,14.039,5.773,14.039,5.773s-2.252-11.859-4.65-14.456a6.395,6.395,0,0,0-9.39,8.683Z" transform="translate(-762.976 -516.994)"/>
        <path id="Path_3014" data-name="Path 3014" class="cls-4" d="M756.035,617.157c1.92,2.959,12.861,8.061,12.861,8.061s-.217-12.076-2.144-15.029a6.394,6.394,0,0,0-10.718,6.968Z" transform="translate(-755.097 -535.277)"/>
      </g>
      <g id="Group_2337" data-name="Group 2337" class="cls-3" transform="translate(425.728 162.123)">
        <path id="Path_3015" data-name="Path 3015" class="cls-4" d="M783.2,417.307s2.137-29.956,19-46.289a45.529,45.529,0,0,0,13.441-25.451,75.874,75.874,0,0,0,.906-13.966" transform="translate(-771.952 -312.614)"/>
        <path id="Path_3016" data-name="Path 3016" class="cls-4" d="M847.82,308.788c-1.208,3.3-10.8,10.657-10.8,10.657s-2.415-11.829-1.172-15.132a6.391,6.391,0,0,1,11.974,4.474Z" transform="translate(-792.668 -300.157)"/>
        <path id="Path_3017" data-name="Path 3017" class="cls-4" d="M851.246,343.279c-2.832,2.107-14.866,3.073-14.866,3.073s4.408-11.231,7.246-13.338a6.395,6.395,0,1,1,7.62,10.265Z" transform="translate(-793.02 -312.634)"/>
        <path id="Path_3018" data-name="Path 3018" class="cls-4" d="M831.443,394.145c-3.508.386-14.383-4.831-14.383-4.831s9.48-7.469,12.988-7.85a6.394,6.394,0,1,1,1.395,12.712Z" transform="translate(-785.366 -332.354)"/>
        <path id="Path_3019" data-name="Path 3019" class="cls-4" d="M807.049,429.861c-3.394.972-15-2.349-15-2.349s8.085-8.967,11.473-9.945a6.394,6.394,0,1,1,3.52,12.294Z" transform="translate(-775.458 -346.573)"/>
        <path id="Path_3020" data-name="Path 3020" class="cls-4" d="M814.725,343.289C816.234,346.483,826.4,353,826.4,353s1.395-11.992-.115-15.18a6.394,6.394,0,1,0-11.558,5.471Z" transform="translate(-784.197 -313.627)"/>
        <path id="Path_3021" data-name="Path 3021" class="cls-4" d="M786.558,384.307c2.415,2.6,14.045,5.773,14.045,5.773s-2.258-11.859-4.655-14.45a6.394,6.394,0,0,0-9.389,8.677Z" transform="translate(-772.653 -329.291)"/>
        <path id="Path_3022" data-name="Path 3022" class="cls-4" d="M765.706,429.179c1.926,2.959,12.861,8.061,12.861,8.061s-.217-12.077-2.144-15.029a6.394,6.394,0,1,0-10.718,6.968Z" transform="translate(-764.572 -347.299)"/>
        <path id="Path_3023" data-name="Path 3023" class="cls-4" d="M847.82,308.788c-1.208,3.3-10.8,10.657-10.8,10.657s-2.415-11.829-1.172-15.132a6.391,6.391,0,0,1,11.974,4.474Z" transform="translate(-792.668 -300.157)"/>
        <path id="Path_3024" data-name="Path 3024" class="cls-4" d="M851.246,343.279c-2.832,2.107-14.866,3.073-14.866,3.073s4.408-11.231,7.246-13.338a6.395,6.395,0,1,1,7.62,10.265Z" transform="translate(-793.02 -312.634)"/>
        <path id="Path_3025" data-name="Path 3025" class="cls-4" d="M831.443,394.145c-3.508.386-14.383-4.831-14.383-4.831s9.48-7.469,12.988-7.85a6.394,6.394,0,1,1,1.395,12.712Z" transform="translate(-785.366 -332.354)"/>
        <path id="Path_3026" data-name="Path 3026" class="cls-4" d="M807.049,429.861c-3.394.972-15-2.349-15-2.349s8.085-8.967,11.473-9.945a6.394,6.394,0,1,1,3.52,12.294Z" transform="translate(-775.458 -346.573)"/>
        <path id="Path_3027" data-name="Path 3027" class="cls-4" d="M814.725,343.289C816.234,346.483,826.4,353,826.4,353s1.395-11.992-.115-15.18a6.394,6.394,0,1,0-11.558,5.471Z" transform="translate(-784.197 -313.627)"/>
        <path id="Path_3028" data-name="Path 3028" class="cls-4" d="M786.558,384.307c2.415,2.6,14.045,5.773,14.045,5.773s-2.258-11.859-4.655-14.45a6.394,6.394,0,0,0-9.389,8.677Z" transform="translate(-772.653 -329.291)"/>
        <path id="Path_3029" data-name="Path 3029" class="cls-4" d="M765.706,429.179c1.926,2.959,12.861,8.061,12.861,8.061s-.217-12.077-2.144-15.029a6.394,6.394,0,1,0-10.718,6.968Z" transform="translate(-764.572 -347.299)"/>
      </g>
      <g id="Group_2338" data-name="Group 2338" class="cls-3" transform="translate(39.613 221.74)">
        <path id="Path_3030" data-name="Path 3030" class="cls-4" d="M212.308,493.729s-25.789-15.373-32.812-37.763a45.443,45.443,0,0,0-16.69-23.447,76.132,76.132,0,0,0-12.076-7.089" transform="translate(-135.268 -409.404)"/>
        <path id="Path_3031" data-name="Path 3031" class="cls-4" d="M136.087,400.81c2.415,2.59,4.668,14.45,4.668,14.45s-11.648-3.17-14.045-5.76a6.395,6.395,0,0,1,9.377-8.689Z" transform="translate(-125.123 -398.889)"/>
        <path id="Path_3032" data-name="Path 3032" class="cls-4" d="M169.784,410.421c.6,3.478-3.937,14.661-3.937,14.661s-8.055-8.991-8.659-12.469a6.395,6.395,0,1,1,12.6-2.192Z" transform="translate(-137.777 -401.296)"/>
        <path id="Path_3033" data-name="Path 3033" class="cls-4" d="M207.078,449.31c-1.208,3.309-10.8,10.67-10.8,10.67s-2.415-11.829-1.177-15.132a6.394,6.394,0,1,1,11.98,4.462Z" transform="translate(-152.706 -415.38)"/>
        <path id="Path_3034" data-name="Path 3034" class="cls-4" d="M227.9,487.557c-.652,3.472-8.84,12.372-8.84,12.372s-4.378-11.249-3.72-14.715a6.391,6.391,0,0,1,12.56,2.373Z" transform="translate(-160.836 -431.026)"/>
        <path id="Path_3035" data-name="Path 3035" class="cls-4" d="M151.974,445.784c3.526.084,13.918-6.038,13.918-6.038s-10.084-6.642-13.616-6.727a6.394,6.394,0,1,0-.3,12.784Z" transform="translate(-133.287 -412.409)"/>
        <path id="Path_3036" data-name="Path 3036" class="cls-4" d="M175.943,489.449c3.394-.978,11.473-9.951,11.473-9.951s-11.605-3.315-15-2.337a6.395,6.395,0,0,0,3.532,12.288Z" transform="translate(-142.083 -429.827)"/>
        <path id="Path_3037" data-name="Path 3037" class="cls-4" d="M206.539,528.186c3.514-.386,12.988-7.85,12.988-7.85s-10.869-5.229-14.389-4.831a6.389,6.389,0,1,0,1.4,12.68Z" transform="translate(-154.43 -445.081)"/>
        <path id="Path_3038" data-name="Path 3038" class="cls-4" d="M136.087,400.81c2.415,2.59,4.668,14.45,4.668,14.45s-11.648-3.17-14.045-5.76a6.395,6.395,0,0,1,9.377-8.689Z" transform="translate(-125.123 -398.889)"/>
        <path id="Path_3039" data-name="Path 3039" class="cls-4" d="M169.784,410.421c.6,3.478-3.937,14.661-3.937,14.661s-8.055-8.991-8.659-12.469a6.395,6.395,0,1,1,12.6-2.192Z" transform="translate(-137.777 -401.296)"/>
        <path id="Path_3040" data-name="Path 3040" class="cls-4" d="M207.078,449.31c-1.208,3.309-10.8,10.67-10.8,10.67s-2.415-11.829-1.177-15.132a6.394,6.394,0,1,1,11.98,4.462Z" transform="translate(-152.706 -415.38)"/>
        <path id="Path_3041" data-name="Path 3041" class="cls-4" d="M227.9,487.557c-.652,3.472-8.84,12.372-8.84,12.372s-4.378-11.249-3.72-14.715a6.391,6.391,0,0,1,12.56,2.373Z" transform="translate(-160.836 -431.026)"/>
        <path id="Path_3042" data-name="Path 3042" class="cls-4" d="M151.974,445.784c3.526.084,13.918-6.038,13.918-6.038s-10.084-6.642-13.616-6.727a6.394,6.394,0,1,0-.3,12.784Z" transform="translate(-133.287 -412.409)"/>
        <path id="Path_3043" data-name="Path 3043" class="cls-4" d="M175.943,489.449c3.394-.978,11.473-9.951,11.473-9.951s-11.605-3.315-15-2.337a6.395,6.395,0,0,0,3.532,12.288Z" transform="translate(-142.083 -429.827)"/>
        <path id="Path_3044" data-name="Path 3044" class="cls-4" d="M206.539,528.186c3.514-.386,12.988-7.85,12.988-7.85s-10.869-5.229-14.389-4.831a6.389,6.389,0,1,0,1.4,12.68Z" transform="translate(-154.43 -445.081)"/>
      </g>
      <path id="Path_3045" data-name="Path 3045" class="cls-2" d="M776.25,822.833c17.336,7.542,38.488,2.953,58.161,3.484,2.687.072,5.543.3,7.7,1.6s3.224,3.412,4.7,5.223c5.513,6.727,16.81,8.888,26.683,7.747s18.924-4.921,28.241-7.8c16.1-4.975,34.509-7.246,50.4-1.811a10.407,10.407,0,0,0,4.553.869c3.484-.441,4.523-4.052,6.956-6.111,4.4-3.726,13.948-2.711,15.88-7.62,1.129-2.874-1.473-5.821-4.311-7.783-10.869-7.511-26.387-8.749-40.6-7.59s-28.174,4.354-42.455,4.366c-17.795,0-34.986-4.9-52.605-6.914-12.2-1.389-25.524-1.208-36.966,2.88C790.186,807.8,787.457,817.755,776.25,822.833Z" transform="translate(-343.47 -335.947)"/>
      <path id="Path_3046" data-name="Path 3046" class="cls-2" d="M232.93,782.553c29.587,8.52,65.7,3.333,99.269,3.937,4.6.084,9.462.332,13.151,1.811s5.5,3.865,8.031,5.905c9.408,7.6,28.688,10.048,45.534,8.755s32.3-5.561,48.209-8.81c27.486-5.622,58.909-8.182,86.021-2.053a25.7,25.7,0,0,0,7.777.984c5.942-.5,7.711-4.577,11.871-6.908,7.506-4.227,23.8-3.061,27.1-8.6,1.932-3.249-2.512-6.582-7.355-8.8-18.525-8.484-45.033-9.885-69.289-8.574s-48.095,4.915-72.459,4.933c-30.372,0-59.718-5.537-89.795-7.814-20.832-1.57-43.566-1.377-63.1,3.261C256.721,765.585,252.053,776.835,232.93,782.553Z" transform="translate(-128.221 -318.799)"/>
      <path id="Path_3047" data-name="Path 3047" class="cls-2" d="M101.77,824.021c8.454,5.084,18.719,1.993,28.3,2.349a6.015,6.015,0,0,1,3.75,1.075c1.051.875,1.57,2.307,2.288,3.526,2.681,4.535,8.176,6,12.976,5.223s9.208-3.315,13.743-5.259c7.85-3.351,16.792-4.879,24.515-1.208a3.853,3.853,0,0,0,2.222.6c1.691-.3,2.2-2.735,3.381-4.124,2.138-2.512,6.787-1.812,7.723-5.139.549-1.938-.719-3.925-2.1-5.247-5.277-5.066-12.837-5.9-19.751-5.12s-13.707,2.892-20.657,2.892c-8.653,0-17.016-3.3-25.59-4.662-5.942-.942-12.421-.821-17.988,1.944C108.551,813.9,107.223,820.61,101.77,824.021Z" transform="translate(-76.258 -339.388)"/>
      <path id="Path_3048" data-name="Path 3048" class="cls-5" d="M554.044,67.32H273.5A25.693,25.693,0,0,0,247.76,92.976v388.7A25.693,25.693,0,0,0,273.5,507.315H554.044a25.693,25.693,0,0,0,25.735-25.657V92.976A25.693,25.693,0,0,0,554.044,67.32Z" transform="translate(-134.096 -45.79)"/>
      <rect id="Rectangle_969" data-name="Rectangle 969" class="cls-6" width="324.085" height="430.793" rx="20" transform="translate(117.619 26.802)"/>
      <rect id="Rectangle_970" data-name="Rectangle 970" class="cls-7" width="291.152" height="349.295" transform="translate(134.086 67.548)"/>
      <circle id="Ellipse_381" data-name="Ellipse 381" class="cls-7" cx="3.955" cy="3.955" r="3.955" transform="translate(274.39 42.604)"/>
      <circle id="Ellipse_382" data-name="Ellipse 382" class="cls-7" cx="11.859" cy="11.859" r="11.859" transform="translate(266.486 424.656)"/>
      <g id="Group_2339" data-name="Group 2339" class="cls-8" transform="translate(134.086 67.548)">
        <rect id="Rectangle_971" data-name="Rectangle 971" class="cls-4" width="291.152" height="17.408"/>
      </g>
      <circle id="Ellipse_383" data-name="Ellipse 383" class="cls-7" cx="3.714" cy="3.714" r="3.714" transform="translate(139.478 72.541)"/>
      <circle id="Ellipse_384" data-name="Ellipse 384" class="cls-7" cx="3.714" cy="3.714" r="3.714" transform="translate(148.94 72.541)"/>
      <circle id="Ellipse_385" data-name="Ellipse 385" class="cls-7" cx="3.714" cy="3.714" r="3.714" transform="translate(158.396 72.541)"/>
      <rect id="Rectangle_972" data-name="Rectangle 972" class="cls-9" width="271.123" height="0.906" transform="translate(142.781 170.228)"/>
      <rect id="Rectangle_973" data-name="Rectangle 973" class="cls-9" width="271.123" height="0.906" transform="translate(142.781 191.259)"/>
      <rect id="Rectangle_974" data-name="Rectangle 974" class="cls-9" width="271.123" height="0.906" transform="translate(142.781 212.297)"/>
      <rect id="Rectangle_975" data-name="Rectangle 975" class="cls-9" width="271.123" height="0.906" transform="translate(142.781 233.328)"/>
      <rect id="Rectangle_976" data-name="Rectangle 976" class="cls-9" width="271.123" height="0.906" transform="translate(142.781 254.359)"/>
      <g id="Group_2340" data-name="Group 2340" class="cls-8" transform="translate(142.449 183.059)">
        <path id="Path_3049" data-name="Path 3049" class="cls-4" d="M507.365,375.385H235.91V334.023l24.9,12.27,25.765,3.5,22.607-6.817,27.275-21.152,13.719-7.922,10.03-1.932,9.595.513,15.778,7.8,21.454,13.665,16.835,2.162,13.345-4.6,28.3-23.169,14.444-5.151,15.114,2.337,12.306,7.107Z" transform="translate(-235.91 -303.18)"/>
      </g>
      <path id="Path_3050" data-name="Path 3050" class="cls-4" d="M342.742,381.326c-24.449,0-47.038-14.951-47.322-15.144l.676-1c.35.235,35.118,23.235,64.664,11.714,10.772-4.227,18.441-10.736,25.862-17.058,7.747-6.6,15.059-12.831,25.035-15.536a37.446,37.446,0,0,1,33.434,7.512c8.121,6.672,24.292,17.384,41.374,14.184,8.707-1.636,16.044-7.995,23.815-14.727,14.9-12.91,30.306-26.26,56.959-7.107l-.706.978c-25.88-18.6-40.915-5.561-55.461,7.041-7.9,6.841-15.355,13.284-24.382,15-17.571,3.3-34.08-7.632-42.364-14.437a36.27,36.27,0,0,0-32.353-7.276c-9.71,2.633-16.907,8.78-24.57,15.289-7.493,6.388-15.241,12.988-26.2,17.263A50.552,50.552,0,0,1,342.742,381.326Z" transform="translate(-152.978 -151.67)"/>
      <circle id="Ellipse_386" data-name="Ellipse 386" class="cls-4" cx="6.721" cy="6.721" r="6.721" transform="translate(266.522 185.064)"/>
      <g id="Group_2341" data-name="Group 2341" class="cls-8" transform="translate(274.753 102.853)">
        <path id="Path_3051" data-name="Path 3051" class="cls-4" d="M600.694,202H515.917a1.377,1.377,0,0,0-1.377,1.377V260.71a1.377,1.377,0,0,0,2.379.942l14.691-15.669a1.371,1.371,0,0,1,1-.435h68.081a1.377,1.377,0,0,0,1.377-1.377V203.365A1.377,1.377,0,0,0,600.694,202Z" transform="translate(-514.54 -202)"/>
      </g>
      <rect id="Rectangle_977" data-name="Rectangle 977" class="cls-7" width="48.276" height="6.038" transform="translate(294.377 113.469)"/>
      <rect id="Rectangle_978" data-name="Rectangle 978" class="cls-7" width="13.254" height="6.038" transform="translate(294.377 126.849)"/>
      <g id="Group_2342" data-name="Group 2342" class="cls-8" transform="translate(165.678 298.475)">
        <rect id="Rectangle_979" data-name="Rectangle 979" class="cls-4" width="13.254" height="6.038"/>
      </g>
      <g id="Group_2343" data-name="Group 2343" class="cls-8" transform="translate(165.678 310.147)">
        <rect id="Rectangle_980" data-name="Rectangle 980" class="cls-4" width="13.254" height="6.038"/>
      </g>
      <g id="Group_2344" data-name="Group 2344" class="cls-8" transform="translate(165.678 321.818)">
        <rect id="Rectangle_981" data-name="Rectangle 981" class="cls-4" width="13.254" height="6.038"/>
      </g>
      <g id="Group_2345" data-name="Group 2345" class="cls-8" transform="translate(165.678 333.496)">
        <rect id="Rectangle_982" data-name="Rectangle 982" class="cls-4" width="13.254" height="6.038"/>
      </g>
      <g id="Group_2346" data-name="Group 2346" class="cls-8" transform="translate(165.678 345.168)">
        <rect id="Rectangle_983" data-name="Rectangle 983" class="cls-4" width="13.254" height="6.038"/>
      </g>
      <g id="Group_2347" data-name="Group 2347" class="cls-8" transform="translate(165.678 356.84)">
        <rect id="Rectangle_984" data-name="Rectangle 984" class="cls-4" width="13.254" height="6.038"/>
      </g>
      <g id="Group_2348" data-name="Group 2348" class="cls-8" transform="translate(165.678 368.518)">
        <rect id="Rectangle_985" data-name="Rectangle 985" class="cls-4" width="13.254" height="6.038"/>
      </g>
      <g id="Group_2349" data-name="Group 2349" class="cls-8" transform="translate(165.678 380.19)">
        <rect id="Rectangle_986" data-name="Rectangle 986" class="cls-4" width="13.254" height="6.038"/>
      </g>
      <g id="Group_2350" data-name="Group 2350" class="cls-8" transform="translate(190.634 386.228)">
        <rect id="Rectangle_987" data-name="Rectangle 987" class="cls-4" width="13.254" height="6.038"/>
      </g>
      <g id="Group_2351" data-name="Group 2351" class="cls-8" transform="translate(213.984 386.228)">
        <rect id="Rectangle_988" data-name="Rectangle 988" class="cls-4" width="13.254" height="6.038"/>
      </g>
      <g id="Group_2352" data-name="Group 2352" class="cls-8" transform="translate(237.334 386.228)">
        <rect id="Rectangle_989" data-name="Rectangle 989" class="cls-4" width="13.254" height="6.038"/>
      </g>
      <g id="Group_2353" data-name="Group 2353" class="cls-8" transform="translate(260.677 386.228)">
        <rect id="Rectangle_990" data-name="Rectangle 990" class="cls-4" width="13.254" height="6.038"/>
      </g>
      <g id="Group_2354" data-name="Group 2354" class="cls-8" transform="translate(284.027 386.228)">
        <rect id="Rectangle_991" data-name="Rectangle 991" class="cls-4" width="13.254" height="6.038"/>
      </g>
      <g id="Group_2355" data-name="Group 2355" class="cls-8" transform="translate(307.377 386.228)">
        <rect id="Rectangle_992" data-name="Rectangle 992" class="cls-4" width="13.254" height="6.038"/>
      </g>
      <g id="Group_2356" data-name="Group 2356" class="cls-8" transform="translate(330.721 386.228)">
        <rect id="Rectangle_993" data-name="Rectangle 993" class="cls-4" width="13.254" height="6.038"/>
      </g>
      <g id="Group_2357" data-name="Group 2357" class="cls-8" transform="translate(354.071 386.228)">
        <rect id="Rectangle_994" data-name="Rectangle 994" class="cls-4" width="13.254" height="6.038"/>
      </g>
      <g id="Group_2358" data-name="Group 2358" class="cls-8" transform="translate(377.421 386.228)">
        <rect id="Rectangle_995" data-name="Rectangle 995" class="cls-4" width="13.254" height="6.038"/>
      </g>
      <rect id="Rectangle_996" data-name="Rectangle 996" class="cls-7" width="20.125" height="6.038" transform="translate(322.527 126.849)"/>
      <rect id="Rectangle_997" data-name="Rectangle 997" class="cls-4" width="13.254" height="37.842" transform="translate(190.634 342.348)"/>
      <rect id="Rectangle_998" data-name="Rectangle 998" class="cls-4" width="13.254" height="55.353" transform="translate(213.984 324.838)"/>
      <rect id="Rectangle_999" data-name="Rectangle 999" class="cls-4" width="13.254" height="70.044" transform="translate(237.334 310.147)"/>
      <rect id="Rectangle_1000" data-name="Rectangle 1000" class="cls-4" width="13.254" height="62.423" transform="translate(260.677 317.761)"/>
      <rect id="Rectangle_1001" data-name="Rectangle 1001" class="cls-4" width="13.254" height="75.677" transform="translate(284.027 304.513)"/>
      <g id="Group_2359" data-name="Group 2359" class="cls-8" transform="translate(307.377 333.496)">
        <rect id="Rectangle_1002" data-name="Rectangle 1002" class="cls-4" width="13.254" height="46.694"/>
      </g>
      <g id="Group_2360" data-name="Group 2360" class="cls-8" transform="translate(330.721 333.496)">
        <rect id="Rectangle_1003" data-name="Rectangle 1003" class="cls-4" width="13.254" height="46.694"/>
      </g>
      <g id="Group_2361" data-name="Group 2361" class="cls-8" transform="translate(354.071 333.496)">
        <rect id="Rectangle_1004" data-name="Rectangle 1004" class="cls-4" width="13.254" height="46.694"/>
      </g>
      <g id="Group_2362" data-name="Group 2362" class="cls-8" transform="translate(377.421 333.496)">
        <rect id="Rectangle_1005" data-name="Rectangle 1005" class="cls-4" width="13.254" height="46.694"/>
      </g>
      <path id="Path_3052" data-name="Path 3052" class="cls-10" d="M963.8,254.121c-14.353-8.254-19.775-10.3-19.805-10.313l-.29-.211a11.993,11.993,0,0,1-3.623-4.571v-.888c.229-4.372,3.339-8.351,6.292-11.823l7.542-8.876a8.616,8.616,0,0,0,1.944-3.08,6.884,6.884,0,0,0,.205-1.89V211.7c-.036-2.2-.1-4.414-.181-6.642-.072-1.926-.568-4.354-2.494-4.752-1-.205-2.325.157-2.856-.706a1.642,1.642,0,0,1-.127-1.141.5.5,0,0,0,0,.091v-.109a25.592,25.592,0,0,0,.719-4.535,6.305,6.305,0,0,0-.314-2.295c-1.117-3.2-4.958-4.511-8.357-5.114s-7.2-1.123-9.335-3.78a27.807,27.807,0,0,0-1.854-2.554,7.361,7.361,0,0,0-3.472-1.715,19.618,19.618,0,0,0-12.632,1.1c-1.642.731-3.291,1.721-5.09,1.612s-3.472-1.407-5.32-1.721c-2.983-.507-5.839,1.685-7.306,4.275a10.438,10.438,0,0,0-1.353,5.048c0,.1,0,.2,0,.3h0a7.361,7.361,0,0,0,1.938,5.151c1.286,1.334,3.206,2.252,3.738,4.009.217.712.163,1.485.356,2.21a.853.853,0,0,0,.084.266l-.1.127a22.373,22.373,0,0,0-4.734,13.815,22.885,22.885,0,0,0,16.08,21.7v.676a9.716,9.716,0,0,1-3.122,7.6l-20.325,8.176s-12.252-1.455-16.672,16.454a30.265,30.265,0,0,0-.761,9.088c.163,2.7-.211,7.457-3.351,13.61-5.03,9.842-3.883,32.438,6.394,34.678,9.7,2.113,13.5,1.208,13.888,1.129v.392c-.157,4.227-1.7,40.813-7.294,45.239-1.546,1.208-1.256,2.053,0,2.608,0,0,0,.236-.036.658-.169,2.675-1.032,12.861-4.776,18.658-4.341,6.708-3.889,45.42-3.889,45.42L870.6,463.558s1.812,14.093,0,16.557c-1.63,2.192-3.8,54.344-4.227,65.642h-.193a5.489,5.489,0,0,0-4.39,2.675c-2.415,3.9-10.808,11.1-10.808,11.1-1.812,2.59-8.568,5.066-12.137,6.237a7.369,7.369,0,0,0-1.377.6,7.246,7.246,0,0,0-3.061,3.225,3.491,3.491,0,0,0-.332,2.693c.918,2.234,19.878,3.8,24.672,1.564,3.774-1.763,18.719-4.076,24.92-4.982a5.127,5.127,0,0,0,4.438-4.432,2.929,2.929,0,0,0-.6-2.222h0c-1.208-1.473-1.812-5.489-2.071-8.109a5.354,5.354,0,0,0,1.395-.827,59.492,59.492,0,0,1,3.424-23.936c4.571-12.077,5.942-34.46,4.831-49,0,0,13.936-59.96,24.9-65.557h0c.169.211,5.489,7.047,6.165,28.187.688,21.478,8.453,35.571,8.453,35.571s-3.43,36.471,0,50.117L930.111,550.2c-.326-.284-.537-.5-.537-.5s.133.6.32,1.558l-.1.453.193.048c.507,2.693,1.262,7.385.954,10.138-.181,1.564-.6,3.714-.918,5.821-.471,3.315-.6,6.527,1.141,7.246,2.856,1.147,19.648,2.717,22.5-.972a5.3,5.3,0,0,0,.833-5.531,5.643,5.643,0,0,0-.833-1.407s-4.456-7.288-3.2-12.427a3.756,3.756,0,0,0-.531-2.953,150.3,150.3,0,0,1,3.846-24.111c2.856-10.766,8.888-34.37,4.45-49.894h0c-.169-.6-.362-1.208-.568-1.811a66.893,66.893,0,0,1-2.512-26.176,53.318,53.318,0,0,1,0-22.825c2.741-12.529,4.656-24.835,4.656-24.835s1.516-16.551.193-26.7l-.091-.652.725-.163s-3.883-17.227-5.253-28.187c-.326-2.59-.749-5.869-1.208-9.371a22.714,22.714,0,0,0,3.726-.924c12.294-4.269,16.158-42.745,16.158-42.745v-12.2S978.194,262.4,963.8,254.121ZM871.9,551.245c-.38-.193-.6-.32-.6-.32h0Z" transform="translate(-366.326 -89.587)"/>
      <path id="Path_3053" data-name="Path 3053" class="cls-11" d="M978.167,600.165c5.35,15.385-.894,40.354-3.792,51.5a155.9,155.9,0,0,0-3.792,24.533,51.613,51.613,0,0,1-19.618-.453l4.68-22.945c-3.345-13.6,0-49.942,0-49.942s-7.578-14.045-8.248-35.451c-.658-21.073-5.851-27.879-6.038-28.09h0c-10.7,5.573-24.3,65.334-24.3,65.334,1.117,14.492-.223,36.785-4.68,48.825a60.506,60.506,0,0,0-3.345,23.857c-1.558,1.316-3.725,1.54-6.068,1.165-6.346-1.057-13.96-6.539-13.96-6.539s2.415-65.1,4.227-67.556,0-16.5,0-16.5l2.892-22.74s-.441-38.578,3.792-45.287c3.659-5.779,4.5-15.929,4.662-18.592a4.8,4.8,0,0,1,.036-.658l6.449-7.729s62.435-4.68,67.115,0c1.153,1.153,1.86,3.762,2.282,7.053,1.286,10.114-.187,26.611-.187,26.611s-1.872,12.264-4.547,24.757a54.1,54.1,0,0,0,0,22.74,67.948,67.948,0,0,0,2.446,26.109Z" transform="translate(-388.139 -213.568)"/>
      <path id="Path_3054" data-name="Path 3054" class="cls-12" d="M1014.775,815.742c-2.79,3.677-19.177,2.113-21.967.972-1.7-.706-1.57-3.907-1.111-7.21.29-2.1.719-4.227.894-5.8.447-4.015-1.34-12.155-1.34-12.155s3.683,3.9,4.571,0A4.257,4.257,0,0,1,999,788.528a8.362,8.362,0,0,1,5.791.362c2.892,1.256,7.729,3.937,6.859,7.56-1.208,5.121,3.122,12.385,3.122,12.385a5.656,5.656,0,0,1,.809,1.4A5.362,5.362,0,0,1,1014.775,815.742Z" transform="translate(-428.648 -331.374)"/>
      <path id="Path_3055" data-name="Path 3055" class="cls-13" d="M1014.872,829.738c-2.79,3.677-19.177,2.113-21.967.972-1.7-.707-1.57-3.907-1.111-7.21,1.757.821,4.752,1.51,9.74,1.045a28.351,28.351,0,0,1,3.508-.109,80.913,80.913,0,0,0,10.639-.211A5.361,5.361,0,0,1,1014.872,829.738Z" transform="translate(-428.745 -345.369)"/>
      <path id="Path_3056" data-name="Path 3056" class="cls-13" d="M926.243,633.621c1.117,14.492-.224,36.785-4.68,48.825a60.508,60.508,0,0,0-3.345,23.857c-1.558,1.317-3.726,1.54-6.068,1.165,1.346-9.42,7.077-49.924,10.778-81.933C927.083,589.083,946.646,564,946.646,564l3.9,4.293C939.835,573.86,926.243,633.621,926.243,633.621Z" transform="translate(-397.311 -242.562)"/>
      <path id="Path_3057" data-name="Path 3057" class="cls-14" d="M989.32,273.636,986.6,287.01l-13.332,22.408L956.823,302.4s-22.342-23.41-8.3-26.755a12.311,12.311,0,0,0,4.661-2.077A9.579,9.579,0,0,0,956.8,265.5a25.207,25.207,0,0,0-2.283-9.595l28.76-9.057a45.922,45.922,0,0,0-2.065,11.654c-.218,7.85,2.693,11.69,5.078,13.532A8.723,8.723,0,0,0,989.32,273.636Z" transform="translate(-409.884 -116.915)"/>
      <path id="Path_3058" data-name="Path 3058" class="cls-13" d="M990.29,246.9a45.938,45.938,0,0,0-2.065,11.654,21.039,21.039,0,0,1-1.673,1.775,22.746,22.746,0,0,1-22.74,5.193,25.209,25.209,0,0,0-2.282-9.595Z" transform="translate(-416.874 -116.935)"/>
      <path id="Path_3059" data-name="Path 3059" class="cls-14" d="M984.78,225.886a22.643,22.643,0,1,1-6.621-16.1A22.74,22.74,0,0,1,984.78,225.886Z" transform="translate(-408.067 -99.598)"/>
      <path id="Path_3060" data-name="Path 3060" class="cls-13" d="M989.32,290.18,986.6,303.555l-13.332,22.408-16.442-7.022s-22.342-23.41-8.3-26.755a12.311,12.311,0,0,0,4.661-2.077c-2.536,6.974,7.934,21.478,7.934,21.478,1.208,1.811,4.016.664,4.016.664,6.739-1.014,19.159-20.415,21.182-23.64a8.719,8.719,0,0,0,3.007,1.57Z" transform="translate(-409.884 -133.459)"/>
      <path id="Path_3061" data-name="Path 3061" class="cls-13" d="M990.663,500.008c-3.955.9-25.862,5.755-34.171,4.541-9.136-1.341-26.912-2.228-26.912-2.228s-11.316.6-14.8-.978a4.8,4.8,0,0,1,.036-.658l6.449-7.729s62.436-4.68,67.115,0C989.533,494.1,990.24,496.705,990.663,500.008Z" transform="translate(-398.353 -213.592)"/>
      <path id="Path_3062" data-name="Path 3062" class="cls-15" d="M939.385,312.4s-11.762-16.3-7.33-22.637l-19.872,8.146s-11.962-1.449-16.3,16.4a30.873,30.873,0,0,0-.743,9.057c.157,2.693-.205,7.433-3.273,13.562-4.909,9.812-3.792,32.329,6.244,34.563s13.6,1.111,13.6,1.111-1.334,40.807-7.131,45.486,14.776,3.569,14.776,3.569,17.777.894,26.918,2.228,34.78-4.68,34.78-4.68-3.792-17.173-5.126-28.1-4.462-34.189-4.462-34.189l22.746-30.8s4.009-18.616-10.036-26.864S964.849,289,964.849,289s-14.093,22.945-21.448,24.075C943.4,313.074,940.605,314.2,939.385,312.4Z" transform="translate(-388.154 -133.614)"/>
      <path id="Path_3063" data-name="Path 3063" class="cls-13" d="M926.732,338.47s-.224,7.361,1.111,10.265,6.244,18.954,6.244,18.954H922.94s6.038-6.467,5.573-9.589S926.732,338.47,926.732,338.47Z" transform="translate(-401.585 -153.213)"/>
      <path id="Path_3064" data-name="Path 3064" class="cls-14" d="M960.547,409.914s-24.624-6.038-26.918-11.153-8.629-16.6-8.629-16.6l2.6-3.5,11.98,9.4s14.268,11.37,20.959,12.487S960.547,409.914,960.547,409.914Z" transform="translate(-402.401 -169.135)"/>
      <path id="Path_3065" data-name="Path 3065" class="cls-16" d="M960.547,409.914s-24.624-6.038-26.918-11.153-8.629-16.6-8.629-16.6l2.6-3.5,11.98,9.4s14.268,11.37,20.959,12.487S960.547,409.914,960.547,409.914Z" transform="translate(-402.401 -169.135)"/>
      <path id="Path_3066" data-name="Path 3066" class="cls-14" d="M989.944,382.345V395.7h-2.15a62.51,62.51,0,0,0-30.308,7.844l-4.032,2.24-1.081.6-6.914-15.567,6.467-5.8h.332c1.582.151,8.423.725,11.322-.254,2.754-.936,6.171-3.9,14.28-1.812,4,1.021,7.409,5.5,11.285,4.1Z" transform="translate(-410.507 -170.55)"/>
      <path id="Path_3067" data-name="Path 3067" class="cls-13" d="M1022.905,332.216l4.462,5.012v12.155s-3.792,38.349-15.832,42.588-33.53-2.458-33.53-2.458-5.555-14.715-2.959-15.6,22.945-6.268,22.945-6.268-.284-22.5,4.172-29.189c0,0-2.9-20.953,7.137-21.4S1022.905,332.216,1022.905,332.216Z" transform="translate(-421.955 -144.724)"/>
      <path id="Path_3068" data-name="Path 3068" class="cls-15" d="M1024,332.216l4.462,5.012v12.155s-3.78,38.349-15.857,42.588-33.536-2.458-33.536-2.458-5.549-14.715-2.953-15.6,22.945-6.268,22.945-6.268-.29-22.5,4.172-29.189c0,0-2.9-20.953,7.137-21.4S1024,332.216,1024,332.216Z" transform="translate(-422.378 -144.724)"/>
      <path id="Path_3069" data-name="Path 3069" class="cls-13" d="M981.593,235.55a8.856,8.856,0,0,0-.507-4.341,3.362,3.362,0,0,0-3.538-2.041c-1.908.447-2.729,2.929-4.6,3.526-1.576.5-3.3-.6-4.046-2.089a10.691,10.691,0,0,1-.779-4.831v-5.585c0-2.029-.066-4.227-1.316-5.809-1.552-1.987-5.205-2.85-7.644-2.772a6.473,6.473,0,0,0-4.366,1.763A5.632,5.632,0,0,1,950.2,215a3.967,3.967,0,0,1-3.2-2.766v-.072a22.74,22.74,0,1,1,33.814,30.191A60.747,60.747,0,0,0,981.593,235.55Z" transform="translate(-411.117 -99.601)"/>
      <path id="Path_3070" data-name="Path 3070" class="cls-17" d="M946.328,205.2a3.973,3.973,0,0,1-3.2-2.772c-.187-.719-.139-1.485-.35-2.2-.519-1.751-2.415-2.663-3.623-3.991-2.512-2.669-2.349-7.053-.568-10.265,1.437-2.584,4.227-4.764,7.131-4.263,1.811.314,3.363,1.6,5.193,1.715s3.363-.876,4.97-1.606a18.718,18.718,0,0,1,12.324-1.093,7.168,7.168,0,0,1,3.394,1.709,30.287,30.287,0,0,1,1.812,2.542c2.083,2.651,5.8,3.17,9.118,3.768s7.059,1.908,8.152,5.1c.719,2.113,0,4.408-.392,6.606a1.908,1.908,0,0,0,.085,1.359c.519.857,1.812.5,2.79.706,1.884.392,2.367,2.814,2.415,4.734q.121,3.3.181,6.594a6.479,6.479,0,0,1-2.1,5.513L986.3,228.2c-3.267,3.925-6.733,8.5-6.075,13.556-1.546.694-3.381-.646-3.889-2.264s-.1-3.357.242-5.018a61.4,61.4,0,0,0,1.165-8.707,8.846,8.846,0,0,0-.507-4.342,3.33,3.33,0,0,0-3.538-2.047c-1.908.447-2.729,2.929-4.6,3.526-1.57.5-3.3-.6-4.046-2.089a10.7,10.7,0,0,1-.779-4.831v-5.591c0-2.023-.066-4.227-1.316-5.809-1.552-1.987-5.2-2.85-7.645-2.772a6.485,6.485,0,0,0-4.366,1.763A5.731,5.731,0,0,1,946.328,205.2Z" transform="translate(-407.258 -90.49)"/>
      <path id="Path_3071" data-name="Path 3071" class="cls-13" d="M960.79,337.55l6.98,28.682S973.277,366.2,960.79,337.55Z" transform="translate(-416.581 -152.848)"/>
      <path id="Path_3072" data-name="Path 3072" class="cls-13" d="M996.1,329.61s-9.142,14.975-5.573,30.451l1.7.127S989.187,353.02,996.1,329.61Z" transform="translate(-428.034 -149.702)"/>
      <path id="Path_3073" data-name="Path 3073" class="cls-13" d="M1009.9,469.408s11.225-3.713,12.04,4.9C1021.94,474.311,1019.821,468.406,1009.9,469.408Z" transform="translate(-436.037 -204.772)"/>
      <path id="Path_3074" data-name="Path 3074" class="cls-13" d="M943.591,388s-2.228,15.609,1.812,21.852a48.954,48.954,0,0,1-19.624,2.675L924.42,388Z" transform="translate(-402.172 -172.835)"/>
      <path id="Path_3075" data-name="Path 3075" class="cls-13" d="M953.455,407.609l-1.081.6-6.914-15.567,6.467-5.8h.332C952.156,387.6,950.357,401,953.455,407.609Z" transform="translate(-410.507 -172.38)"/>
      <path id="Path_3076" data-name="Path 3076" class="cls-15" d="M939.364,386.85s-2.228,15.6,1.811,21.846a48.951,48.951,0,0,1-19.624,2.675l-7.8-24.521Z" transform="translate(-397.944 -172.38)"/>
      <path id="Path_3077" data-name="Path 3077" class="cls-12" d="M889.546,805.88a5.042,5.042,0,0,1-4.329,4.414c-6.038.906-20.639,3.212-24.322,4.964-4.68,2.228-23.187.67-24.08-1.558a3.538,3.538,0,0,1,.32-2.681,7.192,7.192,0,0,1,3.019-3.218,7.4,7.4,0,0,1,1.341-.6c3.484-1.165,10.066-3.623,11.847-6.219,0,0,8.206-7.179,10.543-11.062a5.368,5.368,0,0,1,4.287-2.669c1.957-.091,4.13.894,5.018,5.175,0,0,10.7,6.1,13.592.749,0,0,.447,8.224,2.222,10.47h0a2.982,2.982,0,0,1,.543,2.24Z" transform="translate(-367.413 -331.004)"/>
      <path id="Path_3078" data-name="Path 3078" class="cls-13" d="M889.546,816.648a5.042,5.042,0,0,1-4.329,4.414c-6.038.906-20.639,3.212-24.322,4.964-4.68,2.228-23.187.67-24.08-1.558a3.538,3.538,0,0,1,.32-2.681,7.192,7.192,0,0,1,3.019-3.218c3.019,2,9.715,3.961,24.449,1.66,14.051-2.192,21.007-4.342,24.4-5.809h0A2.983,2.983,0,0,1,889.546,816.648Z" transform="translate(-367.413 -341.772)"/>
      <g id="Group_2363" data-name="Group 2363" class="cls-3" transform="translate(530.001 100.251)">
        <path id="Path_3079" data-name="Path 3079" d="M1024.958,210.9V210.8a20.645,20.645,0,0,0,.688-5.066,32.468,32.468,0,0,1-.688,4.064A2.471,2.471,0,0,0,1024.958,210.9Z" transform="translate(-971.978 -200.875)"/>
        <path id="Path_3080" data-name="Path 3080" d="M977.221,228.588a6.569,6.569,0,0,1,.55,2.548,7.594,7.594,0,0,0-.55-3.55,3.327,3.327,0,0,0-3.532-2.047c-1.908.447-2.73,2.929-4.6,3.526-1.576.5-3.3-.6-4.052-2.089a10.608,10.608,0,0,1-.773-4.831v-5.591c0-2.023-.067-4.227-1.316-5.809-1.552-1.987-5.211-2.85-7.644-2.772a6.472,6.472,0,0,0-4.366,1.763,5.644,5.644,0,0,1-4.6,1.636,3.973,3.973,0,0,1-3.2-2.772c-.187-.719-.139-1.485-.35-2.2-.525-1.751-2.415-2.663-3.623-3.991a7.245,7.245,0,0,1-1.878-4.716,7.6,7.6,0,0,0,1.878,5.718c1.256,1.328,3.122,2.246,3.623,4,.211.712.163,1.479.35,2.2a3.973,3.973,0,0,0,3.2,2.772,5.61,5.61,0,0,0,4.6-1.636,6.473,6.473,0,0,1,4.366-1.763c2.415-.079,6.093.791,7.644,2.772,1.25,1.594,1.31,3.786,1.316,5.809v5.591a10.189,10.189,0,0,0,.773,4.831c.773,1.455,2.476,2.59,4.052,2.089,1.872-.6,2.693-3.08,4.6-3.526A3.335,3.335,0,0,1,977.221,228.588Z" transform="translate(-937.259 -197.69)"/>
        <path id="Path_3081" data-name="Path 3081" d="M1023.679,237.763a8.558,8.558,0,0,1-1.9,3.067q-3.677,4.426-7.361,8.846c-3.1,3.726-6.382,8.037-6.141,12.789.223-4.36,3.261-8.327,6.141-11.787l7.361-8.84a8.631,8.631,0,0,0,1.9-3.074,8.3,8.3,0,0,0,.193-2.415A5.82,5.82,0,0,1,1023.679,237.763Z" transform="translate(-965.392 -213.006)"/>
        <path id="Path_3082" data-name="Path 3082" d="M1001.843,276.328a5.273,5.273,0,0,1-.217-1.208,6.034,6.034,0,0,0,.217,2.2c.507,1.618,2.349,2.953,3.895,2.258-.042-.326-.066-.652-.078-.978C1004.1,279.238,1002.314,277.922,1001.843,276.328Z" transform="translate(-962.751 -228.366)"/>
      </g>
      <path id="Path_3083" data-name="Path 3083" class="cls-13" d="M879.26,795s2.331,4.1,10.772.489" transform="translate(-384.28 -334.078)"/>
      <path id="Path_3084" data-name="Path 3084" class="cls-13" d="M997.5,796.67s7.282,8.574,16.46,2.808" transform="translate(-431.124 -334.74)"/>
      <path id="Path_3085" data-name="Path 3085" class="cls-13" d="M1029.119,628.7s-5.151,3.218-5.314,5.06,2.657-1.341,2.657-1.341Z" transform="translate(-441.543 -268.194)"/>
      <path id="Path_3086" data-name="Path 3086" class="cls-13" d="M1029.938,669.53a10.753,10.753,0,0,1-6.34,2.476c-3.846.169-3.526,5.187-1.014,3.677S1029.938,669.53,1029.938,669.53Z" transform="translate(-440.315 -284.37)"/>
      <path id="Path_3087" data-name="Path 3087" class="cls-13" d="M1034.654,674.86s-2.47,12.137-4.474,9.794" transform="translate(-444.071 -286.482)"/>
      <path id="Path_3088" data-name="Path 3088" class="cls-4" d="M190.284,768.36s3.315,4.335-1.534,10.869-8.846,12.077-7.246,16.158c0,0,7.312-12.161,13.284-12.33S196.836,775.672,190.284,768.36Z" transform="translate(-107.705 -323.524)"/>
      <path id="Path_3089" data-name="Path 3089" class="cls-13" d="M190.417,768.36a5.208,5.208,0,0,1,.676,1.359c5.809,6.823,8.906,13.193,3.321,13.357-5.2.145-11.473,9.45-12.934,11.8a5.469,5.469,0,0,0,.175.531s7.312-12.161,13.284-12.33S196.968,775.672,190.417,768.36Z" transform="translate(-107.837 -323.524)"/>
      <path id="Path_3090" data-name="Path 3090" class="cls-18" d="M205.987,776.87c0,1.528-.169,2.766-.38,2.766s-.386-1.238-.386-2.766.217-.8.429-.8S205.987,775.355,205.987,776.87Z" transform="translate(-117.243 -326.51)"/>
      <path id="Path_3091" data-name="Path 3091" class="cls-18" d="M208.28,779.845c-1.341.731-2.512,1.171-2.615.99s.906-.93,2.246-1.661.809-.2.912,0S209.62,779.114,208.28,779.845Z" transform="translate(-117.416 -327.661)"/>
      <path id="Path_3092" data-name="Path 3092" class="cls-4" d="M162.373,768.36s-3.315,4.335,1.534,10.869,8.846,12.077,7.246,16.158c0,0-7.312-12.161-13.284-12.33S155.827,775.672,162.373,768.36Z" transform="translate(-97.317 -323.524)"/>
      <path id="Path_3093" data-name="Path 3093" class="cls-13" d="M162.364,768.36a5.434,5.434,0,0,0-.676,1.359c-5.809,6.823-8.906,13.193-3.321,13.357,5.2.145,11.473,9.45,12.934,11.8a4.223,4.223,0,0,1-.175.531s-7.312-12.161-13.284-12.33S155.819,775.672,162.364,768.36Z" transform="translate(-97.308 -323.524)"/>
      <path id="Path_3094" data-name="Path 3094" class="cls-18" d="M157.05,776.87c0,1.528.169,2.766.38,2.766s.386-1.238.386-2.766-.217-.8-.429-.8S157.05,775.355,157.05,776.87Z" transform="translate(-98.159 -326.51)"/>
      <path id="Path_3095" data-name="Path 3095" class="cls-18" d="M153.014,779.845c1.34.731,2.506,1.171,2.609.99s-.906-.93-2.246-1.661-.809-.2-.912,0S151.673,779.114,153.014,779.845Z" transform="translate(-96.236 -327.661)"/>
      <path id="Path_3096" data-name="Path 3096" class="cls-19" d="M158.8,808.922s9.275-.284,12.077-2.276,14.262-4.366,14.957-1.171,13.936,15.875,3.466,15.959-24.328-1.63-27.118-3.333S158.8,808.922,158.8,808.922Z" transform="translate(-98.852 -337.609)"/>
      <path id="Path_3097" data-name="Path 3097" class="cls-20" d="M189.48,823.6c-10.47.085-24.328-1.63-27.118-3.333-2.125-1.292-2.971-5.935-3.255-8.079H158.8s.6,7.481,3.375,9.178,16.647,3.417,27.118,3.333c3.019,0,4.07-1.1,4.009-2.693C192.886,822.98,191.733,823.584,189.48,823.6Z" transform="translate(-98.852 -340.889)"/>
      <g id="Group_2766" data-name="Group 2766" transform="translate(-63.551 -65.074)">
        <g id="Group_2756" data-name="Group 2756" transform="translate(212.972 160.269)">
          <path id="Path_1258" data-name="Path 1258" class="cls-4" d="M83.962,34.2c-3.509,1.9-6.721,4.4-10.112,6.483a19.859,19.859,0,0,0-1.9,1.249c0-2.022.059-3.807,0-5.591-.059-2.5.892-5.413-.357-7.376-1.249-1.844-3.985-2.677-6.067-3.926-6.186-3.688-12.432-7.257-18.618-11a2.865,2.865,0,0,0-3.271-.059Q34.176,19.329,24.719,24.5c-.595.357-1.249.595-1.844.892-3.212-1.9-6.543-3.628-9.874-5.353-.892-.476-2.022-.714-2.2-2.022,8.327-4.937,16.655-9.814,24.982-14.87A31.63,31.63,0,0,1,42.92-.3h3.39a34.711,34.711,0,0,1,7.673,3.153c8.387,4.937,16.833,9.874,25.339,14.692a11.551,11.551,0,0,1,4.7,4.4C83.962,26.169,83.962,30.214,83.962,34.2Z" transform="translate(-4.376 0.3)"/>
          <path id="Path_1260" data-name="Path 1260" class="cls-4" d="M78.813,89.16c.654.535.416,1.309.416,1.963.059,4.283.059,8.565.059,12.789-2.558,1.963-5.472,3.153-8.268,4.759-6.424,3.628-12.848,7.2-19.331,10.766-3.569,1.963-7.138,3.926-10.647,5.948a2.147,2.147,0,0,1-2.558-.119Q19.926,113.488,1.249,101.889A2.388,2.388,0,0,1,0,99.629c.059-4.1,0-8.268,0-12.729,3.093,1.844,5.889,3.569,8.684,5.294,9.814,5.948,19.569,11.9,29.384,17.963a2.857,2.857,0,0,0,3.39.059c12.134-6.781,24.625-12.967,36.284-20.581A4.225,4.225,0,0,1,78.813,89.16Z" transform="translate(0 -35.032)"/>
          <path id="Path_1261" data-name="Path 1261" class="cls-4" d="M58.309,60.823c-1.19,1.071-2.736,1.487-4.045,2.26-.714.416-1.309-.059-1.9-.357C48.97,61,45.52,59.277,42.13,57.492c-1.19-.654-1.784-.714-1.725.952.059,3.926.059,7.792,0,11.718a2.168,2.168,0,0,0,1.19,2.141c3.569,2.2,7.138,4.461,10.588,6.84a2.141,2.141,0,0,0,2.558,0c5.889-3.271,11.956-6.305,17.9-10.231v6.424a1.536,1.536,0,0,1-.892,1.368c-5.889,3.331-11.837,6.6-17.726,9.933a1.328,1.328,0,0,1-1.547-.178c-5.77-3.628-11.6-7.257-17.369-10.885A1.884,1.884,0,0,1,34.1,73.731c.059-6.305.059-12.551,0-18.856a1.716,1.716,0,0,1,.952-1.844c1.963-1.071,3.926-2.2,5.889-3.331a13.547,13.547,0,0,0,5.71,3.331l6.781,3.747c.059,1.309,1.368,1.309,2.141,1.844C56.525,59.217,58.012,59.277,58.309,60.823Z" transform="translate(-13.817 -19.959)"/>
          <path id="Path_1262" data-name="Path 1262" class="cls-4" d="M.1,39.4c4.342,2.2,8.446,4.342,12.551,6.483.595.3.595.892.595,1.428V74.2a9.118,9.118,0,0,1-3.093-1.665c-2.974-1.784-5.889-3.569-8.8-5.413C.695,66.7.159,66.4.159,65.453.1,56.888.1,48.322.1,39.4Z" transform="translate(-0.041 -15.786)"/>
          <path id="Path_1263" data-name="Path 1263" class="cls-4" d="M62.928,56.209c-.3-1.547-1.784-1.606-2.8-2.26-.773-.535-2.022-.535-2.141-1.844,2.915-.833,5.532-2.439,8.506-3.926-2.558-1.309-4.759-2.5-7.019-3.628a1.141,1.141,0,0,0-1.071-.238c-2.5,1.19-5.175,2.082-7.2,4.045a14.2,14.2,0,0,1-5.71-3.331c3.39-2.022,6.721-4.1,10.112-6.067a5.929,5.929,0,0,1,5.948.357c4.7,2.677,9.339,5.353,14.038,8.089a3.121,3.121,0,0,1,1.665,2.915c-.059,3.688-.059,7.435,0,11.123a2.158,2.158,0,0,1-1.309,2.2c-1.428.773-2.736,1.665-4.461,2.677V54.365c0-2.2,0-2.141-2.022-1.13C67.389,54.246,65.307,55.614,62.928,56.209Z" transform="translate(-18.436 -15.346)"/>
          <path id="Path_1264" data-name="Path 1264" class="cls-4" d="M6.527,30.8c.119,1.309,1.309,1.547,2.2,2.022,3.331,1.665,6.662,3.39,9.874,5.353-.416.416-1.071.476-1.428.773-2.677,2.736-5.234,1.665-7.971,0S3.553,35.975.4,34.309C2.6,33,4.564,31.871,6.527,30.8Z" transform="translate(-0.162 -12.301)"/>
        </g>
      </g>
    </g>
  </g>
</svg>
