<svg xmlns="http://www.w3.org/2000/svg" xmlns:xlink="http://www.w3.org/1999/xlink" viewBox="0 0 693 507">
  <defs>
    <style>
      .cls-1 {
        clip-path: url(#clip-img-14);
      }

      .cls-2, .cls-6 {
        fill: #066de8;
      }

      .cls-15, .cls-2, .cls-9 {
        opacity: 0.1;
      }

      .cls-3 {
        opacity: 0.7;
      }

      .cls-4 {
        fill: #f6f7f9;
      }

      .cls-5 {
        opacity: 0.2;
      }

      .cls-7 {
        fill: url(#linear-gradient);
      }

      .cls-8 {
        opacity: 0.5;
      }

      .cls-10 {
        fill: url(#linear-gradient-3);
      }

      .cls-11 {
        fill: url(#linear-gradient-4);
      }

      .cls-12 {
        fill: #efb7b9;
      }

      .cls-13 {
        fill: #444053;
      }

      .cls-14 {
        fill: #b07473;
      }

      .cls-15, .cls-19, .cls-23 {
        fill: #585858;
      }

      .cls-16 {
        fill: #e1e7ef;
      }

      .cls-17 {
        fill: #67647e;
      }

      .cls-18 {
        fill: #585268;
      }

      .cls-19 {
        opacity: 0.03;
      }

      .cls-20 {
        fill: url(#linear-gradient-5);
      }

      .cls-21 {
        fill: #a27772;
      }

      .cls-22 {
        fill: #cc818c;
      }

      .cls-24 {
        fill: #f6f8fb;
      }
    </style>
    <linearGradient id="linear-gradient" x1="0.5" y1="1" x2="0.5" gradientUnits="objectBoundingBox">
      <stop offset="0" stop-color="gray" stop-opacity="0.251"/>
      <stop offset="0.54" stop-color="gray" stop-opacity="0.122"/>
      <stop offset="1" stop-color="gray" stop-opacity="0.102"/>
    </linearGradient>
    <linearGradient id="linear-gradient-3" x1="0.5" y1="1.228" x2="0.5" y2="0.201" xlink:href="#linear-gradient"/>
    <linearGradient id="linear-gradient-4" x1="0.5" y1="1" x2="0.5" y2="0" xlink:href="#linear-gradient"/>
    <linearGradient id="linear-gradient-5" x1="0.5" y1="1" x2="0.5" y2="0" xlink:href="#linear-gradient"/>
    <clipPath id="clip-img-14">
      <rect width="693" height="507"/>
    </clipPath>
  </defs>
  <g id="img-14" class="cls-1">
    <g id="undraw_analysis_4jis" transform="translate(37.408 0.931)">
      <ellipse id="Ellipse_40" data-name="Ellipse 40" class="cls-2" cx="106.306" cy="18.114" rx="106.306" ry="18.114" transform="translate(0 469.841)"/>
      <ellipse id="Ellipse_41" data-name="Ellipse 41" class="cls-2" cx="106.306" cy="18.114" rx="106.306" ry="18.114" transform="translate(405.574 465.552)"/>
      <path id="Path_195" data-name="Path 195" class="cls-2" d="M279.073,31.364c-27.784,1.486-55.859,9.6-77.537,27.054-19.02,15.318-32.737,39.4-29.391,63.6,3.95,28.564,29.433,49.341,38.886,76.588,6.082,17.516,5.134,36.845,1.154,54.965-2.561,11.675-6.5,23.363-14.067,32.616-13.632,16.646-38.234,24.68-44.932,45.125-7.284,22.234,11.071,44.038,28.316,59.851,13.765,12.618,28.183,25.175,45.53,32.091,12.684,5.062,26.45,6.88,40.094,7.6a267.4,267.4,0,0,0,110.534-17.661c16.858-6.541,33.166-14.834,50.809-18.779,37.6-8.408,76.286,3.715,114.393,9.392a342.135,342.135,0,0,0,98.556.29c20.573-2.935,41.828-8.233,57.32-22.077,15.7-14.055,23.556-35.812,22.687-56.892s-9.761-41.375-22.856-57.924c-16.912-21.376-40.239-36.585-60.534-54.8a261.742,261.742,0,0,1-52.078-64.375c-7.973-13.892-14.756-28.636-25.085-40.867C544.764,88.1,521.4,76.762,498.056,68,444.2,47.83,388.344,43.722,332.2,34.807,314.649,32.011,296.849,30.434,279.073,31.364Z" transform="translate(-113.327 -31.08)"/>
      <g id="Group_56" data-name="Group 56" class="cls-3" transform="translate(156.16 43.616)">
        <rect id="Rectangle_63" data-name="Rectangle 63" class="cls-4" width="115.342" height="64.454" transform="translate(0 178.128)"/>
        <g id="Group_38" data-name="Group 38" class="cls-5" transform="translate(9.706 194.732)">
          <circle id="Ellipse_42" data-name="Ellipse 42" class="cls-6" cx="12.008" cy="12.008" r="12.008"/>
        </g>
        <g id="Group_39" data-name="Group 39" class="cls-5" transform="translate(48.363 192.51)">
          <rect id="Rectangle_64" data-name="Rectangle 64" class="cls-6" width="52.319" height="3.292"/>
        </g>
        <g id="Group_40" data-name="Group 40" class="cls-5" transform="translate(48.363 200.899)">
          <rect id="Rectangle_65" data-name="Rectangle 65" class="cls-6" width="26.655" height="3.292"/>
        </g>
        <g id="Group_41" data-name="Group 41" class="cls-5" transform="translate(48.363 209.289)">
          <rect id="Rectangle_66" data-name="Rectangle 66" class="cls-6" width="43.108" height="3.292"/>
        </g>
        <g id="Group_42" data-name="Group 42" class="cls-5" transform="translate(48.363 217.679)">
          <rect id="Rectangle_67" data-name="Rectangle 67" class="cls-6" width="52.319" height="3.292"/>
        </g>
        <g id="Group_43" data-name="Group 43" class="cls-5" transform="translate(86.21 229.789)">
          <rect id="Rectangle_68" data-name="Rectangle 68" class="cls-6" width="14.478" height="6.36"/>
        </g>
        <rect id="Rectangle_69" data-name="Rectangle 69" class="cls-4" width="115.342" height="64.454" transform="translate(97.106)"/>
        <g id="Group_44" data-name="Group 44" class="cls-5" transform="translate(106.819 16.604)">
          <circle id="Ellipse_43" data-name="Ellipse 43" class="cls-6" cx="12.008" cy="12.008" r="12.008"/>
        </g>
        <g id="Group_45" data-name="Group 45" class="cls-5" transform="translate(145.475 14.381)">
          <rect id="Rectangle_70" data-name="Rectangle 70" class="cls-6" width="52.319" height="3.292"/>
        </g>
        <g id="Group_46" data-name="Group 46" class="cls-5" transform="translate(145.475 22.771)">
          <rect id="Rectangle_71" data-name="Rectangle 71" class="cls-6" width="26.655" height="3.292"/>
        </g>
        <g id="Group_47" data-name="Group 47" class="cls-5" transform="translate(145.475 31.161)">
          <rect id="Rectangle_72" data-name="Rectangle 72" class="cls-6" width="43.108" height="3.292"/>
        </g>
        <g id="Group_48" data-name="Group 48" class="cls-5" transform="translate(145.475 39.557)">
          <rect id="Rectangle_73" data-name="Rectangle 73" class="cls-6" width="52.319" height="3.292"/>
        </g>
        <g id="Group_49" data-name="Group 49" class="cls-5" transform="translate(183.317 51.661)">
          <rect id="Rectangle_74" data-name="Rectangle 74" class="cls-6" width="14.478" height="6.36"/>
        </g>
        <rect id="Rectangle_75" data-name="Rectangle 75" class="cls-4" width="115.342" height="64.454" transform="translate(135.497 108.214)"/>
        <g id="Group_50" data-name="Group 50" class="cls-5" transform="translate(145.204 124.824)">
          <circle id="Ellipse_44" data-name="Ellipse 44" class="cls-6" cx="12.008" cy="12.008" r="12.008"/>
        </g>
        <g id="Group_51" data-name="Group 51" class="cls-5" transform="translate(183.866 122.602)">
          <rect id="Rectangle_76" data-name="Rectangle 76" class="cls-6" width="52.319" height="3.292"/>
        </g>
        <g id="Group_52" data-name="Group 52" class="cls-5" transform="translate(183.866 130.991)">
          <rect id="Rectangle_77" data-name="Rectangle 77" class="cls-6" width="26.655" height="3.292"/>
        </g>
        <g id="Group_53" data-name="Group 53" class="cls-5" transform="translate(183.866 139.381)">
          <rect id="Rectangle_78" data-name="Rectangle 78" class="cls-6" width="43.108" height="3.292"/>
        </g>
        <g id="Group_54" data-name="Group 54" class="cls-5" transform="translate(183.866 147.771)">
          <rect id="Rectangle_79" data-name="Rectangle 79" class="cls-6" width="52.319" height="3.292"/>
        </g>
        <g id="Group_55" data-name="Group 55" class="cls-5" transform="translate(221.707 159.881)">
          <rect id="Rectangle_80" data-name="Rectangle 80" class="cls-6" width="14.478" height="6.36"/>
        </g>
      </g>
      <rect id="Rectangle_81" data-name="Rectangle 81" class="cls-7" width="193.953" height="109.591" transform="translate(115.897 81.977)"/>
      <rect id="Rectangle_82" data-name="Rectangle 82" class="cls-4" width="191.229" height="106.867" transform="translate(117.268 83.336)"/>
      <g id="Group_57" data-name="Group 57" class="cls-5" transform="translate(133.359 110.872)">
        <circle id="Ellipse_45" data-name="Ellipse 45" class="cls-6" cx="19.908" cy="19.908" r="19.908"/>
      </g>
      <g id="Group_58" data-name="Group 58" class="cls-5" transform="translate(197.463 107.182)">
        <rect id="Rectangle_83" data-name="Rectangle 83" class="cls-6" width="86.748" height="5.454"/>
      </g>
      <g id="Group_59" data-name="Group 59" class="cls-5" transform="translate(197.463 121.098)">
        <rect id="Rectangle_84" data-name="Rectangle 84" class="cls-6" width="44.189" height="5.454"/>
      </g>
      <g id="Group_60" data-name="Group 60" class="cls-5" transform="translate(197.463 135.009)">
        <rect id="Rectangle_85" data-name="Rectangle 85" class="cls-6" width="71.472" height="5.454"/>
      </g>
      <g id="Group_61" data-name="Group 61" class="cls-5" transform="translate(197.463 148.919)">
        <rect id="Rectangle_86" data-name="Rectangle 86" class="cls-6" width="86.748" height="5.454"/>
      </g>
      <rect id="Rectangle_87" data-name="Rectangle 87" class="cls-6" width="24.003" height="10.546" transform="translate(260.201 168.996)"/>
      <rect id="Rectangle_88" data-name="Rectangle 88" class="cls-7" width="184.476" height="103.086" transform="translate(251.944 230.025)"/>
      <rect id="Rectangle_89" data-name="Rectangle 89" class="cls-4" width="181.927" height="101.667" transform="translate(253.219 230.732)"/>
      <g id="Group_62" data-name="Group 62" class="cls-5" transform="translate(268.53 256.928)">
        <circle id="Ellipse_46" data-name="Ellipse 46" class="cls-6" cx="18.942" cy="18.942" r="18.942"/>
      </g>
      <g id="Group_63" data-name="Group 63" class="cls-5" transform="translate(329.511 253.418)">
        <rect id="Rectangle_90" data-name="Rectangle 90" class="cls-6" width="82.526" height="5.188"/>
      </g>
      <g id="Group_64" data-name="Group 64" class="cls-5" transform="translate(329.511 266.658)">
        <rect id="Rectangle_91" data-name="Rectangle 91" class="cls-6" width="42.039" height="5.188"/>
      </g>
      <g id="Group_65" data-name="Group 65" class="cls-5" transform="translate(329.511 279.892)">
        <rect id="Rectangle_92" data-name="Rectangle 92" class="cls-6" width="67.993" height="5.188"/>
      </g>
      <g id="Group_66" data-name="Group 66" class="cls-5" transform="translate(329.511 293.126)">
        <rect id="Rectangle_93" data-name="Rectangle 93" class="cls-6" width="82.526" height="5.188"/>
      </g>
      <g id="Group_67" data-name="Group 67" class="cls-8" transform="translate(389.199 312.225)">
        <rect id="Rectangle_94" data-name="Rectangle 94" class="cls-6" width="22.838" height="10.033"/>
      </g>
      <g id="Group_68" data-name="Group 68" class="cls-9" transform="translate(50.048 173.904)">
        <path id="Path_196" data-name="Path 196" class="cls-10" d="M171.13,318.994l.447.1A.6.6,0,0,0,171.13,318.994Z" transform="translate(-171.13 -318.985)"/>
      </g>
      <path id="Path_197" data-name="Path 197" class="cls-11" d="M246.168,361.935c-1.335-8.963-9.477-29.874-9.477-29.874h0c-.145-.6-.3-1.244-.483-1.86-5.78-19.866-13.777-21.623-13.777-21.623l-28.648-6.107a2.138,2.138,0,0,1,.6.568l-.453.072a11.216,11.216,0,0,1-2.513-5.436c-.054-.3-.1-.6-.139-.918a20.144,20.144,0,0,0-1.643-30.3c-.3-.236-.6-.459-.918-.683,1.353-1.431,1.4-3.431.387-5.436-2.259-4.693-7.164-7.659-12.213-9.1a20.69,20.69,0,0,0-11.851-.254,43.372,43.372,0,0,0-6.2,2.875c-3.805,1.9-8,3.407-10.872,6.529a3.194,3.194,0,0,0-1.087,2.621,7.08,7.08,0,0,0,1.081,1.909,5.81,5.81,0,0,1,.054,4.772c-.55,1.552-1.383,3.02-1.776,4.59a4.79,4.79,0,0,0,.96,4.6,20.75,20.75,0,0,0,1.812,1.268,9.224,9.224,0,0,1,1.709,1.915l3.395,4.584a46.853,46.853,0,0,1,4.228,6.457,30.805,30.805,0,0,0,2.627,4.929,7.743,7.743,0,0,0,1.129,1.208c-.109-.042-.223-.079-.332-.127a5.14,5.14,0,0,0,3.793,1.456h.169a1.033,1.033,0,0,0,.695-.284v.6c.06,2.2.054,4.548-.1,6.747l-.266-.133a2.3,2.3,0,0,0-2.47.26L137.2,328.908s-5.732,7.852-4.935,21.382L127.643,370.6s-5.78,17.232-1.335,29.536,7.025,19.328,7.025,19.328,1.776,13.977,4.446,15.1,3.823,1.764,3.823,1.764l.532,3.34h0s.175.32.489.876c1.945,3.376,9.139,15.3,13.324,14.031a54.257,54.257,0,0,1,.683,9.791l4.131,27.784s2.887,7.556,2.712,11.512,3.376,9.586,3.376,9.586a18.326,18.326,0,0,0-1.776,12.92c1.691,7.387,3.823,41.489,3.823,41.489l3.111,8.263-.091,9.664a9.266,9.266,0,0,1-1.909,4.289c-2.005,2.174-1.872,4.687-6.644,7.653s-7.852,4.083-7.852,8.039a10.431,10.431,0,0,1-.145,1.631c-.447,2.893-1.311,4.452,7.55,5.3a23.331,23.331,0,0,0,17.335-5.8s1.528-2.772,8.734-3.89c0,0,2.458-.133,2.6-2.313.048-.749.036-2.186-.03-3.769-.115-3.02-.4-6.535-.785-6.711-.477-.211-1.323-3.25-1.613-4.349h2.005s1.866-13.977,0-23.037a36.951,36.951,0,0,1-.175-15.469l-.356-23.907s-2.519-2.555-.544-7.206,0-27.688,0-27.688.719-8.263,2.76-10.2.1-12.11,0-12.642l3.624,12.2s1.6,24.263,4.983,28.66l.978,10.981s6.934,10.111,5.6,15.565,1.425,25.139,1.425,25.139v20.132s-3.117,8.088,1.244,10.987l1.878-.073c-.64.6-1.1,1.444-1.812,2.187-.834.858-1.3,4.119-1.57,6.922-.223,2.374-.3,4.415-.3,4.415a7.3,7.3,0,0,0,5.333,3.165c3.467.2,14.937,8.97,14.937,8.97s11.343,0,14.273-.6l.175-.042a3.871,3.871,0,0,0,2.211-1.812,4.614,4.614,0,0,0,.538-3.322c-.368-1.734-1.74-3.624-4.79-5.249-7.6-4.017-8.734-7.774-8.734-7.774l-4.983-7.466h.713s-.441-7.912,4.977-16.791l-.35-39.116s2.217-13.451-1.6-20.748c0,0-.314-7.737,2.241-10.111s-3.4-26.371-3.4-26.371-1.208-12.878-2.682-24.632h0c6,5.69,12.225-14.8,13.288-18.446h.157s-.03-.1-.072-.266a.254.254,0,0,1,.072-.26h0c0-.03-1.329-4.741-.356-3.781s3.382-2.633,3.382-2.633-.356-19.606,3.823-29.488S246.168,361.935,246.168,361.935ZM228.3,374.408l.03-.054c.6,11.971-.121,37.515-.121,37.515s-.821,3.274-1.7,7.127l-.634-24.269h0l-.6-22.856Zm-76.546-8.251s3.02,37.8,0,43.247a28.2,28.2,0,0,0-2.18,7.472c-1-2.621-3.111-8.776-2.356-12.038.978-4.228-1.957-15.3-1.957-15.559s-.266-6.155,1.866-10.685.713-6.463.713-6.463S149.617,364.75,151.749,366.157Z" transform="translate(-102.667 -117.855)"/>
      <path id="Path_198" data-name="Path 198" class="cls-12" d="M171.24,570.8c-2.627,11.573-13.1-5.931-15.487-10.129l-.483-.87,1.136-5.321,6-2.446a16.579,16.579,0,0,1,2.682,1.752A16.135,16.135,0,0,1,171.24,570.8Z" transform="translate(-114.801 -237.365)"/>
      <path id="Path_199" data-name="Path 199" class="cls-12" d="M304.9,549.8l-.066.26a1.553,1.553,0,0,1-.085.284c-1.027,3.624-7.133,23.955-13.028,18.307-6.451-6.2-3.316-20.428-3.316-20.428h.06l13.572-1.389,2.688,2.766h0Z" transform="translate(-167.218 -235.306)"/>
      <path id="Path_200" data-name="Path 200" class="cls-13" d="M248.809,650.947l.344,38.826a32.007,32.007,0,0,0-4.886,16.671l-17.516.695c-4.276-2.875-1.208-10.9-1.208-10.9V676.249s-2.736-19.534-1.431-24.97-5.5-15.444-5.5-15.444l-.954-10.9c-3.322-4.361-4.892-28.449-4.892-28.449L209.2,584.4c.091.525,1.945,10.679,0,12.545s-2.706,10.123-2.706,10.123,1.921,22.862,0,27.482.519,7.248.519,7.248l.356,23.732a37.126,37.126,0,0,0,.169,15.36c1.83,8.988,0,22.862,0,22.862H188.692l.085-9.664-3.05-8.2s-2.1-33.855-3.751-41.181a18.386,18.386,0,0,1,1.74-12.829s-3.485-5.587-3.31-9.513-2.664-11.428-2.664-11.428l-4.059-27.573a53.485,53.485,0,0,0-2.005-15.7c-2.362-7.852-5.847-18.15-5.847-18.15l3.938.35,19.884,1.77s48.321-3.25,50.5-.55a9.019,9.019,0,0,1,.918,2.815c2.168,9.755,5.037,40.293,5.037,40.293s5.847,23.822,3.334,26.178-2.2,10.033-2.2,10.033C250.989,637.6,248.809,650.947,248.809,650.947Z" transform="translate(-118.983 -236.367)"/>
      <path id="Path_201" data-name="Path 201" class="cls-14" d="M212.1,817.144c-.139,2.162-2.555,2.3-2.555,2.3-7.067,1.111-8.565,3.866-8.565,3.866a22.847,22.847,0,0,1-17,5.786c-8.692-.834-7.852-2.416-7.405-5.255a10.263,10.263,0,0,0,.139-1.619c0-3.926,3.02-5.043,7.725-7.985s4.578-5.436,6.541-7.592,2.162-6.342,2.162-6.342c2.223-3.866,7.852.6,7.852.6.26,1.371,8.637,1.208,8.637,1.208s1.111,4.452,1.679,4.711c.374.175.658,3.666.773,6.644C212.138,814.975,212.144,816.407,212.1,817.144Z" transform="translate(-123.137 -335.054)"/>
      <path id="Path_202" data-name="Path 202" class="cls-15" d="M212.1,826.757c-.139,2.162-2.555,2.3-2.555,2.3-7.067,1.111-8.565,3.866-8.565,3.866a22.847,22.847,0,0,1-17,5.786c-8.692-.833-7.852-2.416-7.405-5.255,3.884.966,11.313,2.307,15.65-.048,6.04-3.274,10.347-5.563,10.347-5.563l9.5-4.838C212.138,824.589,212.144,826.02,212.1,826.757Z" transform="translate(-123.137 -344.667)"/>
      <path id="Path_203" data-name="Path 203" class="cls-14" d="M299.977,830.373a3.793,3.793,0,0,1-2.174,1.812.867.867,0,0,1-.169.042c-2.881.6-14.007.6-14.007.6s-11.277-8.734-14.659-8.933a7.227,7.227,0,0,1-5.237-3.141s.066-2.03.284-4.385c.266-2.784.731-6.04,1.546-6.874,1.51-1.57,1.812-3.727,5.237-2.356,0,0,4.832-8.523,10.534-1.939l5.9,8.945s1.111,3.727,8.577,7.719c2.99,1.6,4.337,3.485,4.693,5.207A4.608,4.608,0,0,1,299.977,830.373Z" transform="translate(-157.751 -336.631)"/>
      <path id="Path_204" data-name="Path 204" class="cls-15" d="M299.977,839.331c-.664.562-1.407,1.166-2.174,1.812a.868.868,0,0,1-.169.042c-2.881.6-14.007.6-14.007.6s-11.277-8.734-14.659-8.933a7.227,7.227,0,0,1-5.237-3.141s.066-2.03.284-4.385c3.461,1.039,8.716,2.869,10.123,4.832,2.156,3.02,8.71,7.194,8.71,7.194s12.219-1.172,17.649-1.335a4.609,4.609,0,0,1-.52,3.31Z" transform="translate(-157.751 -345.589)"/>
      <path id="Path_205" data-name="Path 205" class="cls-12" d="M223.628,330.942l-16.1,17.015s-19.5-1.438-16.1-7.2c1.734-2.929,2.005-9.06,1.854-14.412-.145-5.152-.676-9.537-.676-9.537s27.356-13.614,25.26-.918a21.062,21.062,0,0,0-.078,7.248C218.977,329.553,223.628,330.942,223.628,330.942Z" transform="translate(-128.962 -141.712)"/>
      <path id="Path_206" data-name="Path 206" class="cls-15" d="M218.89,315.89a21.061,21.061,0,0,0-.079,7.248,20.077,20.077,0,0,1-14.315,5.974c-3.721,0-7.7-3.02-10.691-4.8-.145-5.152-.175-7.5-.175-7.5S220.986,303.194,218.89,315.89Z" transform="translate(-129.992 -141.712)"/>
      <path id="Path_207" data-name="Path 207" class="cls-12" d="M218.563,293.006a20.162,20.162,0,1,1-7.586-15.753A20.162,20.162,0,0,1,218.563,293.006Z" transform="translate(-123.896 -126.813)"/>
      <path id="Path_208" data-name="Path 208" class="cls-15" d="M243.049,554.045c-5.019,11.947-37.31,12.195-37.31,12.195V553.217l-1.957-.127c.846,3.727-1.208,12.823-1.208,12.823-25.519,3.624-31.735-10.927-31.735-10.927l.882-4.977,19.884,1.77s48.321-3.25,50.5-.55A9.018,9.018,0,0,1,243.049,554.045Z" transform="translate(-120.967 -236.565)"/>
      <path id="Path_209" data-name="Path 209" class="cls-16" d="M205.74,481.658V468.629l-1.957-.121c.846,3.727-1.208,12.823-1.208,12.823-19.2,2.706-27.482-4.832-30.4-8.758a11.868,11.868,0,0,1-1.335-2.174l7.786-43.845,1.812-64.526,2.809-11.319.652-5.436v-.06l.066.03,1.981.852,11.887,5.134,13.572-10.19.2-.151.67-.507,1.117.9,2.772,2.223,8.9,57.465s15.438,44.25,18.3,62.11c.115.713.211,1.377.284,2C245.532,481.356,205.74,481.658,205.74,481.658Z" transform="translate(-120.967 -153.553)"/>
      <circle id="Ellipse_47" data-name="Ellipse 47" class="cls-17" cx="1.148" cy="1.148" r="1.148" transform="translate(77.21 197.771)"/>
      <circle id="Ellipse_48" data-name="Ellipse 48" class="cls-17" cx="1.148" cy="1.148" r="1.148" transform="translate(77.742 208.239)"/>
      <circle id="Ellipse_49" data-name="Ellipse 49" class="cls-17" cx="1.148" cy="1.148" r="1.148" transform="translate(78.884 225.193)"/>
      <circle id="Ellipse_50" data-name="Ellipse 50" class="cls-17" cx="1.148" cy="1.148" r="1.148" transform="translate(80.786 243.446)"/>
      <circle id="Ellipse_51" data-name="Ellipse 51" class="cls-17" cx="1.148" cy="1.148" r="1.148" transform="translate(81.928 260.594)"/>
      <circle id="Ellipse_52" data-name="Ellipse 52" class="cls-17" cx="1.148" cy="1.148" r="1.148" transform="translate(83.075 278.853)"/>
      <circle id="Ellipse_53" data-name="Ellipse 53" class="cls-17" cx="1.148" cy="1.148" r="1.148" transform="translate(82.616 296.919)"/>
      <path id="Path_210" data-name="Path 210" class="cls-15" d="M184.752,435.989s-1.28,16.791-3.624,21.672-3.407,18.585-3.407,18.585l-5.436-.6a11.863,11.863,0,0,1-1.335-2.174l7.786-43.845,1.812-64.526,2.809-11.319.652-5.436a.158.158,0,0,1,.072-.03,2.2,2.2,0,0,1,1.945.03l.266.133c-.079.223-.157.453-.23.689-2.126,6.674-2.923,18.984-2.923,18.984s3.056,22.511,3.4,32.985S184.752,435.989,184.752,435.989Z" transform="translate(-121.011 -156.611)"/>
      <path id="Path_211" data-name="Path 211" class="cls-15" d="M165.091,553.782a3.624,3.624,0,0,1-.205.4c-2.12,3.582-7.5,5.859-9.133,6.481l-.483-.87,1.136-5.321,6-2.446A16.576,16.576,0,0,1,165.091,553.782Z" transform="translate(-114.801 -237.365)"/>
      <path id="Path_212" data-name="Path 212" class="cls-17" d="M139.295,413.06l-4.971,2.984L129.782,436.2s-5.672,17.106-1.3,29.319,6.91,19.177,6.91,19.177,1.746,13.892,4.361,15.01,3.757,1.746,3.757,1.746l.519,3.316s7.1-2.416,9.616-6.644-1.848-14.8-1.848-14.8-3.751-8.988-2.791-13.173S147.08,454.96,147.08,454.7s-.26-6.113,1.812-10.606.7-6.409.7-6.409l-1.311-12.829Z" transform="translate(-103.537 -182.334)"/>
      <path id="Path_213" data-name="Path 213" class="cls-15" d="M269.849,467.519s-13.173,4.977-17.365.6-3.751-24.764-3.751-24.764-4.011-37.7-6.547-43.887-1.208-50.876-1.208-50.876-1.715-5.768-3.183-7.3a1.492,1.492,0,0,0-.314-.26l.513.109,1.812.393,2.772,2.223,8.9,57.465s15.438,44.25,18.3,62.11Z" transform="translate(-147.356 -153.815)"/>
      <path id="Path_214" data-name="Path 214" class="cls-15" d="M305.384,550.309h-.151c-1.655.211-16.308,1.981-16.363-1.063a9.394,9.394,0,0,1,.06-1.057L302.5,546.8l2.688,2.766h0c.048.181.091.338.127.459Z" transform="translate(-167.706 -235.294)"/>
      <path id="Path_215" data-name="Path 215" class="cls-17" d="M291.364,379.63,301,384.649s7.991,20.754,9.3,29.657c0,0,5.931,23.84,1.812,33.643s-3.751,29.27-3.751,29.27-2.356,3.576-3.316,2.615.35,3.751.35,3.751-16.447,2.187-16.526-1.051,3.775-18.676,3.775-18.676,1.045-36.736-.441-42.492S291.364,379.63,291.364,379.63Z" transform="translate(-167.705 -169.096)"/>
      <path id="Path_216" data-name="Path 216" class="cls-15" d="M240.279,444.41s-5.436,13.258-7.158,14.134.35,4.361.35,4.361S243.336,449.121,240.279,444.41Z" transform="translate(-145.359 -194.749)"/>
      <path id="Path_217" data-name="Path 217" class="cls-15" d="M234.543,367.4c.06-.254-6.463,6.4-8.2,7.387S232.682,374.728,234.543,367.4Z" transform="translate(-142.848 -164.249)"/>
      <path id="Path_218" data-name="Path 218" class="cls-15" d="M204.256,442.67s-9.948,6.439-8.643,8.976S204.256,442.67,204.256,442.67Z" transform="translate(-130.73 -194.059)"/>
      <path id="Path_219" data-name="Path 219" class="cls-15" d="M239.93,598.12a53.555,53.555,0,0,0,21.642,6.807Z" transform="translate(-148.326 -255.616)"/>
      <path id="Path_220" data-name="Path 220" class="cls-15" d="M206.27,619.79s7.852,9.857,11.434,10.123S206.27,619.79,206.27,619.79Z" transform="translate(-134.997 -264.197)"/>
      <path id="Path_221" data-name="Path 221" class="cls-15" d="M218.257,683.79c-.35.175-4.452,8.9-8.637,9.163S218.257,683.79,218.257,683.79Z" transform="translate(-135.991 -289.541)"/>
      <path id="Path_222" data-name="Path 222" class="cls-15" d="M284.72,715.252s7.78-1.74,9.507,3.841C294.227,719.093,293.708,717.348,284.72,715.252Z" transform="translate(-166.062 -301.898)"/>
      <path id="Path_223" data-name="Path 223" class="cls-15" d="M276.05,767.855s9.423-1.921,11.428.7S276.05,767.855,276.05,767.855Z" transform="translate(-162.629 -322.561)"/>
      <path id="Path_224" data-name="Path 224" class="cls-15" d="M225.84,775.67c0,.085-9.6,1.921-9.217,3.141s10.232,1.045,10.582-.876a1.812,1.812,0,0,0-1.365-2.265Z" transform="translate(-139.092 -325.925)"/>
      <path id="Path_225" data-name="Path 225" class="cls-15" d="M270.85,789.027s15.765-1.921,14.774,1.4S270.85,789.027,270.85,789.027Z" transform="translate(-160.57 -330.995)"/>
      <path id="Path_226" data-name="Path 226" class="cls-15" d="M134.18,467.81c.091.26,10.383,1.655,11.778,4.971,0,0-10.117-4.711-11.688-4.711" transform="translate(-106.45 -204.015)"/>
      <path id="Path_227" data-name="Path 227" class="cls-15" d="M152.929,512.45s-8.553,2.706-7.949,6.807S144.116,517.342,152.929,512.45Z" transform="translate(-110.715 -221.692)"/>
      <path id="Path_228" data-name="Path 228" class="cls-15" d="M151.56,544.478s3.117-4.276,6.082-3.491S151.56,544.478,151.56,544.478Z" transform="translate(-113.332 -232.954)"/>
      <path id="Path_229" data-name="Path 229" class="cls-15" d="M210.968,277.238a4.99,4.99,0,0,1-1,.749c-2.482,1.438-3.147,3.624-4.337,6.2-1.087,2.337-2.289,4.832-4.494,6.137-2.839,1.709-6.584,1.081-9.537,2.579a7.435,7.435,0,0,0-3.95,7.3,21.482,21.482,0,0,0,.846,3.34,24.106,24.106,0,0,1,.9,7.248.938.938,0,0,1,0,.224,20.162,20.162,0,1,1,21.6-33.782Z" transform="translate(-123.894 -126.797)"/>
      <path id="Path_230" data-name="Path 230" class="cls-18" d="M203.862,263.505c-2.217-4.657-7.031-7.6-11.984-9.06a20.1,20.1,0,0,0-11.633-.248,39.545,39.545,0,0,0-6.088,2.851c-3.739,1.891-7.852,3.382-10.661,6.487a3.184,3.184,0,0,0-1.063,2.6,7.058,7.058,0,0,0,1.057,1.891,5.772,5.772,0,0,1,.054,4.735,47.459,47.459,0,0,0-1.74,4.56,4.779,4.779,0,0,0,.936,4.566,21.22,21.22,0,0,0,1.764,1.256,9.5,9.5,0,0,1,1.673,1.9l3.328,4.548a45.9,45.9,0,0,1,4.168,6.415,31.653,31.653,0,0,0,2.579,4.886,5.568,5.568,0,0,0,4.675,2.495.888.888,0,0,0,.737-.35.924.924,0,0,0,.1-.465,23.773,23.773,0,0,0-.9-7.248,21.481,21.481,0,0,1-.846-3.34,7.441,7.441,0,0,1,3.95-7.3c2.96-1.492,6.7-.864,9.543-2.573,2.2-1.335,3.407-3.805,4.494-6.143,1.208-2.555,1.854-4.766,4.337-6.2S205.089,265.951,203.862,263.505Z" transform="translate(-117.314 -119.128)"/>
      <path id="Path_231" data-name="Path 231" class="cls-15" d="M216.61,815.58s3.068,3.926,2.283,6.149S216.61,815.58,216.61,815.58Z" transform="translate(-139.092 -341.729)"/>
      <path id="Path_232" data-name="Path 232" class="cls-15" d="M285.68,828.3s.683-5.267,3.431-5.315,2.881-.284,4.977.519,4.059,2.06,3.437,2.253-3.624-3.02-6.644-1.383a22.007,22.007,0,0,0-5.2,3.926Z" transform="translate(-166.443 -344.633)"/>
      <path id="Path_233" data-name="Path 233" class="cls-15" d="M196.09,361l8.6-6.04s-12.63-7.466-14.134-6.415-2.537,10.473-2.537,10.473Z" transform="translate(-127.77 -156.746)"/>
      <path id="Path_234" data-name="Path 234" class="cls-16" d="M196.053,360.254l8.637-6.185s-12.63-7.46-14.134-6.415-2.537,11-2.537,11Z" transform="translate(-127.77 -156.394)"/>
      <path id="Path_235" data-name="Path 235" class="cls-19" d="M196.053,360.254l8.637-6.185s-12.63-7.46-14.134-6.415-2.537,11-2.537,11Z" transform="translate(-127.77 -156.394)"/>
      <path id="Path_236" data-name="Path 236" class="cls-17" d="M172.627,347.593l-.26-.133a2.229,2.229,0,0,0-2.416.254l-25.9,21.013s-5.629,7.786-4.832,21.225l15.269,21.642s1.746-7.333,3.842-5.937c0,0,2.966,37.521,0,42.933s-4.276,25.652-4.276,25.652l10.033,1.136s1.045-13.7,3.4-18.585,3.624-21.678,3.624-21.678,2.12-24.4,1.77-34.875-3.4-32.979-3.4-32.979S170.332,354.068,172.627,347.593Z" transform="translate(-108.415 -156.261)"/>
      <path id="Path_237" data-name="Path 237" class="cls-15" d="M230.237,354.248l-10.757-3.986s13.7-15,15.408-6.68Z" transform="translate(-140.228 -153.825)"/>
      <path id="Path_238" data-name="Path 238" class="cls-16" d="M230.237,353.359l-10.757-3.98s13.7-15.01,15.408-6.686Z" transform="translate(-140.228 -153.473)"/>
      <path id="Path_239" data-name="Path 239" class="cls-19" d="M230.237,353.359l-10.757-3.98s13.7-15.01,15.408-6.686Z" transform="translate(-140.228 -153.473)"/>
      <path id="Path_240" data-name="Path 240" class="cls-15" d="M236.72,340.884a.6.6,0,0,1,.441.091Z" transform="translate(-147.055 -153.749)"/>
      <path id="Path_241" data-name="Path 241" class="cls-17" d="M238.45,339.143l28.558,6.161s7.852,1.746,13.524,21.46-7.768,43.881-7.768,43.881l-2.966-2.519,1.486,57.592s-13.18,4.971-17.365.6-3.757-24.764-3.757-24.764-4.011-37.708-6.547-43.917-1.208-50.876-1.208-50.876S240.045,338.8,238.45,339.143Z" transform="translate(-147.74 -153.059)"/>
      <path id="Path_242" data-name="Path 242" class="cls-15" d="M281.433,399.736c-.4.374-.87,17.8.876,31.064a169.21,169.21,0,0,0,4.947,23.907l-2.591-53.153S282.654,398.582,281.433,399.736Z" transform="translate(-164.612 -176.952)"/>
      <path id="Path_243" data-name="Path 243" class="cls-15" d="M275.9,375.06c.7.435,3.757,7.677,2.356,10.649S275.9,375.06,275.9,375.06Z" transform="translate(-162.57 -167.286)"/>
      <path id="Path_244" data-name="Path 244" class="cls-15" d="M213.8,265.792a15.7,15.7,0,0,0-6.276-6.572,14.9,14.9,0,0,1,4.705,5.527c1.208,2.446.87,4.9-1.528,6.288s-3.147,3.624-4.331,6.2c-1.087,2.337-2.3,4.832-4.5,6.137-2.839,1.715-6.578,1.087-9.537,2.573a7.447,7.447,0,0,0-3.95,7.3,20.821,20.821,0,0,0,.846,3.34,23.72,23.72,0,0,1,.894,7.248.93.93,0,0,1-.091.465.888.888,0,0,1-.737.35,4.228,4.228,0,0,1-2.15-.4,5.007,5.007,0,0,0,3.721,1.444.888.888,0,0,0,.737-.35.991.991,0,0,0,.1-.465,23.961,23.961,0,0,0-.9-7.248,20.82,20.82,0,0,1-.846-3.34,7.441,7.441,0,0,1,3.95-7.3c2.96-1.492,6.7-.864,9.537-2.573,2.2-1.335,3.413-3.805,4.5-6.143,1.208-2.555,1.848-4.766,4.331-6.2S215.025,268.238,213.8,265.792Z" transform="translate(-127.426 -121.415)"/>
      <ellipse id="Ellipse_54" data-name="Ellipse 54" class="cls-2" cx="24.764" cy="3.401" rx="24.764" ry="3.401" transform="translate(560.055 456.698)"/>
      <ellipse id="Ellipse_55" data-name="Ellipse 55" class="cls-2" cx="17.601" cy="2.416" rx="17.601" ry="2.416" transform="translate(373.084 489.592)"/>
      <ellipse id="Ellipse_56" data-name="Ellipse 56" class="cls-2" cx="17.601" cy="2.416" rx="17.601" ry="2.416" transform="translate(215.595 471.683)"/>
      <path id="Path_245" data-name="Path 245" class="cls-6" d="M475.675,799.552a7.031,7.031,0,0,0,2.313-3.5,3.1,3.1,0,0,0-1.619-3.558c-1.486-.568-3.074.465-4.276,1.5s-2.585,2.229-4.156,2.005a6.342,6.342,0,0,0,1.957-5.925,2.542,2.542,0,0,0-.544-1.208c-.828-.882-2.325-.5-3.31.193-3.141,2.2-4.017,6.475-4.035,10.31a19.78,19.78,0,0,1-.06-4.228c-.012-1.4-.393-3.02-1.595-3.757a4.832,4.832,0,0,0-2.416-.6c-1.407-.054-2.984.091-3.944,1.123-1.208,1.281-.888,3.431.151,4.832a15.38,15.38,0,0,0,4.089,3.274,9.061,9.061,0,0,1,2.917,2.785,2.511,2.511,0,0,1,.217.5h8.855a24.907,24.907,0,0,0,5.454-3.751Z" transform="translate(-232.785 -330.95)"/>
      <path id="Path_246" data-name="Path 246" class="cls-6" d="M1058.417,778.452a7.075,7.075,0,0,0,2.337-3.5,3.119,3.119,0,0,0-1.619-3.558c-1.486-.568-3.074.465-4.276,1.5s-2.585,2.229-4.162,2.005a6.312,6.312,0,0,0,1.957-5.925,2.418,2.418,0,0,0-.543-1.208c-.822-.882-2.319-.5-3.3.193-3.141,2.2-4.017,6.475-4.035,10.31a19.4,19.4,0,0,1-.06-4.228c-.012-1.4-.4-3.02-1.595-3.757a4.831,4.831,0,0,0-2.416-.6c-1.413-.054-2.984.091-3.95,1.124-1.208,1.281-.888,3.431.157,4.832a15.481,15.481,0,0,0,4.089,3.274,9.058,9.058,0,0,1,2.918,2.784,2.924,2.924,0,0,1,.217.5h8.849a24.8,24.8,0,0,0,5.436-3.751Z" transform="translate(-463.553 -322.594)"/>
      <path id="Path_247" data-name="Path 247" class="cls-6" d="M728.275,825.2a7.085,7.085,0,0,0,2.319-3.5,3.13,3.13,0,0,0-1.619-3.558c-1.486-.568-3.074.459-4.276,1.5s-2.585,2.223-4.162,2.005a6.324,6.324,0,0,0,1.957-5.925,2.482,2.482,0,0,0-.544-1.208c-.828-.882-2.319-.5-3.31.193-3.141,2.211-4.017,6.475-4.035,10.316a19.391,19.391,0,0,1-.054-4.228c-.006-1.4-.4-3.02-1.595-3.757a4.873,4.873,0,0,0-2.416-.6c-1.413-.048-2.984.091-3.95,1.124-1.208,1.286-.888,3.437.157,4.832a15.792,15.792,0,0,0,4.083,3.274,9.06,9.06,0,0,1,2.948,2.827,3.062,3.062,0,0,1,.217.5h8.843A24.6,24.6,0,0,0,728.275,825.2Z" transform="translate(-332.813 -341.107)"/>
      <path id="Path_248" data-name="Path 248" class="cls-20" d="M963.38,333.56c-7.925-.157-14.919-5.774-18.881-12.588a12.684,12.684,0,0,1-1.909-5.388,6.354,6.354,0,0,1,.217-1.293,12.679,12.679,0,0,0,.6-1.969,3.3,3.3,0,0,0,0-.809v-.036a4.735,4.735,0,0,0-1.74-3.878c-1.075-1.009-2.386-1.74-3.491-2.712-3.407-2.99-4.439-7.786-4.506-12.352v-.242c.036-1.951.193-3.914.175-5.871a24.5,24.5,0,0,0-.145-3.328,10.955,10.955,0,0,0-3.552-7.345c-5.672-4.6-15.209.187-21.074-4.162-1.431-1.057-2.585-2.633-4.312-3.02a7.319,7.319,0,0,0-3.944.532c-4.325,1.425-9.145,3.3-10.836,7.508-.966,2.416-.695,5.128-1.582,7.556a43.379,43.379,0,0,1-2.47,4.566,7.146,7.146,0,0,0-.924,3.811,4.384,4.384,0,0,0,.284,2.03,5.11,5.11,0,0,0,1.4,2,6.644,6.644,0,0,1-.846,1.341c-1.105,1.353-2.8,2.319-3.95,3.624-2.126,2.464-2.048,5.817-1,8.716s2.935,5.539,4.228,8.359a4.52,4.52,0,0,1,.429,3.817,10.724,10.724,0,0,1-1.909,2.217,6.982,6.982,0,0,0-1.728,3.878c-12.944,2.954-12.95,13.349-12.95,13.349h0l-6.982,17.6s-1.117,2.96-2.416,6.868l-8.275-1.48,5.714,9.628c-1.093,3.92-1.86,7.556-1.607,9.38,0,0-2.567,12.08,2,14.188l10.087,4.536a5.561,5.561,0,0,0,1.4.6l.411.181a1.069,1.069,0,0,0,.942,0h.163a1.281,1.281,0,0,0,.6-.085,1.088,1.088,0,0,0,.5-.55.225.225,0,0,0,0-.054l3.02-.876,2.561,3.02c1.154.809,2.283,1.516,3.389,2.15l-3.938,39.381s-.64,52.343-2.567,64.26a33.124,33.124,0,0,0-.453,9.471l-.072.133c.477,3.364,1.715,4.029,1.715,4.029v-.048l.073.048a34.155,34.155,0,0,1,2.072-4.439v.858c-.036,4.445-.175,10.661-.6,14.7-.785,6.874,2,29.645,2,29.645l.96,20.718a19.159,19.159,0,0,1-2.356,10.087c-2.277,4.137-5.243,9.954-5.436,12.533a3.349,3.349,0,0,0,0,.423h0l-5.05,5.877s-1.933,2.978,2.416,4.18c2.338.652,6.378,0,9.616-.767a6.427,6.427,0,0,0,4.989-6.251,22.112,22.112,0,0,1,4.119-7.81l.815,4.766,5.436,1.347.695-13.065a5.721,5.721,0,0,0,.375-2.307h0c1.069-9.29-2.519-8.456-2.519-8.456a.6.6,0,0,1,.175.326c-.061-.1-.121-.211-.175-.32h0c-2.2-4.349-1.123-11.476-1.123-11.476s2.857-20.705,3.86-26.172c.707-3.86.417-16.508.181-23.593a7.565,7.565,0,0,0-.03-.852c8.414-.109,18.724-.4,25.972-1.1v.858l-1.341,48.925a26.9,26.9,0,0,1-1.867,9.1c0,.054-.048.109-.066.163a39.686,39.686,0,0,0-2.706,12.8l-.6,15.547v.429h0c-1.081.417-2.784,1.619-2.833,5.1-.072,5.1,8.921,3.4,8.921,3.4,8.994,0,9.06-9.362,9.06-9.362s.29-8.583.713-14.327-1.353-4.476-1.353-4.476l-.133,16.308V593.38l.139-2.078v-.06h0l.03-.441,1.117-16.852s8.281-28.086,9.568-33.474c.912-3.823.531-15.36.229-21.744a6.415,6.415,0,0,0-.036-.846c2.561-.229,4.832-.254,5.744-.254h.417s-.429-45.107-1.5-62.128-2.784-32.556-7.073-37.237c-2.585-2.827-6.191-11.561-8.643-18.03a90.708,90.708,0,0,0,15.855,5.194c13.566,2.839,11.712-8.939,11.712-8.939l-1.377-22.27h.091a113.133,113.133,0,0,0-1.5-17.414,51.648,51.648,0,0,0-3.491-12.684c1.474-.562,2.923-1.208,4.349-1.812,3.684-1.625,7.852-3.932,8.372-7.906h-.181A5.519,5.519,0,0,0,963.38,333.56Zm-84.09,32.218h0c.036,2.3-.054,6.288-.187,10.7l-4.307-5.75,4.319-7.007ZM937.009,377.441Zm1.812,8.7-7.176-2.307a32.4,32.4,0,0,1,4.433-5.484l.6-.6-.224.048.35-.314.205-.048-.332.314.393-.079a12.266,12.266,0,0,0,2.446,4.917c2.561,2.851-.725,3.558-.725,3.558Z" transform="translate(-390.423 -125.074)"/>
      <path id="Path_249" data-name="Path 249" class="cls-21" d="M830.917,774.95l-.846,15.91-5.352-1.335-1.13-6.62Z" transform="translate(-326.134 -306.867)"/>
      <path id="Path_250" data-name="Path 250" class="cls-15" d="M830.917,774.95l-.846,15.91-5.352-1.335-1.13-6.62Z" transform="translate(-326.134 -306.867)"/>
      <path id="Path_251" data-name="Path 251" class="cls-22" d="M956.51,769.312,964.676,771l6.04-5.351v-15.07l.133-2.06v-.06h0l.03-.435,1.1-16.731s8.166-27.887,9.435-33.22c.9-3.8.526-15.257.23-21.587-.121-2.6-.23-4.331-.23-4.331L963.39,667.79l-.38,13.892-1.317,48.562a26.794,26.794,0,0,1-1.848,9.03l-.06.163a39.432,39.432,0,0,0-2.615,12.726l-.6,15.432v.429Z" transform="translate(-432.086 -283.205)"/>
      <path id="Path_252" data-name="Path 252" class="cls-15" d="M980.29,800.636v.429h0l.03-.435Z" transform="translate(-441.502 -335.809)"/>
      <path id="Path_253" data-name="Path 253" class="cls-15" d="M956.51,832.631l8.166,1.691,6.04-5.352v-1.28a1.715,1.715,0,0,1-.87,1.383l-.084.048a16.241,16.241,0,0,1-9.169,1.812l-3.189-.272a3.338,3.338,0,0,0-.839.205v.429Z" transform="translate(-432.086 -346.524)"/>
      <path id="Path_254" data-name="Path 254" class="cls-14" d="M967.978,819.034l.085-.048a1.709,1.709,0,0,0,.876-1.5l.133-16.224s1.764-1.25,1.341,4.451-.707,14.224-.707,14.224-.067,9.3-8.939,9.3c0,0-8.873,1.685-8.807-3.382s3.666-5.279,3.666-5.279l3.183.278A16.308,16.308,0,0,0,967.978,819.034Z" transform="translate(-430.283 -336.014)"/>
      <path id="Path_255" data-name="Path 255" class="cls-22" d="M886.094,769.332c.211,3.66,10.981,1.546,10.981,1.546l7.248-14.079s6.04-4.651,3.02-8.734a6.2,6.2,0,0,1-.447-.695v-.036h0c-.066-.109-.121-.217-.181-.332h0c-2.174-4.313-1.105-11.386-1.105-11.386s2.815-20.536,3.805-25.972c.695-3.835.411-16.393.175-23.424-.091-2.917-.175-4.886-.175-4.886l-17.891-4.784v5.333c-.036,4.409-.169,10.582-.6,14.593-.773,6.831,1.975,29.433,1.975,29.433l.948,20.573a19.087,19.087,0,0,1-2.374,9.984c-2.247,4.107-5.17,9.888-5.376,12.449A2.449,2.449,0,0,0,886.094,769.332Z" transform="translate(-404.198 -286.674)"/>
      <path id="Path_256" data-name="Path 256" class="cls-15" d="M886.1,815.762c.211,3.66,10.981,1.546,10.981,1.546l7.248-14.079s6.04-4.651,3.02-8.734a6.2,6.2,0,0,1-.447-.695c-.1,2.132-2.416,7.453-2.416,7.453s-5.986,11.977-7.852,14.72-10.178-.507-10.486-.6A2.413,2.413,0,0,0,886.1,815.762Z" transform="translate(-404.204 -333.104)"/>
      <path id="Path_257" data-name="Path 257" class="cls-14" d="M903.193,793.158s3.539-.821,2.488,8.4h0a5.949,5.949,0,0,1-2.809,5.273,20.149,20.149,0,0,0-8.42,11.682h0a6.378,6.378,0,0,1-4.917,6.215c-3.2.743-7.182,1.4-9.489.755-4.295-1.208-2.416-4.15-2.416-4.15l4.929-5.847s8.589,3.382,10.492.634S900.9,801.4,900.9,801.4,904.269,793.931,903.193,793.158Z" transform="translate(-400.688 -332.842)"/>
      <path id="Path_258" data-name="Path 258" class="cls-15" d="M967.691,670.56l-.38,13.892c4.832-.465,8.239-1.117,8.831-2.03,1.262-1.963,5.877-2.8,9.8-3.135-.121-2.6-.23-4.331-.23-4.331Z" transform="translate(-436.362 -284.302)"/>
      <path id="Path_259" data-name="Path 259" class="cls-15" d="M895.06,684.643a6.685,6.685,0,0,1,1.975-2.38c1.9-1.057,1.7,6.759,1.7,6.759s6.312.06,14.4-.042c-.091-2.923-.175-4.886-.175-4.886l-17.891-4.784S895.09,681.539,895.06,684.643Z" transform="translate(-407.752 -287.767)"/>
      <path id="Path_260" data-name="Path 260" class="cls-13" d="M890.452,605.622s2.114-5.72,4.011-6.771,1.7,6.759,1.7,6.759,46.472.423,48.8-3.171,15.843-3.376,15.843-3.376-.423-44.787-1.48-61.687-2.748-32.321-6.97-36.965c-2.736-3.02-6.644-12.739-9.024-19.226-1.311-3.546-2.174-6.125-2.174-6.125L896.794,477.6l-.362,3.588L891.72,528.3s-.6,51.945-2.537,63.8S890.452,605.622,890.452,605.622Z" transform="translate(-405.179 -206.886)"/>
      <g id="Group_69" data-name="Group 69" class="cls-9" transform="translate(483.491 268.205)">
        <path id="Path_261" data-name="Path 261" class="cls-23" d="M948.055,602.489c2.319-3.588,15.843-3.376,15.843-3.376s-.423-44.787-1.48-61.687-2.748-32.321-6.97-36.965c-2.736-3.02-6.644-12.739-9.024-19.226-1.1-2.978-1.885-5.273-2.108-5.931l3.443-.193s.864,2.579,2.174,6.125c2.416,6.487,6.288,16.218,9.024,19.226,4.228,4.645,5.913,20.065,6.97,36.965s1.456,61.657,1.456,61.657-13.518-.217-15.837,3.407c-1.987,3.068-36.186,3.207-46.116,3.183C918.162,605.612,946.243,605.232,948.055,602.489Z" transform="translate(-895.349 -475.11)"/>
        <path id="Path_262" data-name="Path 262" class="cls-23" d="M890.933,679.935c.858-.477,1.286.846,1.5,2.416a34.2,34.2,0,0,0-2,4.325s-1.208-.658-1.691-4A7.614,7.614,0,0,1,890.933,679.935Z" transform="translate(-888.74 -556.18)"/>
      </g>
      <path id="Path_263" data-name="Path 263" class="cls-18" d="M908.582,291.486c-3.068,4.192.036,10.141-3.256,14.212-1.087,1.347-2.76,2.307-3.9,3.624-2.1,2.452-2.017,5.774-.985,8.655s2.9,5.5,4.18,8.3a4.523,4.523,0,0,1,.429,3.787,9.992,9.992,0,0,1-1.884,2.2,7.947,7.947,0,0,0-1.039,8.426c1.135,2.778,3.316,5.188,5.436,7.532a3.715,3.715,0,0,0,5.412,1.238,22.01,22.01,0,0,0,10.612-12.473,22.246,22.246,0,0,0-.906-15.312c-1.812-4.27-4.76-8.366-4.784-12.884,0-3.582,1.842-7,2.168-10.57.4-4.331-2.168-11.216-7.4-13.107C913.015,287.917,910.164,289.36,908.582,291.486Z" transform="translate(-409.604 -131.671)"/>
      <path id="Path_264" data-name="Path 264" class="cls-15" d="M908.582,291.486c-3.068,4.192.036,10.141-3.256,14.212-1.087,1.347-2.76,2.307-3.9,3.624-2.1,2.452-2.017,5.774-.985,8.655s2.9,5.5,4.18,8.3a4.523,4.523,0,0,1,.429,3.787,9.992,9.992,0,0,1-1.884,2.2,7.947,7.947,0,0,0-1.039,8.426c1.135,2.778,3.316,5.188,5.436,7.532a3.715,3.715,0,0,0,5.412,1.238,22.01,22.01,0,0,0,10.612-12.473,22.246,22.246,0,0,0-.906-15.312c-1.812-4.27-4.76-8.366-4.784-12.884,0-3.582,1.842-7,2.168-10.57.4-4.331-2.168-11.216-7.4-13.107C913.015,287.917,910.164,289.36,908.582,291.486Z" transform="translate(-409.604 -131.671)"/>
      <path id="Path_265" data-name="Path 265" class="cls-15" d="M948.678,547.78c-6.149.326-11.935,2.966-17.317,5.956s-10.588,6.4-16.381,8.5" transform="translate(-415.64 -235.682)"/>
      <path id="Path_266" data-name="Path 266" class="cls-15" d="M945.516,571.76a25.423,25.423,0,0,0-15.97,7.762c-1.492,1.583-2.778,3.358-4.337,4.874a19.329,19.329,0,0,1-8.559,4.832" transform="translate(-416.301 -245.178)"/>
      <path id="Path_267" data-name="Path 267" class="cls-15" d="M943.717,590a27.911,27.911,0,0,0-12.835,7.737c-.942,1.015-1.812,2.108-2.742,3.117-5.092,5.436-12.28,8.366-19.22,11.108" transform="translate(-413.24 -252.401)"/>
      <path id="Path_268" data-name="Path 268" class="cls-22" d="M949.666,336.716a126.65,126.65,0,0,0,1.269,14.677c.568,3.467,1.377,6.553,2.537,7.925,3.376,4.017-16.477,9.4-16.477,9.4l-11.724-9.06s9.3-8.559,4.965-16.912S949.666,336.716,949.666,336.716Z" transform="translate(-419.715 -151.986)"/>
      <path id="Path_269" data-name="Path 269" class="cls-15" d="M901.59,481.185h46.9c-1.311-3.545-2.174-6.125-2.174-6.125L901.952,477.6Z" transform="translate(-410.338 -206.886)"/>
      <path id="Path_270" data-name="Path 270" class="cls-17" d="M890.591,436.633h50.133a17.367,17.367,0,0,1,2.011-13.288,29.346,29.346,0,0,1,5.249-6.813l.344-.308,17.516-3.884.942-.205s.139-31.825-11.126-36.192a66.061,66.061,0,0,1-18.03-10.268l-15.487,4.784-11.41-5.768c-3.66,3.944-13.379,2.416-13.379,2.416-15.916,1.812-15.916,13.8-15.916,13.8s9.3,21.69,10,21.69S890.591,436.633,890.591,436.633Z" transform="translate(-402.358 -163.18)"/>
      <path id="Path_271" data-name="Path 271" class="cls-15" d="M916.265,446.217s-10.226-2.265-13.7-6.227" transform="translate(-410.722 -192.998)"/>
      <path id="Path_272" data-name="Path 272" class="cls-15" d="M1002.839,430.64,991,440.359a19.639,19.639,0,0,0,.393,2.283l.344-.308,17.516-3.884Z" transform="translate(-445.743 -189.296)"/>
      <path id="Path_273" data-name="Path 273" class="cls-15" d="M957.44,469.158s2.6,1.462,6.572,3.376h6.813a17.367,17.367,0,0,1,2.011-13.288l-12.038-3.9C964.906,459.155,957.44,469.158,957.44,469.158Z" transform="translate(-432.454 -199.081)"/>
      <path id="Path_274" data-name="Path 274" class="cls-17" d="M879.233,385.18l-7.043,3.8-6.9,17.462s-7.182,19.153-6.481,24.227c0,0-2.531,11.965,1.975,14.079l11.754,5.315a1.087,1.087,0,0,0,1.407-1.5c-1.673-3.171-3.509-8.124-.6-10.872l-3.382-7.037L882.2,410.669l4.077-6.874Z" transform="translate(-393.115 -171.294)"/>
      <path id="Path_275" data-name="Path 275" class="cls-15" d="M918.953,440.534c.6,2.489,2.67,6.312,9.483,7.755l7.5,6.125,7.955,3.624,3.238,1.468,1.377-9.93-3.123-1.709-3.624-1.987s-8.208-14.883-21.213-8.6A2.881,2.881,0,0,0,918.953,440.534Z" transform="translate(-417.185 -191.313)"/>
      <path id="Path_276" data-name="Path 276" class="cls-22" d="M919.664,439.139c.6,2.489,2.67,6.312,9.483,7.755l7.5,6.131,7.955,3.624,3.237,1.468,1.377-9.93-3.123-1.7-3.624-1.993s-8.208-14.877-21.213-8.6A2.881,2.881,0,0,0,919.664,439.139Z" transform="translate(-417.467 -190.764)"/>
      <circle id="Ellipse_57" data-name="Ellipse 57" class="cls-15" cx="18.169" cy="18.169" r="18.169" transform="translate(498.682 161.283)"/>
      <circle id="Ellipse_58" data-name="Ellipse 58" class="cls-22" cx="18.169" cy="18.169" r="18.169" transform="translate(498.682 160.86)"/>
      <path id="Path_277" data-name="Path 277" class="cls-15" d="M959.036,379.563,953.6,368.945s8-3.225,8.577-6.97,7.659,4.385,6.125,7.079S959.036,379.563,959.036,379.563Z" transform="translate(-430.933 -161.721)"/>
      <path id="Path_278" data-name="Path 278" class="cls-17" d="M959.036,378.164,953.6,367.545s8-3.225,8.577-6.97,7.659,4.391,6.125,7.079S959.036,378.164,959.036,378.164Z" transform="translate(-430.933 -161.167)"/>
      <path id="Path_279" data-name="Path 279" class="cls-24" d="M874.3,433.16l30.2,40.583s-11.126,6.04-26.48-4.79l-6.644-7.882L852.5,429.24Z" transform="translate(-390.898 -188.741)"/>
      <path id="Path_280" data-name="Path 280" class="cls-22" d="M878.267,465.4l2.748-.073s16.791-16.308,20.911-8.057-10.455,15.946-10.455,15.946l-4.433,2.416-5.811,1.691-3.7-4.965Z" transform="translate(-400.81 -198.919)"/>
      <path id="Path_281" data-name="Path 281" class="cls-15" d="M879.828,479.95a4.109,4.109,0,0,1,.073,2.839,1.076,1.076,0,0,1-.5.544,1.209,1.209,0,0,1-.6.085,5.768,5.768,0,0,1-3.787-1.878,17.079,17.079,0,0,1-2.458-3.552c-.749-1.3-1.528-2.748-1.256-4.228.3-1.619,1.74-2.742,3.117-3.624,2.784-1.842,2.851.3,3.485,2.67Z" transform="translate(-398.319 -204.66)"/>
      <path id="Path_282" data-name="Path 282" class="cls-17" d="M879.128,479.95a4.11,4.11,0,0,1,.073,2.839,1.075,1.075,0,0,1-.5.544,1.208,1.208,0,0,1-.6.085,5.768,5.768,0,0,1-3.787-1.878,17.089,17.089,0,0,1-2.458-3.552c-.749-1.3-1.528-2.748-1.256-4.228.3-1.619,1.74-2.742,3.117-3.624,2.784-1.842,2.851.3,3.485,2.67Z" transform="translate(-398.041 -204.66)"/>
      <path id="Path_283" data-name="Path 283" class="cls-15" d="M809.72,394.744l1.407-2.374-1.232,4.409Z" transform="translate(-320.642 -155.368)"/>
      <path id="Path_284" data-name="Path 284" class="cls-15" d="M961,464.565l3.238,1.468,1.377-9.93-3.123-1.7C964.624,456.852,962.758,461.407,961,464.565Z" transform="translate(-433.863 -198.704)"/>
      <path id="Path_285" data-name="Path 285" class="cls-15" d="M972.749,450.7s-10.455.634-14.889-2.217" transform="translate(-432.62 -196.36)"/>
      <g id="Group_70" data-name="Group 70" class="cls-9" transform="translate(494.321 202.356)">
        <path id="Path_286" data-name="Path 286" class="cls-23" d="M977.315,425.373a29.493,29.493,0,0,1,5.255-6.813,14.522,14.522,0,0,1,1.546-.846l16.308-3.346.942-.205s.145-31.825-11.126-36.192a68.051,68.051,0,0,1-17.571-9.9l1.238-.381a65.594,65.594,0,0,0,18.024,10.268c11.265,4.355,11.138,36.2,11.138,36.2h-1.691l-16.695,3.2-.942.9a32.211,32.211,0,0,0-5.333,7.049,17.691,17.691,0,0,0-1.4,13.361h-1.728A17.576,17.576,0,0,1,977.315,425.373Z" transform="translate(-932.805 -366.724)"/>
        <path id="Path_287" data-name="Path 287" class="cls-23" d="M906.67,370.129c.272-.036.531-.078.809-.109a29.748,29.748,0,0,0,3.449.284A31.1,31.1,0,0,1,906.67,370.129Z" transform="translate(-906.67 -367.646)"/>
        <path id="Path_288" data-name="Path 288" class="cls-23" d="M939.486,371.84l-10.316-5.2a5.766,5.766,0,0,0,.6-.55l10.763,5.436Z" transform="translate(-915.58 -366.09)"/>
      </g>
      <path id="Path_289" data-name="Path 289" class="cls-17" d="M990.249,429.24l6.9,8.456,1.407,22.952s1.812,11.688-11.548,8.873-28.872-11.549-28.872-11.549,7.465-10,3.382-13.8l19.153,6.2s3.238-.707.7-3.521-2.984-7.888-2.984-7.888Z" transform="translate(-432.731 -188.741)"/>
      <path id="Path_290" data-name="Path 290" class="cls-15" d="M1016.43,469.35l3.805,4.361A5.479,5.479,0,0,1,1016.43,469.35Z" transform="translate(-455.813 -204.625)"/>
      <path id="Path_291" data-name="Path 291" class="cls-15" d="M917.44,437.1l5.913,7.6-2.954.707Z" transform="translate(-363.298 -173.081)"/>
      <path id="Path_292" data-name="Path 292" class="cls-15" d="M907.862,297.22a6.147,6.147,0,0,1,.6-4.953,40.326,40.326,0,0,0,2.416-4.536c.876-2.416.6-5.122,1.558-7.5,1.673-4.168,6.427-6.04,10.691-7.447a7.24,7.24,0,0,1,3.89-.531c1.7.411,2.845,1.975,4.228,3.02,5.786,4.313,15.191-.435,20.784,4.131a10.893,10.893,0,0,1,3.5,7.29,65.542,65.542,0,0,1-.03,8.293c-.091,4.832.809,10.135,4.439,13.343,1.093.966,2.38,1.7,3.443,2.694a4.73,4.73,0,0,1,1.715,3.848,13.1,13.1,0,0,1-.6,1.951c-.725,2.525.35,5.2,1.661,7.478,3.914,6.765,10.806,12.34,18.628,12.5-.525,3.944-4.621,6.233-8.257,7.852-4.633,2.06-9.5,4.083-14.563,3.823s-10.341-3.5-11.241-8.456c-.308-1.709-.266-3.805-1.752-4.705-.894-.544-2.054-.4-3.02-.815-1.4-.6-2.09-2.138-2.549-3.588a32.369,32.369,0,0,1-1.5-9.205c-.06-3.7.435-7.743-1.667-10.794-1.945-2.821-5.4-4.228-7.641-6.849-2.066-2.416-4.319-5.3-7.707-5.762C920.334,297.637,910.634,304.009,907.862,297.22Z" transform="translate(-412.701 -126.533)"/>
      <path id="Path_293" data-name="Path 293" class="cls-18" d="M907.862,295.82a6.147,6.147,0,0,1,.6-4.953,40.331,40.331,0,0,0,2.416-4.536c.876-2.416.6-5.122,1.558-7.5,1.673-4.168,6.427-6.04,10.691-7.447a7.24,7.24,0,0,1,3.89-.532c1.7.411,2.845,1.975,4.228,3.02,5.786,4.319,15.191-.435,20.784,4.131a10.906,10.906,0,0,1,3.5,7.29,65.542,65.542,0,0,1-.03,8.293c-.091,4.832.809,10.135,4.439,13.343,1.093.966,2.38,1.7,3.443,2.694a4.731,4.731,0,0,1,1.715,3.848,13.4,13.4,0,0,1-.6,1.957c-.725,2.519.35,5.2,1.661,7.472,3.914,6.765,10.806,12.34,18.628,12.5-.525,3.944-4.621,6.233-8.257,7.852-4.633,2.066-9.5,4.083-14.563,3.823s-10.341-3.5-11.241-8.486c-.308-1.709-.266-3.805-1.752-4.705-.894-.544-2.054-.4-3.02-.815-1.4-.6-2.09-2.138-2.549-3.588a32.369,32.369,0,0,1-1.5-9.205c-.06-3.7.435-7.743-1.667-10.794-1.945-2.821-5.4-4.228-7.641-6.849-2.066-2.416-4.319-5.3-7.707-5.762C920.334,296.267,910.634,302.609,907.862,295.82Z" transform="translate(-412.701 -125.979)"/>
      <path id="Path_294" data-name="Path 294" class="cls-15" d="M927.032,378.586l10.413-8.456s-7.127-3.866-7.979-7.164-6.553,1.564-5.974,4.524S927.032,378.586,927.032,378.586Z" transform="translate(-418.995 -162.06)"/>
      <path id="Path_295" data-name="Path 295" class="cls-17" d="M927.732,376.486l10.413-8.456s-7.127-3.866-7.979-7.164-6.554,1.564-5.974,4.524S927.732,376.486,927.732,376.486Z" transform="translate(-419.272 -161.229)"/>
      <circle id="Ellipse_59" data-name="Ellipse 59" class="cls-15" cx="0.827" cy="0.827" r="0.827" transform="translate(518.451 213.053)"/>
      <circle id="Ellipse_60" data-name="Ellipse 60" class="cls-15" cx="0.827" cy="0.827" r="0.827" transform="translate(518.451 217.655)"/>
      <circle id="Ellipse_61" data-name="Ellipse 61" class="cls-15" cx="0.827" cy="0.827" r="0.827" transform="translate(518.451 222.252)"/>
      <g id="Group_71" data-name="Group 71" class="cls-9" transform="translate(494.975 151.027)">
        <path id="Path_296" data-name="Path 296" class="cls-23" d="M914.291,288.189c.822-2.265.646-4.8,1.413-7.079a8.185,8.185,0,0,0-.876,1.619c-.954,2.38-.689,5.1-1.558,7.508,0,.042-.042.091-.06.139A13.375,13.375,0,0,0,914.291,288.189Z" transform="translate(-909.914 -281.11)"/>
        <path id="Path_297" data-name="Path 297" class="cls-23" d="M977.84,353.381c-4.633,2.066-9.5,4.083-14.569,3.823s-10.335-3.5-11.235-8.486c-.308-1.709-.266-3.805-1.752-4.705-.894-.544-2.054-.4-3.02-.815-1.4-.6-2.09-2.138-2.549-3.588a32.368,32.368,0,0,1-1.5-9.217c-.06-3.7.429-7.743-1.667-10.794-1.945-2.821-5.4-4.228-7.641-6.849-2.072-2.416-4.319-5.3-7.713-5.762-4.651-.6-14.357,5.738-17.124-1.051a5.333,5.333,0,0,1,.175-3.926c-.2.338-.393.676-.568,1.021a5.963,5.963,0,0,0-.6,4.953c2.772,6.789,12.473.417,17.13,1.051,3.388.459,5.641,3.364,7.713,5.762,2.241,2.6,5.69,4.029,7.635,6.855,2.1,3.02,1.613,7.091,1.673,10.788a32.219,32.219,0,0,0,1.5,9.211c.459,1.444,1.154,3.02,2.549,3.588.966.4,2.126.272,3.02.815,1.48.894,1.443,3.02,1.745,4.7.9,4.989,6.179,8.233,11.241,8.492s9.936-1.764,14.563-3.829c3.334-1.48,7.049-3.539,8.045-6.91C983.264,350.723,980.437,352.227,977.84,353.381Z" transform="translate(-907.753 -289.386)"/>
      </g>
    </g>
  </g>
</svg>
