<svg xmlns="http://www.w3.org/2000/svg" xmlns:xlink="http://www.w3.org/1999/xlink" viewBox="0 0 300 300">
  <defs>
    <style>
      .cls-1 {
        clip-path: url(#clip-img-3);
      }

      .cls-2 {
        fill: #23359e;
        opacity: 0.45;
      }

      .cls-3 {
        fill: #004a91;
      }

      .cls-4 {
        fill: #c1deff;
      }

      .cls-5 {
        fill: #fff;
      }

      .cls-6 {
        opacity: 0.57;
      }

      .cls-7 {
        fill: none;
        stroke: #c1deff;
        stroke-linecap: round;
        stroke-linejoin: round;
        stroke-miterlimit: 10;
        stroke-width: 0.25px;
      }

      .cls-8 {
        fill: url(#linear-gradient);
      }

      .cls-9 {
        fill: url(#linear-gradient-2);
      }
    </style>
    <linearGradient id="linear-gradient" x1="0.5" x2="0.5" y2="1" gradientUnits="objectBoundingBox">
      <stop offset="0" stop-color="#abdcff"/>
      <stop offset="1" stop-color="#0396ff"/>
    </linearGradient>
    <linearGradient id="linear-gradient-2" x1="0.5" x2="0.5" y2="1" gradientUnits="objectBoundingBox">
      <stop offset="0" stop-color="#005bea"/>
      <stop offset="1" stop-color="#00c6fb"/>
    </linearGradient>
    <clipPath id="clip-img-3">
      <rect width="300" height="300"/>
    </clipPath>
  </defs>
  <g id="img-3" class="cls-1">
    <g id="Group_2521" data-name="Group 2521" transform="translate(29.982 22.144)">
      <g id="Group_779" data-name="Group 779">
        <path id="Path_2109" data-name="Path 2109" class="cls-2" d="M269.089,187.65,177.872,134.97a8.245,8.245,0,0,0-7.071,0L36.451,213.106c-1.768,1.061-1.768,2.828,0,3.889l91.217,52.679a8.244,8.244,0,0,0,7.071,0l134.35-78.135C271.21,190.832,271.21,188.711,269.089,187.65Z" transform="translate(-35.125 -15.469)"/>
        <path id="Path_2110" data-name="Path 2110" class="cls-3" d="M271.006,149.107h0c0,.354,0,.354-.354.354h0l-.354.354a11586.513,11586.513,0,0,0-.707.707l-134.35,78.135c-.354,0-.707.354-1.061.354h-3.536c-.354,0-.354,0-.707-.354h0c-.354,0-.354-.354-.707-.354L38.014,175.624A2.557,2.557,0,0,1,36.6,173.5v3.182a2.557,2.557,0,0,0,1.414,2.121l90.51,53.033c.354,0,.354.354.707.354h3.889c.354,0,.707-.354,1.061-.354L268.531,153.7h0l.354-.354a.346.346,0,0,0,.354-.354h0l.354-.354h0v-.354h0v-.707h0V148.4C271.006,148.754,271.006,149.107,271.006,149.107Z" transform="translate(-31.385 20.598)"/>
        <g id="Group_778" data-name="Group 778" transform="translate(0.619)">
          <g id="Group_772" data-name="Group 772" transform="translate(3.624 113.756)">
            <g id="Group_771" data-name="Group 771">
              <path id="Path_2111" data-name="Path 2111" class="cls-4" d="M270.289,186.25c1.768,1.061,1.768,2.828,0,3.889l-134.35,78.135a8.245,8.245,0,0,1-7.071,0L37.651,215.595c-1.768-1.061-1.768-2.828,0-3.889L172,133.57a8.244,8.244,0,0,1,7.071,0Z" transform="translate(-36.325 -132.775)"/>
            </g>
          </g>
          <g id="Group_775" data-name="Group 775">
            <path id="Path_2112" data-name="Path 2112" class="cls-4" d="M173.893,100.954a.346.346,0,0,0,.354-.354h1.414l1.768,1.061-.707,2.475L43.785,181.917c-.354,0-.354.354-.707.354h-.354l-.354.354h0c-.354.354-.354.354-.354.707h0c0,.354-.354.354-.354.707h0a1.234,1.234,0,0,1-.354.707h0a1.234,1.234,0,0,1-.354.707h0v.707h0v.707L38.482,291.872l-1.768-1.061a2.138,2.138,0,0,1-1.061-2.121L35.3,183.685v-.707h0v-.707h0v-.707h0V180.5h0a7723.7,7723.7,0,0,1,.707-.707h0l.354-.354h0l.354-.354h.354c.354,0,.354-.354.707-.354Z" transform="translate(-35.3 -100.6)"/>
            <g id="Group_773" data-name="Group 773" transform="translate(1.768 0.937)">
              <path id="Path_2113" data-name="Path 2113" class="cls-3" d="M174.393,101.342c1.768-1.061,3.536-.354,3.536,2.121l.354,105.005a7.292,7.292,0,0,1-3.536,6.01L39.689,292.261c-1.768,1.061-3.536.354-3.536-2.121L35.8,185.134a7.292,7.292,0,0,1,3.536-6.01Zm-.707,96.166-.354-83.085c0-2.475-1.768-3.536-4.243-2.475L43.578,184.427a9.6,9.6,0,0,0-3.889,7.071l.354,83.085c0,2.475,1.768,3.536,4.243,2.475L169.8,204.58c2.121-1.414,4.243-4.6,3.889-7.071" transform="translate(-35.8 -100.865)"/>
            </g>
            <g id="Group_774" data-name="Group 774" transform="translate(6.01 11.751)">
              <path id="Path_2114" data-name="Path 2114" class="cls-5" d="M170.643,189.754a9.6,9.6,0,0,1-3.889,7.071L90.74,240.665,41.243,269.3c-2.121,1.414-3.889.353-4.243-2.475V184.1a9.6,9.6,0,0,1,3.889-7.071l61.872-35.709,63.64-36.77c2.121-1.414,4.243-.354,4.243,2.475Z" transform="translate(-37 -103.924)"/>
            </g>
          </g>
          <g id="Group_777" data-name="Group 777" transform="translate(22.009 122.683)">
            <path id="Path_2115" data-name="Path 2115" class="cls-3" d="M86.974,138.482l-6.01,3.535H79.55l-4.6-2.475a.346.346,0,0,1-.354-.354l.354-.354,6.01-3.536h1.414l4.6,2.475v.707Z" transform="translate(42.338 -135.3)"/>
            <path id="Path_2116" data-name="Path 2116" class="cls-3" d="M84.674,139.782h0l-6.01,3.536H77.25l-4.6-2.475a.346.346,0,0,1-.354-.354l.354-.354,6.01-3.536h1.414l4.6,3.182Z" transform="translate(36.506 -132.004)"/>
            <path id="Path_2117" data-name="Path 2117" class="cls-3" d="M82.274,141.182h0l-6.01,3.535H74.85l-4.6-2.475a.346.346,0,0,1-.354-.354l.354-.354L76.264,138h1.414l4.6,3.182Z" transform="translate(30.421 -128.454)"/>
            <path id="Path_2118" data-name="Path 2118" class="cls-3" d="M79.874,142.582h0l-6.01,3.535H72.45l-4.6-2.475a.346.346,0,0,1-.354-.354l.354-.354,6.01-3.536h1.414l4.6,3.182Z" transform="translate(24.335 -124.904)"/>
            <path id="Path_2119" data-name="Path 2119" class="cls-3" d="M77.574,143.982h0l-6.01,3.536H70.15l-4.6-2.475a.346.346,0,0,1-.354-.354c0-.354,0,0,.354-.354l6.01-3.536h1.414l4.6,3.182C77.221,143.628,77.574,143.628,77.574,143.982Z" transform="translate(18.504 -121.355)"/>
            <path id="Path_2120" data-name="Path 2120" class="cls-3" d="M75.174,145.282h0l-6.01,3.536H67.75l-4.6-2.475a.346.346,0,0,1-.354-.354l.354-.354,6.01-3.536h1.414l4.6,3.182Z" transform="translate(12.418 -118.058)"/>
            <path id="Path_2121" data-name="Path 2121" class="cls-3" d="M72.774,146.682h0l-6.01,3.535H65.35l-4.6-2.475a.346.346,0,0,1-.354-.354l.354-.354,6.01-3.535h1.414l4.6,3.182Z" transform="translate(6.333 -114.509)"/>
            <path id="Path_2122" data-name="Path 2122" class="cls-3" d="M70.374,148.082h0l-6.01,3.535H62.95l-4.6-2.475a.346.346,0,0,1-.354-.354c0-.354,0,0,.354-.354l6.01-3.536h1.414l4.6,3.182Z" transform="translate(0.248 -110.959)"/>
            <path id="Path_2123" data-name="Path 2123" class="cls-3" d="M68.074,149.482h0l-6.01,3.535H60.65l-4.6-2.475a.346.346,0,0,1-.354-.354l.354-.354,6.01-3.535h1.414l4.6,3.182Z" transform="translate(-5.584 -107.409)"/>
            <path id="Path_2124" data-name="Path 2124" class="cls-3" d="M65.674,150.782h0l-6.01,3.536H58.25l-4.6-2.475a.346.346,0,0,1-.354-.354l.354-.354,6.01-3.536h1.414l4.6,3.182Z" transform="translate(-11.669 -104.113)"/>
            <path id="Path_2125" data-name="Path 2125" class="cls-3" d="M98.763,139.582,78.964,150.9H77.55l-4.6-2.475a.346.346,0,0,1-.354-.354l.354-.354,19.8-11.314h1.414l4.6,2.475c.354.354.354.707,0,.707Z" transform="translate(37.267 -132.511)"/>
            <path id="Path_2126" data-name="Path 2126" class="cls-3" d="M70.59,143.636,76.6,140.1h1.414l4.6,2.475a.346.346,0,0,1,.354.354l-.354.354-6.01,3.535H75.186l-4.6-2.475c-.354-.354-.354-.354,0-.707C70.237,143.989,70.237,143.636,70.59,143.636Z" transform="translate(31.498 -123.129)"/>
            <path id="Path_2127" data-name="Path 2127" class="cls-3" d="M68,145.036l6.01-3.536h1.414l4.6,2.475a.346.346,0,0,1,.354.354l-.354.354-6.01,3.536H72.6L68,145.743v-.707Z" transform="translate(25.603 -119.58)"/>
            <path id="Path_2128" data-name="Path 2128" class="cls-3" d="M65.6,146.436l6.01-3.536h1.414l4.6,2.475a.346.346,0,0,1,.354.354l-.354.354-6.01,3.535H70.2l-4.6-2.475v-.707Z" transform="translate(19.518 -116.03)"/>
            <path id="Path_2129" data-name="Path 2129" class="cls-3" d="M63.49,147.836,69.5,144.3h1.414l4.6,2.475a.346.346,0,0,1,.354.354l-.354.354-6.01,3.536H68.086l-4.6-2.475c-.354-.354-.354-.707,0-.707Z" transform="translate(13.496 -112.48)"/>
            <path id="Path_2130" data-name="Path 2130" class="cls-3" d="M61.013,149.136l6.01-3.536h1.414l4.6,2.475a.346.346,0,0,1,.354.354l-.354.354-6.01,3.536H65.609l-4.6-2.475c0-.354-.354-.354,0-.707C60.659,149.489,61.013,149.489,61.013,149.136Z" transform="translate(7.488 -109.184)"/>
            <path id="Path_2131" data-name="Path 2131" class="cls-3" d="M58.3,150.636l6.01-3.536h1.414l4.6,2.475a.346.346,0,0,1,.354.354l-.354.354-6.01,3.535H62.9l-4.6-2.475v-.707Z" transform="translate(1.009 -105.381)"/>
            <path id="Path_2132" data-name="Path 2132" class="cls-3" d="M56.19,152.036,62.2,148.5h1.414l4.6,2.475a.346.346,0,0,1,.354.354c0,.354,0,0-.354.354l-6.01,3.535H60.786l-4.6-2.475c-.354-.354-.354-.354,0-.707C55.837,152.389,55.837,152.036,56.19,152.036Z" transform="translate(-5.013 -101.831)"/>
            <path id="Path_2133" data-name="Path 2133" class="cls-3" d="M53.613,153.435l6.01-3.536h1.414l4.6,2.475a.346.346,0,0,1,.354.354l-.354.354-6.01,3.536H58.209l-4.6-2.475c0-.354-.354-.354,0-.707Z" transform="translate(-11.275 -98.281)"/>
            <path id="Path_2134" data-name="Path 2134" class="cls-3" d="M91.128,140.782l-6.364,3.536H83.35l-4.6-2.475a.346.346,0,0,1-.354-.354l.354-.354,6.364-3.535h1.414l4.6,2.475v.707Z" transform="translate(51.973 -129.468)"/>
            <path id="Path_2135" data-name="Path 2135" class="cls-3" d="M76.29,142.635l6.364-3.535h1.414l4.6,2.475a.346.346,0,0,1,.354.354l-.354.354L82.3,145.818H80.886l-4.6-2.475c-.354-.354-.354-.354,0-.707Z" transform="translate(45.951 -125.665)"/>
            <path id="Path_2136" data-name="Path 2136" class="cls-3" d="M98.578,146.025l-4.6,2.475H92.567l-11.314-6.718a.346.346,0,0,1-.354-.354l.354-.354,4.6-2.475h1.414l11.314,6.717c0,.354.354.707,0,.707Z" transform="translate(58.312 -126.933)"/>
            <path id="Path_2137" data-name="Path 2137" class="cls-3" d="M86.585,139.9h.707l4.6,2.475a.346.346,0,0,1,.354.354l-.354.354-7.425,4.6H83.05l-4.6-2.475a.346.346,0,0,1-.354-.354l.354-.354,7.425-4.6Z" transform="translate(51.212 -123.637)"/>
            <path id="Path_2138" data-name="Path 2138" class="cls-3" d="M71.313,145.436l6.01-3.536h1.414l4.6,2.475a.346.346,0,0,1,.354.354l-.354.354-6.01,3.535H75.909l-4.6-2.475c0-.354-.354-.354,0-.707Z" transform="translate(33.604 -118.565)"/>
            <path id="Path_2139" data-name="Path 2139" class="cls-3" d="M80.471,140.754h.707l11.314,6.718a.346.346,0,0,1,.354.354l-.354.354L80.825,154.9H79.41l-4.6-2.475a.346.346,0,0,1-.354-.354l.354-.354,5.3-3.182-6.364-3.889a.346.346,0,0,1-.354-.354l.354-.354,6.01-3.536A1.1,1.1,0,0,0,80.471,140.754Z" transform="translate(39.295 -122.369)"/>
            <path id="Path_2140" data-name="Path 2140" class="cls-3" d="M68.8,146.836l6.01-3.536h1.414l4.6,2.475a.346.346,0,0,1,.354.354l-.354.354-6.01,3.536H73.4l-4.6-2.475v-.707Z" transform="translate(27.632 -115.016)"/>
            <path id="Path_2141" data-name="Path 2141" class="cls-3" d="M66.4,148.236l6.01-3.536h1.414l4.6,2.475a.346.346,0,0,1,.354.354l-.354.354-6.01,3.535H71l-4.6-2.475v-.707Z" transform="translate(21.546 -111.466)"/>
            <path id="Path_2142" data-name="Path 2142" class="cls-3" d="M64.29,149.536,70.3,146h1.414l4.6,2.475a.346.346,0,0,1,.354.354c0,.354,0,0-.354.354l-6.01,3.535H68.886l-4.6-2.475c-.354-.354-.354-.354,0-.707Z" transform="translate(15.524 -108.17)"/>
            <path id="Path_2143" data-name="Path 2143" class="cls-3" d="M61.7,150.936l6.01-3.536h1.414l4.6,2.475a.346.346,0,0,1,.354.354l-.354.354-6.01,3.535H66.3l-4.6-2.475c0-.354,0-.354,0-.707Z" transform="translate(9.629 -104.62)"/>
            <path id="Path_2144" data-name="Path 2144" class="cls-3" d="M59.3,152.336l6.01-3.536h1.414l4.6,2.475a.346.346,0,0,1,.354.354l-.354.354-6.01,3.536H63.9l-4.6-2.475v-.707Z" transform="translate(3.544 -101.07)"/>
            <path id="Path_2145" data-name="Path 2145" class="cls-3" d="M57.19,153.736,63.2,150.2h1.414l4.6,2.475a.346.346,0,0,1,.354.354l-.354.354-6.01,3.536H61.786l-4.6-2.475c-.354-.354-.354-.354,0-.707Z" transform="translate(-2.478 -97.521)"/>
            <path id="Path_2146" data-name="Path 2146" class="cls-3" d="M83.774,147.082h0l-6.01,3.536H76.35l-4.6-2.475a.346.346,0,0,1-.354-.354l.354-.354,6.01-3.535h1.414l4.6,3.182Z" transform="translate(34.224 -113.494)"/>
            <path id="Path_2147" data-name="Path 2147" class="cls-3" d="M69.1,148.935h0l6.01-3.536h1.414l4.6,2.475a.346.346,0,0,1,.354.354l-.354.354-6.01,3.536H73.7l-4.6-3.182Z" transform="translate(28.392 -109.691)"/>
            <path id="Path_2148" data-name="Path 2148" class="cls-3" d="M78.974,149.882l-6.01,3.536H71.55l-4.6-2.475a.346.346,0,0,1-.354-.354l.354-.354,6.01-3.536h1.414l4.6,2.475c.354.354.354.354,0,.707Z" transform="translate(22.053 -106.395)"/>
            <path id="Path_2149" data-name="Path 2149" class="cls-3" d="M76.674,151.282l-6.01,3.536H69.25l-4.6-2.475a.346.346,0,0,1-.354-.354l.354-.354,6.01-3.536h1.414l4.6,2.475v.707Z" transform="translate(16.222 -102.845)"/>
            <path id="Path_2150" data-name="Path 2150" class="cls-3" d="M74.274,152.682l-6.01,3.536H66.85l-4.6-2.475a.346.346,0,0,1-.354-.354l.354-.354,6.01-3.535h1.414l4.6,2.475v.707Z" transform="translate(10.136 -99.295)"/>
            <path id="Path_2151" data-name="Path 2151" class="cls-3" d="M71.874,154.082l-6.01,3.536H64.45l-4.6-2.475a.346.346,0,0,1-.354-.354l.354-.354,6.01-3.536h1.414l4.6,2.475c0,.354.354.354,0,.707Z" transform="translate(4.051 -95.746)"/>
            <path id="Path_2152" data-name="Path 2152" class="cls-3" d="M69.474,155.382l-6.01,3.536H62.05l-4.6-2.475a.346.346,0,0,1-.354-.354l.354-.354,6.01-3.535h1.414l4.6,2.475c.354.354.354.707,0,.707Z" transform="translate(-2.034 -92.449)"/>
            <path id="Path_2153" data-name="Path 2153" class="cls-3" d="M87.825,141h.707l4.6,2.475a.346.346,0,0,1,.354.354l-.354.354-6.364,3.536H85.35l-4.6-2.475a.346.346,0,0,1-.354-.354l.354-.354L87.118,141Z" transform="translate(57.044 -120.847)"/>
            <path id="Path_2154" data-name="Path 2154" class="cls-3" d="M77.4,147.1h0l7.778-4.6h1.414l4.6,2.475a.346.346,0,0,1,.354.354c0,.354,0,0-.354.354l-7.778,4.6H82L77.4,147.1C77.754,147.45,77.4,147.45,77.4,147.1Z" transform="translate(49.437 -117.044)"/>
            <path id="Path_2155" data-name="Path 2155" class="cls-3" d="M84.974,148.782l-6.01,3.536H77.55l-4.6-2.475a.346.346,0,0,1-.354-.354l.354-.354,6.01-3.536h1.414l4.6,2.475v.707Z" transform="translate(37.267 -109.184)"/>
            <path id="Path_2156" data-name="Path 2156" class="cls-3" d="M82.574,150.082l-6.01,3.535H75.15l-4.6-2.475a.346.346,0,0,1-.354-.354l.354-.354,6.01-3.535h1.414l4.6,2.475v.707Z" transform="translate(31.181 -105.888)"/>
            <path id="Path_2157" data-name="Path 2157" class="cls-3" d="M80.174,151.482l-6.01,3.535H72.75l-4.6-2.475a.346.346,0,0,1-.354-.354l.354-.354,6.01-3.536h1.414l4.6,2.475c0,.354.354.354,0,.707Z" transform="translate(25.096 -102.338)"/>
            <path id="Path_2158" data-name="Path 2158" class="cls-3" d="M77.774,152.882l-6.01,3.535H70.35l-4.6-2.475a.346.346,0,0,1-.354-.354l.354-.354,6.01-3.536h1.414l4.6,2.475c.354.354.354.354,0,.707C78.128,152.528,78.128,152.882,77.774,152.882Z" transform="translate(19.011 -98.788)"/>
            <path id="Path_2159" data-name="Path 2159" class="cls-3" d="M75.474,154.282l-6.01,3.536H68.05l-4.6-2.475a.346.346,0,0,1-.354-.354l.354-.354,6.01-3.535h1.414l4.6,2.475v.707Z" transform="translate(13.179 -95.239)"/>
            <path id="Path_2160" data-name="Path 2160" class="cls-3" d="M73.074,155.582l-6.01,3.536H65.65l-4.6-2.475a.346.346,0,0,1-.354-.354l.354-.354,6.01-3.536h1.414l4.6,2.475c0,.354.354.707,0,.707Z" transform="translate(7.094 -91.942)"/>
            <path id="Path_2161" data-name="Path 2161" class="cls-3" d="M70.674,156.982l-6.01,3.535H63.25l-4.6-2.475a.346.346,0,0,1-.354-.354l.354-.354,6.01-3.536h1.414l4.6,2.475c.354.354.354.354,0,.707Z" transform="translate(1.009 -88.393)"/>
            <path id="Path_2162" data-name="Path 2162" class="cls-3" d="M84.9,143.828h0L89.5,141H90.91l11.314,6.717a.346.346,0,0,1,.354.354l-.354.354-4.6,2.475H96.214L84.9,143.828Z" transform="translate(68.454 -120.847)"/>
            <path id="Path_2163" data-name="Path 2163" class="cls-3" d="M90.078,142.1h.707l4.6,2.475a.346.346,0,0,1,.354.354l-.354.354-6.717,3.889H87.25l-4.6-2.475a.346.346,0,0,1-.354-.354l.354-.354,6.718-3.889Z" transform="translate(61.861 -118.058)"/>
            <path id="Path_2164" data-name="Path 2164" class="cls-3" d="M90.146,146.782l-3.182,1.768H85.55l-4.6-2.475a.346.346,0,0,1-.354-.354l.354-.354,3.182-1.768H85.55l4.6,2.475c.354.354.354.354,0,.707Z" transform="translate(57.551 -114.255)"/>
            <path id="Path_2165" data-name="Path 2165" class="cls-3" d="M88.7,147.782,85.164,149.9H83.75l-4.6-2.475a.346.346,0,0,1-.354-.354l.354-.354,3.536-2.121H84.1l4.6,2.475c0,.354.354.354,0,.707Z" transform="translate(52.987 -111.72)"/>
            <path id="Path_2166" data-name="Path 2166" class="cls-3" d="M91.31,148.782l-9.546,5.657H80.35l-4.6-2.475a.346.346,0,0,1-.354-.354l.354-.354L85.3,145.6h1.414l4.6,2.475v.707Z" transform="translate(44.366 -109.184)"/>
            <path id="Path_2167" data-name="Path 2167" class="cls-3" d="M85.274,150.782l-6.01,3.536H77.85l-4.6-2.475a.346.346,0,0,1-.354-.354l.354-.354,6.01-3.536h1.414l4.6,2.475c.354.354.354.354,0,.707Z" transform="translate(38.027 -104.113)"/>
            <path id="Path_2168" data-name="Path 2168" class="cls-3" d="M82.974,152.182l-6.01,3.535H75.55l-4.6-2.475a.346.346,0,0,1-.354-.354l.354-.354L76.964,149h1.414l4.6,2.475v.707Z" transform="translate(32.196 -100.563)"/>
            <path id="Path_2169" data-name="Path 2169" class="cls-3" d="M80.574,153.582l-6.01,3.535H73.15l-4.6-2.475a.346.346,0,0,1-.354-.353l.354-.354,6.01-3.536h1.414l4.6,2.475v.707Z" transform="translate(26.11 -97.013)"/>
            <path id="Path_2170" data-name="Path 2170" class="cls-3" d="M78.174,154.982l-6.01,3.536H70.75l-4.6-2.475a.346.346,0,0,1-.354-.354l.354-.354,6.01-3.535h1.414l4.6,2.475c.354,0,.354.354,0,.707Z" transform="translate(20.025 -93.464)"/>
            <path id="Path_2171" data-name="Path 2171" class="cls-3" d="M75.774,156.282l-6.01,3.536H68.35l-4.6-2.475a.346.346,0,0,1-.354-.354l.354-.354,6.01-3.536h1.414l4.6,2.475c.354.354.354.707,0,.707Z" transform="translate(13.94 -90.168)"/>
            <path id="Path_2172" data-name="Path 2172" class="cls-3" d="M73.474,157.682l-6.01,3.536H66.05l-4.6-2.475a.346.346,0,0,1-.354-.354l.354-.354,6.01-3.535h1.414l4.6,2.475v.707Z" transform="translate(8.108 -86.618)"/>
            <path id="Path_2173" data-name="Path 2173" class="cls-3" d="M71.074,159.082l-6.01,3.535H63.65l-4.6-2.475a.346.346,0,0,1-.354-.354l.354-.354,6.01-3.535h1.414l4.6,2.475c0,.354.354.354,0,.707Z" transform="translate(2.023 -83.068)"/>
            <path id="Path_2174" data-name="Path 2174" class="cls-3" d="M51.99,163.535,58,160h1.414l4.6,2.475a.346.346,0,0,1,.354.354l-.354.354L58,166.717H56.586l-4.6-2.475c-.354-.354-.354-.354,0-.707C51.637,163.889,51.637,163.535,51.99,163.535Z" transform="translate(-15.663 -72.672)"/>
            <path id="Path_2175" data-name="Path 2175" class="cls-3" d="M83.7,147.236h0l6.01-3.536h1.414l4.6,2.475a.346.346,0,0,1,.354.354l-.354.354-6.01,3.535H88.3l-4.6-3.182C84.054,147.589,83.7,147.589,83.7,147.236Z" transform="translate(65.411 -114.001)"/>
            <path id="Path_2176" data-name="Path 2176" class="cls-3" d="M81.4,148.635h0l6.01-3.536h1.414l4.6,2.475a.346.346,0,0,1,.354.354l-.354.354-6.01,3.535H86l-4.6-3.182Z" transform="translate(59.579 -110.452)"/>
            <path id="Path_2177" data-name="Path 2177" class="cls-3" d="M79,150.035h0l6.01-3.536h1.414l4.6,2.475a.346.346,0,0,1,.354.354l-.354.354-6.01,3.535H83.6L79,150.035Z" transform="translate(53.494 -106.902)"/>
            <path id="Path_2178" data-name="Path 2178" class="cls-3" d="M76.6,151.436h0l6.01-3.536h1.414l4.6,2.475a.346.346,0,0,1,.354.354l-.354.354-6.01,3.536H81.2l-4.6-3.182Z" transform="translate(47.409 -103.352)"/>
            <path id="Path_2179" data-name="Path 2179" class="cls-3" d="M64.7,172.281h0L104.3,149.3h1.414l4.6,2.475a.346.346,0,0,1,.354.353l-.354.354L71.064,175.463H69.65l-4.95-3.182Z" transform="translate(17.236 -99.803)"/>
            <path id="Path_2180" data-name="Path 2180" class="cls-3" d="M62.4,159.736h0l6.01-3.536h1.414l4.6,2.475a.346.346,0,0,1,.354.354l-.354.354-6.01,3.535H67l-4.6-3.182Z" transform="translate(11.404 -82.307)"/>
            <path id="Path_2181" data-name="Path 2181" class="cls-3" d="M60,161.035h0l6.01-3.536h1.414l4.6,2.475a.346.346,0,0,1,.354.354l-.354.354-6.01,3.536H64.6L60,161.035Z" transform="translate(5.319 -79.011)"/>
            <path id="Path_2182" data-name="Path 2182" class="cls-3" d="M57.6,162.435h0l6.01-3.535h1.414l4.6,2.475a.346.346,0,0,1,.354.354l-.354.354-6.01,3.536H62.2l-4.6-3.182Z" transform="translate(-0.766 -75.461)"/>
            <path id="Path_2183" data-name="Path 2183" class="cls-3" d="M55.3,163.836h0l6.01-3.536h1.414l4.6,2.475a.346.346,0,0,1,.354.354l-.354.354-6.01,3.536H59.9l-4.6-3.182Z" transform="translate(-6.598 -71.912)"/>
            <path id="Path_2184" data-name="Path 2184" class="cls-3" d="M53.3,164.175l4.6-2.475H59.31l4.6,2.475a.346.346,0,0,1,.354.354l-.354.354-4.6,2.475H57.9l-4.6-2.475v-.707Z" transform="translate(-11.669 -68.362)"/>
            <path id="Path_2185" data-name="Path 2185" class="cls-3" d="M63.274,152.182h0l-6.01,3.535H55.85l-4.6-2.475a.346.346,0,0,1-.354-.354l.354-.354L57.264,149h1.414l4.6,3.182Z" transform="translate(-17.754 -100.563)"/>
            <path id="Path_2186" data-name="Path 2186" class="cls-3" d="M60.974,153.582h0l-6.01,3.535H53.55l-4.6-2.475a.346.346,0,0,1-.354-.353l.354-.354,6.01-3.536h1.414l4.6,3.182Z" transform="translate(-23.586 -97.013)"/>
            <path id="Path_2187" data-name="Path 2187" class="cls-3" d="M58.574,154.982h0l-6.01,3.536H51.15l-4.6-2.475a.346.346,0,0,1-.354-.354l.354-.354,6.01-3.535h1.414l4.6,3.182Z" transform="translate(-29.671 -93.464)"/>
            <path id="Path_2188" data-name="Path 2188" class="cls-3" d="M56.174,156.382h0l-6.01,3.535H48.75l-4.6-2.475a.346.346,0,0,1-.354-.354l.354-.354,6.01-3.535h1.414l4.6,3.182Z" transform="translate(-35.757 -89.914)"/>
            <path id="Path_2189" data-name="Path 2189" class="cls-3" d="M41.79,158.136,47.8,154.6h1.414l4.6,2.475a.346.346,0,0,1,.354.354l-.354.354-6.01,3.536H46.386l-4.6-2.475c-.354-.354-.354-.354,0-.707Z" transform="translate(-41.525 -86.364)"/>
            <path id="Path_2190" data-name="Path 2190" class="cls-3" d="M51,154.836l6.01-3.536h1.414l4.6,2.475a.346.346,0,0,1,.354.354l-.354.354-6.01,3.535H55.6L51,155.543v-.707Z" transform="translate(-17.501 -94.731)"/>
            <path id="Path_2191" data-name="Path 2191" class="cls-3" d="M54.157,159.418H53.45l-4.6-2.475a.346.346,0,0,1-.354-.354l.354-.354,6.01-3.536h1.414l4.6,2.475a.346.346,0,0,1,.354.354l-.354.354-6.01,3.535Z" transform="translate(-23.84 -91.182)"/>
            <path id="Path_2192" data-name="Path 2192" class="cls-3" d="M51.757,160.918H51.05l-4.6-2.475a.346.346,0,0,1-.354-.354l.354-.354,6.01-3.536h1.414l4.6,2.475a.346.346,0,0,1,.354.354l-.354.354-6.01,3.535Z" transform="translate(-29.925 -87.378)"/>
            <path id="Path_2193" data-name="Path 2193" class="cls-3" d="M43.79,159.236,49.8,155.7h1.414l4.6,2.475a.346.346,0,0,1,.354.354l-.354.354-6.01,3.536H48.386l-4.6-2.475c-.354-.354-.354-.354,0-.707Z" transform="translate(-36.454 -83.575)"/>
            <path id="Path_2194" data-name="Path 2194" class="cls-3" d="M60.157,158.318H59.45l-4.6-2.475a.346.346,0,0,1-.354-.354l.354-.354,6.01-3.536h1.414l4.6,2.475a.346.346,0,0,1,.354.354l-.354.354-6.01,3.535Z" transform="translate(-8.626 -93.971)"/>
            <path id="Path_2195" data-name="Path 2195" class="cls-3" d="M57.757,159.717H57.05l-4.6-2.475a.346.346,0,0,1-.354-.354l.354-.354L58.464,153h1.414l4.6,2.475a.346.346,0,0,1,.354.354l-.354.354-6.01,3.536C58.11,159.364,58.11,159.717,57.757,159.717Z" transform="translate(-14.712 -90.421)"/>
            <path id="Path_2196" data-name="Path 2196" class="cls-3" d="M49.8,157.935h0l6.01-3.536h1.414l4.6,2.475a.346.346,0,0,1,.354.354l-.354.354-6.01,3.536H54.4l-4.6-3.182Z" transform="translate(-20.543 -86.871)"/>
            <path id="Path_2197" data-name="Path 2197" class="cls-3" d="M45.69,163.225,58.418,155.8h1.414l4.6,2.475a.346.346,0,0,1,.354.354l-.354.354L51.7,166.407H50.286l-4.6-2.475c-.354-.354-.354-.707,0-.707Z" transform="translate(-31.636 -83.322)"/>
            <path id="Path_2198" data-name="Path 2198" class="cls-3" d="M54.9,157.236h0l6.01-3.535h1.414l4.6,2.475a.346.346,0,0,1,.354.354l-.354.354-6.01,3.536H59.5l-4.6-3.182Z" transform="translate(-7.612 -88.646)"/>
            <path id="Path_2199" data-name="Path 2199" class="cls-3" d="M52.5,158.635h0l6.01-3.535h1.414l4.6,2.475a.346.346,0,0,1,.354.354l-.354.354-6.01,3.536H57.1l-4.6-3.182Z" transform="translate(-13.698 -85.096)"/>
            <path id="Path_2200" data-name="Path 2200" class="cls-3" d="M62.374,159.582l-6.01,3.536H54.95l-4.6-2.475a.346.346,0,0,1-.354-.354l.354-.354,6.01-3.536h1.414l4.6,2.475c.354.354.354.354,0,.707C62.728,159.228,62.728,159.582,62.374,159.582Z" transform="translate(-20.036 -81.8)"/>
            <path id="Path_2201" data-name="Path 2201" class="cls-3" d="M47.4,162.043l7.425-4.243h1.414l4.6,2.475a.346.346,0,0,1,.354.354l-.354.354-7.425,4.243H52l-4.6-2.475v-.707Z" transform="translate(-26.629 -78.25)"/>
            <path id="Path_2202" data-name="Path 2202" class="cls-3" d="M68.374,158.382l-6.01,3.536H60.95l-4.6-2.475a.346.346,0,0,1-.354-.354l.354-.354,6.01-3.536h1.414l4.6,2.475v.707Z" transform="translate(-4.823 -84.843)"/>
            <path id="Path_2203" data-name="Path 2203" class="cls-3" d="M53.7,160.135h0l6.01-3.535h1.414l4.6,2.475a.346.346,0,0,1,.354.354l-.354.354-6.01,3.536H58.3l-4.6-3.182Z" transform="translate(-10.655 -81.293)"/>
            <path id="Path_2204" data-name="Path 2204" class="cls-3" d="M49.513,165.425,62.241,158h1.414l4.6,2.475a.346.346,0,0,1,.354.354l-.354.354-12.728,7.425H54.109l-4.6-2.475c0-.354-.354-.354,0-.707Z" transform="translate(-21.67 -77.743)"/>
            <path id="Path_2205" data-name="Path 2205" class="cls-3" d="M68.674,160.482l-6.01,3.536H61.25l-4.6-2.475a.346.346,0,0,1-.354-.354l.354-.354,6.01-3.536h1.414l4.6,2.475c.354.354.354.354,0,.707Z" transform="translate(-4.063 -79.518)"/>
            <path id="Path_2206" data-name="Path 2206" class="cls-3" d="M66.374,161.782l-6.01,3.536H58.95l-4.6-2.475a.346.346,0,0,1-.354-.354l.354-.354,6.01-3.535h1.414l4.6,2.475v.707Z" transform="translate(-9.894 -76.222)"/>
            <path id="Path_2207" data-name="Path 2207" class="cls-3" d="M87.274,147.382l-6.01,3.535H79.85l-4.6-2.475a.346.346,0,0,1-.354-.354l.354-.354,6.01-3.535h1.414l4.6,2.475c.354.353.354.353,0,.707C87.628,147.028,87.628,147.382,87.274,147.382Z" transform="translate(43.098 -112.734)"/>
            <g id="Group_776" data-name="Group 776" class="cls-6" transform="translate(104.652 60.016)">
              <path id="Path_2208" data-name="Path 2208" class="cls-5" d="M119.473,163.323c1.768,1.061,1.768,2.475,0,3.536L96.492,180.294a6.762,6.762,0,0,1-6.364,0L72.451,170.041c-1.768-1.061-1.768-2.475,0-3.535L95.432,153.07a6.762,6.762,0,0,1,6.364,0Z" transform="translate(-71.125 -152.275)"/>
            </g>
          </g>
        </g>
      </g>
      <g id="Group_780" data-name="Group 780" transform="translate(14.407 77.719)">
        <path id="Path_2209" data-name="Path 2209" class="cls-4" d="M74.2,125.12l.354,63.286a1.939,1.939,0,0,1-1.414,2.121L43.443,207.5a2.588,2.588,0,0,1-3.889-2.121L39.2,142.09a1.939,1.939,0,0,1,1.414-2.121L70.313,123A2.48,2.48,0,0,1,74.2,125.12Z" transform="translate(-39.2 -122.582)"/>
      </g>
      <g id="Group_781" data-name="Group 781" transform="translate(54.712 73.186)">
        <path id="Path_2210" data-name="Path 2210" class="cls-7" d="M130.149,145.7l-79.2,44.9L50.6,121.3" transform="translate(-50.6 -121.3)"/>
      </g>
      <path id="Path_2211" data-name="Path 2211" class="cls-8" d="M51.5,203.432c1.061-5.3-2.121-48.437,18.738-35.709,8.839,5.3,4.95-31.466,15.556-34.295,6.717-1.768,11.314,17.324,15.556,16.263,3.889-1.061,8.132-27.931,15.91-33.588,10.607-8.132,9.192,45.255,9.192,45.255Z" transform="translate(6.394 -63.425)"/>
      <line id="Line_152" data-name="Line 152" class="cls-7" y1="69.296" transform="translate(73.804 62.225)"/>
      <line id="Line_153" data-name="Line 153" class="cls-7" y1="68.943" transform="translate(90.775 52.326)"/>
      <line id="Line_154" data-name="Line 154" class="cls-7" x1="0.354" y1="69.296" transform="translate(107.745 42.073)"/>
      <line id="Line_155" data-name="Line 155" class="cls-7" x1="0.354" y1="69.296" transform="translate(124.716 31.82)"/>
    </g>
    <g id="Group_2757" data-name="Group 2757">
      <path id="Path_4230" data-name="Path 4230" class="cls-5" d="M11.3,6.036l31.9-6.6L63.632,22.945l-10.256,31.5L22.205,58.957,1.768,35.446Z" transform="translate(221.414 134.425) rotate(41)"/>
      <g id="Group_2756" data-name="Group 2756" transform="translate(-87.286 -2197.73)">
        <path id="Path_1258" data-name="Path 1258" class="cls-9" d="M55.944,20.988c-2.165,1.174-4.147,2.716-6.239,4a12.254,12.254,0,0,0-1.174.771c0-1.248.037-2.349,0-3.45-.037-1.542.551-3.34-.22-4.551-.771-1.138-2.459-1.652-3.744-2.422-3.817-2.276-7.671-4.478-11.488-6.79a1.768,1.768,0,0,0-2.019-.037q-5.836,3.3-11.671,6.5c-.367.22-.771.367-1.138.551-1.982-1.174-4.037-2.239-6.093-3.3-.551-.294-1.248-.44-1.358-1.248,5.138-3.046,10.277-6.056,15.415-9.176A19.517,19.517,0,0,1,30.62-.3h2.092a21.418,21.418,0,0,1,4.735,1.945c5.175,3.046,10.387,6.093,15.635,9.066a7.128,7.128,0,0,1,2.9,2.716C55.944,16.033,55.944,18.529,55.944,20.988Z" transform="translate(282.164 2348.3)"/>
        <path id="Path_1260" data-name="Path 1260" class="cls-9" d="M48.631,88.295c.4.33.257.807.257,1.211.037,2.643.037,5.285.037,7.891a43.782,43.782,0,0,1-5.1,2.936c-3.964,2.239-7.928,4.441-11.928,6.643-2.2,1.211-4.4,2.422-6.57,3.67a1.325,1.325,0,0,1-1.578-.073Q12.3,103.306.771,96.149A1.474,1.474,0,0,1,0,94.754c.037-2.533,0-5.1,0-7.854,1.909,1.138,3.634,2.2,5.359,3.267,6.056,3.67,12.075,7.341,18.131,11.084a1.763,1.763,0,0,0,2.092.037c7.487-4.184,15.195-8,22.389-12.7A2.607,2.607,0,0,1,48.631,88.295Z" transform="translate(289 2293.105)"/>
        <path id="Path_1261" data-name="Path 1261" class="cls-9" d="M49.038,56.563a13.938,13.938,0,0,1-2.5,1.395c-.44.257-.807-.037-1.174-.22-2.092-1.064-4.221-2.129-6.313-3.23-.734-.4-1.1-.44-1.064.587.037,2.422.037,4.808,0,7.23a1.338,1.338,0,0,0,.734,1.321c2.2,1.358,4.4,2.753,6.533,4.221a1.321,1.321,0,0,0,1.578,0c3.634-2.019,7.377-3.89,11.048-6.313v3.964a.948.948,0,0,1-.551.844c-3.634,2.055-7.3,4.074-10.937,6.129a.82.82,0,0,1-.954-.11c-3.56-2.239-7.157-4.478-10.717-6.717a1.163,1.163,0,0,1-.624-1.138c.037-3.89.037-7.744,0-11.635a1.059,1.059,0,0,1,.587-1.138C35.9,51.095,37.11,50.4,38.321,49.7a8.359,8.359,0,0,0,3.523,2.055l4.184,2.312c.037.807.844.807,1.321,1.138C47.937,55.572,48.855,55.609,49.038,56.563Z" transform="translate(267.416 2316.651)"/>
        <path id="Path_1262" data-name="Path 1262" class="cls-9" d="M.1,39.4c2.679,1.358,5.212,2.679,7.744,4,.367.184.367.551.367.881v16.59A5.626,5.626,0,0,1,6.3,59.843c-1.835-1.1-3.634-2.2-5.432-3.34-.4-.257-.734-.44-.734-1.028C.1,50.191.1,44.905.1,39.4Z" transform="translate(288.937 2323.171)"/>
        <path id="Path_1263" data-name="Path 1263" class="cls-9" d="M56.254,49.356c-.184-.954-1.1-.991-1.725-1.395-.477-.33-1.248-.33-1.321-1.138A31.76,31.76,0,0,0,58.456,44.4c-1.578-.807-2.936-1.542-4.331-2.239a.7.7,0,0,0-.661-.147,15.558,15.558,0,0,0-4.441,2.5A8.76,8.76,0,0,1,45.5,42.456c2.092-1.248,4.147-2.532,6.239-3.744a3.659,3.659,0,0,1,3.67.22c2.9,1.652,5.762,3.3,8.662,4.992a1.926,1.926,0,0,1,1.028,1.8c-.037,2.276-.037,4.588,0,6.863a1.332,1.332,0,0,1-.807,1.358c-.881.477-1.688,1.028-2.753,1.652V48.218c0-1.358,0-1.321-1.248-.7A21.216,21.216,0,0,1,56.254,49.356Z" transform="translate(260.2 2323.859)"/>
        <path id="Path_1264" data-name="Path 1264" class="cls-9" d="M4.18,30.8c.073.807.807.954,1.358,1.248,2.055,1.028,4.111,2.092,6.093,3.3-.257.257-.661.294-.881.477-1.652,1.688-3.23,1.028-4.918,0S2.345,33.993.4,32.965C1.758,32.158,2.969,31.461,4.18,30.8Z" transform="translate(288.747 2328.615)"/>
      </g>
    </g>
  </g>
</svg>
