<svg xmlns="http://www.w3.org/2000/svg" xmlns:xlink="http://www.w3.org/1999/xlink" viewBox="0 0 433 300">
  <defs>
    <style>
      .cls-1 {
        clip-path: url(#clip-img-19);
      }

      .cls-2 {
        fill: url(#linear-gradient);
      }

      .cls-3 {
        fill: none;
        stroke: #8499f0;
        stroke-width: 4px;
      }

      .cls-4 {
        fill: url(#linear-gradient-2);
      }

      .cls-5 {
        fill: url(#linear-gradient-3);
      }

      .cls-6 {
        fill: url(#linear-gradient-20);
      }

      .cls-7 {
        fill: url(#linear-gradient-21);
      }

      .cls-8 {
        fill: #fff;
      }
    </style>
    <linearGradient id="linear-gradient" x1="0.5" x2="0.5" y2="1" gradientUnits="objectBoundingBox">
      <stop offset="0" stop-color="#3d47cb"/>
      <stop offset="1" stop-color="#000dff"/>
    </linearGradient>
    <linearGradient id="linear-gradient-2" x1="0.5" x2="0.5" y2="0.625" gradientUnits="objectBoundingBox">
      <stop offset="0" stop-color="#aae4ff"/>
      <stop offset="1" stop-color="#0d9de7"/>
    </linearGradient>
    <linearGradient id="linear-gradient-3" y2="1" xlink:href="#linear-gradient-2"/>
    <linearGradient id="linear-gradient-20" x1="0.5" x2="0.5" y2="0.625" gradientUnits="objectBoundingBox">
      <stop offset="0" stop-color="#005bea"/>
      <stop offset="1" stop-color="#00c6fb"/>
    </linearGradient>
    <linearGradient id="linear-gradient-21" y2="1" xlink:href="#linear-gradient-20"/>
    <clipPath id="clip-img-19">
      <rect width="433" height="300"/>
    </clipPath>
  </defs>
  <g id="img-19" class="cls-1">
    <path id="Path_4251" data-name="Path 4251" class="cls-2" d="M153.918,14.577c-18.244.976-36.678,6.306-50.912,17.764C90.517,42.4,81.51,58.211,83.707,74.1c2.594,18.755,19.326,32.4,25.533,50.289,3.994,11.5,3.371,24.193.758,36.091-1.682,7.666-4.267,15.341-9.237,21.417-8.951,10.93-25.1,16.205-29.5,29.63-4.783,14.6,7.27,28.916,18.593,39.3,9.039,8.285,18.505,16.53,29.9,21.072,8.329,3.324,17.367,4.517,26.327,4.993a175.579,175.579,0,0,0,72.578-11.6c11.069-4.3,21.777-9.741,33.362-12.33,24.689-5.521,50.091,2.439,75.113,6.167a224.65,224.65,0,0,0,64.714.19c13.508-1.927,27.465-5.406,37.638-14.5,10.312-9.229,15.468-23.515,14.9-37.356s-6.409-27.167-15.008-38.034c-11.1-14.036-26.422-24.022-39.747-35.984a171.863,171.863,0,0,1-34.2-42.27c-5.235-9.122-9.689-18.8-16.471-26.834-10.577-12.517-25.918-19.961-41.247-25.712-35.361-13.247-72.039-15.943-108.907-21.8A166.58,166.58,0,0,0,153.918,14.577Z" transform="translate(-33.99 7.626)"/>
    <path id="Path_4247" data-name="Path 4247" class="cls-3" d="M-6001.844,6791.531v91.211l80.9,47.54,79.845-45.7v-93.049l-79.845-45.366Z" transform="translate(6137.966 -6687.036)"/>
    <path id="Path_4248" data-name="Path 4248" class="cls-3" d="M-6000.6,6875.153l80.3-45.438,78.794,45.438-78.794,45.175Z" transform="translate(6138.102 -6677.871)"/>
    <g id="Group_2775" data-name="Group 2775" transform="translate(104.514 67.524)">
      <path id="Path_4243" data-name="Path 4243" class="cls-4" d="M-5925.4,6711.73l-32.825,19.523,32,18.683,33.862-18.683Z" transform="translate(5958.338 -6711.73)"/>
      <path id="Path_4245" data-name="Path 4245" class="cls-5" d="M-5948,6701.645l32.576,18.788v35.99l-32.576-19.21Z" transform="translate(5948.001 -6682.481)"/>
      <path id="Path_4246" data-name="Path 4246" class="cls-5" d="M-5914.6,6701.441l-33.4,18.041v36.27l33.4-18.241Z" transform="translate(5980.578 -6681.811)"/>
    </g>
    <g id="Group_2779" data-name="Group 2779" transform="translate(264.309 67.524)">
      <path id="Path_4243-2" data-name="Path 4243" class="cls-4" d="M-5925.4,6711.73l-32.825,19.523,32,18.683,33.862-18.683Z" transform="translate(5958.338 -6711.73)"/>
      <path id="Path_4245-2" data-name="Path 4245" class="cls-5" d="M-5948,6701.645l32.576,18.788v35.99l-32.576-19.21Z" transform="translate(5948.001 -6682.481)"/>
      <path id="Path_4246-2" data-name="Path 4246" class="cls-5" d="M-5914.6,6701.441l-33.4,18.041v36.27l33.4-18.241Z" transform="translate(5980.578 -6681.811)"/>
    </g>
    <g id="Group_2777" data-name="Group 2777" transform="translate(104.514 159.628)">
      <path id="Path_4243-3" data-name="Path 4243" class="cls-4" d="M-5925.4,6711.73l-32.825,19.523,32,18.683,33.862-18.683Z" transform="translate(5958.338 -6711.73)"/>
      <path id="Path_4245-3" data-name="Path 4245" class="cls-5" d="M-5948,6701.645l32.576,18.788v35.99l-32.576-19.21Z" transform="translate(5948.001 -6682.481)"/>
      <path id="Path_4246-3" data-name="Path 4246" class="cls-5" d="M-5914.6,6701.441l-33.4,18.041v36.27l33.4-18.241Z" transform="translate(5980.578 -6681.811)"/>
    </g>
    <g id="Group_2778" data-name="Group 2778" transform="translate(264.309 159.628)">
      <path id="Path_4243-4" data-name="Path 4243" class="cls-4" d="M-5925.4,6711.73l-32.825,19.523,32,18.683,33.862-18.683Z" transform="translate(5958.338 -6711.73)"/>
      <path id="Path_4245-4" data-name="Path 4245" class="cls-5" d="M-5948,6701.645l32.576,18.788v35.99l-32.576-19.21Z" transform="translate(5948.001 -6682.481)"/>
      <path id="Path_4246-4" data-name="Path 4246" class="cls-5" d="M-5914.6,6701.441l-33.4,18.041v36.27l33.4-18.241Z" transform="translate(5980.578 -6681.811)"/>
    </g>
    <g id="Group_2776" data-name="Group 2776" transform="translate(185.521 22.027)">
      <path id="Path_4243-5" data-name="Path 4243" class="cls-4" d="M-5925.4,6711.73l-32.825,19.523,32,18.683,33.862-18.683Z" transform="translate(5958.338 -6711.73)"/>
      <path id="Path_4245-5" data-name="Path 4245" class="cls-5" d="M-5948,6701.645l32.576,18.788v35.99l-32.576-19.21Z" transform="translate(5948.001 -6682.481)"/>
      <path id="Path_4246-5" data-name="Path 4246" class="cls-5" d="M-5914.6,6701.441l-33.4,18.041v36.27l33.4-18.241Z" transform="translate(5980.578 -6681.811)"/>
    </g>
    <g id="Group_2780" data-name="Group 2780" transform="translate(185.521 205.125)">
      <path id="Path_4243-6" data-name="Path 4243" class="cls-4" d="M-5925.4,6711.73l-32.825,19.523,32,18.683,33.862-18.683Z" transform="translate(5958.338 -6711.73)"/>
      <path id="Path_4245-6" data-name="Path 4245" class="cls-5" d="M-5948,6701.645l32.576,18.788v35.99l-32.576-19.21Z" transform="translate(5948.001 -6682.481)"/>
      <path id="Path_4246-6" data-name="Path 4246" class="cls-5" d="M-5914.6,6701.441l-33.4,18.041v36.27l33.4-18.241Z" transform="translate(5980.578 -6681.811)"/>
    </g>
    <g id="Group_2781" data-name="Group 2781" transform="translate(185.521 115.241)">
      <path id="Path_4243-7" data-name="Path 4243" class="cls-6" d="M-5925.4,6711.73l-32.825,19.523,32,18.683,33.862-18.683Z" transform="translate(5958.338 -6711.73)"/>
      <path id="Path_4245-7" data-name="Path 4245" class="cls-7" d="M-5948,6701.645l32.576,18.788v35.99l-32.576-19.21Z" transform="translate(5948.001 -6682.481)"/>
      <path id="Path_4246-7" data-name="Path 4246" class="cls-7" d="M-5914.6,6701.441l-33.4,18.041v36.27l33.4-18.241Z" transform="translate(5980.578 -6681.811)"/>
      <path id="Path_4249" data-name="Path 4249" class="cls-8" d="M50.492,57.231a15.294,15.294,0,0,1-2.739,1.53c-.483.282-.886-.04-1.289-.242-2.3-1.168-4.632-2.336-6.927-3.544-.805-.443-1.208-.483-1.168.644.04,2.658.04,5.276,0,7.934A1.468,1.468,0,0,0,39.175,65c2.416,1.49,4.833,3.021,7.169,4.632a1.45,1.45,0,0,0,1.732,0c3.987-2.215,8.1-4.269,12.123-6.927v4.35a1.04,1.04,0,0,1-.6.926c-3.987,2.255-8.015,4.47-12,6.726a.9.9,0,0,1-1.047-.121c-3.907-2.457-7.853-4.913-11.76-7.37a1.276,1.276,0,0,1-.685-1.248c.04-4.269.04-8.5,0-12.767a1.162,1.162,0,0,1,.644-1.249c1.329-.725,2.658-1.49,3.987-2.255A9.173,9.173,0,0,0,42.6,51.955l4.591,2.537c.04.886.926.886,1.45,1.249C49.283,56.144,50.29,56.184,50.492,57.231Z" transform="translate(-15.986 -21.539)"/>
      <path id="Path_4250" data-name="Path 4250" class="cls-8" d="M57.3,50.43c-.2-1.047-1.208-1.087-1.893-1.53-.524-.362-1.369-.362-1.45-1.249a34.85,34.85,0,0,0,5.759-2.658c-1.732-.886-3.222-1.692-4.752-2.457a.773.773,0,0,0-.725-.161c-1.692.805-3.5,1.41-4.873,2.739A9.612,9.612,0,0,1,45.5,42.859c2.3-1.369,4.551-2.779,6.847-4.108a4.015,4.015,0,0,1,4.027.242c3.182,1.812,6.323,3.625,9.5,5.477a2.113,2.113,0,0,1,1.128,1.973c-.04,2.5-.04,5.034,0,7.531a1.461,1.461,0,0,1-.886,1.49c-.967.524-1.853,1.128-3.021,1.812v-8.1c0-1.49,0-1.45-1.369-.765A23.279,23.279,0,0,1,57.3,50.43Z" transform="translate(-22.795 -14.739)"/>
    </g>
  </g>
</svg>
