<svg xmlns="http://www.w3.org/2000/svg" xmlns:xlink="http://www.w3.org/1999/xlink" viewBox="0 0 693 507">
  <defs>
    <style>
      .cls-1 {
        clip-path: url(#clip-img-9);
      }

      .cls-2, .cls-6 {
        fill: #066de8;
      }

      .cls-3 {
        fill: none;
        stroke: #535461;
        stroke-miterlimit: 10;
        stroke-width: 2px;
      }

      .cls-4 {
        fill: #a8a8a8;
      }

      .cls-5, .cls-9 {
        fill: #585858;
      }

      .cls-5 {
        opacity: 0.2;
      }

      .cls-26, .cls-6, .cls-9 {
        opacity: 0.1;
      }

      .cls-7 {
        fill: url(#linear-gradient);
      }

      .cls-8 {
        fill: #474059;
      }

      .cls-10 {
        fill: #fff;
      }

      .cls-11 {
        fill: #d6d6e3;
      }

      .cls-12 {
        fill: #8499f0;
      }

      .cls-13 {
        fill: #fc6681;
      }

      .cls-14 {
        fill: #ffc74c;
      }

      .cls-15 {
        fill: #85d459;
      }

      .cls-16 {
        fill: #ffd037;
      }

      .cls-17 {
        fill: url(#linear-gradient-2);
      }

      .cls-18 {
        fill: url(#linear-gradient-3);
      }

      .cls-19 {
        fill: url(#linear-gradient-10);
      }

      .cls-20 {
        fill: url(#linear-gradient-17);
      }

      .cls-21 {
        fill: url(#linear-gradient-24);
      }

      .cls-22 {
        fill: #fec3be;
      }

      .cls-23 {
        fill: #4470d1;
      }

      .cls-24 {
        fill: #4d4981;
      }

      .cls-25 {
        opacity: 0.05;
      }

      .cls-27 {
        fill: url(#linear-gradient-25);
      }

      .cls-28 {
        fill: #784f69;
      }
    </style>
    <linearGradient id="linear-gradient" x1="0.5" y1="1" x2="0.5" gradientUnits="objectBoundingBox">
      <stop offset="0" stop-color="gray" stop-opacity="0.251"/>
      <stop offset="0.54" stop-color="gray" stop-opacity="0.122"/>
      <stop offset="1" stop-color="gray" stop-opacity="0.102"/>
    </linearGradient>
    <linearGradient id="linear-gradient-2" y2="0" xlink:href="#linear-gradient"/>
    <linearGradient id="linear-gradient-3" x1="0.5" x2="0.5" y2="1" gradientUnits="objectBoundingBox">
      <stop offset="0" stop-color="#2359f1"/>
      <stop offset="1" stop-color="#4c76cb"/>
    </linearGradient>
    <linearGradient id="linear-gradient-10" x1="0.5" x2="0.5" y2="1" gradientUnits="objectBoundingBox">
      <stop offset="0" stop-color="#22ea7c"/>
      <stop offset="1" stop-color="#28c76f"/>
    </linearGradient>
    <linearGradient id="linear-gradient-17" x1="0.5" x2="0.5" y2="1" gradientUnits="objectBoundingBox">
      <stop offset="0" stop-color="#fad961"/>
      <stop offset="1" stop-color="#f76b1c"/>
    </linearGradient>
    <linearGradient id="linear-gradient-24" y2="0" xlink:href="#linear-gradient"/>
    <linearGradient id="linear-gradient-25" x1="0.5" x2="0.5" y2="1" gradientUnits="objectBoundingBox">
      <stop offset="0" stop-color="#6b73ff"/>
      <stop offset="1" stop-color="#000dff"/>
    </linearGradient>
    <clipPath id="clip-img-9">
      <rect width="693" height="507"/>
    </clipPath>
  </defs>
  <g id="img-9" class="cls-1">
    <g id="Group_2560" data-name="Group 2560" transform="translate(-681 -3552)">
      <g id="undraw_segmentation_uioo" transform="translate(683 3561.625)">
        <path id="Path_1191" data-name="Path 1191" class="cls-2" d="M868.123,166.53,839,169.009S854.491,195.653,868.123,166.53Z" transform="translate(-345.893 -98.687)"/>
        <path id="Path_1192" data-name="Path 1192" class="cls-2" d="M803.379,140.53,826.442,159S796.563,170.892,803.379,140.53Z" transform="translate(-331.96 -88.797)"/>
        <path id="Path_1197" data-name="Path 1197" class="cls-3" d="M199.585,568.216s-19.717-51.752-4.22-92.171a83.906,83.906,0,0,0,2.689-53.01A141.114,141.114,0,0,0,188.71,399" transform="translate(-98.547 -187.11)"/>
        <path id="Path_1198" data-name="Path 1198" class="cls-2" d="M189.771,351.083c.5,6.494-9.784,26.229-9.784,26.229s-13.217-17.907-13.719-24.4a11.79,11.79,0,0,1,23.509-1.828Z" transform="translate(-89.997 -164.747)"/>
        <path id="Path_1199" data-name="Path 1199" class="cls-2" d="M226.107,402.662c-3.1,5.725-22.468,16.7-22.468,16.7s-1.357-22.214,1.747-27.939a11.789,11.789,0,1,1,20.727,11.24Z" transform="translate(-104.113 -181.88)"/>
        <path id="Path_1200" data-name="Path 1200" class="cls-2" d="M229.342,499.2c-5.577,3.371-27.822,3.1-27.822,3.1s10.044-19.865,15.609-23.236a11.789,11.789,0,1,1,12.213,20.169Z" transform="translate(-103.419 -216.914)"/>
        <path id="Path_1201" data-name="Path 1201" class="cls-2" d="M217.785,576.1c-4.92,4.263-26.9,7.727-26.9,7.727s6.543-21.278,11.457-25.542A11.79,11.79,0,0,1,217.785,576.1Z" transform="translate(-99.372 -246.598)"/>
        <path id="Path_1202" data-name="Path 1202" class="cls-2" d="M161.535,432.619c5.007,4.164,27.06,7.163,27.06,7.163s-6.983-21.136-12-25.294a11.788,11.788,0,1,0-15.07,18.131Z" transform="translate(-86.59 -191.965)"/>
        <path id="Path_1203" data-name="Path 1203" class="cls-2" d="M146.62,520.782c6.023,2.479,27.964-1.239,27.964-1.239S161.572,501.468,155.573,499a11.789,11.789,0,1,0-8.954,21.811Z" transform="translate(-79.755 -224.808)"/>
        <path id="Path_1204" data-name="Path 1204" class="cls-2" d="M146.943,609.855c5.521,3.451,27.778,3.482,27.778,3.482s-9.753-20.014-15.268-23.441a11.788,11.788,0,1,0-12.51,19.983Z" transform="translate(-80.555 -259.036)"/>
        <path id="Path_1205" data-name="Path 1205" class="cls-2" d="M189.771,351.083c.5,6.494-9.784,26.229-9.784,26.229s-13.217-17.907-13.719-24.4a11.79,11.79,0,0,1,23.509-1.828Z" transform="translate(-89.997 -164.747)"/>
        <path id="Path_1206" data-name="Path 1206" class="cls-2" d="M226.107,402.662c-3.1,5.725-22.468,16.7-22.468,16.7s-1.357-22.214,1.747-27.939a11.789,11.789,0,1,1,20.727,11.24Z" transform="translate(-104.113 -181.88)"/>
        <path id="Path_1207" data-name="Path 1207" class="cls-2" d="M229.342,499.2c-5.577,3.371-27.822,3.1-27.822,3.1s10.044-19.865,15.609-23.236a11.789,11.789,0,1,1,12.213,20.169Z" transform="translate(-103.419 -216.914)"/>
        <path id="Path_1208" data-name="Path 1208" class="cls-2" d="M217.785,576.1c-4.92,4.263-26.9,7.727-26.9,7.727s6.543-21.278,11.457-25.542A11.79,11.79,0,0,1,217.785,576.1Z" transform="translate(-99.372 -246.598)"/>
        <path id="Path_1209" data-name="Path 1209" class="cls-2" d="M161.535,432.619c5.007,4.164,27.06,7.163,27.06,7.163s-6.983-21.136-12-25.294a11.788,11.788,0,1,0-15.07,18.131Z" transform="translate(-86.59 -191.965)"/>
        <path id="Path_1210" data-name="Path 1210" class="cls-2" d="M146.62,520.782c6.023,2.479,27.964-1.239,27.964-1.239S161.572,501.468,155.573,499a11.789,11.789,0,1,0-8.954,21.811Z" transform="translate(-79.755 -224.808)"/>
        <path id="Path_1211" data-name="Path 1211" class="cls-2" d="M146.943,609.855c5.521,3.451,27.778,3.482,27.778,3.482s-9.753-20.014-15.268-23.441a11.788,11.788,0,1,0-12.51,19.983Z" transform="translate(-80.555 -259.036)"/>
        <path id="Path_1212" data-name="Path 1212" class="cls-4" d="M233.837,649.977s-14.958-1.8-19.209-5.422-22.437-9.121-24.023-4.059-24.829,23.658-7.913,25.312,39.6.868,44.329-1.475S233.837,649.977,233.837,649.977Z" transform="translate(-93.923 -278.189)"/>
        <path id="Path_1213" data-name="Path 1213" class="cls-5" d="M182.574,671.016c16.922,1.648,39.576.874,44.335-1.469,3.625-1.785,5.664-9.171,6.432-12.6l.5.062s-2.032,12.009-6.816,14.357-27.413,3.1-44.335,1.469c-4.883-.477-6.419-2.367-6.1-4.957C177.159,669.522,178.937,670.663,182.574,671.016Z" transform="translate(-93.923 -285.225)"/>
        <path id="Path_1214" data-name="Path 1214" class="cls-6" d="M691.959,340.983c-24.29,33.287-16.234,80.8-2.231,118.654,4.7,12.672,10.032,26.074,7.6,39.861-2.974,16.854-16.953,29.482-31.484,36.36-26.49,12.535-57.781,10.534-81.476-5.261-20.448-13.632-34.842-36.286-55.687-49.267-34.885-21.718-80.175-12.015-119,4.567-27.468,11.73-57.558,26.836-84.326,16.005-18.837-7.622-31.521-27.022-38.194-47.762-3.222-10.013-5.478-20.882-11.9-28.72-3.817-4.66-8.861-7.907-14.047-10.621-47.334-24.785-108.22-9.295-154.11-36.949-30.982-18.676-50.265-54.918-58.277-93.02S42.8,206.509,45.988,166.976c2.268-28.094,5.856-58.116,22.747-80.193,17.864-23.348,47.8-32.63,74.579-28.968s50.773,18.552,71.779,36.274c26.266,22.158,50.432,49.961,83.1,58.351,22.251,5.725,45.89,1.673,69.021-.118,38.665-2.987,77.194.452,115.488,4.337,36.658,3.718,73.569,7.869,108.288,20.058,24.569,8.625,44.044,24.928,67.175,36.069,15.076,7.262,31.663,8.948,45.853,18.329,17.511,11.556,33.336,32.029,28.2,56.6C727.365,311.067,704.848,323.317,691.959,340.983Z" transform="translate(-43.2 -57.041)"/>
        <path id="Path_1215" data-name="Path 1215" class="cls-7" d="M646.392,135H241.832A15.819,15.819,0,0,0,226,150.8V386.572a15.819,15.819,0,0,0,15.832,15.8H404.747v58.1h-15.33a3.78,3.78,0,0,0-3.78,3.774v7.832h118.9v-7.845a3.78,3.78,0,0,0-3.78-3.774H481.179v-58.11H646.392a15.819,15.819,0,0,0,15.832-15.782V150.8A15.819,15.819,0,0,0,646.392,135Z" transform="translate(-112.73 -86.694)"/>
        <rect id="Rectangle_746" data-name="Rectangle 746" class="cls-8" width="75.143" height="72.51" transform="translate(293.014 304.656)"/>
        <rect id="Rectangle_747" data-name="Rectangle 747" class="cls-9" width="75.143" height="6.432" transform="translate(293.014 370.734)"/>
        <path id="Path_1216" data-name="Path 1216" class="cls-8" d="M446.278,603H555.737a3.718,3.718,0,0,1,3.718,3.718v7.733H442.56v-7.733A3.718,3.718,0,0,1,446.278,603Z" transform="translate(-168.334 -231.535)"/>
        <rect id="Rectangle_748" data-name="Rectangle 748" class="cls-8" width="428.881" height="263.408" rx="25.12" transform="translate(117.279 50.785)"/>
        <rect id="Rectangle_749" data-name="Rectangle 749" class="cls-10" width="409.921" height="215.187" transform="translate(126.307 81.55)"/>
        <ellipse id="Ellipse_257" data-name="Ellipse 257" class="cls-10" cx="3.612" cy="3.569" rx="3.612" ry="3.569" transform="translate(327.658 66.864)"/>
        <rect id="Rectangle_750" data-name="Rectangle 750" class="cls-9" width="74.908" height="1.413" transform="translate(293.175 314.372)"/>
        <path id="Path_1217" data-name="Path 1217" class="cls-11" d="M598.931,269.75A85.51,85.51,0,0,0,629.6,417.713L653.5,335.586Z" transform="translate(-242.801 -137.948)"/>
        <path id="Path_1218" data-name="Path 1218" class="cls-11" d="M675.505,238a85.157,85.157,0,0,0-54.565,19.673l54.565,65.836,45.184-72.6A85.1,85.1,0,0,0,675.505,238Z" transform="translate(-262.951 -125.871)"/>
        <path id="Path_1219" data-name="Path 1219" class="cls-12" d="M694.333,376,670.44,458.12a85.559,85.559,0,0,0,109.4-80.615Z" transform="translate(-281.779 -178.361)"/>
        <rect id="Rectangle_754" data-name="Rectangle 754" class="cls-11" width="58.246" height="7.436" transform="translate(210.552 161.7)"/>
        <rect id="Rectangle_755" data-name="Rectangle 755" class="cls-11" width="58.246" height="7.436" transform="translate(210.552 193.921)"/>
        <rect id="Rectangle_756" data-name="Rectangle 756" class="cls-11" width="58.246" height="7.436" transform="translate(210.552 226.142)"/>
        <rect id="Rectangle_757" data-name="Rectangle 757" class="cls-11" width="410.199" height="7.436" transform="translate(126.282 81.147)"/>
        <circle id="Ellipse_258" data-name="Ellipse 258" class="cls-13" cx="1.859" cy="1.859" r="1.859" transform="translate(129.38 83.006)"/>
        <circle id="Ellipse_259" data-name="Ellipse 259" class="cls-14" cx="1.859" cy="1.859" r="1.859" transform="translate(134.337 83.006)"/>
        <circle id="Ellipse_260" data-name="Ellipse 260" class="cls-15" cx="1.859" cy="1.859" r="1.859" transform="translate(139.294 83.006)"/>
        <path id="Path_1221" data-name="Path 1221" class="cls-9" d="M950.05,594.55a4.8,4.8,0,0,1,.62,1.239c5.18,6.085,7.938,11.773,2.962,11.9-4.635.13-10.2,8.421-11.531,10.534a4.507,4.507,0,0,0,.155.477s6.519-10.844,11.829-10.992S955.893,601.069,950.05,594.55Z" transform="translate(-385.109 -261.49)"/>
        <path id="Path_1222" data-name="Path 1222" class="cls-16" d="M963.382,601.963c0,1.363-.155,2.479-.341,2.479s-.341-1.1-.341-2.479.192-.719.378-.719S963.382,600.6,963.382,601.963Z" transform="translate(-392.944 -263.976)"/>
        <path id="Path_1223" data-name="Path 1223" class="cls-16" d="M965.42,604.546c-1.2.651-2.237,1.047-2.324.88s.806-.83,2-1.481.725-.18.812,0S966.616,603.9,965.42,604.546Z" transform="translate(-393.093 -264.937)"/>
        <path id="Path_1225" data-name="Path 1225" class="cls-9" d="M925.649,594.55a4.788,4.788,0,0,0-.62,1.239c-5.18,6.085-7.938,11.773-2.962,11.9,4.635.13,10.2,8.421,11.531,10.534a4.508,4.508,0,0,1-.155.477s-6.519-10.844-11.829-10.992S919.812,601.069,925.649,594.55Z" transform="translate(-376.323 -261.49)"/>
        <path id="Path_1226" data-name="Path 1226" class="cls-16" d="M920.86,601.963c0,1.363.155,2.479.341,2.479s.341-1.1.341-2.479-.192-.719-.378-.719S920.86,600.6,920.86,601.963Z" transform="translate(-377.03 -263.976)"/>
        <path id="Path_1227" data-name="Path 1227" class="cls-16" d="M917.374,604.546c1.2.651,2.237,1.047,2.324.88s-.806-.83-2-1.481-.725-.18-.812,0S916.178,603.9,917.374,604.546Z" transform="translate(-375.427 -264.937)"/>
        <path id="Path_1230" data-name="Path 1230" class="cls-17" d="M823.945,416.067a92.877,92.877,0,0,0-43.833-78.917L731,416.067l92.945,1.636Z" transform="translate(-295.122 -229.004)"/>
        <path id="Path_1231" data-name="Path 1231" class="cls-2" d="M822.51,414.963a85.448,85.448,0,0,0-40.326-72.6L737,414.963l85.51,1.531Z" transform="translate(-297.404 -230.985)"/>
        <g id="Group_2316" data-name="Group 2316" transform="translate(174.886 154.884)">
          <path id="Path_1258" data-name="Path 1258" class="cls-18" d="M29.923,8.717c-.917.5-1.757,1.15-2.643,1.695a5.191,5.191,0,0,0-.5.326c0-.529.016-1,0-1.461-.016-.653.233-1.415-.093-1.928-.326-.482-1.042-.7-1.586-1.026-1.617-.964-3.249-1.9-4.866-2.876a.749.749,0,0,0-.855-.016q-2.472,1.4-4.944,2.752c-.155.093-.326.155-.482.233-.84-.5-1.71-.948-2.581-1.4-.233-.124-.529-.187-.575-.529C12.977,3.2,15.153,1.923,17.33.6A8.267,8.267,0,0,1,19.2-.3h.886a9.072,9.072,0,0,1,2.006.824c2.192,1.29,4.4,2.581,6.623,3.84a3.019,3.019,0,0,1,1.228,1.15C29.923,6.618,29.923,7.676,29.923,8.717Z" transform="translate(-9.121 0.3)"/>
          <path id="Path_1259" data-name="Path 1259" class="cls-18" d="M132.5,89.687c.062-.062.14-.124.2-.187v4.042h-.093c0-1.119,0-2.239-.016-3.343C132.593,90.013,132.671,89.826,132.5,89.687Z" transform="translate(-111.9 -75.539)"/>
          <path id="Path_1260" data-name="Path 1260" class="cls-18" d="M20.6,87.491c.171.14.109.342.109.513.016,1.119.016,2.239.016,3.343a18.545,18.545,0,0,1-2.161,1.244c-1.679.948-3.358,1.881-5.053,2.814-.933.513-1.866,1.026-2.783,1.555a.561.561,0,0,1-.669-.031Q5.208,93.85.326,90.818A.624.624,0,0,1,0,90.227c.016-1.073,0-2.161,0-3.327.808.482,1.539.933,2.27,1.384,2.565,1.555,5.115,3.109,7.68,4.7a.747.747,0,0,0,.886.016c3.172-1.772,6.436-3.389,9.484-5.379A1.1,1.1,0,0,1,20.6,87.491Z" transform="translate(0 -73.343)"/>
          <path id="Path_1261" data-name="Path 1261" class="cls-18" d="M40.428,52.607a5.9,5.9,0,0,1-1.057.591c-.187.109-.342-.016-.5-.093-.886-.451-1.788-.9-2.674-1.368-.311-.171-.466-.187-.451.249.016,1.026.016,2.037,0,3.063a.567.567,0,0,0,.311.56c.933.575,1.866,1.166,2.767,1.788a.56.56,0,0,0,.669,0c1.539-.855,3.125-1.648,4.68-2.674V56.4a.4.4,0,0,1-.233.358c-1.539.871-3.094,1.726-4.633,2.6a.347.347,0,0,1-.4-.047c-1.508-.948-3.032-1.9-4.54-2.845a.492.492,0,0,1-.264-.482c.016-1.648.016-3.28,0-4.928a.449.449,0,0,1,.249-.482c.513-.28,1.026-.575,1.539-.871a3.541,3.541,0,0,0,1.493.871l1.772.979c.016.342.358.342.56.482C39.961,52.188,40.35,52.2,40.428,52.607Z" transform="translate(-28.798 -41.927)"/>
          <path id="Path_1262" data-name="Path 1262" class="cls-18" d="M.1,39.4c1.135.575,2.208,1.135,3.28,1.695.155.078.155.233.155.373V48.5a2.383,2.383,0,0,1-.808-.435c-.777-.466-1.539-.933-2.3-1.415-.171-.109-.311-.187-.311-.435C.1,43.971.1,41.732.1,39.4Z" transform="translate(-0.084 -33.228)"/>
          <path id="Path_1263" data-name="Path 1263" class="cls-18" d="M50.055,42.991c-.078-.4-.466-.42-.731-.591-.2-.14-.529-.14-.56-.482a13.453,13.453,0,0,0,2.223-1.026c-.669-.342-1.244-.653-1.835-.948a.3.3,0,0,0-.28-.062,6.59,6.59,0,0,0-1.881,1.057,3.711,3.711,0,0,1-1.493-.871c.886-.529,1.757-1.073,2.643-1.586a1.55,1.55,0,0,1,1.555.093c1.228.7,2.441,1.4,3.669,2.114a.816.816,0,0,1,.435.762c-.016.964-.016,1.943,0,2.907a.564.564,0,0,1-.342.575c-.373.2-.715.435-1.166.7V42.509c0-.575,0-.56-.529-.3A8.986,8.986,0,0,1,50.055,42.991Z" transform="translate(-38.426 -32.31)"/>
          <path id="Path_1264" data-name="Path 1264" class="cls-18" d="M2,30.8c.031.342.342.4.575.529.871.435,1.741.886,2.581,1.4-.109.109-.28.124-.373.2-.7.715-1.368.435-2.083,0S1.224,32.153.4,31.717C.975,31.375,1.488,31.08,2,30.8Z" transform="translate(-0.338 -25.965)"/>
        </g>
        <g id="Group_2317" data-name="Group 2317" transform="translate(174.886 186.382)">
          <path id="Path_1258-2" data-name="Path 1258" class="cls-19" d="M29.923,8.717c-.917.5-1.757,1.15-2.643,1.695a5.191,5.191,0,0,0-.5.326c0-.529.016-1,0-1.461-.016-.653.233-1.415-.093-1.928-.326-.482-1.042-.7-1.586-1.026-1.617-.964-3.249-1.9-4.866-2.876a.749.749,0,0,0-.855-.016q-2.472,1.4-4.944,2.752c-.155.093-.326.155-.482.233-.84-.5-1.71-.948-2.581-1.4-.233-.124-.529-.187-.575-.529C12.977,3.2,15.153,1.923,17.33.6A8.267,8.267,0,0,1,19.2-.3h.886a9.072,9.072,0,0,1,2.006.824c2.192,1.29,4.4,2.581,6.623,3.84a3.019,3.019,0,0,1,1.228,1.15C29.923,6.618,29.923,7.676,29.923,8.717Z" transform="translate(-9.121 0.3)"/>
          <path id="Path_1259-2" data-name="Path 1259" class="cls-19" d="M132.5,89.687c.062-.062.14-.124.2-.187v4.042h-.093c0-1.119,0-2.239-.016-3.343C132.593,90.013,132.671,89.826,132.5,89.687Z" transform="translate(-111.9 -75.539)"/>
          <path id="Path_1260-2" data-name="Path 1260" class="cls-19" d="M20.6,87.491c.171.14.109.342.109.513.016,1.119.016,2.239.016,3.343a18.545,18.545,0,0,1-2.161,1.244c-1.679.948-3.358,1.881-5.053,2.814-.933.513-1.866,1.026-2.783,1.555a.561.561,0,0,1-.669-.031Q5.208,93.85.326,90.818A.624.624,0,0,1,0,90.227c.016-1.073,0-2.161,0-3.327.808.482,1.539.933,2.27,1.384,2.565,1.555,5.115,3.109,7.68,4.7a.747.747,0,0,0,.886.016c3.172-1.772,6.436-3.389,9.484-5.379A1.1,1.1,0,0,1,20.6,87.491Z" transform="translate(0 -73.343)"/>
          <path id="Path_1261-2" data-name="Path 1261" class="cls-19" d="M40.428,52.607a5.9,5.9,0,0,1-1.057.591c-.187.109-.342-.016-.5-.093-.886-.451-1.788-.9-2.674-1.368-.311-.171-.466-.187-.451.249.016,1.026.016,2.037,0,3.063a.567.567,0,0,0,.311.56c.933.575,1.866,1.166,2.767,1.788a.56.56,0,0,0,.669,0c1.539-.855,3.125-1.648,4.68-2.674V56.4a.4.4,0,0,1-.233.358c-1.539.871-3.094,1.726-4.633,2.6a.347.347,0,0,1-.4-.047c-1.508-.948-3.032-1.9-4.54-2.845a.492.492,0,0,1-.264-.482c.016-1.648.016-3.28,0-4.928a.449.449,0,0,1,.249-.482c.513-.28,1.026-.575,1.539-.871a3.541,3.541,0,0,0,1.493.871l1.772.979c.016.342.358.342.56.482C39.961,52.188,40.35,52.2,40.428,52.607Z" transform="translate(-28.798 -41.927)"/>
          <path id="Path_1262-2" data-name="Path 1262" class="cls-19" d="M.1,39.4c1.135.575,2.208,1.135,3.28,1.695.155.078.155.233.155.373V48.5a2.383,2.383,0,0,1-.808-.435c-.777-.466-1.539-.933-2.3-1.415-.171-.109-.311-.187-.311-.435C.1,43.971.1,41.732.1,39.4Z" transform="translate(-0.084 -33.228)"/>
          <path id="Path_1263-2" data-name="Path 1263" class="cls-19" d="M50.055,42.991c-.078-.4-.466-.42-.731-.591-.2-.14-.529-.14-.56-.482a13.453,13.453,0,0,0,2.223-1.026c-.669-.342-1.244-.653-1.835-.948a.3.3,0,0,0-.28-.062,6.59,6.59,0,0,0-1.881,1.057,3.711,3.711,0,0,1-1.493-.871c.886-.529,1.757-1.073,2.643-1.586a1.55,1.55,0,0,1,1.555.093c1.228.7,2.441,1.4,3.669,2.114a.816.816,0,0,1,.435.762c-.016.964-.016,1.943,0,2.907a.564.564,0,0,1-.342.575c-.373.2-.715.435-1.166.7V42.509c0-.575,0-.56-.529-.3A8.986,8.986,0,0,1,50.055,42.991Z" transform="translate(-38.426 -32.31)"/>
          <path id="Path_1264-2" data-name="Path 1264" class="cls-19" d="M2,30.8c.031.342.342.4.575.529.871.435,1.741.886,2.581,1.4-.109.109-.28.124-.373.2-.7.715-1.368.435-2.083,0S1.224,32.153.4,31.717C.975,31.375,1.488,31.08,2,30.8Z" transform="translate(-0.338 -25.965)"/>
        </g>
        <g id="Group_2318" data-name="Group 2318" transform="translate(174.886 217.88)">
          <path id="Path_1258-3" data-name="Path 1258" class="cls-20" d="M29.923,8.717c-.917.5-1.757,1.15-2.643,1.695a5.191,5.191,0,0,0-.5.326c0-.529.016-1,0-1.461-.016-.653.233-1.415-.093-1.928-.326-.482-1.042-.7-1.586-1.026-1.617-.964-3.249-1.9-4.866-2.876a.749.749,0,0,0-.855-.016q-2.472,1.4-4.944,2.752c-.155.093-.326.155-.482.233-.84-.5-1.71-.948-2.581-1.4-.233-.124-.529-.187-.575-.529C12.977,3.2,15.153,1.923,17.33.6A8.267,8.267,0,0,1,19.2-.3h.886a9.072,9.072,0,0,1,2.006.824c2.192,1.29,4.4,2.581,6.623,3.84a3.019,3.019,0,0,1,1.228,1.15C29.923,6.618,29.923,7.676,29.923,8.717Z" transform="translate(-9.121 0.3)"/>
          <path id="Path_1259-3" data-name="Path 1259" class="cls-20" d="M132.5,89.687c.062-.062.14-.124.2-.187v4.042h-.093c0-1.119,0-2.239-.016-3.343C132.593,90.013,132.671,89.826,132.5,89.687Z" transform="translate(-111.9 -75.539)"/>
          <path id="Path_1260-3" data-name="Path 1260" class="cls-20" d="M20.6,87.491c.171.14.109.342.109.513.016,1.119.016,2.239.016,3.343a18.545,18.545,0,0,1-2.161,1.244c-1.679.948-3.358,1.881-5.053,2.814-.933.513-1.866,1.026-2.783,1.555a.561.561,0,0,1-.669-.031Q5.208,93.85.326,90.818A.624.624,0,0,1,0,90.227c.016-1.073,0-2.161,0-3.327.808.482,1.539.933,2.27,1.384,2.565,1.555,5.115,3.109,7.68,4.7a.747.747,0,0,0,.886.016c3.172-1.772,6.436-3.389,9.484-5.379A1.1,1.1,0,0,1,20.6,87.491Z" transform="translate(0 -73.343)"/>
          <path id="Path_1261-3" data-name="Path 1261" class="cls-20" d="M40.428,52.607a5.9,5.9,0,0,1-1.057.591c-.187.109-.342-.016-.5-.093-.886-.451-1.788-.9-2.674-1.368-.311-.171-.466-.187-.451.249.016,1.026.016,2.037,0,3.063a.567.567,0,0,0,.311.56c.933.575,1.866,1.166,2.767,1.788a.56.56,0,0,0,.669,0c1.539-.855,3.125-1.648,4.68-2.674V56.4a.4.4,0,0,1-.233.358c-1.539.871-3.094,1.726-4.633,2.6a.347.347,0,0,1-.4-.047c-1.508-.948-3.032-1.9-4.54-2.845a.492.492,0,0,1-.264-.482c.016-1.648.016-3.28,0-4.928a.449.449,0,0,1,.249-.482c.513-.28,1.026-.575,1.539-.871a3.541,3.541,0,0,0,1.493.871l1.772.979c.016.342.358.342.56.482C39.961,52.188,40.35,52.2,40.428,52.607Z" transform="translate(-28.798 -41.927)"/>
          <path id="Path_1262-3" data-name="Path 1262" class="cls-20" d="M.1,39.4c1.135.575,2.208,1.135,3.28,1.695.155.078.155.233.155.373V48.5a2.383,2.383,0,0,1-.808-.435c-.777-.466-1.539-.933-2.3-1.415-.171-.109-.311-.187-.311-.435C.1,43.971.1,41.732.1,39.4Z" transform="translate(-0.084 -33.228)"/>
          <path id="Path_1263-3" data-name="Path 1263" class="cls-20" d="M50.055,42.991c-.078-.4-.466-.42-.731-.591-.2-.14-.529-.14-.56-.482a13.453,13.453,0,0,0,2.223-1.026c-.669-.342-1.244-.653-1.835-.948a.3.3,0,0,0-.28-.062,6.59,6.59,0,0,0-1.881,1.057,3.711,3.711,0,0,1-1.493-.871c.886-.529,1.757-1.073,2.643-1.586a1.55,1.55,0,0,1,1.555.093c1.228.7,2.441,1.4,3.669,2.114a.816.816,0,0,1,.435.762c-.016.964-.016,1.943,0,2.907a.564.564,0,0,1-.342.575c-.373.2-.715.435-1.166.7V42.509c0-.575,0-.56-.529-.3A8.986,8.986,0,0,1,50.055,42.991Z" transform="translate(-38.426 -32.31)"/>
          <path id="Path_1264-3" data-name="Path 1264" class="cls-20" d="M2,30.8c.031.342.342.4.575.529.871.435,1.741.886,2.581,1.4-.109.109-.28.124-.373.2-.7.715-1.368.435-2.083,0S1.224,32.153.4,31.717C.975,31.375,1.488,31.08,2,30.8Z" transform="translate(-0.338 -25.965)"/>
        </g>
      </g>
      <g id="Group_2315" data-name="Group 2315" transform="translate(1135.884 3632.128)">
        <path id="Path_2934" data-name="Path 2934" class="cls-21" d="M920.936,443.352c-2.851-.939-7.079-2.024-10.432-1.641-3.192-1.161-10.7-4.173-15.821-8.707a114.119,114.119,0,0,0-.341-13.366c-2.622-29.813,3.276-49.466,3.276-49.466s4.632-14.994,4.124-27.435c.3.563.466.9.466.9.4-10.731,4.061-21.837,6.8-28.756a2.306,2.306,0,0,0,.306-.111l3.06-7.26a6.293,6.293,0,0,0,.577-1.342l.494-1.147-.146-.063c.049-.188.1-.389.146-.591h0c1.954-8.269,3.477-27.88,3.477-27.88,5.244-20.641-7.2-33.381-7.2-33.381l-21.127-18.179a2.68,2.68,0,0,1,.208.744l-.174-.153c-.3-.855-.626-1.878-.946-3.046a17.859,17.859,0,0,0,6.822-10.237,32.049,32.049,0,0,0,.313-7.65l-.348-8.769a27.823,27.823,0,0,0-.521-5.111c-1.593-6.954-8.721-11.822-15.877-12.142a58.028,58.028,0,0,0-6.815.362,45.845,45.845,0,0,1-5.563.118,1,1,0,0,1-.6-.16.875.875,0,0,1-.257-.605,3.018,3.018,0,0,1,.737-2.26,2.782,2.782,0,0,1,.96-.549l-.508.118a2.782,2.782,0,0,1,.835-.452,16.2,16.2,0,0,0-5.271,1.912,6.808,6.808,0,0,0-1.231,1.036,5.375,5.375,0,0,0-1.78,3.31,6.16,6.16,0,0,1-1.878-2.782,2.78,2.78,0,0,1,0-1.349q-.188.23-.362.473v-.146a14.06,14.06,0,0,0-2.782,5.661,2.2,2.2,0,0,1-.5-1.627q-.157.49-.292.981a2.265,2.265,0,0,1,0-.654,22.4,22.4,0,0,0-1.092,7.775c0,2.629,1.168,6.725,3.985,7.65.146.049.292.083.445.118A17.685,17.685,0,0,0,868.027,224.5q.07.48.132,1.008h.111c.077.7.139,1.46.181,2.239a15.069,15.069,0,0,1-2.323,1.864,19.152,19.152,0,0,1-7.733,2.559,23.019,23.019,0,0,0-9.3,2.782c-3.373,1.885-7.094,4.632-8.262,7.97-1.947,5.563-12.671,14.222-19.862,15.3l-2.559-.146-.188-.056v.049l-.626-.035h-.2v.035l-.647-.035s-.063.3-.153.828c-3.616-1.245-11.3-4.694-21.3-13.77-11.127-10.1-26.183-8.116-31.99-6.843a.994.994,0,0,0-.264,1.843c2.344,1.286,5.974,3.157,7.65,3.366,0,0-3.477,3.637.223,5.563a2.685,2.685,0,0,0,2.782-.271c1.794-1.314,6.78,1.662,14.006,3.213,0,0,20.39,21.1,30.516,24.34a14.58,14.58,0,0,0,.772,1.342l.626-.049v.049h.264l.076.7s15.745-.828,20.863-6.544a8.2,8.2,0,0,0,.994-1.064l-5.473,68.848h.049l-.049.654h4.027a151.773,151.773,0,0,1-1.092,25.356v44.883s-.209,3.95,8,9.736a306.767,306.767,0,0,1,24.841,19.257l.995.862c-1.509,13.735-4.667,39.334-7.3,40.287l1.627.285c-2.782,3.526-10.682,13.213-13.088,13.471-2.949.327-4.917,4.917,0,5.9a55.085,55.085,0,0,0,29.208-2.879,4.458,4.458,0,0,0,2.782-4.743l-.953-7.233a1.014,1.014,0,0,1,.417.438c.654,1.968,0-2.622,0-2.622a204.972,204.972,0,0,0,6.335-26.427l9.736,8.415s.195-.243.536-.7c2.385,5.41,6.641,16.482,5.689,24.591-1.307,11.127,11.127,1.307,9.827-5.244-1.057-5.3,3.672-27.762,5.515-36.163a3.735,3.735,0,0,0-2.5-4.353Z" transform="translate(-762.528 -175.13)"/>
        <path id="Path_2935" data-name="Path 2935" class="cls-22" d="M819.9,289.946s-9.277-1.6-23.033-14.076c-10.884-9.868-25.564-7.928-31.225-6.683a.967.967,0,0,0-.257,1.794c2.288,1.252,5.835,3.081,7.5,3.289,0,0-3.429,3.547.216,5.445a2.622,2.622,0,0,0,2.74-.264c1.752-1.28,6.62,1.627,13.679,3.136,0,0,27.511,28.471,33.909,23.645Z" transform="translate(-763.245 -203.461)"/>
        <path id="Path_2936" data-name="Path 2936" class="cls-22" d="M912.11,237.806s2.559,10.877,0,18.554l11.516,1.6,10.237-5.118v-6.718a46.131,46.131,0,0,1-3.519-22.073Z" transform="translate(-808.085 -190.029)"/>
        <path id="Path_2937" data-name="Path 2937" class="cls-23" d="M959,574.446s8.345,16.315,7.038,27.192,10.877,1.28,9.6-5.118c-1.036-5.174,3.581-27.122,5.383-35.286a3.644,3.644,0,0,0-2.42-4.249c-3.846-1.266-10.286-2.817-13.519-.445C960.3,560.051,959,574.446,959,574.446Z" transform="translate(-822.367 -290.918)"/>
        <path id="Path_2938" data-name="Path 2938" class="cls-24" d="M883.106,393.78l-10.432,1.391a152.67,152.67,0,0,1-.125,36.67v43.812s-.2,3.86,7.81,9.472A299.506,299.506,0,0,1,904.616,503.9l29.027,25.147s11.516-14.076,9.917-22.393c0,0-19.194-6.078-21.753-16-1.467-5.675-8.909-10.432-15-13.422a18.652,18.652,0,0,1-9.979-21.169,16.32,16.32,0,0,1,1.634-4.11c5.118-8.957,12.476-29.111,12.476-29.111l-14.076-26.83Z" transform="translate(-796.037 -241.723)"/>
        <path id="Path_2939" data-name="Path 2939" class="cls-25" d="M883.106,393.78l-10.432,1.391a152.67,152.67,0,0,1-.125,36.67v43.812s-.2,3.86,7.81,9.472A299.506,299.506,0,0,1,904.616,503.9l29.027,25.147s11.516-14.076,9.917-22.393c0,0-19.194-6.078-21.753-16-1.467-5.675-8.909-10.432-15-13.422a18.652,18.652,0,0,1-9.979-21.169,16.32,16.32,0,0,1,1.634-4.11c5.118-8.957,12.476-29.111,12.476-29.111l-14.076-26.83Z" transform="translate(-796.037 -241.723)"/>
        <path id="Path_2940" data-name="Path 2940" class="cls-24" d="M905.339,544.2s18.874,3.2,19.514,5.118,0-2.559,0-2.559,10.877-32.95,8.345-62.054,3.2-48.3,3.2-48.3,6.718-21.753,2.879-34.229-44.146-7.038-44.146-7.038,14.076,32.95,13.756,48.625c0,0,1.6,47.345,4.479,52.784C913.337,496.514,908.858,542.9,905.339,544.2Z" transform="translate(-802.914 -241.776)"/>
        <path id="Path_2941" data-name="Path 2941" class="cls-10" d="M900.542,255.79s1.919,11.822,21.113,6.718l-12.768,97.243s-37.108,1.28-36.789-3.2l7.65-58.855Z" transform="translate(-795.899 -199.696)"/>
        <path id="Path_2942" data-name="Path 2942" class="cls-26" d="M892.215,254.87a15.592,15.592,0,0,1-9.242,4.388,22.484,22.484,0,0,0-9.082,2.7c-3.289,1.843-6.954,4.52-8.067,7.782-2.239,6.4-16.315,16.955-22.713,14.715l2.239,19.194s18.234-.96,21.433-8l-5.431,68.493h4.8s2.559-18.554,4.479-22.393,5.758-24.952,6.078-30.071,5.119-34.549,9.277-39.64l6.259-15.2Z" transform="translate(-787.07 -199.416)"/>
        <path id="Path_2943" data-name="Path 2943" class="cls-26" d="M891.938,256.25a19.8,19.8,0,0,1-9.882,4.068,22.485,22.485,0,0,0-9.075,2.712c-3.289,1.843-6.954,4.52-8.067,7.782-2.239,6.4-16.315,16.955-22.713,14.715l2.239,19.194s18.234-.96,21.433-8l-5.438,68.452h4.8s2.559-18.554,4.479-22.393,5.758-24.952,6.078-30.071,5.118-34.549,9.277-39.64l6.871-14.91Z" transform="translate(-786.793 -199.837)"/>
        <path id="Path_2944" data-name="Path 2944" class="cls-27" d="M891.935,255.33a19.8,19.8,0,0,1-9.882,4.068,22.484,22.484,0,0,0-9.082,2.7c-3.289,1.843-6.954,4.52-8.067,7.782-2.239,6.4-16.315,16.955-22.713,14.715l2.239,19.194s18.234-.96,21.433-8l-5.431,68.493h4.8s2.559-18.554,4.479-22.393,5.758-24.952,6.078-30.071,5.118-34.549,9.277-39.64l6.878-14.875Z" transform="translate(-786.79 -199.556)"/>
        <path id="Path_2945" data-name="Path 2945" class="cls-26" d="M929.545,233.907c-.417-3.032.417-4.924.8-8.477L912.11,239.186s.438,1.857.772,4.576a17.387,17.387,0,0,0,2.782.223C921.992,243.984,926.547,239.04,929.545,233.907Z" transform="translate(-808.085 -190.45)"/>
        <circle id="Ellipse_367" data-name="Ellipse 367" class="cls-22" cx="17.275" cy="17.275" r="17.275" transform="translate(90.269 18.033)"/>
        <path id="Path_2946" data-name="Path 2946" class="cls-26" d="M890.053,195.453a21.868,21.868,0,0,1,1.391-8.547,2.135,2.135,0,0,0,.362,2.782A13.686,13.686,0,0,1,896.145,182a2.351,2.351,0,0,0-1.558,2.935,6.676,6.676,0,0,0,2.135,3,5.367,5.367,0,0,1,2.636-4.541,15.816,15.816,0,0,1,5.146-1.864,2.984,2.984,0,0,0-1.975,3.06.856.856,0,0,0,.257.591.981.981,0,0,0,.584.153,44.762,44.762,0,0,0,5.4-.118,56.674,56.674,0,0,1,6.655-.355c6.954.292,13.943,5.042,15.5,11.822a27.192,27.192,0,0,1,.508,4.993l.341,8.561a31.285,31.285,0,0,1-.306,7.483,15.856,15.856,0,0,1-8.144,10.765c-2.51-3.637-2.733-8.31-3.6-12.643a6.4,6.4,0,0,0-1.085-2.782,2.441,2.441,0,0,0-2.677-.9,1.537,1.537,0,0,0-.563,2.448c-.7.821-2,.209-2.782-.522a14.938,14.938,0,0,1-4.333-7.74c-.313-1.488-.626-3.324-2.086-3.832a3.88,3.88,0,0,0-1.544-.1c-3.046.209-7.81,1.467-10.758.5C891.194,202.024,890.053,198.019,890.053,195.453Z" transform="translate(-801.363 -177.079)"/>
        <path id="Path_2947" data-name="Path 2947" class="cls-28" d="M890.513,194.993a21.861,21.861,0,0,1,1.391-8.547,2.135,2.135,0,0,0,.362,2.782,13.686,13.686,0,0,1,4.339-7.691,2.352,2.352,0,0,0-1.558,2.935,6.676,6.676,0,0,0,2.135,3,5.367,5.367,0,0,1,2.636-4.541,15.813,15.813,0,0,1,5.146-1.864,2.983,2.983,0,0,0-1.975,3.06.855.855,0,0,0,.257.591.981.981,0,0,0,.584.153,44.781,44.781,0,0,0,5.4-.118,56.675,56.675,0,0,1,6.655-.355c6.954.292,13.944,5.042,15.5,11.822a27.192,27.192,0,0,1,.508,4.993l.341,8.561a31.3,31.3,0,0,1-.306,7.483,15.856,15.856,0,0,1-8.144,10.765c-2.51-3.637-2.733-8.31-3.6-12.643A6.4,6.4,0,0,0,919.1,212.6a2.441,2.441,0,0,0-2.677-.9,1.537,1.537,0,0,0-.563,2.448c-.7.821-2,.209-2.782-.522a14.939,14.939,0,0,1-4.333-7.74c-.313-1.488-.626-3.324-2.086-3.832a3.88,3.88,0,0,0-1.544-.1c-3.046.209-7.81,1.467-10.758.5C891.654,201.558,890.513,197.559,890.513,194.993Z" transform="translate(-801.503 -176.939)"/>
        <path id="Path_2948" data-name="Path 2948" class="cls-26" d="M840.7,297.42s-2.559,11.822,2.239,19.194l2.719-.223-1.481-18.777Z" transform="translate(-786.129 -212.375)"/>
        <path id="Path_2949" data-name="Path 2949" class="cls-23" d="M841.7,297.42s-2.559,11.822,2.239,19.194l2.719-.223-1.481-18.777Z" transform="translate(-786.434 -212.375)"/>
        <path id="Path_2950" data-name="Path 2950" class="cls-26" d="M931.12,251l20.633,17.754s12.156,12.476,7.038,32.63c0,0-2.239,29.431-4.8,30.71,0,0-8.957,17.914-9.6,34.869,0,0-12-24.152-17.435-9.437s-18.081,16.795-18.081,16.795l7.038-87.041S933.679,256.41,931.12,251Z" transform="translate(-807.102 -198.237)"/>
        <path id="Path_2951" data-name="Path 2951" class="cls-27" d="M932.04,251l20.633,17.754s12.156,12.476,7.038,32.63c0,0-2.239,29.431-4.8,30.71,0,0-8.957,17.914-9.6,34.869,0,0-12.636-25.432-18.081-10.717S909.8,374.328,909.8,374.328l7.038-87.006S934.6,256.41,932.04,251Z" transform="translate(-807.382 -198.237)"/>
        <path id="Path_2952" data-name="Path 2952" class="cls-22" d="M949.256,358.554s5.118-3.519,13.436,6.078l-20.474,37.108-6.878-10.383S949.9,362.713,949.256,358.554Z" transform="translate(-815.161 -230.803)"/>
        <path id="Path_2953" data-name="Path 2953" class="cls-26" d="M948.22,359.438s11.322,12.713,15.738,10.675l4.089-9.521L952.7,354Z" transform="translate(-819.083 -229.608)"/>
        <path id="Path_2954" data-name="Path 2954" class="cls-23" d="M948.22,358.518s11.322,12.713,15.738,10.675l4.089-9.521L952.7,353.08Z" transform="translate(-819.083 -229.327)"/>
        <path id="Path_2955" data-name="Path 2955" class="cls-26" d="M935.469,402.51s5.39,11.043,8.262,11.683l-4.173,4.8-6.078-11.516Z" transform="translate(-814.594 -244.382)"/>
        <path id="Path_2956" data-name="Path 2956" class="cls-24" d="M935,403s5.39,11.044,8.262,11.683l-4.173,4.8L933,407.945Z" transform="translate(-814.448 -244.531)"/>
        <path id="Path_2957" data-name="Path 2957" class="cls-26" d="M949.679,304.78s.64,23.033-1.919,31.67" transform="translate(-818.943 -214.617)"/>
        <path id="Path_2958" data-name="Path 2958" class="cls-26" d="M876,309.259s3.839-1.28,3.839-4.479" transform="translate(-797.088 -214.617)"/>
      </g>
    </g>
  </g>
</svg>
