<svg xmlns="http://www.w3.org/2000/svg" xmlns:xlink="http://www.w3.org/1999/xlink" viewBox="0 0 300 300">
  <defs>
    <style>
      .cls-1 {
        clip-path: url(#clip-img-4);
      }

      .cls-13, .cls-2 {
        opacity: 0.45;
      }

      .cls-3 {
        fill: #004a91;
      }

      .cls-4 {
        fill: url(#linear-gradient);
      }

      .cls-5 {
        fill: #daebff;
      }

      .cls-6 {
        fill: url(#linear-gradient-2);
      }

      .cls-7 {
        fill: url(#linear-gradient-3);
      }

      .cls-8 {
        fill: url(#linear-gradient-4);
      }

      .cls-9 {
        fill: url(#linear-gradient-5);
      }

      .cls-10 {
        fill: url(#linear-gradient-6);
      }

      .cls-11 {
        fill: url(#linear-gradient-7);
      }

      .cls-12 {
        fill: url(#linear-gradient-8);
      }

      .cls-13 {
        fill: #23359e;
      }

      .cls-14 {
        fill: #ffd008;
      }

      .cls-15 {
        fill: #ffca05;
      }

      .cls-16 {
        fill: #ec9a22;
      }

      .cls-17 {
        fill: #fff;
      }
    </style>
    <linearGradient id="linear-gradient" x1="-1.162" y1="-0.115" x2="2.62" y2="1.282" gradientUnits="objectBoundingBox">
      <stop offset="0.002" stop-color="#22ddec"/>
      <stop offset="1" stop-color="#0d5fcf"/>
    </linearGradient>
    <linearGradient id="linear-gradient-2" x1="-0.789" y1="-0.124" x2="1.71" y2="1.083" xlink:href="#linear-gradient"/>
    <linearGradient id="linear-gradient-3" x1="-0.476" y1="-0.521" x2="1.518" y2="1.586" xlink:href="#linear-gradient"/>
    <linearGradient id="linear-gradient-4" x1="-0.847" y1="-0.263" x2="1.861" y2="1.266" xlink:href="#linear-gradient"/>
    <linearGradient id="linear-gradient-5" x1="0.725" x2="0.337" y2="0.837" gradientUnits="objectBoundingBox">
      <stop offset="0" stop-color="#aae4ff"/>
      <stop offset="1" stop-color="#0d9de7"/>
    </linearGradient>
    <linearGradient id="linear-gradient-6" x1="0.419" y1="0.026" x2="0.544" y2="0.771" xlink:href="#linear-gradient-5"/>
    <linearGradient id="linear-gradient-7" x1="0.506" y1="0.083" x2="0.497" y2="0.885" xlink:href="#linear-gradient-5"/>
    <linearGradient id="linear-gradient-8" x1="0.581" y1="-0.026" x2="0.437" y2="0.897" xlink:href="#linear-gradient-5"/>
    <clipPath id="clip-img-4">
      <rect width="300" height="300"/>
    </clipPath>
  </defs>
  <g id="img-4" class="cls-1">
    <g id="Group_2524" data-name="Group 2524" transform="translate(-597.159 -2539.149)">
      <g id="Group_845" data-name="Group 845" transform="translate(642.281 2552.768)">
        <g id="Group_632" data-name="Group 632">
          <g id="Group_618" data-name="Group 618">
            <g id="Group_612" data-name="Group 612" class="cls-2" transform="translate(0 149.771)">
              <path id="Path_1964" data-name="Path 1964" class="cls-3" d="M147.965,176.04l28.042-16.571L139.042,137.8,111,154.37Z" transform="translate(-111 -137.8)"/>
            </g>
            <g id="Group_613" data-name="Group 613" class="cls-2" transform="translate(48.437 177.814)">
              <path id="Path_1965" data-name="Path 1965" class="cls-3" d="M156.2,180.44l27.405-16.57L146.642,142.2,118.6,158.771Z" transform="translate(-118.6 -142.2)"/>
            </g>
            <g id="Group_614" data-name="Group 614" class="cls-2" transform="translate(97.511 206.493)">
              <path id="Path_1966" data-name="Path 1966" class="cls-3" d="M163.9,184.3l28.042-16.57-37.6-21.032L126.3,162.633Z" transform="translate(-126.3 -146.7)"/>
            </g>
            <g id="Group_615" data-name="Group 615" class="cls-2" transform="translate(147.222 235.173)">
              <path id="Path_1967" data-name="Path 1967" class="cls-3" d="M171.7,188.8l27.4-15.933L162.142,151.2,134.1,167.133Z" transform="translate(-134.1 -151.2)"/>
            </g>
            <g id="Group_616" data-name="Group 616" transform="translate(43.338 21.669)">
              <path id="Path_1968" data-name="Path 1968" class="cls-4" d="M117.8,279.581l28.042-15.933L146.48,117.7l-28.042,15.933Z" transform="translate(-117.8 -117.7)"/>
            </g>
            <g id="Group_617" data-name="Group 617" transform="translate(6.373)">
              <path id="Path_1969" data-name="Path 1969" class="cls-5" d="M149.6,151.9l28.042-15.933-37.6-21.669L112,130.233Z" transform="translate(-112 -114.3)"/>
            </g>
          </g>
          <g id="Group_621" data-name="Group 621" transform="translate(55.447 1.275)">
            <g id="Group_619" data-name="Group 619" transform="translate(36.965 21.669)">
              <path id="Path_1970" data-name="Path 1970" class="cls-6" d="M125.5,305.911l28.042-15.933V117.9l-27.4,16.57Z" transform="translate(-125.5 -117.9)"/>
            </g>
            <g id="Group_620" data-name="Group 620">
              <path id="Path_1971" data-name="Path 1971" class="cls-5" d="M157.3,152.74l27.4-16.57L147.742,114.5,119.7,131.071Z" transform="translate(-119.7 -114.5)"/>
            </g>
          </g>
          <g id="Group_624" data-name="Group 624" transform="translate(104.521 121.729)">
            <g id="Group_622" data-name="Group 622" transform="translate(37.602 21.669)">
              <path id="Path_1972" data-name="Path 1972" class="cls-7" d="M133.3,233.036l27.4-15.933.637-80.3L133.3,152.733Z" transform="translate(-133.3 -136.8)"/>
            </g>
            <g id="Group_623" data-name="Group 623">
              <path id="Path_1973" data-name="Path 1973" class="cls-5" d="M165,171l28.042-15.933-37.6-21.669L127.4,149.333Z" transform="translate(-127.4 -133.4)"/>
            </g>
          </g>
          <g id="Group_631" data-name="Group 631" transform="translate(6.373 15.933)">
            <g id="Group_625" data-name="Group 625" transform="translate(185.462 108.345)">
              <path id="Path_1974" data-name="Path 1974" class="cls-8" d="M141.1,277.835,169.142,261.9V133.8l-27.405,16.57Z" transform="translate(-141.1 -133.8)"/>
            </g>
            <g id="Group_626" data-name="Group 626" transform="translate(148.497 86.676)">
              <path id="Path_1975" data-name="Path 1975" class="cls-5" d="M172.9,168.64l27.405-16.57L163.342,130.4,135.3,146.97Z" transform="translate(-135.3 -130.4)"/>
            </g>
            <g id="Group_627" data-name="Group 627" transform="translate(148.497 103.247)">
              <path id="Path_1976" data-name="Path 1976" class="cls-9" d="M135.3,133V260.465l36.965,21.669.637-127.465Z" transform="translate(-135.3 -133)"/>
            </g>
            <g id="Group_628" data-name="Group 628">
              <path id="Path_1977" data-name="Path 1977" class="cls-10" d="M112,116.8V262.747l36.965,21.669.637-145.947Z" transform="translate(-112 -116.8)"/>
            </g>
            <g id="Group_629" data-name="Group 629" transform="translate(48.437 1.912)">
              <path id="Path_1978" data-name="Path 1978" class="cls-11" d="M120.237,117.1,119.6,289.178l37.6,21.032.637-171.44Z" transform="translate(-119.6 -117.1)"/>
            </g>
            <g id="Group_630" data-name="Group 630" transform="translate(98.148 121.729)">
              <path id="Path_1979" data-name="Path 1979" class="cls-12" d="M127.4,135.9v80.3L165,237.872v-80.3Z" transform="translate(-127.4 -135.9)"/>
            </g>
          </g>
        </g>
      </g>
      <g id="Group_846" data-name="Group 846" transform="translate(632.359 2688.072)">
        <g id="Group_686" data-name="Group 686">
          <path id="Path_1980" data-name="Path 1980" class="cls-13" d="M217.361,179.988c-12.332-7.084-32.01-7.084-44.079,0s-12.069,18.629.262,25.451c12.332,7.084,32.01,7.084,44.079,0C229.693,198.617,229.43,187.072,217.361,179.988Z" transform="translate(-164.262 -125.086)"/>
          <g id="Group_642" data-name="Group 642" transform="translate(2.46 40.406)">
            <g id="Group_641" data-name="Group 641">
              <g id="Group_634" data-name="Group 634" transform="translate(7.084 3.804)">
                <path id="Path_1981" data-name="Path 1981" class="cls-14" d="M174.722,183.054A14.971,14.971,0,0,0,167.9,190.4v-6.3c.787-2.624,3.148-5.247,6.822-7.346,9.446-5.51,25.188-5.51,34.634,0,4.723,2.886,7.084,6.3,7.346,9.97v6.3c0-3.673-2.361-7.347-7.346-9.97C199.91,177.545,184.167,177.545,174.722,183.054Z" transform="translate(-167.9 -172.625)"/>
              </g>
              <g id="Group_635" data-name="Group 635" transform="translate(6.822 15.283)">
                <path id="Path_1982" data-name="Path 1982" class="cls-14" d="M168.325,183.3a9.322,9.322,0,0,0-.525,2.624v-6.3a9.323,9.323,0,0,1,.525-2.624v6.3Z" transform="translate(-167.8 -177)"/>
              </g>
              <g id="Group_636" data-name="Group 636" transform="translate(6.822 17.907)">
                <path id="Path_1983" data-name="Path 1983" class="cls-15" d="M216.864,178.262v6.3c0,3.673-2.361,7.347-7.084,9.97-9.446,5.51-25.188,5.51-34.634,0-4.723-2.886-7.346-6.559-7.346-10.233V178c0,3.673,2.361,7.346,7.346,10.233,9.708,5.51,25.188,5.51,34.634,0C214.5,185.347,216.864,181.936,216.864,178.262Z" transform="translate(-167.8 -178)"/>
              </g>
              <g id="Group_637" data-name="Group 637" transform="translate(55.886 18.17)">
                <path id="Path_1984" data-name="Path 1984" class="cls-14" d="M186.5,184.4h0v-6.3h0Z" transform="translate(-186.5 -178.1)"/>
              </g>
              <g id="Group_638" data-name="Group 638" transform="translate(6.625 3.804)">
                <path id="Path_1985" data-name="Path 1985" class="cls-15" d="M209.64,176.757c9.708,5.51,9.708,14.431,0,20.2-9.446,5.51-25.188,5.51-34.634,0-9.708-5.51-9.708-14.431,0-20.2C184.714,171.248,200.194,171.248,209.64,176.757Z" transform="translate(-167.725 -172.625)"/>
              </g>
              <path id="Path_1986" data-name="Path 1986" class="cls-16" d="M174.872,180.268c9.446-5.51,25.188-5.51,34.634,0,3.936,2.361,6.3,5.248,7.084,8.4.787-4.2-1.574-8.658-7.084-11.807-9.708-5.51-25.188-5.51-34.634,0-5.51,3.148-7.871,7.609-6.822,11.807C168.575,185.516,170.937,182.63,174.872,180.268Z" transform="translate(-160.966 -168.658)"/>
              <g id="Group_639" data-name="Group 639" transform="translate(0 17.907)">
                <path id="Path_1987" data-name="Path 1987" class="cls-16" d="M227.646,178.262v6.3c0,4.723-3.149,9.183-9.183,12.594-12.069,7.084-32.01,7.084-44.079,0-6.035-3.673-9.183-8.134-9.183-12.856V178c0,4.723,3.148,9.446,9.183,12.856,12.332,7.084,32.01,7.084,44.079,0C224.759,187.445,227.646,182.985,227.646,178.262Z" transform="translate(-165.2 -178)"/>
              </g>
              <g id="Group_640" data-name="Group 640" transform="translate(0.164)">
                <path id="Path_1988" data-name="Path 1988" class="cls-14" d="M218.361,176.488c12.332,7.084,12.332,18.629.262,25.451-12.069,7.084-32.01,7.084-44.079,0-12.332-7.084-12.332-18.629-.262-25.451C186.351,169.4,206.292,169.4,218.361,176.488Zm-39.094,22.827c9.708,5.51,25.188,5.51,34.634,0s9.446-14.431,0-20.2c-9.708-5.51-25.188-5.51-34.634,0-9.708,5.772-9.708,14.693,0,20.2" transform="translate(-165.262 -171.175)"/>
              </g>
            </g>
          </g>
          <g id="Group_651" data-name="Group 651" transform="translate(2.46 32.272)">
            <g id="Group_650" data-name="Group 650">
              <g id="Group_643" data-name="Group 643" transform="translate(7.084 4.067)">
                <path id="Path_1989" data-name="Path 1989" class="cls-14" d="M174.722,180.054A14.971,14.971,0,0,0,167.9,187.4v-6.3c.787-2.624,3.148-5.248,6.822-7.347,9.446-5.51,25.188-5.51,34.634,0,4.723,2.886,7.084,6.3,7.346,9.97v6.3c0-3.673-2.361-7.346-7.346-9.97C199.91,174.282,184.167,174.282,174.722,180.054Z" transform="translate(-167.9 -169.625)"/>
              </g>
              <g id="Group_644" data-name="Group 644" transform="translate(6.822 15.546)">
                <path id="Path_1990" data-name="Path 1990" class="cls-14" d="M168.325,180.3a9.322,9.322,0,0,0-.525,2.624v-6.3a9.324,9.324,0,0,1,.525-2.624v6.3Z" transform="translate(-167.8 -174)"/>
              </g>
              <g id="Group_645" data-name="Group 645" transform="translate(6.822 17.907)">
                <path id="Path_1991" data-name="Path 1991" class="cls-15" d="M216.864,175.162v6.3c0,3.673-2.361,7.347-7.084,9.97-9.446,5.51-25.188,5.51-34.634,0-4.723-2.886-7.346-6.559-7.346-10.233v-6.3c0,3.673,2.361,7.346,7.346,10.233,9.708,5.51,25.188,5.51,34.634,0C214.5,182.509,216.864,178.836,216.864,175.162Z" transform="translate(-167.8 -174.9)"/>
              </g>
              <g id="Group_646" data-name="Group 646" transform="translate(55.886 18.17)">
                <path id="Path_1992" data-name="Path 1992" class="cls-14" d="M186.5,181.3h0V175h0Z" transform="translate(-186.5 -175)"/>
              </g>
              <g id="Group_647" data-name="Group 647" transform="translate(6.625 4.067)">
                <path id="Path_1993" data-name="Path 1993" class="cls-15" d="M209.64,173.757c9.708,5.51,9.708,14.431,0,20.2-9.446,5.51-25.188,5.51-34.634,0-9.708-5.51-9.708-14.431,0-20.2C184.714,168.248,200.194,168.248,209.64,173.757Z" transform="translate(-167.725 -169.625)"/>
              </g>
              <path id="Path_1994" data-name="Path 1994" class="cls-16" d="M174.872,177.168c9.446-5.51,25.188-5.51,34.634,0,3.936,2.361,6.3,5.247,7.084,8.4.787-4.2-1.574-8.658-7.084-11.807-9.708-5.51-25.188-5.51-34.634,0-5.51,3.148-7.871,7.609-6.822,11.807C168.575,182.416,170.937,179.53,174.872,177.168Z" transform="translate(-160.966 -165.558)"/>
              <g id="Group_648" data-name="Group 648" transform="translate(0 17.907)">
                <path id="Path_1995" data-name="Path 1995" class="cls-16" d="M227.646,175.162v6.3c0,4.723-3.149,9.183-9.183,12.594-12.069,7.084-32.01,7.084-44.079,0-6.035-3.673-9.183-8.134-9.183-12.856v-6.3c0,4.723,3.148,9.446,9.183,12.856,12.332,7.084,32.01,7.084,44.079,0C224.759,184.345,227.646,179.885,227.646,175.162Z" transform="translate(-165.2 -174.9)"/>
              </g>
              <g id="Group_649" data-name="Group 649" transform="translate(0.164)">
                <path id="Path_1996" data-name="Path 1996" class="cls-14" d="M218.361,173.388c12.332,7.084,12.332,18.629.262,25.451-12.069,7.084-32.01,7.084-44.079,0-12.332-7.084-12.332-18.629-.262-25.451C186.351,166.3,206.292,166.3,218.361,173.388Zm-39.094,22.827c9.708,5.51,25.188,5.51,34.634,0s9.446-14.431,0-20.2c-9.708-5.51-25.188-5.51-34.634,0-9.708,5.772-9.708,14.693,0,20.2" transform="translate(-165.262 -168.075)"/>
              </g>
            </g>
          </g>
          <g id="Group_660" data-name="Group 660" transform="translate(2.46 24.139)">
            <g id="Group_659" data-name="Group 659">
              <g id="Group_652" data-name="Group 652" transform="translate(7.084 4.067)">
                <path id="Path_1997" data-name="Path 1997" class="cls-14" d="M174.722,176.954A14.971,14.971,0,0,0,167.9,184.3V178c.787-2.624,3.148-5.247,6.822-7.347,9.446-5.51,25.188-5.51,34.634,0,4.723,2.886,7.084,6.3,7.346,9.97v6.3c0-3.673-2.361-7.346-7.346-9.97C199.91,171.445,184.167,171.445,174.722,176.954Z" transform="translate(-167.9 -166.525)"/>
              </g>
              <g id="Group_653" data-name="Group 653" transform="translate(6.822 15.546)">
                <path id="Path_1998" data-name="Path 1998" class="cls-14" d="M168.325,177.2a9.322,9.322,0,0,0-.525,2.624v-6.3a9.323,9.323,0,0,1,.525-2.624v6.3Z" transform="translate(-167.8 -170.9)"/>
              </g>
              <g id="Group_654" data-name="Group 654" transform="translate(6.822 17.907)">
                <path id="Path_1999" data-name="Path 1999" class="cls-15" d="M216.864,172.062v6.3c0,3.673-2.361,7.346-7.084,9.97-9.446,5.51-25.188,5.51-34.634,0-4.723-2.886-7.346-6.559-7.346-10.233v-6.3c0,3.673,2.361,7.347,7.346,10.233,9.708,5.51,25.188,5.51,34.634,0C214.5,179.409,216.864,175.736,216.864,172.062Z" transform="translate(-167.8 -171.8)"/>
              </g>
              <g id="Group_655" data-name="Group 655" transform="translate(55.886 18.17)">
                <path id="Path_2000" data-name="Path 2000" class="cls-14" d="M186.5,178.2h0v-6.3h0Z" transform="translate(-186.5 -171.9)"/>
              </g>
              <g id="Group_656" data-name="Group 656" transform="translate(6.625 4.067)">
                <path id="Path_2001" data-name="Path 2001" class="cls-15" d="M209.64,170.657c9.708,5.51,9.708,14.431,0,20.2-9.446,5.51-25.188,5.51-34.634,0-9.708-5.51-9.708-14.431,0-20.2C184.714,165.147,200.194,165.147,209.64,170.657Z" transform="translate(-167.725 -166.525)"/>
              </g>
              <path id="Path_2002" data-name="Path 2002" class="cls-16" d="M174.872,174.068c9.446-5.51,25.188-5.51,34.634,0,3.936,2.361,6.3,5.248,7.084,8.4.787-4.2-1.574-8.658-7.084-11.807-9.708-5.51-25.188-5.51-34.634,0-5.51,3.149-7.871,7.609-6.822,11.807C168.575,179.316,170.937,176.43,174.872,174.068Z" transform="translate(-160.966 -162.458)"/>
              <g id="Group_657" data-name="Group 657" transform="translate(0 17.907)">
                <path id="Path_2003" data-name="Path 2003" class="cls-16" d="M227.646,172.062v6.3c0,4.723-3.149,9.183-9.183,12.594-12.069,7.084-32.01,7.084-44.079,0-6.035-3.673-9.183-8.134-9.183-12.856v-6.3c0,4.723,3.148,9.446,9.183,12.856,12.332,7.084,32.01,7.084,44.079,0C224.759,181.246,227.646,176.785,227.646,172.062Z" transform="translate(-165.2 -171.8)"/>
              </g>
              <g id="Group_658" data-name="Group 658" transform="translate(0.164)">
                <path id="Path_2004" data-name="Path 2004" class="cls-14" d="M218.361,170.288c12.332,7.084,12.332,18.629.262,25.45-12.069,7.084-32.01,7.084-44.079,0-12.332-7.084-12.332-18.629-.262-25.45C186.351,163.2,206.292,163.2,218.361,170.288Zm-39.094,22.827c9.708,5.51,25.188,5.51,34.634,0s9.446-14.431,0-20.2c-9.708-5.51-25.188-5.51-34.634,0-9.708,5.772-9.708,14.693,0,20.2" transform="translate(-165.262 -164.975)"/>
              </g>
            </g>
          </g>
          <g id="Group_669" data-name="Group 669" transform="translate(2.46 16.005)">
            <g id="Group_668" data-name="Group 668">
              <g id="Group_661" data-name="Group 661" transform="translate(7.084 3.804)">
                <path id="Path_2005" data-name="Path 2005" class="cls-14" d="M174.722,173.754A14.971,14.971,0,0,0,167.9,181.1v-6.3c.787-2.624,3.148-5.248,6.822-7.347,9.446-5.51,25.188-5.51,34.634,0,4.723,2.886,7.084,6.3,7.346,9.97v6.3c0-3.673-2.361-7.347-7.346-9.97C199.91,168.245,184.167,168.245,174.722,173.754Z" transform="translate(-167.9 -163.325)"/>
              </g>
              <g id="Group_662" data-name="Group 662" transform="translate(6.822 15.283)">
                <path id="Path_2006" data-name="Path 2006" class="cls-14" d="M168.325,174a9.323,9.323,0,0,0-.525,2.624v-6.3a9.323,9.323,0,0,1,.525-2.624V174Z" transform="translate(-167.8 -167.7)"/>
              </g>
              <g id="Group_663" data-name="Group 663" transform="translate(6.822 17.907)">
                <path id="Path_2007" data-name="Path 2007" class="cls-15" d="M216.864,168.962v6.3c0,3.673-2.361,7.347-7.084,9.97-9.446,5.51-25.188,5.51-34.634,0-4.723-2.886-7.346-6.559-7.346-10.233v-6.3c0,3.673,2.361,7.347,7.346,10.233,9.708,5.51,25.188,5.51,34.634,0C214.5,176.047,216.864,172.636,216.864,168.962Z" transform="translate(-167.8 -168.7)"/>
              </g>
              <g id="Group_664" data-name="Group 664" transform="translate(55.886 18.17)">
                <path id="Path_2008" data-name="Path 2008" class="cls-14" d="M186.5,175.1h0v-6.3h0Z" transform="translate(-186.5 -168.8)"/>
              </g>
              <g id="Group_665" data-name="Group 665" transform="translate(6.625 3.804)">
                <path id="Path_2009" data-name="Path 2009" class="cls-15" d="M209.64,167.457c9.708,5.51,9.708,14.431,0,20.2-9.446,5.51-25.188,5.51-34.634,0-9.708-5.51-9.708-14.431,0-20.2C184.714,161.948,200.194,161.948,209.64,167.457Z" transform="translate(-167.725 -163.325)"/>
              </g>
              <path id="Path_2010" data-name="Path 2010" class="cls-16" d="M174.872,170.968c9.446-5.51,25.188-5.51,34.634,0,3.936,2.361,6.3,5.247,7.084,8.4.787-4.2-1.574-8.658-7.084-11.807-9.708-5.51-25.188-5.51-34.634,0-5.51,3.148-7.871,7.609-6.822,11.807C168.575,176.216,170.937,173.067,174.872,170.968Z" transform="translate(-160.966 -159.358)"/>
              <g id="Group_666" data-name="Group 666" transform="translate(0 17.907)">
                <path id="Path_2011" data-name="Path 2011" class="cls-16" d="M227.646,168.962v6.3c0,4.723-3.149,9.183-9.183,12.594-12.069,7.084-32.01,7.084-44.079,0C168.349,184.18,165.2,179.72,165.2,175v-6.3c0,4.723,3.148,9.446,9.183,12.856,12.332,7.084,32.01,7.084,44.079,0C224.759,178.146,227.646,173.423,227.646,168.962Z" transform="translate(-165.2 -168.7)"/>
              </g>
              <g id="Group_667" data-name="Group 667" transform="translate(0.164)">
                <path id="Path_2012" data-name="Path 2012" class="cls-14" d="M218.361,167.188c12.332,7.084,12.332,18.629.262,25.451-12.069,7.084-32.01,7.084-44.079,0-12.332-7.084-12.332-18.629-.262-25.451C186.351,160.1,206.292,160.1,218.361,167.188Zm-39.094,22.827c9.708,5.51,25.188,5.51,34.634,0s9.446-14.431,0-20.2c-9.708-5.51-25.188-5.51-34.634,0-9.708,5.51-9.708,14.693,0,20.2" transform="translate(-165.262 -161.875)"/>
              </g>
            </g>
          </g>
          <g id="Group_678" data-name="Group 678" transform="translate(2.46 7.871)">
            <g id="Group_677" data-name="Group 677">
              <g id="Group_670" data-name="Group 670" transform="translate(7.084 4.067)">
                <path id="Path_2013" data-name="Path 2013" class="cls-14" d="M174.722,170.754A14.971,14.971,0,0,0,167.9,178.1v-6.3c.787-2.624,3.148-5.248,6.822-7.347,9.446-5.51,25.188-5.51,34.634,0,4.723,2.886,7.084,6.3,7.346,9.97v6.3c0-3.673-2.361-7.347-7.346-9.97C199.91,164.982,184.167,164.982,174.722,170.754Z" transform="translate(-167.9 -160.325)"/>
              </g>
              <g id="Group_671" data-name="Group 671" transform="translate(6.822 15.283)">
                <path id="Path_2014" data-name="Path 2014" class="cls-14" d="M168.325,170.9a9.322,9.322,0,0,0-.525,2.624v-6.3a9.324,9.324,0,0,1,.525-2.624v6.3Z" transform="translate(-167.8 -164.6)"/>
              </g>
              <g id="Group_672" data-name="Group 672" transform="translate(6.822 17.907)">
                <path id="Path_2015" data-name="Path 2015" class="cls-15" d="M216.864,165.862v6.3c0,3.673-2.361,7.346-7.084,9.97-9.446,5.51-25.188,5.51-34.634,0-4.723-2.886-7.346-6.559-7.346-10.233v-6.3c0,3.673,2.361,7.347,7.346,10.233,9.708,5.51,25.188,5.51,34.634,0C214.5,173.209,216.864,169.536,216.864,165.862Z" transform="translate(-167.8 -165.6)"/>
              </g>
              <g id="Group_673" data-name="Group 673" transform="translate(55.886 18.17)">
                <path id="Path_2016" data-name="Path 2016" class="cls-14" d="M186.5,172h0v-6.3h0Z" transform="translate(-186.5 -165.7)"/>
              </g>
              <g id="Group_674" data-name="Group 674" transform="translate(6.625 3.87)">
                <path id="Path_2017" data-name="Path 2017" class="cls-15" d="M209.64,164.579c9.708,5.51,9.708,14.431,0,20.2-9.446,5.51-25.188,5.51-34.634,0-9.708-5.51-9.708-14.431,0-20.2S200.194,158.807,209.64,164.579Z" transform="translate(-167.725 -160.25)"/>
              </g>
              <path id="Path_2018" data-name="Path 2018" class="cls-16" d="M174.872,167.868c9.446-5.51,25.188-5.51,34.634,0,3.936,2.361,6.3,5.247,7.084,8.4.787-4.2-1.574-8.658-7.084-11.807-9.708-5.51-25.188-5.51-34.634,0-5.51,3.148-7.871,7.609-6.822,11.807C168.575,173.116,170.937,170.23,174.872,167.868Z" transform="translate(-160.966 -156.258)"/>
              <g id="Group_675" data-name="Group 675" transform="translate(0 17.907)">
                <path id="Path_2019" data-name="Path 2019" class="cls-16" d="M227.646,165.862v6.3c0,4.723-3.149,9.183-9.183,12.594-12.069,7.084-32.01,7.084-44.079,0-6.035-3.673-9.183-8.134-9.183-12.856v-6.3c0,4.723,3.148,9.446,9.183,12.856,12.332,7.084,32.01,7.084,44.079,0C224.759,175.046,227.646,170.585,227.646,165.862Z" transform="translate(-165.2 -165.6)"/>
              </g>
              <g id="Group_676" data-name="Group 676" transform="translate(0.164)">
                <path id="Path_2020" data-name="Path 2020" class="cls-14" d="M218.361,164.088c12.332,7.084,12.332,18.629.262,25.45-12.069,7.084-32.01,7.084-44.079,0-12.332-7.084-12.332-18.629-.262-25.45C186.351,157,206.292,157,218.361,164.088Zm-39.094,22.827c9.708,5.51,25.188,5.51,34.634,0s9.446-14.431,0-20.2c-9.708-5.51-25.188-5.51-34.634,0-9.708,5.772-9.708,14.693,0,20.2" transform="translate(-165.262 -158.775)"/>
              </g>
            </g>
          </g>
          <g id="Group_685" data-name="Group 685" transform="translate(2.46)">
            <g id="Group_684" data-name="Group 684">
              <g id="Group_679" data-name="Group 679" transform="translate(6.822 15.283)">
                <path id="Path_2021" data-name="Path 2021" class="cls-14" d="M168.325,167.9a9.321,9.321,0,0,0-.525,2.624v-6.3a9.323,9.323,0,0,1,.525-2.624v6.3Z" transform="translate(-167.8 -161.6)"/>
              </g>
              <g id="Group_680" data-name="Group 680" transform="translate(6.822 17.907)">
                <path id="Path_2022" data-name="Path 2022" class="cls-15" d="M216.864,162.862v6.3c0,3.673-2.361,7.347-7.084,9.97-9.446,5.51-25.188,5.51-34.634,0-4.723-2.886-7.346-6.559-7.346-10.233v-6.3c0,3.673,2.361,7.347,7.346,10.233,9.708,5.51,25.188,5.51,34.634,0C214.5,169.947,216.864,166.273,216.864,162.862Z" transform="translate(-167.8 -162.6)"/>
              </g>
              <g id="Group_681" data-name="Group 681" transform="translate(55.886 18.17)">
                <path id="Path_2023" data-name="Path 2023" class="cls-14" d="M186.5,169h0v-6.3h0Z" transform="translate(-186.5 -162.7)"/>
              </g>
              <g id="Group_682" data-name="Group 682" transform="translate(0 17.907)">
                <path id="Path_2024" data-name="Path 2024" class="cls-16" d="M227.646,162.862v6.3c0,4.723-3.149,9.183-9.183,12.594-12.069,7.084-32.01,7.084-44.079,0-6.035-3.673-9.183-8.134-9.183-12.856v-6.3c0,4.723,3.148,9.445,9.183,12.856,12.332,7.084,32.01,7.084,44.079,0C224.759,172.046,227.646,167.323,227.646,162.862Z" transform="translate(-165.2 -162.6)"/>
              </g>
              <g id="Group_683" data-name="Group 683" transform="translate(0.164)">
                <path id="Path_2025" data-name="Path 2025" class="cls-14" d="M218.361,161.088c12.332,7.084,12.332,18.629.262,25.45-12.069,7.084-32.01,7.084-44.079,0-12.332-7.084-12.332-18.629-.262-25.45C186.351,154,206.292,154,218.361,161.088Z" transform="translate(-165.262 -155.775)"/>
              </g>
            </g>
          </g>
          <path id="Path_2026" data-name="Path 2026" class="cls-17" d="M208.622,174.693l-1.312-.787c3.936-2.361,3.936-6.035,0-8.4a17.526,17.526,0,0,0-9.97-1.312c.525-1.574-.525-3.411-2.624-4.461a16.264,16.264,0,0,0-13.119-.262l-1.574-.787a3.334,3.334,0,0,0-3.148,0c-.787.525-1.049,1.312,0,1.837l1.574.787-2.624,1.312-1.574-.787a3.334,3.334,0,0,0-3.148,0c-.787.525-1.049,1.312,0,1.837l1.574.787-3.148,1.837c-.787.525-1.049,1.312,0,1.837a3.334,3.334,0,0,0,3.148,0l1.049-.525,19.678,11.02-1.049.525c-.787.525-1.049,1.312,0,1.837a3.334,3.334,0,0,0,3.148,0l3.148-1.837,1.312.787a3.334,3.334,0,0,0,3.148,0c.787-.525,1.05-1.312,0-1.837l-1.312-.787,2.624-1.312,1.312.787a3.335,3.335,0,0,0,3.149,0C209.41,175.743,209.41,174.956,208.622,174.693Zm-31.747-9.183,6.3-3.673a8.892,8.892,0,0,1,8.134,0c2.361,1.312,2.1,3.411-.262,4.723l-6.3,3.673Zm26.762,6.822-7.346,4.2-8.658-4.723,7.347-4.2c2.361-1.312,6.3-1.574,8.658-.262C206.261,168.659,206.261,171.02,203.637,172.332Z" transform="translate(-156.836 -151.801)"/>
        </g>
        <g id="Group_703" data-name="Group 703" transform="translate(54.05 51.426)">
          <path id="Path_2027" data-name="Path 2027" class="cls-13" d="M237.961,188.088c-12.332-7.084-32.01-7.084-44.079,0s-12.069,18.629.262,25.45c12.332,7.084,32.01,7.084,44.079,0S250.03,195.172,237.961,188.088Z" transform="translate(-184.862 -163.359)"/>
          <g id="Group_695" data-name="Group 695" transform="translate(1.673 9.118)">
            <g id="Group_694" data-name="Group 694">
              <g id="Group_687" data-name="Group 687" transform="translate(7.084 3.87)">
                <path id="Path_2028" data-name="Path 2028" class="cls-14" d="M195.022,190.754A14.972,14.972,0,0,0,188.2,198.1v-6.3c.787-2.624,3.148-5.248,6.822-7.346,9.446-5.51,25.188-5.51,34.634,0,4.723,2.886,7.084,6.3,7.347,9.97v6.3c0-3.673-2.361-7.347-7.347-9.97C219.948,185.245,204.467,185.245,195.022,190.754Z" transform="translate(-188.2 -180.325)"/>
              </g>
              <g id="Group_688" data-name="Group 688" transform="translate(6.559 15.349)">
                <path id="Path_2029" data-name="Path 2029" class="cls-14" d="M188.525,191a9.319,9.319,0,0,0-.525,2.624v-6.3a9.32,9.32,0,0,1,.525-2.624V191Z" transform="translate(-188 -184.7)"/>
              </g>
              <g id="Group_689" data-name="Group 689" transform="translate(6.822 17.71)">
                <path id="Path_2030" data-name="Path 2030" class="cls-15" d="M237.164,185.862v6.3c0,3.673-2.361,7.347-7.084,9.97-9.446,5.51-25.188,5.51-34.634,0-4.723-2.886-7.347-6.559-7.347-10.233v-6.3c0,3.673,2.361,7.347,7.347,10.233,9.708,5.51,25.188,5.51,34.634,0C234.8,193.209,237.164,189.536,237.164,185.862Z" transform="translate(-188.1 -185.6)"/>
              </g>
              <g id="Group_690" data-name="Group 690" transform="translate(55.886 17.973)">
                <path id="Path_2031" data-name="Path 2031" class="cls-14" d="M206.8,192h0v-6.3h0Z" transform="translate(-206.8 -185.7)"/>
              </g>
              <g id="Group_691" data-name="Group 691" transform="translate(6.625 3.87)">
                <path id="Path_2032" data-name="Path 2032" class="cls-15" d="M229.94,184.457c9.708,5.51,9.708,14.431,0,20.2-9.445,5.51-25.188,5.51-34.634,0-9.708-5.51-9.708-14.431,0-20.2C204.751,178.948,220.494,178.948,229.94,184.457Z" transform="translate(-188.025 -180.325)"/>
              </g>
              <path id="Path_2033" data-name="Path 2033" class="cls-16" d="M195.172,187.868c9.446-5.51,25.188-5.51,34.634,0,3.936,2.361,6.3,5.248,7.084,8.4.787-4.2-1.574-8.658-7.084-11.807-9.708-5.51-25.188-5.51-34.634,0-5.51,3.148-7.871,7.609-6.822,11.807C188.875,193.116,191.237,190.23,195.172,187.868Z" transform="translate(-181.266 -176.455)"/>
              <g id="Group_692" data-name="Group 692" transform="translate(0 17.71)">
                <path id="Path_2034" data-name="Path 2034" class="cls-16" d="M247.945,185.862v6.3c0,4.723-3.148,9.183-9.183,12.594-12.069,7.084-32.01,7.084-44.079,0-6.035-3.673-9.183-8.134-9.183-12.856v-6.3c0,4.723,3.148,9.445,9.183,12.856,12.332,7.084,32.01,7.084,44.079,0C245.059,195.046,247.945,190.585,247.945,185.862Z" transform="translate(-185.5 -185.6)"/>
              </g>
              <g id="Group_693" data-name="Group 693" transform="translate(0.164)">
                <path id="Path_2035" data-name="Path 2035" class="cls-14" d="M238.661,183.966c12.332,7.084,12.332,18.629.262,25.451-12.069,7.084-32.01,7.084-44.079,0-12.332-7.084-12.332-18.629-.262-25.451S226.329,177.145,238.661,183.966ZM199.3,206.793c9.708,5.51,25.188,5.51,34.634,0s9.446-14.431,0-20.2c-9.708-5.51-25.188-5.51-34.634,0-9.446,5.772-9.446,14.693,0,20.2" transform="translate(-185.562 -178.85)"/>
              </g>
            </g>
          </g>
          <g id="Group_702" data-name="Group 702" transform="translate(1.673)">
            <g id="Group_701" data-name="Group 701">
              <g id="Group_696" data-name="Group 696" transform="translate(6.559 15.546)">
                <path id="Path_2036" data-name="Path 2036" class="cls-14" d="M188.525,187.6a9.319,9.319,0,0,0-.525,2.624v-6.3a9.319,9.319,0,0,1,.525-2.624v6.3Z" transform="translate(-188 -181.3)"/>
              </g>
              <g id="Group_697" data-name="Group 697" transform="translate(6.822 17.907)">
                <path id="Path_2037" data-name="Path 2037" class="cls-15" d="M237.164,182.462v6.3c0,3.673-2.361,7.347-7.084,9.97-9.446,5.51-25.188,5.51-34.634,0-4.723-2.886-7.347-6.559-7.347-10.233v-6.3c0,3.673,2.361,7.347,7.347,10.233,9.708,5.51,25.188,5.51,34.634,0C234.8,189.809,237.164,186.136,237.164,182.462Z" transform="translate(-188.1 -182.2)"/>
              </g>
              <g id="Group_698" data-name="Group 698" transform="translate(55.886 18.17)">
                <path id="Path_2038" data-name="Path 2038" class="cls-14" d="M206.8,188.6h0v-6.3h0Z" transform="translate(-206.8 -182.3)"/>
              </g>
              <g id="Group_699" data-name="Group 699" transform="translate(0 17.907)">
                <path id="Path_2039" data-name="Path 2039" class="cls-16" d="M247.945,182.462v6.3c0,4.723-3.148,9.183-9.183,12.594-12.069,7.084-32.01,7.084-44.079,0-6.035-3.673-9.183-8.134-9.183-12.856v-6.3c0,4.723,3.148,9.446,9.183,12.856,12.332,7.084,32.01,7.084,44.079,0C245.059,191.646,247.945,187.185,247.945,182.462Z" transform="translate(-185.5 -182.2)"/>
              </g>
              <g id="Group_700" data-name="Group 700" transform="translate(0.164)">
                <path id="Path_2040" data-name="Path 2040" class="cls-14" d="M238.661,180.688c12.332,7.084,12.332,18.629.262,25.451-12.069,7.084-32.01,7.084-44.079,0-12.332-7.084-12.332-18.629-.262-25.451C206.651,173.6,226.329,173.6,238.661,180.688Z" transform="translate(-185.562 -175.375)"/>
              </g>
            </g>
          </g>
          <path id="Path_2041" data-name="Path 2041" class="cls-17" d="M229.122,194.294l-1.312-.787c3.936-2.361,3.936-6.035,0-8.4a17.526,17.526,0,0,0-9.97-1.312c.525-1.574-.525-3.411-2.624-4.46a16.264,16.264,0,0,0-13.119-.262l-1.574-.787a3.334,3.334,0,0,0-3.148,0c-.787.525-1.049,1.312,0,1.837l1.574.787-2.624,1.312-1.574-.787a3.334,3.334,0,0,0-3.148,0c-.787.525-1.05,1.312,0,1.837l1.574.787-3.149,1.837c-.787.525-1.049,1.312,0,1.837a3.334,3.334,0,0,0,3.149,0l1.049-.525,19.678,11.02-1.049.525c-.787.525-1.049,1.312,0,1.837a3.335,3.335,0,0,0,3.148,0l3.148-1.837,1.312.787a3.334,3.334,0,0,0,3.148,0c.787-.525,1.049-1.312,0-1.837l-1.312-.787,2.624-1.312,1.312.787a3.335,3.335,0,0,0,3.149,0A1.367,1.367,0,0,0,229.122,194.294Zm-31.747-9.183,6.3-3.673a8.893,8.893,0,0,1,8.134,0c2.361,1.312,2.1,3.411-.262,4.723l-6.3,3.673Zm26.762,7.084-7.347,4.2-8.658-4.723,7.346-4.2c2.361-1.312,6.3-1.574,8.658-.262C226.761,188.521,226.761,190.62,224.137,192.194Z" transform="translate(-177.598 -171.401)"/>
        </g>
      </g>
    </g>
  </g>
</svg>
