<svg xmlns="http://www.w3.org/2000/svg" xmlns:xlink="http://www.w3.org/1999/xlink" viewBox="0 0 300 300">
  <defs>
    <style>
      .cls-1 {
        clip-path: url(#clip-img-4);
      }

      .cls-2 {
        opacity: 0.4;
      }

      .cls-3 {
        fill: url(#linear-gradient);
      }

      .cls-4 {
        fill: url(#linear-gradient-5);
      }

      .cls-5 {
        fill: url(#linear-gradient-7);
      }

      .cls-6 {
        fill: url(#linear-gradient-9);
      }

      .cls-7 {
        fill: url(#linear-gradient-11);
      }

      .cls-8 {
        fill: url(#linear-gradient-13);
      }

      .cls-9 {
        fill: url(#linear-gradient-14);
      }

      .cls-10 {
        fill: url(#linear-gradient-15);
      }

      .cls-11 {
        fill: url(#linear-gradient-16);
      }

      .cls-12 {
        fill: #fff;
      }
    </style>
    <linearGradient id="linear-gradient" x1="0.5" x2="0.5" y2="1" gradientUnits="objectBoundingBox">
      <stop offset="0" stop-color="#005bea"/>
      <stop offset="1" stop-color="#00c6fb"/>
    </linearGradient>
    <linearGradient id="linear-gradient-5" x1="-1.162" y1="-0.115" x2="2.62" y2="1.282" xlink:href="#linear-gradient"/>
    <linearGradient id="linear-gradient-7" x1="-0.789" y1="-0.124" x2="1.71" y2="1.083" xlink:href="#linear-gradient"/>
    <linearGradient id="linear-gradient-9" x1="-0.476" y1="-0.521" x2="1.518" y2="1.586" xlink:href="#linear-gradient"/>
    <linearGradient id="linear-gradient-11" x1="-0.847" y1="-0.263" x2="1.861" y2="1.266" xlink:href="#linear-gradient"/>
    <linearGradient id="linear-gradient-13" x1="0.725" x2="0.337" y2="0.837" gradientUnits="objectBoundingBox">
      <stop offset="0" stop-color="#aae4ff"/>
      <stop offset="1" stop-color="#0d9de7"/>
    </linearGradient>
    <linearGradient id="linear-gradient-14" x1="0.419" y1="0.026" x2="0.544" y2="0.771" xlink:href="#linear-gradient-13"/>
    <linearGradient id="linear-gradient-15" x1="0.506" y1="0.083" x2="0.497" y2="0.885" xlink:href="#linear-gradient-13"/>
    <linearGradient id="linear-gradient-16" x1="0.581" y1="-0.026" x2="0.437" y2="0.897" xlink:href="#linear-gradient-13"/>
    <clipPath id="clip-img-4">
      <rect width="300" height="300"/>
    </clipPath>
  </defs>
  <g id="img-4" class="cls-1">
    <g id="Group_2524" data-name="Group 2524" transform="translate(-597.159 -2539.149)">
      <g id="Group_845" data-name="Group 845" transform="translate(642.281 2552.768)">
        <g id="Group_632" data-name="Group 632">
          <g id="Group_618" data-name="Group 618">
            <g id="Group_612" data-name="Group 612" class="cls-2" transform="translate(0 149.771)">
              <path id="Path_1964" data-name="Path 1964" class="cls-3" d="M147.965,176.04l28.042-16.571L139.042,137.8,111,154.37Z" transform="translate(-111 -137.8)"/>
            </g>
            <g id="Group_613" data-name="Group 613" class="cls-2" transform="translate(48.437 177.814)">
              <path id="Path_1965" data-name="Path 1965" class="cls-3" d="M156.2,180.44l27.405-16.57L146.642,142.2,118.6,158.771Z" transform="translate(-118.6 -142.2)"/>
            </g>
            <g id="Group_614" data-name="Group 614" class="cls-2" transform="translate(97.511 206.493)">
              <path id="Path_1966" data-name="Path 1966" class="cls-3" d="M163.9,184.3l28.042-16.57-37.6-21.032L126.3,162.633Z" transform="translate(-126.3 -146.7)"/>
            </g>
            <g id="Group_615" data-name="Group 615" class="cls-2" transform="translate(147.222 235.173)">
              <path id="Path_1967" data-name="Path 1967" class="cls-3" d="M171.7,188.8l27.4-15.933L162.142,151.2,134.1,167.133Z" transform="translate(-134.1 -151.2)"/>
            </g>
            <g id="Group_616" data-name="Group 616" transform="translate(43.338 21.669)">
              <path id="Path_1968" data-name="Path 1968" class="cls-4" d="M117.8,279.581l28.042-15.933L146.48,117.7l-28.042,15.933Z" transform="translate(-117.8 -117.7)"/>
            </g>
            <g id="Group_617" data-name="Group 617" transform="translate(6.373)">
              <path id="Path_1969" data-name="Path 1969" class="cls-3" d="M149.6,151.9l28.042-15.933-37.6-21.669L112,130.233Z" transform="translate(-112 -114.3)"/>
            </g>
          </g>
          <g id="Group_621" data-name="Group 621" transform="translate(55.447 1.275)">
            <g id="Group_619" data-name="Group 619" transform="translate(36.965 21.669)">
              <path id="Path_1970" data-name="Path 1970" class="cls-5" d="M125.5,305.911l28.042-15.933V117.9l-27.4,16.57Z" transform="translate(-125.5 -117.9)"/>
            </g>
            <g id="Group_620" data-name="Group 620">
              <path id="Path_1971" data-name="Path 1971" class="cls-3" d="M157.3,152.74l27.4-16.57L147.742,114.5,119.7,131.071Z" transform="translate(-119.7 -114.5)"/>
            </g>
          </g>
          <g id="Group_624" data-name="Group 624" transform="translate(104.521 121.729)">
            <g id="Group_622" data-name="Group 622" transform="translate(37.602 21.669)">
              <path id="Path_1972" data-name="Path 1972" class="cls-6" d="M133.3,233.036l27.4-15.933.637-80.3L133.3,152.733Z" transform="translate(-133.3 -136.8)"/>
            </g>
            <g id="Group_623" data-name="Group 623">
              <path id="Path_1973" data-name="Path 1973" class="cls-3" d="M165,171l28.042-15.933-37.6-21.669L127.4,149.333Z" transform="translate(-127.4 -133.4)"/>
            </g>
          </g>
          <g id="Group_631" data-name="Group 631" transform="translate(6.373 15.933)">
            <g id="Group_625" data-name="Group 625" transform="translate(185.462 108.345)">
              <path id="Path_1974" data-name="Path 1974" class="cls-7" d="M141.1,277.835,169.142,261.9V133.8l-27.405,16.57Z" transform="translate(-141.1 -133.8)"/>
            </g>
            <g id="Group_626" data-name="Group 626" transform="translate(148.497 86.676)">
              <path id="Path_1975" data-name="Path 1975" class="cls-3" d="M172.9,168.64l27.405-16.57L163.342,130.4,135.3,146.97Z" transform="translate(-135.3 -130.4)"/>
            </g>
            <g id="Group_627" data-name="Group 627" transform="translate(148.497 103.247)">
              <path id="Path_1976" data-name="Path 1976" class="cls-8" d="M135.3,133V260.465l36.965,21.669.637-127.465Z" transform="translate(-135.3 -133)"/>
            </g>
            <g id="Group_628" data-name="Group 628">
              <path id="Path_1977" data-name="Path 1977" class="cls-9" d="M112,116.8V262.747l36.965,21.669.637-145.947Z" transform="translate(-112 -116.8)"/>
            </g>
            <g id="Group_629" data-name="Group 629" transform="translate(48.437 1.912)">
              <path id="Path_1978" data-name="Path 1978" class="cls-10" d="M120.237,117.1,119.6,289.178l37.6,21.032.637-171.44Z" transform="translate(-119.6 -117.1)"/>
            </g>
            <g id="Group_630" data-name="Group 630" transform="translate(98.148 121.729)">
              <path id="Path_1979" data-name="Path 1979" class="cls-11" d="M127.4,135.9v80.3L165,237.872v-80.3Z" transform="translate(-127.4 -135.9)"/>
            </g>
          </g>
        </g>
      </g>
    </g>
    <g id="Group_2767" data-name="Group 2767" transform="translate(-161.069 -8.977)">
      <path id="Path_4230" data-name="Path 4230" class="cls-12" d="M17.1,11.848,74.348,0l36.68,42.195L92.622,98.72,36.68,106.825,0,64.63Z" transform="translate(254.152 135.157) rotate(41)"/>
      <g id="Group_2756" data-name="Group 2756" transform="translate(215.736 162.279)">
        <path id="Path_1258" data-name="Path 1258" class="cls-3" d="M91.82,37.9c-3.886,2.108-7.443,4.874-11.2,7.18a21.992,21.992,0,0,0-2.108,1.383c0-2.24.066-4.216,0-6.192-.066-2.767.988-5.994-.4-8.168-1.383-2.042-4.413-2.964-6.719-4.347-6.85-4.084-13.767-8.036-20.617-12.186a3.173,3.173,0,0,0-3.623-.066Q36.687,21.437,26.214,27.168c-.659.4-1.383.659-2.042.988-3.557-2.108-7.246-4.018-10.934-5.928-.988-.527-2.24-.79-2.437-2.24C20.022,14.521,29.244,9.119,38.466,3.52A35.027,35.027,0,0,1,46.37-.3h3.755a38.439,38.439,0,0,1,8.5,3.491c9.288,5.467,18.641,10.934,28.061,16.27a12.792,12.792,0,0,1,5.2,4.874C91.82,29.012,91.82,33.491,91.82,37.9Z" transform="translate(-3.686 0.3)"/>
        <path id="Path_1260" data-name="Path 1260" class="cls-3" d="M87.278,89.4c.725.593.461,1.449.461,2.174.066,4.743.066,9.485.066,14.162-2.832,2.174-6.06,3.491-9.156,5.27-7.114,4.018-14.228,7.97-21.408,11.923-3.952,2.174-7.9,4.347-11.791,6.587a2.378,2.378,0,0,1-2.832-.132Q22.067,116.344,1.383,103.5A2.645,2.645,0,0,1,0,101c.066-4.545,0-9.156,0-14.1,3.425,2.042,6.521,3.952,9.617,5.862,10.869,6.587,21.671,13.174,32.54,19.893a3.163,3.163,0,0,0,3.755.066c13.438-7.509,27.27-14.36,40.181-22.791A4.679,4.679,0,0,1,87.278,89.4Z" transform="translate(0 -29.461)"/>
        <path id="Path_1261" data-name="Path 1261" class="cls-3" d="M60.909,62.018c-1.317,1.186-3.03,1.647-4.479,2.5-.79.461-1.449-.066-2.108-.4-3.755-1.91-7.575-3.82-11.33-5.8-1.317-.725-1.976-.79-1.91,1.054.066,4.347.066,8.629,0,12.976A2.4,2.4,0,0,0,42.4,74.731c3.952,2.437,7.9,4.94,11.725,7.575a2.371,2.371,0,0,0,2.832,0c6.521-3.623,13.24-6.982,19.827-11.33V78.09a1.7,1.7,0,0,1-.988,1.515c-6.521,3.689-13.108,7.312-19.629,11a1.471,1.471,0,0,1-1.713-.2C48.064,86.39,41.609,82.372,35.22,78.354a2.087,2.087,0,0,1-1.12-2.042c.066-6.982.066-13.9,0-20.881a1.9,1.9,0,0,1,1.054-2.042C37.328,52.2,39.5,50.952,41.675,49.7A15,15,0,0,0,48,53.389l7.509,4.15c.066,1.449,1.515,1.449,2.371,2.042C58.933,60.239,60.58,60.305,60.909,62.018Z" transform="translate(-11.638 -16.765)"/>
        <path id="Path_1262" data-name="Path 1262" class="cls-3" d="M.1,39.4c4.809,2.437,9.354,4.809,13.9,7.18.659.329.659.988.659,1.581V77.934a10.1,10.1,0,0,1-3.425-1.844C7.939,74.114,4.711,72.138,1.483,70.1c-.725-.461-1.317-.79-1.317-1.844C.1,58.766.1,49.281.1,39.4Z" transform="translate(-0.034 -13.249)"/>
        <path id="Path_1263" data-name="Path 1263" class="cls-3" d="M64.8,58.131c-.329-1.713-1.976-1.778-3.1-2.5-.856-.593-2.24-.593-2.371-2.042,3.228-.922,6.126-2.7,9.419-4.347-2.832-1.449-5.27-2.767-7.773-4.018a1.264,1.264,0,0,0-1.186-.263c-2.767,1.317-5.731,2.305-7.97,4.479A15.721,15.721,0,0,1,45.5,45.748c3.755-2.24,7.443-4.545,11.2-6.719a6.566,6.566,0,0,1,6.587.4c5.2,2.964,10.342,5.928,15.545,8.958a3.457,3.457,0,0,1,1.844,3.228c-.066,4.084-.066,8.234,0,12.318a2.39,2.39,0,0,1-1.449,2.437c-1.581.856-3.03,1.844-4.94,2.964V56.089c0-2.437,0-2.371-2.24-1.252C69.74,55.958,67.435,57.473,64.8,58.131Z" transform="translate(-15.529 -12.879)"/>
        <path id="Path_1264" data-name="Path 1264" class="cls-3" d="M7.185,30.8c.132,1.449,1.449,1.713,2.437,2.24,3.689,1.844,7.377,3.755,10.934,5.928-.461.461-1.186.527-1.581.856-2.964,3.03-5.8,1.844-8.827,0S3.891,36.531.4,34.686C2.837,33.237,5.011,31.986,7.185,30.8Z" transform="translate(-0.136 -10.314)"/>
      </g>
    </g>
  </g>
</svg>
