<svg xmlns="http://www.w3.org/2000/svg" xmlns:xlink="http://www.w3.org/1999/xlink" viewBox="0 0 481 397">
  <defs>
    <style>
      .cls-1, .cls-11 {
        fill: #fff;
      }

      .cls-1 {
        stroke: #707070;
      }

      .cls-2 {
        clip-path: url(#clip-path);
      }

      .cls-3 {
        opacity: 0.5;
      }

      .cls-4, .cls-6 {
        fill: #066de8;
      }

      .cls-27, .cls-28, .cls-5 {
        fill: none;
        stroke-miterlimit: 10;
      }

      .cls-5 {
        stroke: #535461;
        stroke-width: 0.99px;
      }

      .cls-13, .cls-20, .cls-6 {
        opacity: 0.1;
      }

      .cls-7 {
        fill: url(#linear-gradient);
      }

      .cls-8 {
        fill: #fdc2cc;
      }

      .cls-16, .cls-9 {
        opacity: 0.05;
      }

      .cls-10 {
        fill: #47465a;
      }

      .cls-11, .cls-29 {
        opacity: 0.3;
      }

      .cls-12 {
        fill: #565171;
      }

      .cls-14 {
        fill: #f68080;
      }

      .cls-15 {
        fill: #b96b6b;
      }

      .cls-17 {
        fill: url(#linear-gradient-2);
      }

      .cls-18 {
        fill: #4f4d59;
      }

      .cls-19 {
        fill: #787c9c;
      }

      .cls-21 {
        fill: #714b4f;
      }

      .cls-22 {
        fill: #e6e6f0;
      }

      .cls-23 {
        fill: #ba7855;
      }

      .cls-24 {
        fill: #503f43;
      }

      .cls-25 {
        fill: #fafbfc;
      }

      .cls-26 {
        fill: #7983a6;
      }

      .cls-27, .cls-28 {
        stroke: #7983a6;
        stroke-width: 0.495px;
      }

      .cls-28 {
        stroke-dasharray: 11.78 11.78;
      }

      .cls-30 {
        opacity: 0.7;
      }
    </style>
    <clipPath id="clip-path">
      <rect id="Rectangle_1418" data-name="Rectangle 1418" class="cls-1" width="481" height="397" transform="translate(721 206)"/>
    </clipPath>
    <linearGradient id="linear-gradient" x1="0.501" y1="1.001" x2="0.501" gradientUnits="objectBoundingBox">
      <stop offset="0" stop-color="gray" stop-opacity="0.251"/>
      <stop offset="0.54" stop-color="gray" stop-opacity="0.122"/>
      <stop offset="1" stop-color="gray" stop-opacity="0.102"/>
    </linearGradient>
    <linearGradient id="linear-gradient-2" x1="0.5" y1="1" x2="0.5" y2="0" xlink:href="#linear-gradient"/>
  </defs>
  <g id="img-18" class="cls-2" transform="translate(-721 -206)">
    <g id="undraw_data_report_bi6l" transform="translate(721 215.347)">
      <g id="Group_2655" data-name="Group 2655" class="cls-3">
        <path id="Path_3939" data-name="Path 3939" class="cls-4" d="M400.036,33.661a6.02,6.02,0,0,0-5.722,3.1c-2.851,5.128,1.737,10.172-.629,15.637a9.1,9.1,0,0,1-3.069,3.7c-2.287,1.648-4.618,2.138-6.93,3.123a12.7,12.7,0,0,0-6.49,5.792,15.157,15.157,0,0,0-1.366,9.192,36.427,36.427,0,0,0,2.416,7.237,45.4,45.4,0,0,1,2.322,8.94,16.515,16.515,0,0,1,.228,4.316,27.179,27.179,0,0,1-1.332,5.391l-5.089,15.934a37.213,37.213,0,0,0-1.634,6.386,26.835,26.835,0,0,0,.2,6.806c.554,4.663,1.173,9.514,3.381,12.43s6.539,3.1,9.707-1.03c3.015-3.96,3.792-9.95,6.554-14.256,4.351-6.792,11.311-6.2,15.974-12.563,4.455-6.1,4.386-14.9,7.183-22.4,1.98-5.376,5.445-9.9,7.782-15.123a40.346,40.346,0,0,0,2.97-22.657,33.626,33.626,0,0,0-7.5-15.885c-1.445-1.752-3.02-3.381-5.024-3.96-2.133-.634-4.262.99-6.46,1.139C404.967,35.042,402.6,33.7,400.036,33.661Z" transform="translate(-56.505 -33.611)"/>
        <path id="Path_3940" data-name="Path 3940" class="cls-5" d="M412,33.71s-12.276,71.108-32.671,109.932" transform="translate(-56.505 -33.611)"/>
        <path id="Path_3941" data-name="Path 3941" class="cls-5" d="M394.175,37.091s14.979,15.345,9.247,36.551" transform="translate(-56.505 -33.611)"/>
        <path id="Path_3942" data-name="Path 3942" class="cls-5" d="M376.518,66.589s26.359,10.5,22.874,22.444" transform="translate(-56.505 -33.611)"/>
        <path id="Path_3943" data-name="Path 3943" class="cls-5" d="M426.569,53.461s-11.751,4.787-23.929,23.32" transform="translate(-56.505 -33.611)"/>
        <path id="Path_3944" data-name="Path 3944" class="cls-5" d="M408.382,113.877s-7.955,2.762-12.019-14.355" transform="translate(-56.505 -33.611)"/>
        <path id="Path_3945" data-name="Path 3945" class="cls-5" d="M375.291,115.505s15.306,2.039,17.583-4.95" transform="translate(-56.505 -33.611)"/>
      </g>
      <g id="Group_2656" data-name="Group 2656" class="cls-3">
        <path id="Path_3946" data-name="Path 3946" class="cls-4" d="M106.61,121.673a6.011,6.011,0,0,0-.545,6.485c2.723,5.2,9.455,4.128,12.727,9.1a9.1,9.1,0,0,1,1.411,4.6c.124,2.817-.747,5.034-1.2,7.514a12.7,12.7,0,0,0,1.282,8.588,15.157,15.157,0,0,0,6.93,6.183,36.869,36.869,0,0,0,7.376,1.95,45.4,45.4,0,0,1,8.747,2.97,16.513,16.513,0,0,1,3.732,2.178,27.182,27.182,0,0,1,3.777,4.069l10.529,13a37.215,37.215,0,0,0,4.455,4.871,26.835,26.835,0,0,0,5.8,3.569c4.2,2.094,8.6,4.237,12.247,3.995s6.183-3.762,4.455-8.682c-1.634-4.683-6.237-8.628-8.326-13.3-3.292-7.366,1.02-12.87-1.737-20.246-2.643-7.089-10.054-11.841-14.786-18.315-3.4-4.623-5.287-9.979-8.371-14.806a40.5,40.5,0,0,0-17.325-14.915,33.626,33.626,0,0,0-17.4-2.445c-2.257.248-4.48.668-6.084,2.02-1.7,1.436-1.485,4.118-2.594,6.024C110.476,118.307,108.051,119.555,106.61,121.673Z" transform="translate(-56.505 -33.611)"/>
        <path id="Path_3947" data-name="Path 3947" class="cls-5" d="M113.218,111.7s52.709,49.278,73.964,87.646" transform="translate(-56.505 -33.611)"/>
        <path id="Path_3948" data-name="Path 3948" class="cls-5" d="M106.268,128.455s21.063-4.094,35.641,12.326" transform="translate(-56.505 -33.611)"/>
        <path id="Path_3949" data-name="Path 3949" class="cls-5" d="M121.238,159.393s23.265-16.271,31.314-6.806" transform="translate(-56.505 -33.611)"/>
        <path id="Path_3950" data-name="Path 3950" class="cls-5" d="M137.731,110.387s-2.45,12.454,6.366,32.8" transform="translate(-56.505 -33.611)"/>
        <path id="Path_3951" data-name="Path 3951" class="cls-5" d="M178.258,158.7s-2.059,8.168-18.612,2.163" transform="translate(-56.505 -33.611)"/>
        <path id="Path_3952" data-name="Path 3952" class="cls-5" d="M161.457,187.272s10.1-11.677,5.509-17.409" transform="translate(-56.505 -33.611)"/>
      </g>
      <path id="Path_3953" data-name="Path 3953" class="cls-4" d="M96.7,64.514c-2.475,2.926-4.792,6.975-2.97,10.969,3.534,7.826,16.5,4.01,21.127,11.306a10.782,10.782,0,0,1,1.252,7.232c-.624,4.658-2.93,8.613-4.524,12.87s-2.421,9.405-.173,13.9c2.163,4.351,6.722,7.1,11.138,8.192s8.841.846,13.251.99a73.36,73.36,0,0,1,15.519,2.287,21.439,21.439,0,0,1,6.346,2.475,28.137,28.137,0,0,1,5.856,5.633l15.84,18.459a37.749,37.749,0,0,0,6.861,6.767c3.01,2.094,6.435,3.158,9.806,4.183,7.252,2.218,14.85,4.455,21.78,2.935s12.746-8.143,11.014-15.811c-1.648-7.3-9.083-12.479-11.588-19.632-3.96-11.271,5.816-21.726,2.881-33.2-2.812-11-15.276-16.672-22.206-25.983-4.95-6.673-6.9-15.019-11.227-22.117-6.232-10.227-17.1-17.013-27.968-19.587s-21.79-1.332-31.958,1.233c-4.307,1.094-8.613,2.475-12.029,5.207-3.628,2.906-4.049,7.311-6.693,10.821C104.977,57.738,100.041,60.549,96.7,64.514Z" transform="translate(-56.505 -33.611)"/>
      <path id="Path_3954" data-name="Path 3954" class="cls-5" d="M112.124,45.9s83.988,66.084,112.248,123.534" transform="translate(-56.505 -33.611)"/>
      <path id="Path_3955" data-name="Path 3955" class="cls-5" d="M94,75.915s40.774-13.207,63.138,9.722" transform="translate(-56.505 -33.611)"/>
      <path id="Path_3956" data-name="Path 3956" class="cls-5" d="M112.713,122.911s48.565-34.156,60.842-20.835" transform="translate(-56.505 -33.611)"/>
      <path id="Path_3957" data-name="Path 3957" class="cls-5" d="M158.546,36.24s-8.371,21.478,1.98,52.7" transform="translate(-56.505 -33.611)"/>
      <path id="Path_3958" data-name="Path 3958" class="cls-5" d="M219.952,104.447s-6.341,14.222-35.591,9.247" transform="translate(-56.505 -33.611)"/>
      <path id="Path_3959" data-name="Path 3959" class="cls-5" d="M179.753,157.131s22.508-22.513,15.627-30.691" transform="translate(-56.505 -33.611)"/>
      <ellipse id="Ellipse_530" data-name="Ellipse 530" class="cls-6" cx="240.5" cy="20.335" rx="240.5" ry="20.335" transform="translate(0 337.621)"/>
      <path id="Path_3960" data-name="Path 3960" class="cls-7" d="M483.713,231.238c-1.025-3-2.5-6.8-3.673-7.7a1.094,1.094,0,0,0-.233-.144h-.144V219.69l-2.762.441a26.41,26.41,0,0,1-.99-4.1,1.906,1.906,0,0,0,2.074.416c-.045-.074-.084-.153-.124-.233l.124-.054a5.133,5.133,0,0,1-.668-2.515,9.161,9.161,0,0,1,.381-2.376c.5-1.708,1.332-3.3,1.8-5.019a12.2,12.2,0,0,0,.416-3.391,12.376,12.376,0,0,0-1.287-5.594,3.266,3.266,0,0,0-.99-1.277,12.615,12.615,0,0,0-1.2-.584,6.47,6.47,0,0,1-1.742-1.737,15.622,15.622,0,0,0-7.549-5.039,4.42,4.42,0,0,0-2.416-.193c-1.856.5-2.529,2.8-4.034,4-1.327,1.064-3.148,1.173-4.816,1.53a8.187,8.187,0,0,0-4.485,2.351,4.866,4.866,0,0,0-1.2,3.242,3.262,3.262,0,0,0,1.327,2.9,4.168,4.168,0,0,0,3.52.495A11.969,11.969,0,0,0,464.1,218l.322.579h0a24.791,24.791,0,0,1,2.247,5.866c-2.544,1.44-5.321,2.792-7,2.921a11.784,11.784,0,0,1-.366,1.94,10.7,10.7,0,0,1-2.2,4.331c-2.282,2.564-12.544,21.949-12.544,21.949s-.322.772-.851,2.089c-6.371.782-16.771,1.911-19.672,1.332l-11.385-10.831s-3.683,2.812-3.361,6.227l-2.025-1.95s-10.831,8.267,6.272,13.682l26.023,3.02c-2.475,7.48-4.792,16.187-4.074,20.924h.213a9.843,9.843,0,0,0,1.485-.114l-.045.841-2.52,44.892s-.569,8.267,7.128,11.969c0,0,9.405,27.646,5.7,30.785,0,0,.441.233,1.183.554l-7.737,6.856s-5.7,1.426-8.836,1.139a2.262,2.262,0,0,0-2.5,1.683.376.376,0,0,1-.03.178v.549a.425.425,0,0,0,.035.183v.069a1.534,1.534,0,0,0,.064.2l.025.059a1.672,1.672,0,0,0,.089.193v.045c.035.064.074.124.114.188l.035.054q.069.1.153.2l.045.049c.059.069.124.134.188.2l.03.025.213.183.045.035c.079.064.168.124.257.183l.059.04c.094.059.193.119.3.173h.045l.322.158h.045l.376.148.079.03.411.134h.069l.45.119h.035l.5.1h.1l.535.079h.1l.6.059c1.173.089,2.752.124,4.579.114h0v.292a.347.347,0,0,0,.035.183v.069a1.538,1.538,0,0,0,.064.2l.025.059a1.682,1.682,0,0,0,.089.193v.045c.035.064.074.124.114.188l.035.054q.069.1.153.2l.045.049c.059.069.124.134.188.2l.03.025.213.183.045.035c.079.064.168.124.257.183l.064.04c.094.059.193.119.3.173h.045l.322.158h.045l.376.148.079.03.411.134h.069l.45.119h.035l.5.1h.1l.535.079h.1l.6.059c7.425.569,31.067-1.139,31.067-1.139v-.064h0v-.084h0c.233-1.1,1.371-7.519-2.668-12.261.119-.124.238-.257.347-.4,0,0-3.133-5.415-1.426-7.128s-8.549-31.354-8.549-31.354-5.415-8.549-2.282-18.241-.287-20.236-.287-20.236,7.475-2.223,7.628-11.425v-.856a3.027,3.027,0,0,0,.495.03,2.222,2.222,0,0,0,.317,0s-1.426-5.128.287-8.836,5.415-.287,8.836-15.39c2.475-10.93,4.653-23.5,5.668-29.621A15.6,15.6,0,0,0,483.713,231.238Zm-65.049,32.067-2.6-2.475c.861.356,1.817.708,2.886,1.044l9.8,1.139C424.376,263.409,420.312,263.632,418.664,263.305Z" transform="translate(-56.505 -33.611)"/>
      <path id="Path_3961" data-name="Path 3961" class="cls-8" d="M443.473,261.86s-20.162,2.8-24.364,1.98l-11.222-10.672s-10.643,8.123,6.163,13.44l31.384,3.668Z" transform="translate(-56.505 -33.611)"/>
      <path id="Path_3962" data-name="Path 3962" class="cls-9" d="M443.473,261.86s-20.162,2.8-24.364,1.98l-11.222-10.672s-10.643,8.123,6.163,13.44l31.384,3.668Z" transform="translate(-56.505 -33.611)"/>
      <path id="Path_3963" data-name="Path 3963" class="cls-10" d="M450.755,375.538l-9.8,8.682s-5.6,1.4-8.682,1.119-4.48,4.762,2.8,5.321,30.522-1.119,30.522-1.119,2.242-8.96-4.48-14Z" transform="translate(-56.505 -33.611)"/>
      <path id="Path_3964" data-name="Path 3964" class="cls-9" d="M450.755,375.538l-9.8,8.682s-5.6,1.4-8.682,1.119-4.48,4.762,2.8,5.321,30.522-1.119,30.522-1.119,2.242-8.96-4.48-14Z" transform="translate(-56.505 -33.611)"/>
      <path id="Path_3965" data-name="Path 3965" class="cls-11" d="M465.947,385.666a15.448,15.448,0,0,1-.351,3.034s-23.265,1.678-30.522,1.119c-3.5-.267-4.99-1.574-5.257-2.827-.317,1.436.95,3.336,5.257,3.668,7.282.559,30.522-1.119,30.522-1.119a16.181,16.181,0,0,0,.351-3.876Z" transform="translate(-56.505 -33.611)"/>
      <path id="Path_3966" data-name="Path 3966" class="cls-8" d="M462.234,216.764s6.163,8.682,3.92,14.563,11.761-6.163,11.761-6.163-4.48-7.841-2.242-16.241Z" transform="translate(-56.505 -33.611)"/>
      <path id="Path_3967" data-name="Path 3967" class="cls-10" d="M460.556,378.9l-9.8,8.692s-5.6,1.4-8.682,1.119-4.485,4.752,2.8,5.316,30.522-1.119,30.522-1.119,2.242-8.96-4.48-14Z" transform="translate(-56.505 -33.611)"/>
      <path id="Path_3968" data-name="Path 3968" class="cls-12" d="M463.358,376.939a7.493,7.493,0,0,1-5.673,2.6c-4.9.233-10.286-2.6-10.286-2.6,3.638-3.079-5.6-30.245-5.6-30.245-7.559-3.638-7-11.761-7-11.761l2.475-44.09.619-11.073,7.841-4.762,6.183,4.742,5.861,4.5a23.562,23.562,0,0,1,.733,4.371c.678,10.291-7.455,12.712-7.455,12.712s3.361,10.361.282,19.88,2.242,17.919,2.242,17.919,10.083,29.121,8.415,30.8S463.358,376.939,463.358,376.939Z" transform="translate(-56.505 -33.611)"/>
      <path id="Path_3969" data-name="Path 3969" class="cls-9" d="M463.358,376.939a7.493,7.493,0,0,1-5.673,2.6c-4.9.233-10.286-2.6-10.286-2.6,3.638-3.079-5.6-30.245-5.6-30.245-7.559-3.638-7-11.761-7-11.761l2.475-44.09.619-11.073,7.841-4.762,6.183,4.742,5.861,4.5a23.562,23.562,0,0,1,.733,4.371c.678,10.291-7.455,12.712-7.455,12.712s3.361,10.361.282,19.88,2.242,17.919,2.242,17.919,10.083,29.121,8.415,30.8S463.358,376.939,463.358,376.939Z" transform="translate(-56.505 -33.611)"/>
      <path id="Path_3970" data-name="Path 3970" class="cls-12" d="M473.159,380.3c-4.762,5.881-15.959,0-15.959,0a1.782,1.782,0,0,0,.495-.762c2.054-5.584-6.93-32.28-6.93-32.28-7.559-3.638-8.415-12.321-8.415-12.321l-1.98-44.873-.257-5.811,11.781-4.5,3.618-1.381,12.044,9.227a21.842,21.842,0,0,1,.772,5.856c-.148,9.054-7.475,11.237-7.475,11.237s3.361,10.361.282,19.88,2.242,17.919,2.242,17.919,10.083,29.121,8.415,30.8S473.159,380.3,473.159,380.3Z" transform="translate(-56.505 -33.611)"/>
      <path id="Path_3971" data-name="Path 3971" class="cls-13" d="M468.328,293.466c-2.421-.346-7.321-3.262-9.841-4.846l-1.574-.99s-2.52-7-9.242-1.678a25.157,25.157,0,0,1-7.3,4.123,17.083,17.083,0,0,1-3.119.782l.619-11.073,7.841-4.762,6.183,4.742,3.618-1.381,12.044,9.217a21.843,21.843,0,0,1,.772,5.866Z" transform="translate(-56.505 -33.611)"/>
      <path id="Path_3972" data-name="Path 3972" class="cls-14" d="M483.485,239.748c-.99,6.009-3.138,18.36-5.569,29.1-3.361,14.85-7,11.479-8.682,15.122s-.282,8.682-.282,8.682c-2.8.282-12.044-5.881-12.044-5.881s-2.52-7-9.242-1.678-12.044,5.039-12.044,5.039c-1.4-9.242,8.96-33.883,8.96-33.883s10.093-19.043,12.311-21.563a10.514,10.514,0,0,0,2.163-4.257,11.578,11.578,0,0,0,.356-1.906c3.638-.282,12.6-6.435,12.6-6.435l7-1.119v3.638a1.073,1.073,0,0,1,.228.139c1.153.881,2.6,4.618,3.609,7.564a15.346,15.346,0,0,1,.634,7.435Z" transform="translate(-56.505 -33.611)"/>
      <path id="Path_3973" data-name="Path 3973" class="cls-13" d="M477.916,228.249s-7.282-5.881-18.2,13.162-13.44,15.959-13.44,15.959,2.242,8.415,1.119,10.083c0,0,7.559-.559,10.361,0s20.162-21.285,20.162-21.285S486.881,233.847,477.916,228.249Z" transform="translate(-56.505 -33.611)"/>
      <path id="Path_3974" data-name="Path 3974" class="cls-13" d="M477.639,227.125s-7.282-5.856-18.2,13.162S446,256.251,446,256.251s8.673,9.519,11.474,10.064,20.162-21.285,20.162-21.285S486.594,232.728,477.639,227.125Z" transform="translate(-56.505 -33.611)"/>
      <path id="Path_3975" data-name="Path 3975" class="cls-13" d="M447.136,265.632a33.85,33.85,0,0,0-1.119-7.613c1.7-.223,2.777-.371,2.777-.371l1.98,8.415Z" transform="translate(-56.505 -33.611)"/>
      <path id="Path_3976" data-name="Path 3976" class="cls-13" d="M475.956,209.483l-13.439,7.826a28.7,28.7,0,0,1,1.564,2.564,11.813,11.813,0,0,0,2.356.238c3.589,0,5.262-3.767,7.425-6.3C473.723,211.789,475.357,211.74,475.956,209.483Z" transform="translate(-56.505 -33.611)"/>
      <circle id="Ellipse_531" data-name="Ellipse 531" class="cls-8" cx="11.761" cy="11.761" r="11.761" transform="translate(397.893 162.432)"/>
      <path id="Path_3977" data-name="Path 3977" class="cls-13" d="M451.28,198.291a8.039,8.039,0,0,1,4.406-2.312c1.634-.351,3.425-.46,4.732-1.485,1.485-1.183,2.138-3.43,3.96-3.93a4.342,4.342,0,0,1,2.371.188,15.345,15.345,0,0,1,7.425,4.95,6.356,6.356,0,0,0,1.708,1.708,12.373,12.373,0,0,1,1.178.574,3.208,3.208,0,0,1,.96,1.252,12.172,12.172,0,0,1,.851,8.549c-.455,1.688-1.277,3.252-1.762,4.95a6.5,6.5,0,0,0,.282,5.084,2.05,2.05,0,0,1-2.475-.916,10.547,10.547,0,0,1-.99-2.718,10.4,10.4,0,0,0-3.034-4.717c-.881-.782-2.475-1.307-3.074-.3-.238.391-.223.886-.426,1.292a1.7,1.7,0,0,1-2.327.5,3.569,3.569,0,0,1-1.455-2.158c-1.153-3.9-3.119-6.356-7.291-4.688-1.554.624-3.386,1.044-4.881-.025C449.468,202.676,449.869,199.885,451.28,198.291Z" transform="translate(-56.505 -33.611)"/>
      <path id="Path_3978" data-name="Path 3978" class="cls-15" d="M451.28,198a8.039,8.039,0,0,1,4.406-2.312c1.634-.351,3.425-.46,4.732-1.485,1.485-1.183,2.138-3.43,3.96-3.93a4.341,4.341,0,0,1,2.371.188,15.345,15.345,0,0,1,7.425,4.95,6.356,6.356,0,0,0,1.708,1.708,12.373,12.373,0,0,1,1.178.574,3.208,3.208,0,0,1,.96,1.252,12.172,12.172,0,0,1,.851,8.549c-.455,1.688-1.277,3.252-1.762,4.95a6.5,6.5,0,0,0,.282,5.084,2.05,2.05,0,0,1-2.475-.916,10.547,10.547,0,0,1-.99-2.718,10.4,10.4,0,0,0-3.034-4.717c-.881-.782-2.475-1.307-3.074-.3-.238.391-.223.886-.426,1.292a1.7,1.7,0,0,1-2.327.5,3.569,3.569,0,0,1-1.455-2.158c-1.153-3.9-3.119-6.356-7.291-4.688-1.554.624-3.386,1.044-4.881-.025C449.468,202.394,449.869,199.607,451.28,198Z" transform="translate(-56.505 -33.611)"/>
      <path id="Path_3979" data-name="Path 3979" class="cls-9" d="M479.267,224.734h-5.693s-11.2,5.6-11.479,5.321a9.522,9.522,0,0,0-3.02.366,11.584,11.584,0,0,0,.356-1.906c3.638-.282,12.6-6.435,12.6-6.435l7-1.119V224.6a1.073,1.073,0,0,1,.233.134Z" transform="translate(-56.505 -33.611)"/>
      <path id="Path_3980" data-name="Path 3980" class="cls-11" d="M475.748,389.027a15.446,15.446,0,0,1-.352,3.034s-23.265,1.678-30.522,1.119c-3.5-.267-4.99-1.574-5.257-2.827-.317,1.436.95,3.336,5.257,3.668,7.282.559,30.522-1.119,30.522-1.119a16.182,16.182,0,0,0,.352-3.876Z" transform="translate(-56.505 -33.611)"/>
      <g id="Group_2657" data-name="Group 2657" class="cls-16">
        <path id="Path_3981" data-name="Path 3981" d="M445.013,284.813a23.782,23.782,0,0,1-9.311,4.708,4.16,4.16,0,0,0,.069.614s5.321.282,12.044-5.039a9.025,9.025,0,0,1,3.6-1.881C449.963,282.516,447.854,282.561,445.013,284.813Z" transform="translate(-56.505 -33.611)"/>
        <path id="Path_3982" data-name="Path 3982" d="M483.015,232.308c-.99-2.97-2.475-6.683-3.609-7.564a1.074,1.074,0,0,0-.228-.139s-2.317.079-2.242.139c1.153.881,2.272,4.336,3.277,7.282a15.346,15.346,0,0,1,.609,7.425c-.99,6.009-3.138,18.36-5.569,29.1-3.361,14.85-7,11.479-8.682,15.122-1.376,2.97-.688,6.9-.391,8.222a7.082,7.082,0,0,0,2.911.738s-1.4-5.039.282-8.682,5.321-.282,8.682-15.123c2.43-10.737,4.569-23.092,5.569-29.1a15.345,15.345,0,0,0-.609-7.42Z" transform="translate(-56.505 -33.611)"/>
      </g>
      <path id="Path_3983" data-name="Path 3983" class="cls-17" d="M197.192,387.988s-6.435.445-10.445-6.435a23.127,23.127,0,0,0-2.742-3.9,13.167,13.167,0,0,1-1.926-6.995c.223-5.108-5.108-33.106-5.108-33.106s.668-10.667-4.668-17.325c-3.51-4.386-8.559-16.959-11.6-25.038a1.678,1.678,0,0,0,.718.376l-.124-.7.124.03-1.554-8.668a39.443,39.443,0,0,1-5.742-8.707l.356-.074,4.717-.99s7.668-10.89,8.138-16.256l.624.03h.881a184.074,184.074,0,0,1,21.241,1.114h0c0-.035-.054-.173-.114-.391h0a26.663,26.663,0,0,1-.688-3.282l.441-.03,4.366-.292s15.108-16.885,9.554-20-11.331,14-11.331,14l-1.866.342-.5.094a2.156,2.156,0,0,1,.158-.213c.059-.069-24.666-1.109-28.443-7.108,0,0-10.89-8.668-11.331-14.444a6.516,6.516,0,0,0-3.916-5.544,8.544,8.544,0,0,0-4.316-.807l-5.1.351.361.644h-.144a17.149,17.149,0,0,1-.8-2.257h.1c-.035-.158-.069-.317-.1-.495a12,12,0,0,0,8.836-14.776,4.8,4.8,0,0,0,1.485-.04,4.4,4.4,0,0,0,3.252-4.2v-.446a6.435,6.435,0,0,0-2.475-4.95c-1.02-.846-2.232-1.45-3.158-2.391a23.443,23.443,0,0,1-2.554-3.96,11.727,11.727,0,0,0-6.019-4.688c-1.841-.624-4.094-.693-5.5.644-.728.688-1.148,1.673-1.98,2.252-1.173.837-2.767.589-4.2.757a8.013,8.013,0,0,0-6.039,4.524,10.4,10.4,0,0,0-.99,4.777,12.766,12.766,0,0,0,.4,3.356c.277,1.094.688,2.148.99,3.232.624,2.257.767,4.633,1.485,6.866a8.638,8.638,0,0,0,2.782,4.217l-.213.921c-.139.03-3.6.772-5.995,6-1.891,4.118-8.286,8.376-11.1,10.093a4.628,4.628,0,0,0-2.094,2.906,15.113,15.113,0,0,0-.356,3.693,25.342,25.342,0,0,0,2.663,11.078c4.891,10.667,8.445,15.345,8.445,15.345s.272,3.267.287,6.712a19.824,19.824,0,0,1-.733,6.4c-.46,1.079-.6,3.836-.594,6.98,0,6.034.594,13.91.594,13.91s1.7.322,4.331.708l1.638,28.8a13.86,13.86,0,0,1-3.133,9.623,21.285,21.285,0,0,1-3.96,3.752c-4.668,3.331-14.667,38.442-14.667,38.442s.5.03,1.3.094l-3.074,8.574s12.276,9.405,19.751,6.836a7.236,7.236,0,0,1,2.475-.351c1.485,0,4.628-1.163,2.871-2.7a113.8,113.8,0,0,1-9.578-9.96,5.1,5.1,0,0,1,.693.406v-.069l.1.069s.025-.347.079-.906l-.109-.035c.228-2.312.941-8.123,2.361-8.836,1.777-.891,14.885-26.884,14.885-26.884l13.108-33.774s10.445,18,19.33,21.107v7.509s4.891,22.221,6.668,24.666,0,12.222,0,12.222a6.087,6.087,0,0,0,1.2,1.054l-1.421,8.054s10.222-.445,27.552,4.891C196.078,394.433,202.746,391.552,197.192,387.988ZM156.3,271.76l-2.163.54-.426.109c-.045-.267-.074-.426-.074-.426a4.415,4.415,0,0,1-1.569.381,28.943,28.943,0,0,1-1.317-7.494,50.518,50.518,0,0,1-1.327-9.281,6.813,6.813,0,0,1,.881-3.826l.723.059.5.5.035.035.257.233h0l.267.243.045.04.292.252.049.045.3.252.03.025.332.272.074.059.351.282h.03l.347.272.079.059.381.292.079.059.366.267.064.045.416.3.1.069.436.3.04.025.426.282.1.069.46.292.1.059.431.262.079.049.495.287.119.069.5.287h.04l.5.262.124.064.525.262.109.049.5.228.094.045.549.238.134.054.574.228h0C158.126,262.686,156.3,271.76,156.3,271.76Z" transform="translate(-56.505 -33.611)"/>
      <path id="Path_3984" data-name="Path 3984" class="cls-18" d="M101.5,377.256l-4.123,11.5s11.291,8.658,18.627,6.866a20.5,20.5,0,0,1,3.366-.544c1.52-.114,4.133-1.218,2.52-2.629-5.207-4.554-12.148-13.014-12.148-13.014Z" transform="translate(-56.505 -33.611)"/>
      <path id="Path_3985" data-name="Path 3985" class="cls-18" d="M170.05,376.167,168.1,387.23s9.979-.436,26.9,4.772c0,0,6.509-2.822,1.084-6.292,0,0-6.292.436-10.2-6.292s-6.292-5.856-6.292-5.856Z" transform="translate(-56.505 -33.611)"/>
      <path id="Path_3986" data-name="Path 3986" class="cls-19" d="M118.421,295.906l1.911,33.661a13.925,13.925,0,0,1-3.321,9.846,20.411,20.411,0,0,1-3.584,3.341c-4.554,3.252-14.316,37.527-14.316,37.527s11.063.648,14.1,2.822c0,0,.648-8.678,2.386-9.544s14.533-26.235,14.533-26.235l12.806-32.992s10.2,17.573,18.875,20.607v7.376s4.772,21.691,6.509,24.077,0,11.93,0,11.93,4.99,6.292,16.484-.436c0,0-3.688-4.123-3.465-9.113s-4.99-32.319-4.99-32.319.648-10.4-4.554-16.919S157.908,288.1,157.908,288.1l-5.97-12.845Z" transform="translate(-56.505 -33.611)"/>
      <g id="Group_2658" data-name="Group 2658" class="cls-20">
        <path id="Path_3987" data-name="Path 3987" d="M101.175,380.29s9.762-34.274,14.316-37.527a20.666,20.666,0,0,0,3.767-3.559,13.766,13.766,0,0,0,3.133-9.623l-1.911-33.661,31.983-19.731-.436-.936L118.52,295.906l1.911,33.661a13.766,13.766,0,0,1-3.114,9.633,20.665,20.665,0,0,1-3.767,3.559c-4.554,3.252-14.316,37.527-14.316,37.527s11.063.648,14.1,2.822c0,0,.025-.337.079-.886C109.135,380.761,101.175,380.29,101.175,380.29Z" transform="translate(-56.505 -33.611)"/>
        <path id="Path_3988" data-name="Path 3988" d="M170.377,378.34s1.737-9.544,0-11.93-6.529-24.082-6.529-24.082v-7.376c-8.658-3.034-18.855-20.622-18.855-20.622l-.757,1.98c2.94,4.663,10.786,16.241,17.677,18.652v7.376s4.772,21.691,6.509,24.077,0,11.93,0,11.93,2.421,3.044,7.767,2.633A8.416,8.416,0,0,1,170.377,378.34Z" transform="translate(-56.505 -33.611)"/>
      </g>
      <path id="Path_3989" data-name="Path 3989" class="cls-21" d="M193.053,258.162l-4.262.282-2.247.148v-5.445l2.97-.535,1.827-.332s5.638-16.7,11.063-13.667S193.053,258.162,193.053,258.162Z" transform="translate(-56.505 -33.611)"/>
      <path id="Path_3990" data-name="Path 3990" class="cls-21" d="M124.713,213.477s-2.822,10.846-3.688,17.573,20.172,1.3,20.172,1.3-8.024-9.762-3.465-14.969Z" transform="translate(-56.505 -33.611)"/>
      <path id="Path_3991" data-name="Path 3991" class="cls-22" d="M147.513,258.6l.436,4.123-6.722-.436-6.752-5.871-6.722-18.86-4.336-6.722-3.257-4.118,1.3-4.99s.594.5,1.6,1.287c3.3,2.529,11.054,7.782,16.716,6.331a6.745,6.745,0,0,0,.772-.243L149,243.628Z" transform="translate(-56.505 -33.611)"/>
      <path id="Path_3992" data-name="Path 3992" class="cls-13" d="M123.193,220.417s-3.465.648-5.856,5.856c-1.836,4-8.029,8.133-10.8,9.831a4.628,4.628,0,0,0-2.1,2.926c-.559,2.475-.772,7.079,2.267,13.712,4.772,10.4,8.242,14.969,8.242,14.969s.866,10.4-.436,13.449,0,19.741,0,19.741,22.77,4.336,30.369,0,6.509-21.043,6.509-21.043,7.158,15.167,9.762,15.618l-1.52-8.46s-8.46-9.113-8.91-20.825c0,0-2.6-10.628-.436-13.449,0,0,36.66,3.039,38.828.436,0,0-24.077-1.084-27.765-6.93,0,0-10.628-8.46-11.063-14.1a6.237,6.237,0,0,0-3.252-5.109,8.494,8.494,0,0,0-4.861-1.084l-4.9.337s8.46,14.969,8.024,16.919.436,17.786.436,17.786-9.742-21.058-14.063-23.444-9.326-12.182-9.326-12.182l.866-4.95" transform="translate(-56.505 -33.611)"/>
      <path id="Path_3993" data-name="Path 3993" class="cls-13" d="M147.513,258.6l.436,4.123-6.722-.436-6.752-5.871-6.722-18.86-4.336-6.722-3.257-4.118,1.3-4.99s.594.5,1.6,1.287l-.3,1.723s4.99,9.8,9.326,12.182,14.1,23.429,14.1,23.429-.866-15.84-.436-17.786c.3-1.327-3.5-8.638-5.975-13.207a6.748,6.748,0,0,0,.772-.243L149,243.628Z" transform="translate(-56.505 -33.611)"/>
      <path id="Path_3994" data-name="Path 3994" class="cls-13" d="M188.781,258.449l-2.247.148v-5.445l2.97-.535C188.46,254,188.494,256.415,188.781,258.449Z" transform="translate(-56.505 -33.611)"/>
      <path id="Path_3995" data-name="Path 3995" class="cls-19" d="M123.193,219.784s-3.465.648-5.856,5.856c-1.836,4-8.029,8.133-10.8,9.831a4.628,4.628,0,0,0-2.1,2.926c-.559,2.475-.772,7.079,2.267,13.712,4.772,10.4,8.242,14.969,8.242,14.969s.866,10.4-.436,13.449,0,19.741,0,19.741,22.77,4.336,30.369,0,6.509-21.082,6.509-21.082,7.158,15.187,9.762,15.618l-1.52-8.46s-8.46-9.113-8.91-20.825c0,0-2.6-10.628-.436-13.449,0,0,8.46,9.113,18,8.91a183.274,183.274,0,0,1,20.825,1.084s-2.168-6.93,0-9.544c0,0-24.077-1.084-27.765-6.93,0,0-10.628-8.46-11.063-14.1a6.237,6.237,0,0,0-3.252-5.109,8.494,8.494,0,0,0-4.861-1.084l-4.9.337s8.48,14.939,8.044,16.919.436,17.786.436,17.786-9.762-21.048-14.083-23.434-9.346-12.172-9.346-12.172l.866-4.95" transform="translate(-56.505 -33.611)"/>
      <path id="Path_3996" data-name="Path 3996" class="cls-13" d="M118.421,242.554s5.207,17.573,8.242,19.741,21.473,13.232,26.9,10.628c0,0,1.3,6.509-.648,8.024,0,0-20.226-.792-20.389-.866,0,0-13.232-1.737-15.4-8.242s-4.772-17.573-4.772-17.573Z" transform="translate(-56.505 -33.611)"/>
      <ellipse id="Ellipse_532" data-name="Ellipse 532" class="cls-23" cx="0.757" cy="1.084" rx="0.757" ry="1.084" transform="translate(88.928 226.615)"/>
      <ellipse id="Ellipse_533" data-name="Ellipse 533" class="cls-23" cx="0.757" cy="1.084" rx="0.757" ry="1.084" transform="translate(91.096 234.208)"/>
      <g id="Group_2659" data-name="Group 2659" class="cls-20">
        <path id="Path_3997" data-name="Path 3997" d="M116.035,300.03s-1.3-16.7,0-19.741.436-13.449.436-13.449-3.465-4.554-8.242-14.969c-3.039-6.633-2.822-11.237-2.267-13.712a4.628,4.628,0,0,1,2.1-2.925c2.767-1.7,8.96-5.826,10.791-9.831a11.268,11.268,0,0,1,4.257-5.163l.084-.5s-3.465.648-5.856,5.856c-1.836,4-8.029,8.133-10.791,9.831a4.628,4.628,0,0,0-2.1,2.926c-.559,2.475-.772,7.079,2.267,13.712,4.772,10.4,8.242,14.969,8.242,14.969s.866,10.4-.436,13.449,0,19.741,0,19.741,16.271,3.1,25.894,1.44C130.682,302.822,116.035,300.03,116.035,300.03Z" transform="translate(-56.505 -33.611)"/>
        <path id="Path_3998" data-name="Path 3998" d="M145.32,242.554c-.3,1.337,0,9.2.243,14.009,1.049,2.143,1.708,3.559,1.708,3.559s-.866-15.84-.436-17.786c.411-1.856-7.207-15.469-7.965-16.83l-1.579.109S145.755,240.574,145.32,242.554Z" transform="translate(-56.505 -33.611)"/>
        <path id="Path_3999" data-name="Path 3999" d="M169.833,260.766c-9.544.218-18-8.91-18-8.91a3.466,3.466,0,0,0-.549,1.178c2.475,2.331,9.405,8.108,17.033,7.92a179.474,179.474,0,0,1,20.825,1.084s-.045-.144-.114-.391a172.679,172.679,0,0,0-19.191-.881Z" transform="translate(-56.505 -33.611)"/>
        <path id="Path_4000" data-name="Path 4000" d="M152.913,278.987s.089,1.356.04,3.391c2.257,4.455,6.366,12.138,8.2,12.445l-.322-1.782C157.665,289.085,152.913,278.987,152.913,278.987Z" transform="translate(-56.505 -33.611)"/>
      </g>
      <path id="Path_4001" data-name="Path 4001" class="cls-21" d="M158.987,276.819l-4.609.99-3.633.767,1.95-5.445,1.356-.342,2.114-.525s3.039-15.187,9.113-14.1S158.987,276.819,158.987,276.819Z" transform="translate(-56.505 -33.611)"/>
      <path id="Path_4002" data-name="Path 4002" class="cls-13" d="M154.378,277.789l-3.633.767,1.95-5.445,1.356-.342A21.666,21.666,0,0,1,154.378,277.789Z" transform="translate(-56.505 -33.611)"/>
      <path id="Path_4003" data-name="Path 4003" class="cls-19" d="M118.421,242.109s5.207,17.573,8.242,19.741,21.473,13.232,26.9,10.628c0,0,1.3,6.509-.648,8.024,0,0-20.226-.792-20.389-.866,0,0-13.232-1.737-15.4-8.242s-4.772-17.573-4.772-17.573Z" transform="translate(-56.505 -33.611)"/>
      <path id="Path_4004" data-name="Path 4004" class="cls-13" d="M124.93,213.913s-.441,1.7-1.03,4.168a11.707,11.707,0,0,0,12.93,5.94c-.52-2.228-.406-4.455,1.119-6.222Z" transform="translate(-56.505 -33.611)"/>
      <circle id="Ellipse_534" data-name="Ellipse 534" class="cls-21" cx="11.712" cy="11.712" r="11.712" transform="translate(65.826 166.853)"/>
      <path id="Path_4005" data-name="Path 4005" class="cls-13" d="M144.211,208.953a6.271,6.271,0,0,0,2.614.158,4.293,4.293,0,0,0,3.173-4.1,6.3,6.3,0,0,0-2.416-4.836c-.99-.827-2.178-1.416-3.084-2.336a21.867,21.867,0,0,1-2.475-3.856,11.449,11.449,0,0,0-5.9-4.574c-1.8-.609-3.995-.678-5.376.629-.708.668-1.124,1.634-1.916,2.2-1.148.817-2.7.574-4.1.738a7.821,7.821,0,0,0-5.9,4.415,11.048,11.048,0,0,0-.574,7.5c.272,1.064.668,2.1.96,3.158.609,2.208.752,4.524,1.455,6.7s2.153,4.307,4.346,4.95a13.742,13.742,0,0,1,1.4-7.079,2.03,2.03,0,0,1,.99-1.1,2.4,2.4,0,0,1,1.193,0,11.88,11.88,0,0,0,7.92-1.6c.832-.5,2.129-2.232,3.02-2.406C140.681,207.315,143.023,208.686,144.211,208.953Z" transform="translate(-56.505 -33.611)"/>
      <path id="Path_4006" data-name="Path 4006" class="cls-24" d="M144.211,208.517a6.272,6.272,0,0,0,2.614.158,4.293,4.293,0,0,0,3.173-4.1,6.3,6.3,0,0,0-2.416-4.836c-.99-.827-2.178-1.416-3.084-2.336a21.867,21.867,0,0,1-2.475-3.856,11.449,11.449,0,0,0-5.9-4.574c-1.8-.609-3.995-.678-5.376.629-.708.668-1.124,1.634-1.916,2.2-1.148.817-2.7.574-4.1.738a7.821,7.821,0,0,0-5.9,4.415,11.049,11.049,0,0,0-.574,7.485c.272,1.064.668,2.1.96,3.158.609,2.208.752,4.524,1.455,6.7s2.153,4.307,4.346,4.95a13.741,13.741,0,0,1,1.4-7.079,2.03,2.03,0,0,1,.99-1.1,2.4,2.4,0,0,1,1.193,0,11.88,11.88,0,0,0,7.92-1.6c.832-.5,2.129-2.232,3.02-2.406C140.681,206.879,143.023,208.255,144.211,208.517Z" transform="translate(-56.505 -33.611)"/>
      <rect id="Rectangle_1406" data-name="Rectangle 1406" class="cls-25" width="255.796" height="305.915" transform="translate(112.035 53.382)"/>
      <rect id="Rectangle_1407" data-name="Rectangle 1407" class="cls-26" width="255.796" height="10.37" transform="translate(112.035 53.382)"/>
      <line id="Line_207" data-name="Line 207" class="cls-27" x2="186.663" transform="translate(146.602 178.04)"/>
      <g id="Group_2660" data-name="Group 2660" class="cls-3">
        <line id="Line_208" data-name="Line 208" class="cls-27" x2="2.97" transform="translate(146.602 157.73)"/>
        <line id="Line_209" data-name="Line 209" class="cls-28" x2="171.976" transform="translate(155.403 157.73)"/>
        <line id="Line_210" data-name="Line 210" class="cls-27" x2="2.97" transform="translate(330.295 157.73)"/>
      </g>
      <g id="Group_2661" data-name="Group 2661" class="cls-3">
        <line id="Line_211" data-name="Line 211" class="cls-27" x2="2.97" transform="translate(146.602 137.424)"/>
        <line id="Line_212" data-name="Line 212" class="cls-28" x2="171.976" transform="translate(155.403 137.424)"/>
        <line id="Line_213" data-name="Line 213" class="cls-27" x2="2.97" transform="translate(330.295 137.424)"/>
      </g>
      <g id="Group_2662" data-name="Group 2662" class="cls-3">
        <line id="Line_214" data-name="Line 214" class="cls-27" x2="2.97" transform="translate(146.602 117.114)"/>
        <line id="Line_215" data-name="Line 215" class="cls-28" x2="171.976" transform="translate(155.403 117.114)"/>
        <line id="Line_216" data-name="Line 216" class="cls-27" x2="2.97" transform="translate(330.295 117.114)"/>
      </g>
      <g id="Group_2663" data-name="Group 2663" class="cls-3">
        <line id="Line_217" data-name="Line 217" class="cls-27" x2="2.97" transform="translate(146.602 96.809)"/>
        <line id="Line_218" data-name="Line 218" class="cls-28" x2="171.976" transform="translate(155.403 96.809)"/>
        <line id="Line_219" data-name="Line 219" class="cls-27" x2="2.97" transform="translate(330.295 96.809)"/>
      </g>
      <g id="Group_2664" data-name="Group 2664" class="cls-29">
        <rect id="Rectangle_1408" data-name="Rectangle 1408" class="cls-4" width="13.395" height="40.615" transform="translate(155.893 137.424)"/>
      </g>
      <rect id="Rectangle_1409" data-name="Rectangle 1409" class="cls-4" width="13.395" height="61.356" transform="translate(193.266 116.896)"/>
      <g id="Group_2665" data-name="Group 2665" class="cls-29">
        <rect id="Rectangle_1410" data-name="Rectangle 1410" class="cls-4" width="13.395" height="20.954" transform="translate(230.644 157.512)"/>
      </g>
      <rect id="Rectangle_1411" data-name="Rectangle 1411" class="cls-4" width="13.395" height="82.097" transform="translate(268.018 96.16)"/>
      <g id="Group_2666" data-name="Group 2666" class="cls-29">
        <rect id="Rectangle_1412" data-name="Rectangle 1412" class="cls-4" width="13.395" height="62.005" transform="translate(305.391 116.035)"/>
      </g>
      <circle id="Ellipse_535" data-name="Ellipse 535" class="cls-4" cx="3.455" cy="3.455" r="3.455" transform="translate(159.135 183.871)"/>
      <circle id="Ellipse_536" data-name="Ellipse 536" class="cls-4" cx="3.455" cy="3.455" r="3.455" transform="translate(196.726 183.871)"/>
      <circle id="Ellipse_537" data-name="Ellipse 537" class="cls-4" cx="3.455" cy="3.455" r="3.455" transform="translate(234.317 183.871)"/>
      <circle id="Ellipse_538" data-name="Ellipse 538" class="cls-4" cx="3.455" cy="3.455" r="3.455" transform="translate(271.908 183.871)"/>
      <circle id="Ellipse_539" data-name="Ellipse 539" class="cls-4" cx="3.455" cy="3.455" r="3.455" transform="translate(309.499 183.871)"/>
      <line id="Line_220" data-name="Line 220" class="cls-27" x2="186.663" transform="translate(146.602 308.529)"/>
      <g id="Group_2667" data-name="Group 2667" class="cls-3">
        <line id="Line_221" data-name="Line 221" class="cls-27" x2="2.97" transform="translate(146.602 288.219)"/>
        <line id="Line_222" data-name="Line 222" class="cls-28" x2="171.976" transform="translate(155.403 288.219)"/>
        <line id="Line_223" data-name="Line 223" class="cls-27" x2="2.97" transform="translate(330.295 288.219)"/>
      </g>
      <g id="Group_2668" data-name="Group 2668" class="cls-3">
        <line id="Line_224" data-name="Line 224" class="cls-27" x2="2.97" transform="translate(146.602 267.914)"/>
        <line id="Line_225" data-name="Line 225" class="cls-28" x2="171.976" transform="translate(155.403 267.914)"/>
        <line id="Line_226" data-name="Line 226" class="cls-27" x2="2.97" transform="translate(330.295 267.914)"/>
      </g>
      <g id="Group_2669" data-name="Group 2669" class="cls-3">
        <line id="Line_227" data-name="Line 227" class="cls-27" x2="2.97" transform="translate(146.602 247.603)"/>
        <line id="Line_228" data-name="Line 228" class="cls-28" x2="171.976" transform="translate(155.403 247.603)"/>
        <line id="Line_229" data-name="Line 229" class="cls-27" x2="2.97" transform="translate(330.295 247.603)"/>
      </g>
      <g id="Group_2670" data-name="Group 2670" class="cls-3">
        <line id="Line_230" data-name="Line 230" class="cls-27" x2="2.97" transform="translate(146.602 227.298)"/>
        <line id="Line_231" data-name="Line 231" class="cls-28" x2="171.976" transform="translate(155.403 227.298)"/>
        <line id="Line_232" data-name="Line 232" class="cls-27" x2="2.97" transform="translate(330.295 227.298)"/>
      </g>
      <rect id="Rectangle_1413" data-name="Rectangle 1413" class="cls-4" width="13.395" height="40.615" transform="translate(155.893 267.914)"/>
      <rect id="Rectangle_1414" data-name="Rectangle 1414" class="cls-4" width="13.395" height="41.046" transform="translate(193.266 267.696)"/>
      <rect id="Rectangle_1415" data-name="Rectangle 1415" class="cls-4" width="13.395" height="20.954" transform="translate(230.644 288.006)"/>
      <rect id="Rectangle_1416" data-name="Rectangle 1416" class="cls-4" width="13.395" height="82.097" transform="translate(268.018 226.65)"/>
      <rect id="Rectangle_1417" data-name="Rectangle 1417" class="cls-4" width="13.395" height="62.005" transform="translate(356.377 178.213)"/>
      <g id="Group_2671" data-name="Group 2671" class="cls-30">
        <circle id="Ellipse_540" data-name="Ellipse 540" class="cls-4" cx="3.455" cy="3.455" r="3.455" transform="translate(159.135 314.36)"/>
      </g>
      <g id="Group_2672" data-name="Group 2672" class="cls-30">
        <circle id="Ellipse_541" data-name="Ellipse 541" class="cls-4" cx="3.455" cy="3.455" r="3.455" transform="translate(196.726 314.36)"/>
      </g>
      <g id="Group_2673" data-name="Group 2673" class="cls-30">
        <circle id="Ellipse_542" data-name="Ellipse 542" class="cls-4" cx="3.455" cy="3.455" r="3.455" transform="translate(234.317 314.36)"/>
      </g>
      <g id="Group_2674" data-name="Group 2674" class="cls-30">
        <circle id="Ellipse_543" data-name="Ellipse 543" class="cls-4" cx="3.455" cy="3.455" r="3.455" transform="translate(271.908 314.36)"/>
      </g>
      <g id="Group_2675" data-name="Group 2675" class="cls-30">
        <circle id="Ellipse_544" data-name="Ellipse 544" class="cls-4" cx="3.455" cy="3.455" r="3.455" transform="translate(309.499 314.36)"/>
      </g>
      <path id="Path_4007" data-name="Path 4007" class="cls-4" d="M149.592,391.79a5.777,5.777,0,0,0,1.9-2.861,2.54,2.54,0,0,0-1.327-2.916c-1.218-.465-2.52.376-3.5,1.233s-2.119,1.827-3.411,1.643a5.188,5.188,0,0,0,1.6-4.856,2.03,2.03,0,0,0-.446-.99c-.678-.723-1.9-.411-2.713.158-2.574,1.812-3.292,5.306-3.307,8.455a16.208,16.208,0,0,1-.049-3.465,3.577,3.577,0,0,0-1.307-3.079,3.96,3.96,0,0,0-1.98-.47,4.122,4.122,0,0,0-3.237.921,3.184,3.184,0,0,0,.129,3.96,12.884,12.884,0,0,0,3.351,2.683,7.425,7.425,0,0,1,2.4,2.282,2.262,2.262,0,0,1,.178.406h7.252a20.208,20.208,0,0,0,4.475-3.1Z" transform="translate(-56.505 -33.611)"/>
      <path id="Path_4008" data-name="Path 4008" class="cls-4" d="M502.038,385.849a5.776,5.776,0,0,0,1.9-2.861,2.539,2.539,0,0,0-1.327-2.916c-1.218-.465-2.52.376-3.5,1.233s-2.119,1.827-3.411,1.643a5.188,5.188,0,0,0,1.6-4.856,2.03,2.03,0,0,0-.446-.99c-.678-.723-1.9-.411-2.713.158-2.574,1.812-3.292,5.306-3.307,8.455a16.206,16.206,0,0,1-.049-3.465,3.577,3.577,0,0,0-1.307-3.079,3.96,3.96,0,0,0-1.98-.47,4.122,4.122,0,0,0-3.237.921,3.184,3.184,0,0,0,.129,3.96,12.884,12.884,0,0,0,3.351,2.683,7.425,7.425,0,0,1,2.4,2.282,2.259,2.259,0,0,1,.178.406h7.252A20.213,20.213,0,0,0,502.038,385.849Z" transform="translate(-56.505 -33.611)"/>
      <path id="Path_4009" data-name="Path 4009" class="cls-8" d="M450.755,266.047l-3.618-.421-27.72-3.223c-16.825-5.316-6.183-13.415-6.183-13.415l11.2,10.643c3.232.648,15.9-.861,21.582-1.589,1.7-.223,2.777-.371,2.777-.371Z" transform="translate(-56.505 -33.611)"/>
      <path id="Path_4010" data-name="Path 4010" class="cls-14" d="M477.916,227.7s-7.282-5.881-18.2,13.162-13.44,15.959-13.44,15.959,2.242,8.415,1.119,10.083c0,0,7.559-.559,10.361,0s20.162-21.285,20.162-21.285S486.881,233.288,477.916,227.7Z" transform="translate(-56.505 -33.611)"/>
    </g>
  </g>
</svg>
