<svg xmlns="http://www.w3.org/2000/svg" xmlns:xlink="http://www.w3.org/1999/xlink" viewBox="0 0 693 507">
  <defs>
    <style>
      .cls-1 {
        clip-path: url(#clip-img-20);
      }

      .cls-2, .cls-6 {
        fill: #066de8;
      }

      .cls-2, .cls-20, .cls-5 {
        opacity: 0.1;
      }

      .cls-3 {
        fill: #eaecf0;
      }

      .cls-4 {
        fill: #3a3768;
      }

      .cls-7 {
        fill: #efc6cd;
      }

      .cls-8 {
        fill: #d48a9b;
      }

      .cls-9 {
        fill: #dfe6f5;
      }

      .cls-10 {
        opacity: 0.15;
      }

      .cls-11 {
        fill: #4c4c56;
      }

      .cls-12 {
        fill: #d1d9ec;
      }

      .cls-13 {
        fill: url(#linear-gradient);
      }

      .cls-14 {
        fill: url(#linear-gradient-2);
      }

      .cls-15 {
        fill: url(#linear-gradient-3);
      }

      .cls-16 {
        fill: #d38884;
      }

      .cls-17 {
        fill: #a36468;
      }

      .cls-18 {
        fill: #444053;
      }

      .cls-19 {
        fill: #67647e;
      }
    </style>
    <linearGradient id="linear-gradient" x1="0.5" x2="0.5" y2="1" gradientUnits="objectBoundingBox">
      <stop offset="0" stop-color="#2af598"/>
      <stop offset="1" stop-color="#009efd"/>
    </linearGradient>
    <linearGradient id="linear-gradient-2" x1="-Infinity" y1="Infinity" x2="Infinity" y2="Infinity" gradientUnits="objectBoundingBox">
      <stop offset="0" stop-color="gray" stop-opacity="0.251"/>
      <stop offset="0.54" stop-color="gray" stop-opacity="0.122"/>
      <stop offset="1" stop-color="gray" stop-opacity="0.102"/>
    </linearGradient>
    <linearGradient id="linear-gradient-3" x1="0" y1="0.5" x2="1" y2="0.5" xlink:href="#linear-gradient-2"/>
    <clipPath id="clip-img-20">
      <rect width="693" height="507"/>
    </clipPath>
  </defs>
  <g id="img-20" class="cls-1">
    <path id="Path_4336" data-name="Path 4336" class="cls-2" d="M296.556,31.4c-31.593,1.69-63.517,10.92-88.166,30.762-21.628,17.418-37.225,44.8-33.42,72.315,4.492,32.479,33.468,56.106,44.217,87.088,6.916,19.918,5.838,41.9,1.312,62.5-2.912,13.276-7.39,26.566-16,37.088-15.5,18.929-43.475,28.063-51.092,51.312-8.283,25.282,12.589,50.076,32.2,68.056,15.652,14.348,32.047,28.626,51.772,36.49,14.423,5.755,30.076,7.823,45.591,8.647a304.059,304.059,0,0,0,125.687-20.082c19.169-7.438,37.713-16.868,57.775-21.353,42.754-9.56,86.745,4.224,130.076,10.68a389.038,389.038,0,0,0,112.067.33c23.393-3.338,47.562-9.361,65.179-25.1,17.857-15.982,26.786-40.721,25.8-64.691s-11.1-47.047-25.989-65.865c-19.231-24.306-45.755-41.6-68.832-62.315a297.627,297.627,0,0,1-59.217-73.2c-9.066-15.8-16.779-32.562-28.523-46.47-18.317-21.676-44.883-34.567-71.429-44.526-61.236-22.94-124.753-27.61-188.6-37.747C337.009,32.136,316.769,30.343,296.556,31.4Z" transform="translate(-114.987 -5.577)"/>
    <g id="undraw_design_tools_42tf" transform="translate(103.065 148.934)">
      <path id="Path_4254" data-name="Path 4254" class="cls-3" d="M315.165,679.24a1.618,1.618,0,0,1-.125.375h0a1,1,0,0,1,.136-.375Z" transform="translate(-39.909 -353.168)"/>
      <path id="Path_4255" data-name="Path 4255" class="cls-3" d="M322.38,680.475h-7.027l-5.276.068-.58-5.993-.534-5.685-2.479-25.937-.08-.8v-.352l-.694-7.3,10.62-3.98,1.3,10.586.091.785v.091l2.627,21.491.807,6.6.466,3.832.4,3.286v.114Z" transform="translate(-41.188 -359.85)"/>
      <path id="Path_4256" data-name="Path 4256" class="cls-4" d="M336.041,507.2l.125.375h-.841l-.125-.375Z" transform="translate(-16.723 -181.14)"/>
      <path id="Path_4257" data-name="Path 4257" class="cls-4" d="M439.4,679.55Z" transform="translate(-22.86 -353.126)"/>
      <path id="Path_4258" data-name="Path 4258" class="cls-4" d="M523.573,549.029v.489s-9.915,27.1-13.145,50.225q-.33,2.274-.546,4.548c-.159,1.6-.284,3.172-.353,4.7-.091,1.785-.114,3.514-.068,5.162v1.137c0,.762.08,1.546.125,2.354s.114,1.615.182,2.456.136,1.581.216,2.388c2.445,25.016,11.735,61.642,11.735,61.642s.307.989.705,2.672h-2.57c-16,.261-32.032.716-48.076,1.262l-2.888.091h-.955c-34.113,1.205-68.226,2.809-102.247,3.957l-8.312.273H356.17q-17.739.569-35.443.876H317.6a19.155,19.155,0,0,1,2.752-3.1,20.01,20.01,0,0,1,2.786-2.161,62.7,62.7,0,0,1,17.454-7.493,13.919,13.919,0,0,1,3.991-.489l7.96.159h1.228l12.212.239,104.749,2.081h.262l.739-.148a19.614,19.614,0,0,0,3.536-1.251,12.417,12.417,0,0,0,7.459-9.642c0-.353.091-.728.114-1.137a13.416,13.416,0,0,0,0-1.66,5.645,5.645,0,0,0-.091-1.217c-.091-.421-.114-.841-.193-1.274-2.524-14.111-6.823-57.548-6.823-57.548v.137s0-1.854.1-4.969v-1.433c0-.694.08-1.444.125-2.274,0-.489.068-.989.1-1.512.057-.762.125-1.546.193-2.365a.673.673,0,0,1,0-.148q.068-.773.136-1.569v-.171c1.694-16.772,7.027-43.323,23.879-53.159,7.9-4.628,13.133-5.56,16.579-4.651,5.026,1.319,6.288,6.55,6.561,9.95v.66a16.613,16.613,0,0,1,.159,1.922Z" transform="translate(-39.558 -372.78)"/>
      <path id="Path_4259" data-name="Path 4259" class="cls-5" d="M315.165,679.24a1.618,1.618,0,0,1-.125.375h0a1,1,0,0,1,.136-.375Z" transform="translate(-39.909 -353.168)"/>
      <path id="Path_4260" data-name="Path 4260" class="cls-5" d="M336.041,507.2l.125.375h-.841l-.125-.375Z" transform="translate(-16.723 -181.14)"/>
      <path id="Path_4261" data-name="Path 4261" class="cls-5" d="M439.4,679.55Z" transform="translate(-22.86 -353.126)"/>
      <path id="Path_4262" data-name="Path 4262" class="cls-5" d="M523.582,549.081v.352s-8.176,22.344-12.076,43.767h0q-.409,2.274-.75,4.4c-.114.728-.216,1.456-.318,2.183q-.33,2.274-.546,4.548c-.159,1.6-.284,3.172-.353,4.7-.091,1.785-.114,3.514-.068,5.162v1.137c0,.762.08,1.546.125,2.354s.114,1.626.182,2.456.136,1.581.216,2.388.159,1.581.25,2.377c.364,3.218.819,6.6,1.342,10.029,3.559,23.163,10.143,49.111,10.143,49.111s.33,1.046.728,2.8h-2.57c-16,.262-32.032.716-48.076,1.262l-2.888.091h-.955C433.854,689.4,399.742,691,365.72,692.15l-8.312.273H356.2q-17.739.568-35.443.876H317.53a19.536,19.536,0,0,1,2.843-3.218,18.834,18.834,0,0,1,2.8-2.183,63.383,63.383,0,0,1,17.454-7.493,14.318,14.318,0,0,1,3.991-.478l7.96.159H353.8l12.247.239,104.828,2.07h.182a2.882,2.882,0,0,0,.819-.171,18.375,18.375,0,0,0,3.559-1.285,12.406,12.406,0,0,0,7.357-9.449c0-.352.091-.728.114-1.137a13.4,13.4,0,0,0,0-1.66,5.642,5.642,0,0,0-.091-1.217c-.091-.421-.114-.921-.193-1.4-2.524-14.111-6.823-57.548-6.823-57.548s0-1.853.1-4.969v-1.433c0-.694.08-1.444.125-2.274,0-.489.068-.989.1-1.512.057-.762.125-1.546.193-2.365a.665.665,0,0,1,0-.148q.068-.773.136-1.569v-.171c.2-2.092.478-4.344.819-6.7,2.365-16.465,8.278-37.968,23.015-46.621,7.7-4.548,12.849-5.5,16.306-4.719,5.322,1.217,6.584,6.7,6.823,10.154v.66a16.6,16.6,0,0,1,.159,2.217Z" transform="translate(-39.568 -372.833)"/>
      <path id="Path_4263" data-name="Path 4263" class="cls-4" d="M315.165,679.24a1.618,1.618,0,0,1-.125.375h0a1,1,0,0,1,.136-.375Z" transform="translate(-39.909 -353.168)"/>
      <path id="Path_4264" data-name="Path 4264" class="cls-4" d="M336.041,507.2l.125.375h-.841l-.125-.375Z" transform="translate(-16.723 -181.14)"/>
      <path id="Path_4265" data-name="Path 4265" class="cls-4" d="M439.4,679.55Z" transform="translate(-22.86 -353.126)"/>
      <path id="Path_4266" data-name="Path 4266" class="cls-6" d="M521.129,548.225s-14.839,40.549-14.123,64.814,12.3,69.863,12.3,69.863.5,1.6,1.035,4.162c-16,.261-32.032.716-48.076,1.262l-2.888.091h-.955c-34.113,1.205-68.226,2.809-102.247,3.957l-8.312.273H356.66q-17.739.569-35.443.876H314.19a20.467,20.467,0,0,1,6.243-6.561l.307-.216a63.294,63.294,0,0,1,17.443-7.334,14.318,14.318,0,0,1,3.991-.478l10.507.2h1.228l12.656.25,102.054,2.035a17.156,17.156,0,0,0,4.219-1.376,12.093,12.093,0,0,0,1.3-.694h0a13.647,13.647,0,0,0,3.411-2.786c2.149-2.445,3.582-6.083,2.627-11.371-2.536-14.111-6.823-57.548-6.823-57.548s-.728-52.852,24.607-67.691c10.234-5.993,15.987-5.788,19.205-3.411a2.127,2.127,0,0,1,.273.2C521.868,540.322,521.129,548.225,521.129,548.225Z" transform="translate(-40.026 -372.944)"/>
      <path id="Path_4267" data-name="Path 4267" class="cls-3" d="M138.827,634.61l-.409,4.241-2.479,26.028q-5.811-1.217-11.6-2.547l2.9-23.663.978-8.039Z" transform="translate(-66.053 -359.833)"/>
      <path id="Path_4268" data-name="Path 4268" class="cls-7" d="M55.12,470.591l61.926-131.8L366.49,358.246l22.992,112.345Z" transform="translate(-55.12 -204.228)"/>
      <path id="Path_4269" data-name="Path 4269" class="cls-8" d="M55.12,466.2V454.7H389.482v16.806Z" transform="translate(-55.12 -188.337)"/>
      <path id="Path_4270" data-name="Path 4270" class="cls-9" d="M156.3,617.576l149.6,3.047a2.07,2.07,0,0,0,2.013-2.718L284.586,555,183.829,553.08l-29.8,61.017a2.479,2.479,0,0,0,2.274,3.48Z" transform="translate(-62.012 -370.464)"/>
      <path id="Path_4271" data-name="Path 4271" class="cls-10" d="M156.3,617.576l149.6,3.047a2.07,2.07,0,0,0,2.013-2.718L284.586,555,183.829,553.08l-29.8,61.017a2.479,2.479,0,0,0,2.274,3.48Z" transform="translate(-62.012 -370.464)"/>
      <path id="Path_4272" data-name="Path 4272" class="cls-9" d="M154.94,615.256l151.142,3.184-20.547-62.233a5.128,5.128,0,0,0-4.764-3.525l-97.13-1.842Z" transform="translate(-61.858 -370.771)"/>
      <path id="Path_4273" data-name="Path 4273" class="cls-11" d="M165.972,600.245l18.114-39.855a4.833,4.833,0,0,1,4.389-2.82h45.017a4.81,4.81,0,0,1,4.81,4.81v43.062a4.821,4.821,0,0,1-5.049,4.81l-63.143-3.218a4.81,4.81,0,0,1-4.139-6.788Z" transform="translate(-60.404 -369.849)"/>
      <path id="Path_4274" data-name="Path 4274" class="cls-12" d="M244,593.813l.773-22.742a3.491,3.491,0,0,1,3.479-3.411h13.3a3.48,3.48,0,0,1,3.411,2.888l3.912,22.617a3.491,3.491,0,0,1-3.411,4.082l-18,.159A3.48,3.48,0,0,1,244,593.813Z" transform="translate(-49.648 -368.465)"/>
      <path id="Path_4275" data-name="Path 4275" class="cls-11" d="M89.652,461.088l50.157-4.185a3.411,3.411,0,0,1,3.57,2.013l47.428,107.353-26.471,59.425c.83-1.865,1.444,12.644-4.548.068L84.41,468.513C83.4,466.41,87.3,461.384,89.652,461.088Z" transform="translate(-71.549 -383.653)"/>
      <path id="Path_4276" data-name="Path 4276" class="cls-10" d="M89.652,461.088l50.157-4.185a3.411,3.411,0,0,1,3.57,2.013l47.428,107.353-26.471,59.425c.83-1.865,1.444,12.644-4.548.068L84.41,468.513C83.4,466.41,87.3,461.384,89.652,461.088Z" transform="translate(-71.549 -383.653)"/>
      <path id="Path_4277" data-name="Path 4277" class="cls-11" d="M89.366,461.4l52.7-6.732a3.411,3.411,0,0,1,3.57,2.013L193.08,564.029l-28.7,64.416L86.671,466.273a3.411,3.411,0,0,1,2.695-4.878Z" transform="translate(-71.264 -383.961)"/>
      <path id="Path_4278" data-name="Path 4278" class="cls-13" d="M100.921,467.941l38.1-5.936a3.411,3.411,0,0,1,3.7,2.092l39.912,97.631a3.093,3.093,0,0,1-.068,2.5l-18.273,38.184a3.082,3.082,0,0,1-5.583,0L98.34,472.785a3.411,3.411,0,0,1,2.581-4.844Z" transform="translate(-69.663 -382.956)"/>
      <path id="Path_4279" data-name="Path 4279" class="cls-14" d="M439.4,679.55Z" transform="translate(-22.86 -353.126)"/>
      <path id="Path_4280" data-name="Path 4280" class="cls-15" d="M495.305,697.448s-.785,1.3-1.933,3.411l-.1.193c-1.023,1.819-2.274,4.207-3.548,6.823l-2.888.091h-.955c-34.113,1.205-68.226,2.809-102.247,3.957l-8.312.273h-1.205q-17.739.569-35.443.876h-7.027l-5.276.068q-8.221.08-16.408.091h-6.5c-20.036-.057-39.992-.5-59.822-1.535l-2.206-.125c3.9-8.483,10.871-22.389,16.533-26.835,4.378-3.411,35.818-7.2,64.735-9.972l3.047-.3h.068l8.073-.75c11.064-1.012,21.1-1.831,28.268-2.388l.659-.057-3.73-12.508-5.4-18.193,1.535-15.283.125-1.228h-.171a10.041,10.041,0,0,1-4.548-.569l-54-1.865h-.978l-20.741-.739h0c-11.121-.4-19.024-.694-19.331-.75a4.909,4.909,0,0,1-.955-.262,4.3,4.3,0,0,1-1.319-.8,5.276,5.276,0,0,1-1.137-1.365h-.728l-2.934.193-1.49.1c-.057-.159-.1-.318-.159-.466-.136-.443-.273-.864-.4-1.3h-.785l-10.234-.216h-.182s-26.4,2.013-40.2-3.013h0c-5.06-1.842-8.426-4.628-8.164-8.8a9.518,9.518,0,0,1,.591-2.774c-4.435-8.289,17.227-23.413,33.738-19.24a29.223,29.223,0,0,0,13.713.569,17.646,17.646,0,0,0,6.823-3.1c.2-.148.387-.3.557-.443-.273-.171-.557-.318-.819-.455a12.712,12.712,0,0,0-3.6-1.251l4.48-1.308h.068s15.919-1.456,26.278-2.035h.068c3.082-.159,5.685-.261,7.232-.216,6.823.193,20.115-4.685,20.684-6.186s6.641,0,6.641,0l5.31-2.07c5.31-2.058,8.346-4.867,8.346-6.936s4.742-4.31,4.742-4.31c2.138-3.593,6.334-7.448,10.734-10.859,3.809-2.945,7.766-5.572,10.7-7.4a215.742,215.742,0,0,1,4.548-21.878c2.013-6.72,8.255-11.7,10.5-13.315l.819-.546a58.956,58.956,0,0,0-2.5-8.324,6.413,6.413,0,0,0-.273-.682c-.227-.534-.466-1.057-.7-1.546l-.353-.682c-.58.114-1.137.216-1.751.3a39.8,39.8,0,0,1-5.685.421,39.014,39.014,0,0,1-37.695-28.427s0,0,0-.068a38.5,38.5,0,0,1-1.365-10.234,37.432,37.432,0,0,1,1.3-9.824h0c.171-.682.375-1.353.591-2.024a1.81,1.81,0,0,1,.08-.227c.1-.307.2-.625.318-.932a39.987,39.987,0,0,1-5.083.443h-1.137a24.06,24.06,0,0,1-9.517-1.581h0a12.917,12.917,0,0,1-2.1-1.137.273.273,0,0,1-.091-.068,10.666,10.666,0,0,1-2.342-1.854,12.053,12.053,0,0,0,4.628-8.051c.307-2.456-.1-5.2,1.365-7.2a10.324,10.324,0,0,1,2.661-2.274c6.049-4.128,10.848-9.79,16.317-14.668s12.087-9.1,19.444-9.324c9.87-.307,18.557,6.561,28.336,7.857,3,.4,6.083.262,9.017,1.012A31.043,31.043,0,0,1,381.642,406a22.98,22.98,0,0,1,6.527,5.549,19.57,19.57,0,0,1,2.661,6.356,70.29,70.29,0,0,1,2.274,14.566c.262,5.151,0,10.336.546,15.453a26.505,26.505,0,0,0,4.366,12.428h.148a17.063,17.063,0,0,0,1.41,1.728c-.967.307-1.933.58-2.922.819a46.127,46.127,0,0,1-4.992.989,14.549,14.549,0,0,1-2.331.193,6.948,6.948,0,0,1-1.615-.148l1,.671,2.775,1.865h0l1.046.694,2.1,1.4c.478-1.4,1.137-1.774,1.9-1.683,1.546-1.456,3.855,1.694,3.855,1.694,1.353,2.593,4.992,5.174,8.21,7.084a64.878,64.878,0,0,0,5.833,3.047c42.493,25.323,39.8,63.211,42.3,66.213s2.661,13.873,2.661,13.873,6.265,36.944,9.1,40.139.182,4.31,2.649,7.88,1.9,13.122,1.9,13.122,1.706,22.5,7.778,27.381c5.447,4.378,12.724,41.208,14.168,48.736Z" transform="translate(-57.479 -392.481)"/>
      <path id="Path_4281" data-name="Path 4281" class="cls-16" d="M245.87,556.44s-5.9,9.29-22.617,5.015-38.832,11.894-32.521,19.876,47.007-2.274,47.007-2.274l15.612-3.161-1.023-13Z" transform="translate(-57.102 -370.004)"/>
      <path id="Path_4282" data-name="Path 4282" class="cls-5" d="M245.87,556.44s-5.9,9.29-22.617,5.015-38.832,11.894-32.521,19.876,47.007-2.274,47.007-2.274l15.612-3.161-1.023-13Z" transform="translate(-57.102 -370.004)"/>
      <path id="Path_4283" data-name="Path 4283" class="cls-17" d="M245.281,556.045l-7.243-.375-4.457,1.3s14.123,2.047,10.234,21.184l15.226-.921Z" transform="translate(-51.077 -370.109)"/>
      <path id="Path_4284" data-name="Path 4284" class="cls-5" d="M245.281,556.045l-7.243-.375-4.457,1.3s14.123,2.047,10.234,21.184l15.226-.921Z" transform="translate(-51.077 -370.109)"/>
      <path id="Path_4285" data-name="Path 4285" class="cls-18" d="M340.623,518.36s-19.876,11.371-25.46,20.82c0,0-4.639,2.274-4.639,4.276s-2.979,4.821-8.176,6.823l-5.208,2.047s-5.947-1.49-6.5,0-13.554,6.311-20.252,6.129-32.885,2.274-32.885,2.274a23.276,23.276,0,0,1,13.19,25.823l61.881-2.593,23.4-5.208L349.731,565Z" transform="translate(-50.539 -375.224)"/>
      <path id="Path_4286" data-name="Path 4286" class="cls-5" d="M340.623,518.36s-19.876,11.371-25.46,20.82c0,0-4.639,2.274-4.639,4.276s-2.979,4.821-8.176,6.823l-5.208,2.047s-5.947-1.49-6.5,0-13.554,6.311-20.252,6.129-32.885,2.274-32.885,2.274a23.276,23.276,0,0,1,13.19,25.823l61.881-2.593,23.4-5.208L349.731,565Z" transform="translate(-50.539 -375.224)"/>
      <path id="Path_4287" data-name="Path 4287" class="cls-16" d="M256,594.284l-8.756-.171-10.234-.216s-48.326,3.718-47.383-11.735,38.115-20.877,43.289-16.442c3.923,3.354,13,6.061,17.136,7.164,1.319.352,2.126.546,2.126.546Z" transform="translate(-57.104 -368.936)"/>
      <path id="Path_4288" data-name="Path 4288" class="cls-5" d="M249.22,593.236l-8.756-.171c-3.491-12,.557-18.6,2.854-21.2,1.319.353,2.126.546,2.126.546Z" transform="translate(-50.32 -367.888)"/>
      <path id="Path_4289" data-name="Path 4289" class="cls-17" d="M255.042,594.063l-9.1.637-4.321.3c-5.947-17.466,3.661-24.345,3.661-24.345h2.843l4.651.557Z" transform="translate(-50.24 -368.055)"/>
      <path id="Path_4290" data-name="Path 4290" class="cls-16" d="M352.753,494.7l-10.78,20.468s-1.649-20.729-6.447-30.5c-1.228-2.5-2.661-4.275-4.332-4.81-4.548-1.433,21.6-30.1,21.6-30.1.876.182,5.879,3.411,12.008,7.584,6.743,4.548,14.862,10.1,20.32,13.645C395.485,477.6,352.753,494.7,352.753,494.7Z" transform="translate(-37.767 -384.629)"/>
      <path id="Path_4291" data-name="Path 4291" class="cls-18" d="M339.826,489.62s-8.665,5.56-11.075,13.736-4.651,22.856-4.651,22.856,3.912,35.113,5.947,36.785,9.779,36.785,9.779,36.785l7.5-5.015-9.847-44.222S344.033,493.725,339.826,489.62Z" transform="translate(-38.667 -379.164)"/>
      <path id="Path_4292" data-name="Path 4292" class="cls-5" d="M339.826,489.62s-8.665,5.56-11.075,13.736-4.651,22.856-4.651,22.856,3.912,35.113,5.947,36.785,9.779,36.785,9.779,36.785l7.5-5.015-9.847-44.222S344.033,493.725,339.826,489.62Z" transform="translate(-38.667 -379.164)"/>
      <path id="Path_4293" data-name="Path 4293" class="cls-17" d="M358.352,394.718H315.04l7.016-68.328h36.3Z" transform="translate(-19.487 -205.928)"/>
      <path id="Path_4294" data-name="Path 4294" class="cls-19" d="M282.895,679.24h.523l-.978.375Z" transform="translate(-44.378 -353.168)"/>
      <path id="Path_4295" data-name="Path 4295" class="cls-19" d="M370.637,653.909l-8.471,3.252-1.137.421-30.5,11.723L318.9,673.774l-15.828,6.083h-6.459c-20.036-.057-39.992-.5-59.822-1.535,3.843-8.426,10.564-21.912,16.044-26.267,4.275-3.411,34.863-7.1,63.1-9.87,3.525-.341,7-.671,10.393-.978l.807-.08c11.212-1.023,21.355-1.853,28.427-2.422l1.137-.091,8.892-.682.932-.932,1.137,4.867.944,3.889Z" transform="translate(-50.637 -358.959)"/>
      <path id="Path_4296" data-name="Path 4296" class="cls-5" d="M282.895,679.24h.523l-.978.375Z" transform="translate(-44.378 -353.168)"/>
      <path id="Path_4297" data-name="Path 4297" class="cls-5" d="M370.637,653.909l-8.471,3.252-1.137.421-30.5,11.723L318.9,673.774l-15.828,6.083h-6.459c-20.036-.057-39.992-.5-59.822-1.535,3.843-8.426,10.564-21.912,16.044-26.267,4.275-3.411,34.863-7.1,63.1-9.87,3.525-.341,7-.671,10.393-.978l.807-.08c11.212-1.023,21.355-1.853,28.427-2.422l1.137-.091,8.892-.682.932-.932,1.137,4.867.944,3.889Z" transform="translate(-50.637 -358.959)"/>
      <path id="Path_4298" data-name="Path 4298" class="cls-19" d="M282.895,679.24h.523l-.978.375Z" transform="translate(-44.378 -353.168)"/>
      <path id="Path_4299" data-name="Path 4299" class="cls-19" d="M315.165,679.24a1.618,1.618,0,0,1-.125.375h0a1,1,0,0,1,.136-.375Z" transform="translate(-39.909 -353.168)"/>
      <path id="Path_4300" data-name="Path 4300" class="cls-19" d="M336.167,507.575h-.841l-.125-.375h.841Z" transform="translate(-16.723 -181.14)"/>
      <path id="Path_4301" data-name="Path 4301" class="cls-19" d="M370.668,641.438l-.705,23.4v1.387l-.352,11.587-8.312.273h-1.205q-17.739.569-35.443.876h-7.027l-5.276.068q-8.221.08-16.408.091H289.4c5.913-3.661,13.565-7.7,21.8-11.735,3.7-1.819,7.528-3.627,11.371-5.413,10.234-4.753,20.593-9.245,29.041-12.826l1.08-.455c3.275-1.387,6.243-2.627,8.778-3.673,5.481-2.274,8.96-3.639,9.2-3.73Z" transform="translate(-43.424 -358.371)"/>
      <path id="Path_4302" data-name="Path 4302" class="cls-5" d="M294.248,557.419c2.126,4.435,4.321,8.96,7.835,12.417.557.546,1.524,1.046,2.024.443a1.432,1.432,0,0,0,.216-.841,10.847,10.847,0,0,0-2.047-5.8c-1.137-1.751-2.479-3.343-3.491-5.162s-2.172-5.322-4.446-5.8C291.417,552.064,293.6,556.078,294.248,557.419Z" transform="translate(-42.951 -370.528)"/>
      <path id="Path_4303" data-name="Path 4303" class="cls-5" d="M364.761,457.314c-.159.569-.33,1.137-.512,1.683a38.309,38.309,0,0,1-28.723,25.641c-1.228-2.5-2.661-4.275-4.332-4.81-4.548-1.433,21.6-30.1,21.6-30.1C353.629,449.912,358.632,453.2,364.761,457.314Z" transform="translate(-37.767 -384.633)"/>
      <path id="Path_4304" data-name="Path 4304" class="cls-16" d="M371.079,451.4a38.195,38.195,0,1,1-11.187-27.088A38.275,38.275,0,0,1,371.079,451.4Z" transform="translate(-42.721 -389.65)"/>
      <path id="Path_4305" data-name="Path 4305" class="cls-19" d="M341.923,496.79s-7.96,9.665-6.686,15.987h9.654l7.061-7.96Z" transform="translate(-37.159 -378.181)"/>
      <path id="Path_4306" data-name="Path 4306" class="cls-5" d="M369.66,460.9,339.3,502.643s7.8,11.155,11.519,11.712,24.925-49.373,24.925-49.373Z" transform="translate(-36.583 -383.101)"/>
      <path id="Path_4307" data-name="Path 4307" class="cls-17" d="M370,460.24l-30.372,41.8s7.8,11.144,11.519,11.7,24.925-49.361,24.925-49.361Z" transform="translate(-36.538 -383.192)"/>
      <path id="Path_4308" data-name="Path 4308" class="cls-19" d="M336.639,507.26s-1.49,23.4-2.979,28.052,0,47.371,0,47.371L347.6,576.93l-2.422-65.588Z" transform="translate(-37.447 -376.746)"/>
      <path id="Path_4309" data-name="Path 4309" class="cls-5" d="M336.041,507.2l.125.375h-.841l-.125-.375Z" transform="translate(-16.723 -181.14)"/>
      <path id="Path_4310" data-name="Path 4310" class="cls-5" d="M439.4,679.55Z" transform="translate(-22.86 -353.126)"/>
      <path id="Path_4311" data-name="Path 4311" class="cls-5" d="M470.925,689.084s-.262.432-.694,1.137-.9,1.581-1.5,2.695a.861.861,0,0,0-.08.136c-.841,1.558-1.842,3.468-2.854,5.549-34.113,1.205-68.226,2.809-102.247,3.957l-8.312.273h-1.205l-3.57-12.053v-.125l-.375-1.273-2.274-7.573-2.274-7.7-2.354-8.21-.864-2.979-.227-.75-3.707-12.622-5.026-17.136,1.626-16.351h0l.114-1.24,1.467-14.646.2-4.344h0l.114-2.274v-.648h0l.25-5.276.75-15.692.387-8.028h0l.068-1.217h0l.773-16.113L341.308,540l1.137-3.275,2.524-7.607.546-1.876h0c.8-2.854,2.4-8.494,3.9-13.918h0l.136-.466h0l.1-.352,1.069-3.855,1.33-4.946c.5-1.9.83-3.252.91-3.718.125-.807,2.274-4.378,5.094-9.1h0c5.685-9.4,14.236-23.242,15.214-27.882a.506.506,0,0,0,0-.114,5.682,5.682,0,0,1,.239-.83c.466-1.387,1.137-1.763,1.842-1.672a2.274,2.274,0,0,1,.9.352,7.151,7.151,0,0,1,1.774,1.706c1.33,2.558,4.89,5.117,8.039,7.016l.614.352.364.216c2.615,1.49,4.73,2.445,4.73,2.445,41.618,25.084,39.025,62.62,41.436,65.588s2.6,13.759,2.6,13.759,6.129,36.6,8.915,39.8.193,4.275,2.6,7.812,1.853,12.883,1.853,12.883,1.672,22.287,7.619,27.12S470.925,689.084,470.925,689.084Z" transform="translate(-37.398 -383.173)"/>
      <path id="Path_4312" data-name="Path 4312" class="cls-18" d="M471.9,688.769l-.5.864h0c-.4.705-1.035,1.819-1.8,3.218l-.08.159c-.864,1.6-1.888,3.548-2.9,5.685h-.955c-34.113,1.205-68.226,2.809-102.247,3.957l-8.312.273-3.559-12.1V690.7l-.375-1.273-2.354-7.96-2.274-7.732-2.274-7.721-.9-3.093h0l-3.889-13.281-5.14-17.5,1.421-14.225.193-1.9,1.569-16.158h0l.6-12.6.739-15.226.193-3.991.216-4.617.091-1.944.739-15.214,2.195-6.572.944-2.831,2.206-6.652.466-1.41s2.126-7.471,4.185-14.873c.08-.273.159-.546.227-.819.182-.637.353-1.274.534-1.9h0c.182-.637.352-1.262.512-1.888.58-2.07,1.137-4,1.524-5.594.557-2.081.932-3.593,1.012-4.082.125-.807,2.274-4.48,5.2-9.256,5.378-8.892,13.224-21.6,14.885-26.881a8.526,8.526,0,0,0,.227-.83h0a4.332,4.332,0,0,1,.989-2.274c1.524-1.467,3.786,1.683,3.786,1.683,1.33,2.558,4.889,5.128,8.039,7.016a60.281,60.281,0,0,0,5.685,3.013c41.618,25.084,39.025,62.62,41.436,65.6s2.6,13.747,2.6,13.747,6.129,36.6,8.915,39.8.193,4.276,2.6,7.8,1.853,13.008,1.853,13.008,1.672,22.3,7.619,27.131S471.9,688.769,471.9,688.769Z" transform="translate(-37.262 -383.222)"/>
      <path id="Path_4313" data-name="Path 4313" class="cls-5" d="M386.08,469.738c-4.082,5.936-10.734,16.374-12.508,23.879,0,0-6.5,6.7-8.926,6.322s2.274,5.015,2.274,5.015l-25.55,35.409L345,529.481s7.619-26.756,7.96-29.166,18.842-30.031,20.308-36.978c1.137-5.56,4.776-.557,4.776-.557C379.36,465.281,382.919,467.862,386.08,469.738Z" transform="translate(-36.3 -383.127)"/>
      <path id="Path_4314" data-name="Path 4314" class="cls-18" d="M386.08,469.1c-4.082,5.924-10.734,16.374-12.508,23.822,0,0-6.5,6.686-8.926,6.322s2.274,5.015,2.274,5.015l-25.55,35.409L345,528.782s7.619-26.756,7.96-29.178,18.842-30.019,20.308-36.967c1.137-5.572,4.776-.557,4.776-.557C379.36,464.638,382.919,467.2,386.08,469.1Z" transform="translate(-36.3 -383.224)"/>
      <path id="Path_4315" data-name="Path 4315" class="cls-5" d="M421.193,538.384c.193,8.119-11.7,19.206-12.258,19.854s-36.978,30.7-36.978,30.7L345.8,609a22.22,22.22,0,0,1-10.234,4.73l1.785-17.943,1.762-36.387c4.082-4.548,8.039-9.324,8.13-10.848.182-3.15,6.823-6.5,6.823-6.5s4.651-3.9,3.9-6.129,2.467-12.906,2.467-12.906c1.672-30.292,32.885-33.26,32.885-33.26s15.055,5.947,25.641,12.258S421.011,530.276,421.193,538.384Z" transform="translate(-37.095 -379.146)"/>
      <path id="Path_4316" data-name="Path 4316" class="cls-5" d="M254.456,594.063l-9.1.637c-3.843-6.538,1.444-24.05,1.444-24.05h.739l4.651.557Z" transform="translate(-49.654 -368.055)"/>
      <path id="Path_4317" data-name="Path 4317" class="cls-18" d="M405.778,488.13s-31.213,2.979-32.885,33.26c0,0-3.161,10.6-2.422,12.826s-3.9,6.129-3.9,6.129-6.686,3.343-6.823,6.5-17.056,20.4-17.056,20.4-7.05,8.028-23.4,8.869-23.97,5.845-23.97,5.845-7.96-5.572-13.759-3.9-34,3.9-34,3.9-7.493,24.834,1.853,26.392c1.137.182,93.128,3.343,93.128,3.343s6.288,2.968,15.76-4.276,26.153-20.07,26.153-20.07,36.387-30.1,36.978-30.7,12.508-11.746,12.258-19.854,8.369-30.042-2.274-36.387S405.778,488.13,405.778,488.13Z" transform="translate(-49.549 -379.368)"/>
      <path id="Path_4318" data-name="Path 4318" class="cls-5" d="M370.858,451.419a38.194,38.194,0,0,1-1.876,11.86,15.994,15.994,0,0,1-1.41-1.944q-2.661-4.094-5.333-8.187a22.128,22.128,0,0,0-5.424-6.39c-2.274-1.615-5.5-2.274-7.96-.841-2.16,1.274-3.218,3.878-3.411,6.379a72.418,72.418,0,0,0,.193,7.528,4.15,4.15,0,0,1-.694,2.718,4.457,4.457,0,0,1-2.934,1.137l-3.411.466a2.445,2.445,0,0,1-3.138-1.558c-2.831-5.128-4.787-11.5-10.1-13.964-3.275-1.524-7.6-1.421-9.7-4.355-1.433-2-1.239-4.719-.819-7.152a56.454,56.454,0,0,1,1.99-8.1c.6-1.865,1.944-5.583-1.035-5.958-2.024-.262-4.821,1.888-5.845,3.411s-1.274,3.559-2,5.3a12.656,12.656,0,0,1-6.993,6.493,20.035,20.035,0,0,1-4.821,1.307,38.275,38.275,0,0,1,74.707,11.758Z" transform="translate(-42.5 -389.665)"/>
      <path id="Path_4319" data-name="Path 4319" class="cls-18" d="M312.3,427.895c-1.035,1.581-1.274,3.548-2,5.287a12.667,12.667,0,0,1-6.982,6.493,26.868,26.868,0,0,1-9.586,1.706c-5.3.159-11.212-.648-14.623-4.708a11.974,11.974,0,0,0,4.548-7.96c.3-2.433-.1-5.151,1.342-7.141a10.232,10.232,0,0,1,2.593-2.195c5.936-4.094,10.62-9.711,15.988-14.532s11.837-9.017,19.046-9.245c9.654-.3,18.193,6.5,27.745,7.789,2.934.4,5.958.262,8.824,1a30.088,30.088,0,0,1,8.972,4.548,22.96,22.96,0,0,1,6.4,5.5,19.8,19.8,0,0,1,2.6,6.3,70.344,70.344,0,0,1,2.274,14.43c.262,5.094,0,10.234.546,15.305s2.16,10.234,5.629,13.986a50.028,50.028,0,0,1-7.744,1.785,8.062,8.062,0,0,1-4.924-.386,8.677,8.677,0,0,1-3-3.241l-5.333-8.187a22.128,22.128,0,0,0-5.424-6.391c-2.274-1.615-5.5-2.274-7.96-.841-2.16,1.273-3.207,3.878-3.411,6.379a72.427,72.427,0,0,0,.193,7.528,4.151,4.151,0,0,1-.694,2.718,4.469,4.469,0,0,1-2.945,1.137l-3.411.466a2.445,2.445,0,0,1-3.138-1.558c-2.831-5.14-4.787-11.5-10.1-13.964-3.275-1.524-7.6-1.421-9.7-4.355-1.433-2-1.239-4.719-.819-7.152a56.46,56.46,0,0,1,1.99-8.1c.6-1.865,1.944-5.583-1.035-5.97C316.122,424.119,313.325,426.269,312.3,427.895Z" transform="translate(-44.835 -392.055)"/>
      <path id="Path_4320" data-name="Path 4320" class="cls-5" d="M386.4,503.212c2.877-.4,5.9-.659,8.6.443-7.016-2.877-18.432-1.774-24.823,2.183C370.75,507.169,384.168,503.519,386.4,503.212Z" transform="translate(-32.351 -377.462)"/>
      <path id="Path_4321" data-name="Path 4321" class="cls-5" d="M389.686,511.685c6.993.466,14.214,1.444,20.843-.83-5.549-1.91-11.655-.705-17.5-1.285-4.662-.466-9.4-2.081-13.952-.9-1.9.489-8.892,3.707-8.414,6.061A37.785,37.785,0,0,1,389.686,511.685Z" transform="translate(-32.287 -376.611)"/>
      <path id="Path_4322" data-name="Path 4322" class="cls-5" d="M371.1,524.854a10.507,10.507,0,0,1,4.344.455,66.436,66.436,0,0,0,16.01,1.762c4.116,0,8.551-.625,11.553-3.411Z" transform="translate(-32.224 -374.497)"/>
      <path id="Path_4323" data-name="Path 4323" class="cls-5" d="M351.29,556.443a32.043,32.043,0,0,0,15.635,2.843,69.014,69.014,0,0,0,15.737-3.025c2.274-.671,4.753-1.512,6.083-3.491Z" transform="translate(-34.94 -370.507)"/>
      <path id="Path_4324" data-name="Path 4324" class="cls-5" d="M395.986,560.584a83.53,83.53,0,0,0,34.7,10.746q-9.245-3.707-18.626-7.016a134.888,134.888,0,0,0-19.615-5.253,9.972,9.972,0,0,1,3.536,1.524Z" transform="translate(-29.297 -369.644)"/>
      <path id="Path_4325" data-name="Path 4325" class="cls-5" d="M411.845,555.1a29.327,29.327,0,0,0,6.47.352c1.137,0,2.49-.159,3.161-1.137-4.878.2-9.688-1.046-14.452-2.126-1.353-.318-3.786-1.069-4.924-.262C404.26,553.47,409.116,554.55,411.845,555.1Z" transform="translate(-27.974 -370.672)"/>
      <path id="Path_4326" data-name="Path 4326" class="cls-5" d="M437.378,646.3c2.558,4.389,5.151,8.824,8.687,12.508a63.749,63.749,0,0,0,6.516,5.594c-4.219-10.757-8.505-21.6-15.26-31.009-1.706-2.365-4.253-5.754-7.357-6.186-.887,2.627,1.353,7.277,2.433,9.745a93.79,93.79,0,0,0,4.98,9.347Z" transform="translate(-24.182 -360.301)"/>
      <path id="Path_4327" data-name="Path 4327" class="cls-5" d="M327.147,573.836c-.193,1.819-.341,3.832.716,5.322a3.843,3.843,0,0,0,2.16,1.49c-.546-.136-1.137-5.481-1.273-6.209-.25-1.49,0-4.275-1.057-5.378C327.419,570.629,327.317,572.244,327.147,573.836Z" transform="translate(-38.268 -368.273)"/>
      <path id="Path_4328" data-name="Path 4328" class="cls-5" d="M332.445,571.776a12.122,12.122,0,0,0,5.685,7.7c-1.99-2.456-2.638-5.686-4.366-8.38-.557-.864-1.205-2.1-2.274-2.274q.4,1.5.955,2.956Z" transform="translate(-37.654 -368.306)"/>
      <path id="Path_4329" data-name="Path 4329" class="cls-5" d="M329.581,542.817a14.2,14.2,0,0,1-11.257,1.421c-.853-.25-2.843-1.137-2.365-2.388s2.786-.387,3.73-.273l4.946.625C325.544,542.317,328.842,543.249,329.581,542.817Z" transform="translate(-39.793 -372.095)"/>
      <path id="Path_4330" data-name="Path 4330" class="cls-5" d="M313.21,549.766c2.331-.3,4.423,1.319,6.607,2.195a20.125,20.125,0,0,0,7.5,1c1.274,0,2.718-.1,3.5-1.137C324.9,550.471,319.362,548.982,313.21,549.766Z" transform="translate(-40.16 -370.948)"/>
      <path id="Path_4331" data-name="Path 4331" class="cls-17" d="M319.97,317.58h.375l2.786,10.018-3.161,3.366Z" transform="translate(-18.811 -207.136)"/>
      <g id="Group_2782" data-name="Group 2782" class="cls-20" transform="translate(234.434 30.021)">
        <path id="Path_4332" data-name="Path 4332" d="M283.812,419.76a23.465,23.465,0,0,0-.512,4.946,10.93,10.93,0,0,0,.307-1.592C283.743,422.023,283.732,420.874,283.812,419.76Z" transform="translate(-278.695 -418.762)"/>
        <path id="Path_4333" data-name="Path 4333" d="M318.286,421.177a2,2,0,0,1,1.865,2.274c.534-1.888.83-4.207-1.49-4.548-2.024-.25-4.821,1.9-5.845,3.468s-1.274,3.559-2,5.3a12.633,12.633,0,0,1-6.982,6.493,26.868,26.868,0,0,1-9.586,1.706c-4.821.148-10.154-.523-13.645-3.707a11.567,11.567,0,0,1-1.353,1.228c3.411,4.059,9.324,4.867,14.634,4.708a26.858,26.858,0,0,0,9.574-1.706,12.69,12.69,0,0,0,6.993-6.493c.728-1.74.955-3.707,1.99-5.288S316.262,420.926,318.286,421.177Z" transform="translate(-279.25 -418.882)"/>
        <path id="Path_4334" data-name="Path 4334" d="M370.029,458.152a8.062,8.062,0,0,1-4.924-.387,8.778,8.778,0,0,1-3-3.241q-2.661-4.094-5.333-8.187a21.946,21.946,0,0,0-5.413-6.39c-2.274-1.626-5.515-2.274-7.96-.841-2.172,1.274-3.218,3.878-3.468,6.379v.307a7.186,7.186,0,0,1,3.1-4.457c2.422-1.433,5.685-.773,7.96.841a22.31,22.31,0,0,1,5.424,6.39q2.661,4.094,5.333,8.187a8.585,8.585,0,0,0,3,3.241,8.028,8.028,0,0,0,4.912.387,50.42,50.42,0,0,0,7.755-1.785,16.64,16.64,0,0,1-1.387-1.717,48.812,48.812,0,0,1-6,1.274Z" transform="translate(-270.931 -416.219)"/>
        <path id="Path_4335" data-name="Path 4335" d="M343.22,456.551a4.549,4.549,0,0,1-2.934,1.137l-3.411.466a2.445,2.445,0,0,1-3.138-1.558c-2.831-5.14-4.787-11.5-10.1-13.964-3.275-1.524-7.584-1.421-9.688-4.355a8.369,8.369,0,0,1-1.012-5.958c-.057.352-.136.694-.193,1.035-.409,2.433-.614,5.151.83,7.152,2.1,2.934,6.425,2.831,9.688,4.355,5.322,2.467,7.277,8.824,10.109,13.964a3.253,3.253,0,0,0,1.308,1.558,3.333,3.333,0,0,0,1.831.08l3.411-.466a4.458,4.458,0,0,0,2.934-1.137,4.082,4.082,0,0,0,.694-2.718h0A3.415,3.415,0,0,1,343.22,456.551Z" transform="translate(-274.699 -417.04)"/>
      </g>
    </g>
  </g>
</svg>
