<svg xmlns="http://www.w3.org/2000/svg" xmlns:xlink="http://www.w3.org/1999/xlink" viewBox="0 0 300 300">
  <defs>
    <style>
      .cls-1 {
        clip-path: url(#clip-img-5);
      }

      .cls-2 {
        fill: #8499f0;
      }

      .cls-3 {
        opacity: 0.45;
      }

      .cls-4 {
        fill: #23359e;
      }

      .cls-5 {
        fill: url(#linear-gradient);
      }

      .cls-6 {
        fill: #94cc85;
      }

      .cls-7 {
        fill: url(#linear-gradient-2);
      }

      .cls-8 {
        fill: #57b156;
      }

      .cls-9 {
        fill: #0d5fcf;
      }

      .cls-10 {
        fill: url(#linear-gradient-3);
      }

      .cls-11 {
        fill: url(#linear-gradient-4);
      }

      .cls-12 {
        fill: url(#linear-gradient-5);
      }

      .cls-13 {
        fill: url(#linear-gradient-6);
      }

      .cls-14 {
        fill: #fff;
      }

      .cls-15 {
        fill: url(#linear-gradient-7);
      }

      .cls-16 {
        filter: url(#Union_16);
      }
    </style>
    <linearGradient id="linear-gradient" x1="0.002" y1="0.499" x2="1" y2="0.499" gradientUnits="objectBoundingBox">
      <stop offset="0.002" stop-color="#22ddec"/>
      <stop offset="1" stop-color="#0d5fcf"/>
    </linearGradient>
    <linearGradient id="linear-gradient-2" x1="-0.23" y1="0.365" x2="0.702" y2="0.54" gradientUnits="objectBoundingBox">
      <stop offset="0.001" stop-color="#b9ffff"/>
      <stop offset="0.995" stop-color="#06eec7"/>
    </linearGradient>
    <linearGradient id="linear-gradient-3" x1="0" y1="0.502" x2="0.998" y2="0.502" xlink:href="#linear-gradient"/>
    <linearGradient id="linear-gradient-4" x1="-0.274" y1="0.355" x2="0.834" y2="0.56" xlink:href="#linear-gradient-2"/>
    <linearGradient id="linear-gradient-5" x1="0" y1="0.5" x2="0.998" y2="0.5" xlink:href="#linear-gradient"/>
    <linearGradient id="linear-gradient-6" x1="0.871" y1="0.521" x2="-0.572" y2="0.443" gradientUnits="objectBoundingBox">
      <stop offset="0.005" stop-color="#06eec7"/>
      <stop offset="0.999" stop-color="#b9ffff"/>
    </linearGradient>
    <linearGradient id="linear-gradient-7" x1="0.5" y1="0.98" x2="0.5" y2="0.157" gradientUnits="objectBoundingBox">
      <stop offset="0" stop-color="#24b4c6"/>
      <stop offset="0.306" stop-color="#70ceda" stop-opacity="0.694"/>
      <stop offset="0.639" stop-color="#bce8ee" stop-opacity="0.357"/>
      <stop offset="0.878" stop-color="#edf9fa" stop-opacity="0.118"/>
      <stop offset="0.996" stop-color="#fff" stop-opacity="0"/>
    </linearGradient>
    <filter id="Union_16" x="20.579" y="61.74" width="259.417" height="124.24" filterUnits="userSpaceOnUse">
      <feOffset dy="5" input="SourceAlpha"/>
      <feGaussianBlur stdDeviation="5.5" result="blur"/>
      <feFlood flood-color="#51b7e3" flood-opacity="0.161"/>
      <feComposite operator="in" in2="blur"/>
      <feComposite in="SourceGraphic"/>
    </filter>
    <clipPath id="clip-img-5">
      <rect width="300" height="300"/>
    </clipPath>
  </defs>
  <g id="img-5" class="cls-1">
    <g id="Group_2520" data-name="Group 2520" transform="translate(-832.048 -2289.14)">
      <ellipse id="Ellipse_578" data-name="Ellipse 578" class="cls-2" cx="129" cy="43.5" rx="129" ry="43.5" transform="translate(853.048 2420.14)"/>
      <g id="Group_842" data-name="Group 842" transform="translate(932.244 2382.768)">
        <g id="Group_817" data-name="Group 817" class="cls-3" transform="translate(0 95.192)">
          <path id="Path_2242" data-name="Path 2242" class="cls-4" d="M100.34,106.037c3.092,1.767-.221,4.417-3.313,6.184L55.5,136.295a12.631,12.631,0,0,1-11.264,0L5.369,113.325c-3.092-1.767-3.092-4.638,0-6.626L46.891,82.625a12.63,12.63,0,0,1,11.264,0Z" transform="translate(-3.05 -81.3)"/>
        </g>
        <g id="Group_823" data-name="Group 823" transform="translate(2.098 81.056)">
          <g id="Group_821" data-name="Group 821">
            <path id="Path_2243" data-name="Path 2243" class="cls-5" d="M100.517,96.444l-15.681.221L59.216,81.425a12.631,12.631,0,0,0-11.264,0L20.123,97.548,4,97.769v10.822H4c0,1.325.663,2.429,2.429,3.313l39.093,23.191a12.63,12.63,0,0,0,11.264,0l41.522-24.074c1.546-.883,2.429-2.209,2.209-3.313h0V96.444Z" transform="translate(-4 -68.615)"/>
            <g id="Group_818" data-name="Group 818" transform="translate(0.331)">
              <path id="Path_2244" data-name="Path 2244" class="cls-6" d="M98.127,99.416c3.092,1.767,3.092,4.638,0,6.626L56.6,130.116a12.631,12.631,0,0,1-11.264,0L6.469,106.925c-3.092-1.767-3.092-4.638,0-6.626L47.991,76.225a12.63,12.63,0,0,1,11.264,0Z" transform="translate(-4.15 -74.9)"/>
            </g>
            <g id="Group_819" data-name="Group 819" transform="translate(0.331)">
              <path id="Path_2245" data-name="Path 2245" class="cls-7" d="M98.127,99.416c3.092,1.767,3.092,4.638,0,6.626L56.6,130.116a12.631,12.631,0,0,1-11.264,0L6.469,106.925c-3.092-1.767-3.092-4.638,0-6.626L47.991,76.225a12.63,12.63,0,0,1,11.264,0Z" transform="translate(-4.15 -74.9)"/>
            </g>
            <g id="Group_820" data-name="Group 820" transform="translate(21.092 12.092)">
              <path id="Path_2246" data-name="Path 2246" class="cls-8" d="M14.544,95.449,39.722,80.872a4.218,4.218,0,0,1,3.976,0L67.33,94.565a1.857,1.857,0,0,1,0,3.092L42.373,112.014a5.632,5.632,0,0,1-5.3,0L14.544,98.762A1.876,1.876,0,0,1,14.544,95.449Z" transform="translate(-13.55 -80.375)"/>
            </g>
          </g>
          <g id="Group_822" data-name="Group 822" transform="translate(73.989 32.467)">
            <path id="Path_2247" data-name="Path 2247" class="cls-9" d="M42.409,97.942,40.2,99.268V93.525L42.409,92.2Z" transform="translate(-34.237 -86.458)"/>
            <path id="Path_2248" data-name="Path 2248" class="cls-9" d="M43.909,97.042,41.7,98.368V92.625L43.909,91.3Z" transform="translate(-32.424 -87.545)"/>
            <path id="Path_2249" data-name="Path 2249" class="cls-9" d="M45.409,96.142,43.2,97.468V91.946L45.409,90.4Z" transform="translate(-30.611 -88.633)"/>
            <path id="Path_2250" data-name="Path 2250" class="cls-9" d="M47.029,95.342,44.6,96.668V90.925l2.43-1.325Z" transform="translate(-28.919 -89.6)"/>
            <path id="Path_2251" data-name="Path 2251" class="cls-9" d="M40.567,95.525c0,.663-.442,1.325-.883,1.325s-.883-.663-.883-1.325.442-1.325.883-1.325S40.567,94.863,40.567,95.525Z" transform="translate(-35.929 -84.04)"/>
            <path id="Path_2252" data-name="Path 2252" class="cls-9" d="M39.267,96.325c0,.663-.442,1.325-.883,1.325s-.883-.663-.883-1.325S37.942,95,38.383,95,39.267,95.663,39.267,96.325Z" transform="translate(-37.5 -83.073)"/>
          </g>
        </g>
        <g id="Group_828" data-name="Group 828" transform="translate(2.319 62.283)">
          <g id="Group_826" data-name="Group 826">
            <path id="Path_2253" data-name="Path 2253" class="cls-10" d="M100.4,87.744l-15.681.221-25.62-15.24a12.631,12.631,0,0,0-11.264,0L20.223,88.848,4.1,89.069V99.891h0c0,1.325.663,2.429,2.429,3.313l39.093,23.191a12.631,12.631,0,0,0,11.264,0l41.522-24.074c1.546-.883,2.429-2.209,2.209-3.313h0V87.744Z" transform="translate(-4.1 -60.357)"/>
            <g id="Group_824" data-name="Group 824" transform="translate(0.11)">
              <path id="Path_2254" data-name="Path 2254" class="cls-11" d="M98.127,90.695c3.092,1.767,3.092,4.638,0,6.626L56.6,121.395a12.631,12.631,0,0,1-11.264,0L6.469,98.2c-3.092-1.767-3.092-4.638,0-6.626l41.3-23.853a12.631,12.631,0,0,1,11.264,0Z" transform="translate(-4.15 -66.4)"/>
            </g>
            <g id="Group_825" data-name="Group 825" transform="translate(20.872 11.871)">
              <path id="Path_2255" data-name="Path 2255" class="cls-8" d="M14.544,86.849,39.722,72.272a4.218,4.218,0,0,1,3.976,0L67.33,85.965a1.857,1.857,0,0,1,0,3.092L42.373,103.413a5.632,5.632,0,0,1-5.3,0L14.544,90.162A1.877,1.877,0,0,1,14.544,86.849Z" transform="translate(-13.55 -71.775)"/>
            </g>
          </g>
          <g id="Group_827" data-name="Group 827" transform="translate(73.768 32.025)">
            <path id="Path_2256" data-name="Path 2256" class="cls-9" d="M42.409,89.242,40.2,90.568V85.046L42.409,83.5Z" transform="translate(-34.237 -77.758)"/>
            <path id="Path_2257" data-name="Path 2257" class="cls-9" d="M43.909,88.442,41.7,89.768V84.025L43.909,82.7Z" transform="translate(-32.424 -78.724)"/>
            <path id="Path_2258" data-name="Path 2258" class="cls-9" d="M45.409,87.542,43.2,88.868V83.125L45.409,81.8Z" transform="translate(-30.611 -79.812)"/>
            <path id="Path_2259" data-name="Path 2259" class="cls-9" d="M47.029,86.642,44.6,87.968V82.446l2.43-1.546Z" transform="translate(-28.919 -80.9)"/>
            <ellipse id="Ellipse_363" data-name="Ellipse 363" class="cls-9" cx="0.883" cy="1.325" rx="0.883" ry="1.325" transform="translate(2.871 10.381)"/>
            <path id="Path_2260" data-name="Path 2260" class="cls-9" d="M39.267,87.725c0,.663-.442,1.325-.883,1.325s-.883-.663-.883-1.325.442-1.325.883-1.325S39.267,86.842,39.267,87.725Z" transform="translate(-37.5 -74.253)"/>
          </g>
        </g>
        <g id="Group_833" data-name="Group 833" transform="translate(2.319)">
          <g id="Group_831" data-name="Group 831">
            <path id="Path_2261" data-name="Path 2261" class="cls-12" d="M100.4,79.144l-15.681.221-25.62-15.24a12.631,12.631,0,0,0-11.264,0L20.223,80.248,4.1,80.469V91.291h0c0,1.325.663,2.429,2.429,3.313l39.093,23.191a12.631,12.631,0,0,0,11.264,0L98.408,93.721c1.546-.883,2.429-2.209,2.209-3.313h0V79.144Z" transform="translate(-4.1 -8.468)"/>
            <g id="Group_829" data-name="Group 829" transform="translate(0.11 43.068)">
              <path id="Path_2262" data-name="Path 2262" class="cls-13" d="M98.127,82.216c3.092,1.767,3.092,4.638,0,6.626L56.6,112.695a12.63,12.63,0,0,1-11.264,0L6.469,89.725c-3.092-1.767-3.092-4.638,0-6.626L47.991,59.025a12.631,12.631,0,0,1,11.264,0Z" transform="translate(-4.15 -57.7)"/>
            </g>
            <g id="Group_830" data-name="Group 830" transform="translate(20.872 55.16)">
              <path id="Path_2263" data-name="Path 2263" class="cls-14" d="M14.544,78.249,39.722,63.672a4.218,4.218,0,0,1,3.976,0L67.33,77.365a1.857,1.857,0,0,1,0,3.092L42.373,94.813a5.632,5.632,0,0,1-5.3,0L14.544,81.562A1.876,1.876,0,0,1,14.544,78.249Z" transform="translate(-13.55 -63.175)"/>
            </g>
            <path id="Path_2264" data-name="Path 2264" class="cls-15" d="M91.065,38.2H7.8l12.589,70.9c.221,1.1.221,2.209,1.1,2.65L44.021,125a5.632,5.632,0,0,0,5.3,0L74.28,110.643a1.959,1.959,0,0,0,.883-1.1C78.918,92.753,91.065,38.2,91.065,38.2Z" transform="translate(0.372 -38.2)"/>
          </g>
          <g id="Group_832" data-name="Group 832" transform="translate(73.768 75.314)">
            <path id="Path_2265" data-name="Path 2265" class="cls-9" d="M42.409,80.642,40.2,81.968V76.225L42.409,74.9Z" transform="translate(-34.237 -69.158)"/>
            <path id="Path_2266" data-name="Path 2266" class="cls-9" d="M43.909,79.742,41.7,81.068V75.546L43.909,74Z" transform="translate(-32.424 -70.245)"/>
            <path id="Path_2267" data-name="Path 2267" class="cls-9" d="M45.409,78.942,43.2,80.268V74.525L45.409,73.2Z" transform="translate(-30.611 -71.212)"/>
            <path id="Path_2268" data-name="Path 2268" class="cls-9" d="M47.029,78.042,44.6,79.368V73.625l2.43-1.325Z" transform="translate(-28.919 -72.3)"/>
            <ellipse id="Ellipse_364" data-name="Ellipse 364" class="cls-9" cx="0.883" cy="1.325" rx="0.883" ry="1.325" transform="translate(2.871 10.16)"/>
            <path id="Path_2269" data-name="Path 2269" class="cls-9" d="M39.267,79.025c0,.663-.442,1.325-.883,1.325s-.883-.663-.883-1.325.442-1.325.883-1.325S39.267,78.363,39.267,79.025Z" transform="translate(-37.5 -65.773)"/>
          </g>
        </g>
      </g>
      <g id="Group_843" data-name="Group 843" transform="translate(846.234 2344.953)">
        <g id="Group_817-2" data-name="Group 817" class="cls-3" transform="translate(0 80.17)">
          <path id="Path_2242-2" data-name="Path 2242" class="cls-4" d="M84.988,102.133c2.6,1.488-.186,3.72-2.79,5.208l-34.97,20.275a10.637,10.637,0,0,1-9.487,0L5,108.271c-2.6-1.488-2.6-3.906,0-5.58l34.97-20.275a10.637,10.637,0,0,1,9.487,0Z" transform="translate(-3.05 -81.3)"/>
        </g>
        <g id="Group_823-2" data-name="Group 823" transform="translate(1.767 68.266)">
          <g id="Group_821-2" data-name="Group 821">
            <path id="Path_2243-2" data-name="Path 2243" class="cls-5" d="M85.287,93.865l-13.207.186L50.5,81.216a10.637,10.637,0,0,0-9.487,0L17.579,94.795,4,94.981V104.1H4c0,1.116.558,2.046,2.046,2.79L38.97,126.416a10.637,10.637,0,0,0,9.487,0l34.97-20.275c1.3-.744,2.046-1.86,1.86-2.79h0V93.865Z" transform="translate(-4 -70.428)"/>
            <g id="Group_818-2" data-name="Group 818" transform="translate(0.279)">
              <path id="Path_2244-2" data-name="Path 2244" class="cls-6" d="M83.3,95.547c2.6,1.488,2.6,3.906,0,5.58L48.327,121.4a10.638,10.638,0,0,1-9.487,0L6.1,101.871c-2.6-1.488-2.6-3.906,0-5.58l34.97-20.275a10.637,10.637,0,0,1,9.487,0Z" transform="translate(-4.15 -74.9)"/>
            </g>
            <g id="Group_819-2" data-name="Group 819" transform="translate(0.279)">
              <path id="Path_2245-2" data-name="Path 2245" class="cls-7" d="M83.3,95.547c2.6,1.488,2.6,3.906,0,5.58L48.327,121.4a10.638,10.638,0,0,1-9.487,0L6.1,101.871c-2.6-1.488-2.6-3.906,0-5.58l34.97-20.275a10.637,10.637,0,0,1,9.487,0Z" transform="translate(-4.15 -74.9)"/>
            </g>
            <g id="Group_820-2" data-name="Group 820" transform="translate(17.764 10.184)">
              <path id="Path_2246-2" data-name="Path 2246" class="cls-8" d="M14.387,93.07,35.592,80.794a3.552,3.552,0,0,1,3.348,0l19.9,11.533a1.564,1.564,0,0,1,0,2.6L37.824,107.021a4.743,4.743,0,0,1-4.464,0L14.387,95.86A1.58,1.58,0,0,1,14.387,93.07Z" transform="translate(-13.55 -80.375)"/>
            </g>
          </g>
          <g id="Group_822-2" data-name="Group 822" transform="translate(62.313 27.343)">
            <path id="Path_2247-2" data-name="Path 2247" class="cls-9" d="M42.06,97.036,40.2,98.152V93.316L42.06,92.2Z" transform="translate(-35.178 -87.364)"/>
            <path id="Path_2248-2" data-name="Path 2248" class="cls-9" d="M43.56,96.136,41.7,97.252V92.416L43.56,91.3Z" transform="translate(-33.888 -88.138)"/>
            <path id="Path_2249-2" data-name="Path 2249" class="cls-9" d="M45.06,95.236,43.2,96.352V91.7l1.86-1.3Z" transform="translate(-32.597 -88.912)"/>
            <path id="Path_2250-2" data-name="Path 2250" class="cls-9" d="M46.646,94.436,44.6,95.552V90.716L46.646,89.6Z" transform="translate(-31.393 -89.6)"/>
            <path id="Path_2251-2" data-name="Path 2251" class="cls-9" d="M40.288,95.316c0,.558-.372,1.116-.744,1.116s-.744-.558-.744-1.116.372-1.116.744-1.116S40.288,94.758,40.288,95.316Z" transform="translate(-36.382 -85.644)"/>
            <path id="Path_2252-2" data-name="Path 2252" class="cls-9" d="M38.988,96.116c0,.558-.372,1.116-.744,1.116s-.744-.558-.744-1.116S37.872,95,38.244,95,38.988,95.558,38.988,96.116Z" transform="translate(-37.5 -84.955)"/>
          </g>
        </g>
        <g id="Group_828-2" data-name="Group 828" transform="translate(1.953 52.455)">
          <g id="Group_826-2" data-name="Group 826">
            <path id="Path_2253-2" data-name="Path 2253" class="cls-10" d="M85.2,85.165l-13.207.186L50.417,72.516a10.637,10.637,0,0,0-9.487,0L17.679,86.095,4.1,86.281V95.4h0c0,1.116.558,2.046,2.046,2.79L39.07,117.716a10.637,10.637,0,0,0,9.487,0l34.97-20.275c1.3-.744,2.046-1.86,1.86-2.79h0V85.165Z" transform="translate(-4.1 -62.1)"/>
            <g id="Group_824-2" data-name="Group 824" transform="translate(0.093)">
              <path id="Path_2254-2" data-name="Path 2254" class="cls-11" d="M83.3,86.861c2.6,1.488,2.6,3.906,0,5.58l-34.97,20.275a10.637,10.637,0,0,1-9.487,0L6.1,93.185c-2.6-1.488-2.6-3.906,0-5.58L40.887,67.516a10.637,10.637,0,0,1,9.487,0Z" transform="translate(-4.15 -66.4)"/>
            </g>
            <g id="Group_825-2" data-name="Group 825" transform="translate(17.578 9.998)">
              <path id="Path_2255-2" data-name="Path 2255" class="cls-8" d="M14.387,84.47,35.592,72.194a3.552,3.552,0,0,1,3.348,0l19.9,11.533a1.564,1.564,0,0,1,0,2.6L37.824,98.421a4.743,4.743,0,0,1-4.464,0L14.387,87.26A1.581,1.581,0,0,1,14.387,84.47Z" transform="translate(-13.55 -71.775)"/>
            </g>
          </g>
          <g id="Group_827-2" data-name="Group 827" transform="translate(62.127 26.971)">
            <path id="Path_2256-2" data-name="Path 2256" class="cls-9" d="M42.06,88.336,40.2,89.452V84.8l1.86-1.3Z" transform="translate(-35.178 -78.664)"/>
            <path id="Path_2257-2" data-name="Path 2257" class="cls-9" d="M43.56,87.536,41.7,88.652V83.816L43.56,82.7Z" transform="translate(-33.888 -79.352)"/>
            <path id="Path_2258-2" data-name="Path 2258" class="cls-9" d="M45.06,86.636,43.2,87.752V82.916L45.06,81.8Z" transform="translate(-32.597 -80.126)"/>
            <path id="Path_2259-2" data-name="Path 2259" class="cls-9" d="M46.646,85.736,44.6,86.852V82.2l2.046-1.3Z" transform="translate(-31.393 -80.9)"/>
            <ellipse id="Ellipse_363-2" data-name="Ellipse 363" class="cls-9" cx="0.744" cy="1.116" rx="0.744" ry="1.116" transform="translate(2.418 8.742)"/>
            <path id="Path_2260-2" data-name="Path 2260" class="cls-9" d="M38.988,87.516c0,.558-.372,1.116-.744,1.116s-.744-.558-.744-1.116.372-1.116.744-1.116S38.988,86.772,38.988,87.516Z" transform="translate(-37.5 -76.169)"/>
          </g>
        </g>
        <g id="Group_833-2" data-name="Group 833" transform="translate(1.953)">
          <g id="Group_831-2" data-name="Group 831">
            <path id="Path_2261-2" data-name="Path 2261" class="cls-12" d="M85.2,76.565l-13.207.186L50.417,63.916a10.638,10.638,0,0,0-9.487,0L17.679,77.495,4.1,77.681V86.8h0c0,1.116.558,2.046,2.046,2.79L39.07,109.116a10.637,10.637,0,0,0,9.487,0l34.97-20.275c1.3-.744,2.046-1.86,1.86-2.79h0V76.565Z" transform="translate(-4.1 -17.042)"/>
            <g id="Group_829-2" data-name="Group 829" transform="translate(0.093 36.272)">
              <path id="Path_2262-2" data-name="Path 2262" class="cls-13" d="M83.3,78.347c2.6,1.488,2.6,3.906,0,5.58l-34.97,20.089a10.637,10.637,0,0,1-9.487,0L6.1,84.671c-2.6-1.488-2.6-3.906,0-5.58l34.97-20.275a10.637,10.637,0,0,1,9.487,0Z" transform="translate(-4.15 -57.7)"/>
            </g>
            <g id="Group_830-2" data-name="Group 830" transform="translate(17.578 46.456)">
              <path id="Path_2263-2" data-name="Path 2263" class="cls-14" d="M14.387,75.87,35.592,63.594a3.552,3.552,0,0,1,3.348,0l19.9,11.533a1.564,1.564,0,0,1,0,2.6L37.824,89.821a4.743,4.743,0,0,1-4.464,0L14.387,78.66A1.58,1.58,0,0,1,14.387,75.87Z" transform="translate(-13.55 -63.175)"/>
            </g>
            <path id="Path_2264-2" data-name="Path 2264" class="cls-15" d="M77.926,38.2H7.8L18.4,97.909c.186.93.186,1.86.93,2.232L38.306,111.3a4.743,4.743,0,0,0,4.464,0L63.789,99.211a1.65,1.65,0,0,0,.744-.93C67.7,84.144,77.926,38.2,77.926,38.2Z" transform="translate(-0.918 -38.2)"/>
          </g>
          <g id="Group_832-2" data-name="Group 832" transform="translate(62.127 63.429)">
            <path id="Path_2265-2" data-name="Path 2265" class="cls-9" d="M42.06,79.736,40.2,80.852V76.016L42.06,74.9Z" transform="translate(-35.178 -70.064)"/>
            <path id="Path_2266-2" data-name="Path 2266" class="cls-9" d="M43.56,78.836,41.7,79.952V75.3L43.56,74Z" transform="translate(-33.888 -70.838)"/>
            <path id="Path_2267-2" data-name="Path 2267" class="cls-9" d="M45.06,78.036,43.2,79.152V74.316L45.06,73.2Z" transform="translate(-32.597 -71.526)"/>
            <path id="Path_2268-2" data-name="Path 2268" class="cls-9" d="M46.646,77.136,44.6,78.252V73.416L46.646,72.3Z" transform="translate(-31.393 -72.3)"/>
            <ellipse id="Ellipse_364-2" data-name="Ellipse 364" class="cls-9" cx="0.744" cy="1.116" rx="0.744" ry="1.116" transform="translate(2.418 8.556)"/>
            <path id="Path_2269-2" data-name="Path 2269" class="cls-9" d="M38.988,78.816c0,.558-.372,1.116-.744,1.116s-.744-.558-.744-1.116.372-1.116.744-1.116S38.988,78.258,38.988,78.816Z" transform="translate(-37.5 -67.655)"/>
          </g>
        </g>
      </g>
      <g id="Group_844" data-name="Group 844" transform="translate(1033.855 2344.953)">
        <g id="Group_817-3" data-name="Group 817" class="cls-3" transform="translate(0 80.17)">
          <path id="Path_2242-3" data-name="Path 2242" class="cls-4" d="M84.988,102.133c2.6,1.488-.186,3.72-2.79,5.208l-34.97,20.275a10.637,10.637,0,0,1-9.487,0L5,108.271c-2.6-1.488-2.6-3.906,0-5.58l34.97-20.275a10.637,10.637,0,0,1,9.487,0Z" transform="translate(-3.05 -81.3)"/>
        </g>
        <g id="Group_823-3" data-name="Group 823" transform="translate(1.767 68.266)">
          <g id="Group_821-3" data-name="Group 821">
            <path id="Path_2243-3" data-name="Path 2243" class="cls-5" d="M85.287,93.865l-13.207.186L50.5,81.216a10.637,10.637,0,0,0-9.487,0L17.579,94.795,4,94.981V104.1H4c0,1.116.558,2.046,2.046,2.79L38.97,126.416a10.637,10.637,0,0,0,9.487,0l34.97-20.275c1.3-.744,2.046-1.86,1.86-2.79h0V93.865Z" transform="translate(-4 -70.428)"/>
            <g id="Group_818-3" data-name="Group 818" transform="translate(0.279)">
              <path id="Path_2244-3" data-name="Path 2244" class="cls-6" d="M83.3,95.547c2.6,1.488,2.6,3.906,0,5.58L48.327,121.4a10.638,10.638,0,0,1-9.487,0L6.1,101.871c-2.6-1.488-2.6-3.906,0-5.58l34.97-20.275a10.637,10.637,0,0,1,9.487,0Z" transform="translate(-4.15 -74.9)"/>
            </g>
            <g id="Group_819-3" data-name="Group 819" transform="translate(0.279)">
              <path id="Path_2245-3" data-name="Path 2245" class="cls-7" d="M83.3,95.547c2.6,1.488,2.6,3.906,0,5.58L48.327,121.4a10.638,10.638,0,0,1-9.487,0L6.1,101.871c-2.6-1.488-2.6-3.906,0-5.58l34.97-20.275a10.637,10.637,0,0,1,9.487,0Z" transform="translate(-4.15 -74.9)"/>
            </g>
            <g id="Group_820-3" data-name="Group 820" transform="translate(17.764 10.184)">
              <path id="Path_2246-3" data-name="Path 2246" class="cls-8" d="M14.387,93.07,35.592,80.794a3.552,3.552,0,0,1,3.348,0l19.9,11.533a1.564,1.564,0,0,1,0,2.6L37.824,107.021a4.743,4.743,0,0,1-4.464,0L14.387,95.86A1.58,1.58,0,0,1,14.387,93.07Z" transform="translate(-13.55 -80.375)"/>
            </g>
          </g>
          <g id="Group_822-3" data-name="Group 822" transform="translate(62.313 27.343)">
            <path id="Path_2247-3" data-name="Path 2247" class="cls-9" d="M42.06,97.036,40.2,98.152V93.316L42.06,92.2Z" transform="translate(-35.178 -87.364)"/>
            <path id="Path_2248-3" data-name="Path 2248" class="cls-9" d="M43.56,96.136,41.7,97.252V92.416L43.56,91.3Z" transform="translate(-33.888 -88.138)"/>
            <path id="Path_2249-3" data-name="Path 2249" class="cls-9" d="M45.06,95.236,43.2,96.352V91.7l1.86-1.3Z" transform="translate(-32.597 -88.912)"/>
            <path id="Path_2250-3" data-name="Path 2250" class="cls-9" d="M46.646,94.436,44.6,95.552V90.716L46.646,89.6Z" transform="translate(-31.393 -89.6)"/>
            <path id="Path_2251-3" data-name="Path 2251" class="cls-9" d="M40.288,95.316c0,.558-.372,1.116-.744,1.116s-.744-.558-.744-1.116.372-1.116.744-1.116S40.288,94.758,40.288,95.316Z" transform="translate(-36.382 -85.644)"/>
            <path id="Path_2252-3" data-name="Path 2252" class="cls-9" d="M38.988,96.116c0,.558-.372,1.116-.744,1.116s-.744-.558-.744-1.116S37.872,95,38.244,95,38.988,95.558,38.988,96.116Z" transform="translate(-37.5 -84.955)"/>
          </g>
        </g>
        <g id="Group_828-3" data-name="Group 828" transform="translate(1.953 52.455)">
          <g id="Group_826-3" data-name="Group 826">
            <path id="Path_2253-3" data-name="Path 2253" class="cls-10" d="M85.2,85.165l-13.207.186L50.417,72.516a10.637,10.637,0,0,0-9.487,0L17.679,86.095,4.1,86.281V95.4h0c0,1.116.558,2.046,2.046,2.79L39.07,117.716a10.637,10.637,0,0,0,9.487,0l34.97-20.275c1.3-.744,2.046-1.86,1.86-2.79h0V85.165Z" transform="translate(-4.1 -62.1)"/>
            <g id="Group_824-3" data-name="Group 824" transform="translate(0.093)">
              <path id="Path_2254-3" data-name="Path 2254" class="cls-11" d="M83.3,86.861c2.6,1.488,2.6,3.906,0,5.58l-34.97,20.275a10.637,10.637,0,0,1-9.487,0L6.1,93.185c-2.6-1.488-2.6-3.906,0-5.58L40.887,67.516a10.637,10.637,0,0,1,9.487,0Z" transform="translate(-4.15 -66.4)"/>
            </g>
            <g id="Group_825-3" data-name="Group 825" transform="translate(17.578 9.998)">
              <path id="Path_2255-3" data-name="Path 2255" class="cls-8" d="M14.387,84.47,35.592,72.194a3.552,3.552,0,0,1,3.348,0l19.9,11.533a1.564,1.564,0,0,1,0,2.6L37.824,98.421a4.743,4.743,0,0,1-4.464,0L14.387,87.26A1.581,1.581,0,0,1,14.387,84.47Z" transform="translate(-13.55 -71.775)"/>
            </g>
          </g>
          <g id="Group_827-3" data-name="Group 827" transform="translate(62.127 26.971)">
            <path id="Path_2256-3" data-name="Path 2256" class="cls-9" d="M42.06,88.336,40.2,89.452V84.8l1.86-1.3Z" transform="translate(-35.178 -78.664)"/>
            <path id="Path_2257-3" data-name="Path 2257" class="cls-9" d="M43.56,87.536,41.7,88.652V83.816L43.56,82.7Z" transform="translate(-33.888 -79.352)"/>
            <path id="Path_2258-3" data-name="Path 2258" class="cls-9" d="M45.06,86.636,43.2,87.752V82.916L45.06,81.8Z" transform="translate(-32.597 -80.126)"/>
            <path id="Path_2259-3" data-name="Path 2259" class="cls-9" d="M46.646,85.736,44.6,86.852V82.2l2.046-1.3Z" transform="translate(-31.393 -80.9)"/>
            <ellipse id="Ellipse_363-3" data-name="Ellipse 363" class="cls-9" cx="0.744" cy="1.116" rx="0.744" ry="1.116" transform="translate(2.418 8.742)"/>
            <path id="Path_2260-3" data-name="Path 2260" class="cls-9" d="M38.988,87.516c0,.558-.372,1.116-.744,1.116s-.744-.558-.744-1.116.372-1.116.744-1.116S38.988,86.772,38.988,87.516Z" transform="translate(-37.5 -76.169)"/>
          </g>
        </g>
        <g id="Group_833-3" data-name="Group 833" transform="translate(1.953)">
          <g id="Group_831-3" data-name="Group 831">
            <path id="Path_2261-3" data-name="Path 2261" class="cls-12" d="M85.2,76.565l-13.207.186L50.417,63.916a10.638,10.638,0,0,0-9.487,0L17.679,77.495,4.1,77.681V86.8h0c0,1.116.558,2.046,2.046,2.79L39.07,109.116a10.637,10.637,0,0,0,9.487,0l34.97-20.275c1.3-.744,2.046-1.86,1.86-2.79h0V76.565Z" transform="translate(-4.1 -17.042)"/>
            <g id="Group_829-3" data-name="Group 829" transform="translate(0.093 36.272)">
              <path id="Path_2262-3" data-name="Path 2262" class="cls-13" d="M83.3,78.347c2.6,1.488,2.6,3.906,0,5.58l-34.97,20.089a10.637,10.637,0,0,1-9.487,0L6.1,84.671c-2.6-1.488-2.6-3.906,0-5.58l34.97-20.275a10.637,10.637,0,0,1,9.487,0Z" transform="translate(-4.15 -57.7)"/>
            </g>
            <g id="Group_830-3" data-name="Group 830" transform="translate(17.578 46.456)">
              <path id="Path_2263-3" data-name="Path 2263" class="cls-14" d="M14.387,75.87,35.592,63.594a3.552,3.552,0,0,1,3.348,0l19.9,11.533a1.564,1.564,0,0,1,0,2.6L37.824,89.821a4.743,4.743,0,0,1-4.464,0L14.387,78.66A1.58,1.58,0,0,1,14.387,75.87Z" transform="translate(-13.55 -63.175)"/>
            </g>
            <path id="Path_2264-3" data-name="Path 2264" class="cls-15" d="M77.926,38.2H7.8L18.4,97.909c.186.93.186,1.86.93,2.232L38.306,111.3a4.743,4.743,0,0,0,4.464,0L63.789,99.211a1.65,1.65,0,0,0,.744-.93C67.7,84.144,77.926,38.2,77.926,38.2Z" transform="translate(-0.918 -38.2)"/>
          </g>
          <g id="Group_832-3" data-name="Group 832" transform="translate(62.127 63.429)">
            <path id="Path_2265-3" data-name="Path 2265" class="cls-9" d="M42.06,79.736,40.2,80.852V76.016L42.06,74.9Z" transform="translate(-35.178 -70.064)"/>
            <path id="Path_2266-3" data-name="Path 2266" class="cls-9" d="M43.56,78.836,41.7,79.952V75.3L43.56,74Z" transform="translate(-33.888 -70.838)"/>
            <path id="Path_2267-3" data-name="Path 2267" class="cls-9" d="M45.06,78.036,43.2,79.152V74.316L45.06,73.2Z" transform="translate(-32.597 -71.526)"/>
            <path id="Path_2268-3" data-name="Path 2268" class="cls-9" d="M46.646,77.136,44.6,78.252V73.416L46.646,72.3Z" transform="translate(-31.393 -72.3)"/>
            <ellipse id="Ellipse_364-3" data-name="Ellipse 364" class="cls-9" cx="0.744" cy="1.116" rx="0.744" ry="1.116" transform="translate(2.418 8.556)"/>
            <path id="Path_2269-3" data-name="Path 2269" class="cls-9" d="M38.988,78.816c0,.558-.372,1.116-.744,1.116s-.744-.558-.744-1.116.372-1.116.744-1.116S38.988,78.258,38.988,78.816Z" transform="translate(-37.5 -67.655)"/>
          </g>
        </g>
      </g>
    </g>
    <g class="cls-16" transform="matrix(1, 0, 0, 1, 0, 0)">
      <path id="Union_16-2" data-name="Union 16" class="cls-14" d="M5950.258-6145.1q-13.184-8.367-26.45-16.607a1.7,1.7,0,0,1-.888-1.605c.042-2.916,0-5.872,0-9.041,2.2,1.31,4.184,2.535,6.169,3.761,6.971,4.224,13.9,8.449,20.873,12.759a2.029,2.029,0,0,0,2.408.042c8.619-4.817,17.493-9.21,25.775-14.621a3.015,3.015,0,0,1,.759-.336c.465.379.3.93.3,1.393.042,3.042.042,6.084.042,9.085a50.4,50.4,0,0,1-5.872,3.38c-4.564,2.576-9.127,5.113-13.733,7.646-2.535,1.395-5.071,2.789-7.564,4.226a1.7,1.7,0,0,1-.84.262A1.851,1.851,0,0,1,5950.258-6145.1Zm.125-16.86c-4.1-2.578-8.238-5.155-12.337-7.733a1.339,1.339,0,0,1-.717-1.31c.041-4.478.041-8.915,0-13.394a1.222,1.222,0,0,1,.675-1.31c1.395-.761,2.789-1.563,4.183-2.366a9.63,9.63,0,0,0,4.057,2.366l4.776,2.64a.09.09,0,0,1,0-.021,36.555,36.555,0,0,0,6.041-2.789c-1.817-.93-3.38-1.775-4.986-2.578a.807.807,0,0,0-.76-.169c-1.773.845-3.675,1.479-5.111,2.873a10.076,10.076,0,0,1-4.057-2.366c2.409-1.437,4.775-2.916,7.184-4.309a4.209,4.209,0,0,1,4.226.254c3.336,1.9,6.632,3.8,9.971,5.745a2.217,2.217,0,0,1,1.183,2.07c-.042,2.62-.042,5.282,0,7.9a1.534,1.534,0,0,1-.93,1.563c-1.014.549-1.944,1.182-3.169,1.9v-8.492c0-1.563,0-1.521-1.437-.8a24.457,24.457,0,0,1-4.648,2.113,16.056,16.056,0,0,1-2.872,1.605c-.507.3-.93-.042-1.352-.253-2.409-1.226-4.859-2.451-7.268-3.719-.845-.465-1.268-.507-1.226.676.042,2.789.042,5.536,0,8.324a1.537,1.537,0,0,0,.845,1.52c2.536,1.563,5.071,3.169,7.521,4.859a1.519,1.519,0,0,0,1.815,0c4.184-2.324,8.494-4.478,12.719-7.268v4.565a1.089,1.089,0,0,1-.634.971c-4.182,2.366-8.407,4.69-12.591,7.057a.925.925,0,0,1-.444.128A1.265,1.265,0,0,1,5950.384-6161.965Zm4.136-18.236c-.011-.047-.021-.091-.034-.133C5954.5-6180.292,5954.509-6180.248,5954.52-6180.2Zm-.361-.7Zm-1.576-.84a8.085,8.085,0,0,1,1.556.82,9.372,9.372,0,0,0-1.6-.863c-.431-.3-1.063-.361-1.36-.815C5951.454-6182.1,5952.14-6182.044,5952.583-6181.739Zm-22.479,12.846c-2.113-1.268-4.183-2.536-6.254-3.847-.465-.294-.845-.505-.845-1.181-.042-6.085-.042-12.17-.042-18.507,3.084,1.563,6,3.083,8.916,4.6.422.211.422.635.422,1.014v19.1A6.491,6.491,0,0,1,5930.1-6168.893Zm40.816-14.283c-.042-1.774.634-3.845-.253-5.238-.889-1.31-2.831-1.9-4.31-2.791-4.395-2.619-8.832-5.154-13.225-7.816a2.036,2.036,0,0,0-2.324-.042q-6.719,3.8-13.437,7.479c-.423.253-.888.422-1.31.634-2.282-1.352-4.648-2.578-7.013-3.8-.634-.338-1.437-.507-1.563-1.437,5.916-3.507,11.83-6.972,17.746-10.562a22.362,22.362,0,0,1,5.071-2.451h2.409a24.717,24.717,0,0,1,5.451,2.238c5.957,3.509,11.957,7.014,18,10.437a8.209,8.209,0,0,1,3.338,3.127c-.042,3-.042,5.872-.042,8.7-2.493,1.354-4.775,3.127-7.182,4.606a13.672,13.672,0,0,0-1.353.887C5970.92-6180.64,5970.962-6181.908,5970.92-6183.176Zm-41.577-7.1c-1.943-1.182-4.014-2.111-6.253-3.294,1.563-.93,2.958-1.732,4.352-2.493.084.93.93,1.1,1.563,1.437,2.366,1.183,4.731,2.409,7.015,3.8-.3.3-.761.338-1.014.548a3.417,3.417,0,0,1-2.488,1.191A6.424,6.424,0,0,1,5929.343-6190.274Zm114.187.064q-9.419-5.977-18.9-11.863a1.21,1.21,0,0,1-.632-1.146c.03-2.083,0-4.2,0-6.46,1.568.936,2.988,1.811,4.407,2.686,4.979,3.019,9.93,6.038,14.91,9.116a1.447,1.447,0,0,0,1.72.03c6.159-3.44,12.5-6.58,18.413-10.443a2.2,2.2,0,0,1,.543-.241c.333.272.212.664.212,1,.03,2.172.03,4.346.03,6.488a35.945,35.945,0,0,1-4.2,2.415c-3.26,1.842-6.52,3.653-9.81,5.463-1.812,1-3.623,1.992-5.4,3.019a1.219,1.219,0,0,1-.6.186A1.3,1.3,0,0,1,6043.53-6190.21Zm-186,0q-9.416-5.977-18.895-11.863a1.209,1.209,0,0,1-.634-1.146c.031-2.083,0-4.2,0-6.46,1.57.936,2.988,1.811,4.407,2.686,4.98,3.019,9.93,6.038,14.91,9.116a1.449,1.449,0,0,0,1.721.03c6.157-3.44,12.5-6.58,18.413-10.443a2.177,2.177,0,0,1,.543-.241c.332.272.211.664.211,1,.03,2.172.03,4.346.03,6.488a35.926,35.926,0,0,1-4.194,2.415c-3.26,1.842-6.521,3.653-9.811,5.463-1.811,1-3.622,1.992-5.4,3.019a1.223,1.223,0,0,1-.6.186A1.308,1.308,0,0,1,5857.529-6190.21Zm186.092-12.043c-2.928-1.842-5.886-3.683-8.814-5.524a.955.955,0,0,1-.512-.935c.028-3.2.028-6.37,0-9.57a.871.871,0,0,1,.482-.936c1-.543,1.992-1.117,2.988-1.69a6.872,6.872,0,0,0,2.9,1.69l3.412,1.887s0-.011,0-.014a26.28,26.28,0,0,0,4.316-1.994c-1.3-.664-2.415-1.268-3.562-1.84a.577.577,0,0,0-.543-.121,12.8,12.8,0,0,0-3.651,2.052,7.2,7.2,0,0,1-2.9-1.69c1.722-1.027,3.412-2.083,5.13-3.079a3.01,3.01,0,0,1,3.019.18c2.385,1.358,4.741,2.717,7.124,4.1a1.587,1.587,0,0,1,.845,1.479c-.03,1.873-.03,3.774,0,5.645a1.093,1.093,0,0,1-.664,1.117c-.725.391-1.388.845-2.265,1.358v-6.067c0-1.116,0-1.086-1.025-.573a17.566,17.566,0,0,1-3.321,1.508,11.519,11.519,0,0,1-2.052,1.147c-.363.211-.665-.03-.967-.182-1.72-.875-3.472-1.75-5.191-2.656-.6-.332-.906-.361-.875.482.03,1.994.03,3.955,0,5.947a1.1,1.1,0,0,0,.6,1.087c1.813,1.116,3.623,2.263,5.373,3.47a1.086,1.086,0,0,0,1.3,0c2.988-1.66,6.067-3.2,9.085-5.191v3.26a.777.777,0,0,1-.452.693c-2.989,1.692-6.007,3.351-8.994,5.041a.656.656,0,0,1-.319.092A.9.9,0,0,1,6043.621-6202.253Zm1.569-14.126a10.223,10.223,0,0,1,1.028.512c-.305-.241-.731-.332-1.058-.543-.308-.213-.762-.258-.973-.583C6044.382-6216.641,6044.874-6216.6,6045.19-6216.379Zm-187.569,14.126c-2.928-1.842-5.888-3.683-8.814-5.524a.953.953,0,0,1-.513-.935c.029-3.2.029-6.37,0-9.57a.873.873,0,0,1,.482-.936c1-.543,1.992-1.117,2.988-1.69l-.031-.03c1.722-1.027,3.412-2.083,5.132-3.079a3.01,3.01,0,0,1,3.019.18c2.385,1.358,4.739,2.717,7.123,4.1a1.584,1.584,0,0,1,.845,1.479c-.03,1.873-.03,3.774,0,5.645a1.094,1.094,0,0,1-.662,1.117c-.725.391-1.39.845-2.265,1.358v-6.067c0-1.116,0-1.086-1.027-.573a17.534,17.534,0,0,1-3.319,1.508,11.531,11.531,0,0,1-2.053,1.147c-.361.211-.664-.03-.966-.182-1.721-.875-3.471-1.75-5.192-2.656-.6-.332-.9-.361-.875.482.03,1.994.03,3.955,0,5.947a1.1,1.1,0,0,0,.6,1.087c1.811,1.116,3.622,2.263,5.373,3.47a1.084,1.084,0,0,0,1.3,0c2.989-1.66,6.067-3.2,9.085-5.191v3.26a.776.776,0,0,1-.453.693c-2.987,1.692-6.006,3.351-8.994,5.041a.652.652,0,0,1-.317.092A.892.892,0,0,1,5857.621-6202.253Zm1.568-14.126a10.172,10.172,0,0,1,1.028.512c-.305-.241-.731-.332-1.058-.543-.307-.213-.761-.258-.974-.583C5858.383-6216.641,5858.874-6216.6,5859.189-6216.379Zm-4.528-2.839,3.412,1.887v-.014a26.336,26.336,0,0,0,4.316-1.994c-1.3-.664-2.415-1.268-3.562-1.84a.578.578,0,0,0-.543-.121,12.836,12.836,0,0,0-3.653,2.052,7.276,7.276,0,0,1-2.841-1.633A6.9,6.9,0,0,0,5854.662-6219.218Zm174.471,12.015c-1.51-.906-2.989-1.812-4.468-2.747-.332-.211-.6-.363-.6-.845-.03-4.348-.03-8.693-.03-13.221,2.2,1.117,4.287,2.2,6.368,3.29.3.15.3.454.3.725v13.644A4.629,4.629,0,0,1,6029.133-6207.2Zm-186,0c-1.509-.906-2.989-1.812-4.468-2.747-.332-.211-.6-.363-.6-.845-.028-4.348-.028-8.693-.028-13.221,2.2,1.117,4.285,2.2,6.368,3.29.3.15.3.454.3.725v13.644A4.645,4.645,0,0,1,5843.132-6207.2Zm215.157-10.2c-.03-1.268.454-2.747-.182-3.744-.632-.936-2.022-1.358-3.079-1.992-3.139-1.871-6.307-3.683-9.446-5.584a1.456,1.456,0,0,0-1.661-.03q-4.8,2.716-9.6,5.341c-.3.182-.632.3-.936.454-1.629-.967-3.319-1.84-5.01-2.717-.452-.241-1.027-.361-1.117-1.026,4.226-2.5,8.453-4.98,12.678-7.545a16.032,16.032,0,0,1,3.622-1.751h1.721a17.616,17.616,0,0,1,3.894,1.6c4.255,2.505,8.542,5.011,12.858,7.456a5.881,5.881,0,0,1,2.385,2.233c-.031,2.144-.031,4.2-.031,6.218-1.781.966-3.41,2.233-5.13,3.291a9.845,9.845,0,0,0-.967.634C6058.29-6215.6,6058.321-6216.5,6058.29-6217.406Zm-186,0c-.032-1.268.452-2.747-.182-3.744-.634-.936-2.022-1.358-3.079-1.992-3.139-1.871-6.309-3.683-9.448-5.584a1.455,1.455,0,0,0-1.66-.03q-4.8,2.716-9.6,5.341c-.3.182-.634.3-.936.454-1.631-.967-3.319-1.84-5.011-2.717-.453-.241-1.025-.361-1.116-1.026,4.226-2.5,8.451-4.98,12.677-7.545a16.062,16.062,0,0,1,3.623-1.751h1.72a17.6,17.6,0,0,1,3.894,1.6c4.257,2.505,8.542,5.011,12.858,7.456a5.872,5.872,0,0,1,2.385,2.233c-.03,2.144-.03,4.2-.03,6.218-1.781.966-3.412,2.233-5.132,3.291a9.8,9.8,0,0,0-.965.634C5872.291-6215.6,5872.32-6216.5,5872.291-6217.406Zm156.3-5.072c-1.388-.845-2.867-1.509-4.467-2.354,1.116-.664,2.113-1.238,3.108-1.781.061.664.664.786,1.117,1.026,1.69.845,3.38,1.72,5.011,2.717-.211.211-.544.241-.725.392a2.433,2.433,0,0,1-1.778.85A4.593,4.593,0,0,1,6028.588-6222.478Zm-186,0c-1.39-.845-2.869-1.509-4.468-2.354,1.117-.664,2.113-1.238,3.11-1.781.061.664.664.786,1.117,1.026,1.688.845,3.38,1.72,5.01,2.717-.211.211-.545.241-.725.392a2.433,2.433,0,0,1-1.778.85A4.582,4.582,0,0,1,5842.589-6222.478Z" transform="translate(-5800.92 6309.24)"/>
    </g>
  </g>
</svg>
