<svg xmlns="http://www.w3.org/2000/svg" xmlns:xlink="http://www.w3.org/1999/xlink" viewBox="0 0 425 425">
  <defs>
    <style>
      .cls-1 {
        clip-path: url(#clip-img-6);
      }

      .cls-2, .cls-6 {
        fill: #066de8;
      }

      .cls-3 {
        fill: none;
        stroke: #535461;
        stroke-miterlimit: 10;
        stroke-width: 2px;
      }

      .cls-4 {
        fill: #a8a8a8;
      }

      .cls-5, .cls-9 {
        fill: #585858;
      }

      .cls-5 {
        opacity: 0.2;
      }

      .cls-6, .cls-9 {
        opacity: 0.1;
      }

      .cls-7 {
        fill: url(#linear-gradient);
      }

      .cls-8 {
        fill: #474059;
      }

      .cls-10 {
        fill: #fff;
      }

      .cls-11 {
        fill: #d6d6e3;
      }

      .cls-12 {
        fill: #8499f0;
      }

      .cls-13 {
        fill: #fc6681;
      }

      .cls-14 {
        fill: #ffc74c;
      }

      .cls-15 {
        fill: #85d459;
      }

      .cls-16 {
        fill: #ffd037;
      }

      .cls-17 {
        fill: url(#linear-gradient-2);
      }

      .cls-18 {
        fill: url(#linear-gradient-3);
      }

      .cls-19 {
        fill: url(#linear-gradient-10);
      }

      .cls-20 {
        fill: url(#linear-gradient-17);
      }
    </style>
    <linearGradient id="linear-gradient" x1="0.5" y1="1" x2="0.5" gradientUnits="objectBoundingBox">
      <stop offset="0" stop-color="gray" stop-opacity="0.251"/>
      <stop offset="0.54" stop-color="gray" stop-opacity="0.122"/>
      <stop offset="1" stop-color="gray" stop-opacity="0.102"/>
    </linearGradient>
    <linearGradient id="linear-gradient-2" y2="0" xlink:href="#linear-gradient"/>
    <linearGradient id="linear-gradient-3" x1="0.5" x2="0.5" y2="1" gradientUnits="objectBoundingBox">
      <stop offset="0" stop-color="#2359f1"/>
      <stop offset="1" stop-color="#4c76cb"/>
    </linearGradient>
    <linearGradient id="linear-gradient-10" x1="0.5" x2="0.5" y2="1" gradientUnits="objectBoundingBox">
      <stop offset="0" stop-color="#22ea7c"/>
      <stop offset="1" stop-color="#28c76f"/>
    </linearGradient>
    <linearGradient id="linear-gradient-17" x1="0.5" x2="0.5" y2="1" gradientUnits="objectBoundingBox">
      <stop offset="0" stop-color="#fad961"/>
      <stop offset="1" stop-color="#f76b1c"/>
    </linearGradient>
    <clipPath id="clip-img-6">
      <rect width="425" height="425"/>
    </clipPath>
  </defs>
  <g id="img-6" class="cls-1">
    <g id="undraw_segmentation_uioo" transform="translate(0.556 61.037)">
      <path id="Path_1191" data-name="Path 1191" class="cls-2" d="M856.915,166.53,839,168.055S848.529,184.445,856.915,166.53Z" transform="translate(-535.672 -123.001)"/>
      <path id="Path_1192" data-name="Path 1192" class="cls-2" d="M802.99,140.53l14.187,11.362S798.8,159.207,802.99,140.53Z" transform="translate(-513.003 -106.911)"/>
      <path id="Path_1197" data-name="Path 1197" class="cls-3" d="M195.4,503.091s-12.129-31.835-2.6-56.7a51.614,51.614,0,0,0,1.654-32.608A86.8,86.8,0,0,0,188.71,399" transform="translate(-133.247 -266.863)"/>
      <path id="Path_1198" data-name="Path 1198" class="cls-2" d="M180.711,346.9c.309,3.995-6.019,16.135-6.019,16.135s-8.13-11.016-8.439-15.01a7.252,7.252,0,0,1,14.461-1.124Z" transform="translate(-119.337 -230.479)"/>
      <path id="Path_1199" data-name="Path 1199" class="cls-2" d="M217.346,395.961c-1.906,3.522-13.821,10.272-13.821,10.272s-.835-13.665,1.075-17.187a7.252,7.252,0,1,1,12.75,6.914Z" transform="translate(-142.303 -258.354)"/>
      <path id="Path_1200" data-name="Path 1200" class="cls-2" d="M218.634,490.793c-3.43,2.074-17.114,1.906-17.114,1.906s6.179-12.22,9.6-14.294a7.252,7.252,0,0,1,7.513,12.407Z" transform="translate(-141.175 -315.353)"/>
      <path id="Path_1201" data-name="Path 1201" class="cls-2" d="M207.43,568.129c-3.026,2.622-16.55,4.753-16.55,4.753s4.025-13.089,7.048-15.711a7.252,7.252,0,1,1,9.5,10.958Z" transform="translate(-134.59 -363.648)"/>
      <path id="Path_1202" data-name="Path 1202" class="cls-2" d="M159.9,424.593c3.08,2.561,16.645,4.406,16.645,4.406s-4.3-13-7.379-15.559a7.251,7.251,0,1,0-9.27,11.153Z" transform="translate(-113.795 -274.763)"/>
      <path id="Path_1203" data-name="Path 1203" class="cls-2" d="M143.8,512.056c3.7,1.525,17.2-.762,17.2-.762s-8-11.118-11.694-12.639a7.252,7.252,0,1,0-5.508,13.417Z" transform="translate(-102.673 -328.196)"/>
      <path id="Path_1204" data-name="Path 1204" class="cls-2" d="M144.813,601.481c3.4,2.123,17.087,2.142,17.087,2.142s-6-12.312-9.392-14.419a7.251,7.251,0,1,0-7.7,12.292Z" transform="translate(-103.975 -383.884)"/>
      <path id="Path_1205" data-name="Path 1205" class="cls-2" d="M180.711,346.9c.309,3.995-6.019,16.135-6.019,16.135s-8.13-11.016-8.439-15.01a7.252,7.252,0,0,1,14.461-1.124Z" transform="translate(-119.337 -230.479)"/>
      <path id="Path_1206" data-name="Path 1206" class="cls-2" d="M217.346,395.961c-1.906,3.522-13.821,10.272-13.821,10.272s-.835-13.665,1.075-17.187a7.252,7.252,0,1,1,12.75,6.914Z" transform="translate(-142.303 -258.354)"/>
      <path id="Path_1207" data-name="Path 1207" class="cls-2" d="M218.634,490.793c-3.43,2.074-17.114,1.906-17.114,1.906s6.179-12.22,9.6-14.294a7.252,7.252,0,0,1,7.513,12.407Z" transform="translate(-141.175 -315.353)"/>
      <path id="Path_1208" data-name="Path 1208" class="cls-2" d="M207.43,568.129c-3.026,2.622-16.55,4.753-16.55,4.753s4.025-13.089,7.048-15.711a7.252,7.252,0,1,1,9.5,10.958Z" transform="translate(-134.59 -363.648)"/>
      <path id="Path_1209" data-name="Path 1209" class="cls-2" d="M159.9,424.593c3.08,2.561,16.645,4.406,16.645,4.406s-4.3-13-7.379-15.559a7.251,7.251,0,1,0-9.27,11.153Z" transform="translate(-113.795 -274.763)"/>
      <path id="Path_1210" data-name="Path 1210" class="cls-2" d="M143.8,512.056c3.7,1.525,17.2-.762,17.2-.762s-8-11.118-11.694-12.639a7.252,7.252,0,1,0-5.508,13.417Z" transform="translate(-102.673 -328.196)"/>
      <path id="Path_1211" data-name="Path 1211" class="cls-2" d="M144.813,601.481c3.4,2.123,17.087,2.142,17.087,2.142s-6-12.312-9.392-14.419a7.251,7.251,0,1,0-7.7,12.292Z" transform="translate(-103.975 -383.884)"/>
      <path id="Path_1212" data-name="Path 1212" class="cls-4" d="M211.791,645.542s-9.2-1.109-11.816-3.335-13.8-5.611-14.778-2.5-15.273,14.553-4.867,15.57,24.36.534,27.268-.907S211.791,645.542,211.791,645.542Z" transform="translate(-125.725 -415.046)"/>
      <path id="Path_1213" data-name="Path 1213" class="cls-5" d="M180.257,665.6c10.409,1.014,24.345.537,27.272-.9,2.23-1.1,3.484-5.641,3.956-7.749l.309.038s-1.25,7.387-4.193,8.831-16.863,1.906-27.272.9c-3-.294-3.949-1.456-3.751-3.049C176.926,664.684,178.02,665.385,180.257,665.6Z" transform="translate(-125.725 -426.492)"/>
      <path id="Path_1214" data-name="Path 1214" class="cls-6" d="M442.275,231.7c-14.941,20.476-9.986,49.7-1.372,72.988,2.889,7.795,6.171,16.039,4.673,24.52-1.83,10.368-10.429,18.136-19.367,22.367-16.295,7.711-35.543,6.48-50.119-3.236-12.578-8.386-21.433-22.321-34.255-30.306-21.459-13.36-49.318-7.391-73.2,2.809-16.9,7.215-35.406,16.508-51.872,9.845-11.587-4.688-19.39-16.622-23.495-29.38-1.982-6.16-3.369-12.845-7.318-17.667a27.015,27.015,0,0,0-8.641-6.533c-29.117-15.246-66.57-5.717-94.8-22.729-19.058-11.488-30.92-33.782-35.848-57.22s-3.709-48.179-1.746-72.5c1.4-17.282,3.6-35.749,13.992-49.33C69.9,60.974,88.314,55.264,104.784,57.517s31.232,11.412,44.154,22.313c16.157,13.63,31.023,30.733,51.117,35.894,13.687,3.522,28.229,1.029,42.457-.072,23.784-1.837,47.485.278,71.041,2.668,22.549,2.287,45.255,4.841,66.612,12.338,15.113,5.306,27.093,15.334,41.322,22.187,9.274,4.467,19.477,5.5,28.206,11.275,10.772,7.109,20.506,19.7,17.347,34.815C464.055,213.3,450.2,220.837,442.275,231.7Z" transform="translate(-43.2 -55.245)"/>
      <path id="Path_1215" data-name="Path 1215" class="cls-7" d="M484.6,135H235.739A9.731,9.731,0,0,0,226,144.72V289.751a9.731,9.731,0,0,0,9.739,9.72H335.953v35.741h-9.43a2.325,2.325,0,0,0-2.325,2.321v4.818h73.137v-4.825a2.325,2.325,0,0,0-2.325-2.321H382.97V299.459H484.6a9.731,9.731,0,0,0,9.739-9.708V144.72A9.731,9.731,0,0,0,484.6,135Z" transform="translate(-156.324 -103.489)"/>
      <rect id="Rectangle_746" data-name="Rectangle 746" class="cls-8" width="46.223" height="44.603" transform="translate(180.243 189.201)"/>
      <rect id="Rectangle_747" data-name="Rectangle 747" class="cls-9" width="46.223" height="3.956" transform="translate(180.243 229.848)"/>
      <path id="Path_1216" data-name="Path 1216" class="cls-8" d="M444.847,603h67.332a2.287,2.287,0,0,1,2.287,2.287v4.757H442.56v-4.757A2.287,2.287,0,0,1,444.847,603Z" transform="translate(-273.874 -372.703)"/>
      <rect id="Rectangle_748" data-name="Rectangle 748" class="cls-8" width="263.82" height="162.031" rx="25.12" transform="translate(72.142 33.035)"/>
      <rect id="Rectangle_749" data-name="Rectangle 749" class="cls-10" width="252.157" height="132.369" transform="translate(77.696 51.96)"/>
      <ellipse id="Ellipse_257" data-name="Ellipse 257" class="cls-10" cx="2.222" cy="2.195" rx="2.222" ry="2.195" transform="translate(201.554 42.926)"/>
      <rect id="Rectangle_750" data-name="Rectangle 750" class="cls-9" width="46.079" height="0.869" transform="translate(180.342 195.177)"/>
      <path id="Path_1217" data-name="Path 1217" class="cls-11" d="M587.013,269.75a52.6,52.6,0,0,0,18.867,91.017l14.7-50.519Z" transform="translate(-367.945 -186.878)"/>
      <path id="Path_1218" data-name="Path 1218" class="cls-11" d="M654.505,238a52.383,52.383,0,0,0-33.565,12.1l33.565,40.5L682.3,245.939A52.349,52.349,0,0,0,654.505,238Z" transform="translate(-400.728 -167.23)"/>
      <path id="Path_1219" data-name="Path 1219" class="cls-12" d="M685.138,376l-14.7,50.515a52.631,52.631,0,0,0,67.3-49.589Z" transform="translate(-431.361 -252.63)"/>
      <rect id="Rectangle_754" data-name="Rectangle 754" class="cls-11" width="35.829" height="4.574" transform="translate(129.518 101.263)"/>
      <rect id="Rectangle_755" data-name="Rectangle 755" class="cls-11" width="35.829" height="4.574" transform="translate(129.518 121.083)"/>
      <rect id="Rectangle_756" data-name="Rectangle 756" class="cls-11" width="35.829" height="4.574" transform="translate(129.518 140.904)"/>
      <rect id="Rectangle_757" data-name="Rectangle 757" class="cls-11" width="252.328" height="4.574" transform="translate(77.681 51.712)"/>
      <circle id="Ellipse_258" data-name="Ellipse 258" class="cls-13" cx="1.143" cy="1.143" r="1.143" transform="translate(79.586 52.856)"/>
      <circle id="Ellipse_259" data-name="Ellipse 259" class="cls-14" cx="1.143" cy="1.143" r="1.143" transform="translate(82.636 52.856)"/>
      <circle id="Ellipse_260" data-name="Ellipse 260" class="cls-15" cx="1.143" cy="1.143" r="1.143" transform="translate(85.685 52.856)"/>
      <path id="Path_1221" data-name="Path 1221" class="cls-9" d="M946.99,594.55a2.953,2.953,0,0,1,.381.762c3.187,3.743,4.883,7.242,1.822,7.322-2.851.08-6.274,5.18-7.093,6.48a2.775,2.775,0,0,0,.1.294s4.01-6.67,7.276-6.762S950.585,598.56,946.99,594.55Z" transform="translate(-599.475 -387.877)"/>
      <path id="Path_1222" data-name="Path 1222" class="cls-16" d="M963.119,601.626c0,.839-.1,1.525-.21,1.525s-.21-.678-.21-1.525.118-.442.233-.442S963.119,600.787,963.119,601.626Z" transform="translate(-612.223 -391.922)"/>
      <path id="Path_1223" data-name="Path 1223" class="cls-16" d="M964.523,604.187c-.736.4-1.376.644-1.429.541s.5-.511,1.231-.911.446-.111.5,0S965.259,603.786,964.523,604.187Z" transform="translate(-612.464 -393.485)"/>
      <path id="Path_1225" data-name="Path 1225" class="cls-9" d="M923.091,594.55a2.949,2.949,0,0,0-.381.762c-3.186,3.743-4.883,7.242-1.822,7.322,2.851.08,6.274,5.18,7.093,6.48a2.747,2.747,0,0,1-.1.294s-4.01-6.67-7.276-6.762S919.5,598.56,923.091,594.55Z" transform="translate(-585.18 -387.877)"/>
      <path id="Path_1226" data-name="Path 1226" class="cls-16" d="M920.86,601.626c0,.839.1,1.525.21,1.525s.21-.678.21-1.525-.118-.442-.232-.442S920.86,600.787,920.86,601.626Z" transform="translate(-586.331 -391.922)"/>
      <path id="Path_1227" data-name="Path 1227" class="cls-16" d="M917.094,604.187c.736.4,1.376.644,1.429.541s-.5-.511-1.231-.911-.446-.111-.5,0S916.358,603.786,917.094,604.187Z" transform="translate(-583.723 -393.485)"/>
      <path id="Path_1230" data-name="Path 1230" class="cls-17" d="M788.174,385.695a57.132,57.132,0,0,0-26.963-48.545L731,385.695l57.174,1.006Z" transform="translate(-462.876 -268.829)"/>
      <path id="Path_1231" data-name="Path 1231" class="cls-2" d="M789.6,387.021a52.562,52.562,0,0,0-24.806-44.661L737,387.021l52.6.941Z" transform="translate(-466.589 -272.054)"/>
      <g id="Group_2316" data-name="Group 2316" transform="translate(107.578 97.07)">
        <path id="Path_1258" data-name="Path 1258" class="cls-18" d="M22.563,5.247c-.564.306-1.081.708-1.626,1.042a3.193,3.193,0,0,0-.306.2c0-.325.01-.612,0-.9-.01-.4.143-.87-.057-1.186-.2-.3-.641-.43-.975-.631C18.6,3.181,17.6,2.607,16.605,2A.461.461,0,0,0,16.079,2q-1.521.861-3.041,1.693c-.1.057-.2.1-.3.143-.516-.306-1.052-.583-1.588-.861-.143-.077-.325-.115-.354-.325,1.339-.794,2.678-1.578,4.017-2.391A5.086,5.086,0,0,1,15.964-.3h.545a5.581,5.581,0,0,1,1.234.507C19.092,1,20.45,1.794,21.817,2.569a1.857,1.857,0,0,1,.756.708C22.563,3.956,22.563,4.606,22.563,5.247Z" transform="translate(-9.767 0.3)"/>
        <path id="Path_1259" data-name="Path 1259" class="cls-18" d="M132.5,89.615c.038-.038.086-.077.124-.115v2.487h-.057c0-.689,0-1.377-.01-2.056C132.557,89.816,132.605,89.7,132.5,89.615Z" transform="translate(-119.828 -80.912)"/>
        <path id="Path_1260" data-name="Path 1260" class="cls-18" d="M12.672,87.263c.105.086.067.21.067.316.01.689.01,1.377.01,2.056a11.407,11.407,0,0,1-1.329.765c-1.033.583-2.066,1.157-3.108,1.731-.574.316-1.148.631-1.712.956a.345.345,0,0,1-.411-.019Q3.2,91.175.2,89.31a.384.384,0,0,1-.2-.363c.01-.66,0-1.329,0-2.047.5.3.947.574,1.4.851,1.578.956,3.146,1.913,4.724,2.888a.459.459,0,0,0,.545.01c1.951-1.09,3.959-2.085,5.834-3.309A.679.679,0,0,1,12.672,87.263Z" transform="translate(0 -78.561)"/>
        <path id="Path_1261" data-name="Path 1261" class="cls-18" d="M37.992,51.488a3.632,3.632,0,0,1-.65.363c-.115.067-.21-.01-.306-.057-.545-.277-1.1-.555-1.645-.842-.191-.105-.287-.115-.277.153.01.631.01,1.253,0,1.884a.349.349,0,0,0,.191.344c.574.354,1.148.717,1.7,1.1a.344.344,0,0,0,.411,0c.947-.526,1.922-1.014,2.879-1.645v1.033a.247.247,0,0,1-.143.22c-.947.536-1.9,1.062-2.85,1.6a.214.214,0,0,1-.249-.029c-.928-.583-1.865-1.167-2.793-1.75a.3.3,0,0,1-.163-.3c.01-1.014.01-2.018,0-3.032a.276.276,0,0,1,.153-.3c.316-.172.631-.354.947-.536a2.178,2.178,0,0,0,.918.536l1.09.6c.01.21.22.21.344.3C37.705,51.23,37.945,51.24,37.992,51.488Z" transform="translate(-30.839 -44.918)"/>
        <path id="Path_1262" data-name="Path 1262" class="cls-18" d="M.1,39.4c.7.354,1.358.7,2.018,1.042.1.048.1.143.1.23v4.323a1.466,1.466,0,0,1-.5-.268c-.478-.287-.947-.574-1.415-.87C.2,43.79.11,43.742.11,43.589.1,42.212.1,40.835.1,39.4Z" transform="translate(-0.09 -35.603)"/>
        <path id="Path_1263" data-name="Path 1263" class="cls-18" d="M48.3,41.191c-.048-.249-.287-.258-.449-.363-.124-.086-.325-.086-.344-.3a8.275,8.275,0,0,0,1.368-.631c-.411-.21-.765-.4-1.128-.583a.183.183,0,0,0-.172-.038,4.054,4.054,0,0,0-1.157.65,2.282,2.282,0,0,1-.918-.536c.545-.325,1.081-.66,1.626-.975a.953.953,0,0,1,.956.057c.756.43,1.5.861,2.257,1.3a.5.5,0,0,1,.268.469c-.01.593-.01,1.2,0,1.788a.347.347,0,0,1-.21.354c-.23.124-.44.268-.717.43V40.894c0-.354,0-.344-.325-.182A5.528,5.528,0,0,1,48.3,41.191Z" transform="translate(-41.149 -34.62)"/>
        <path id="Path_1264" data-name="Path 1264" class="cls-18" d="M1.385,30.8c.019.21.21.249.354.325.536.268,1.071.545,1.588.861-.067.067-.172.077-.23.124-.43.44-.842.268-1.282,0S.907,31.632.4,31.364C.754,31.154,1.069,30.972,1.385,30.8Z" transform="translate(-0.362 -27.826)"/>
      </g>
      <g id="Group_2317" data-name="Group 2317" transform="translate(107.578 116.446)">
        <path id="Path_1258-2" data-name="Path 1258" class="cls-19" d="M22.563,5.247c-.564.306-1.081.708-1.626,1.042a3.193,3.193,0,0,0-.306.2c0-.325.01-.612,0-.9-.01-.4.143-.87-.057-1.186-.2-.3-.641-.43-.975-.631C18.6,3.181,17.6,2.607,16.605,2A.461.461,0,0,0,16.079,2q-1.521.861-3.041,1.693c-.1.057-.2.1-.3.143-.516-.306-1.052-.583-1.588-.861-.143-.077-.325-.115-.354-.325,1.339-.794,2.678-1.578,4.017-2.391A5.086,5.086,0,0,1,15.964-.3h.545a5.581,5.581,0,0,1,1.234.507C19.092,1,20.45,1.794,21.817,2.569a1.857,1.857,0,0,1,.756.708C22.563,3.956,22.563,4.606,22.563,5.247Z" transform="translate(-9.767 0.3)"/>
        <path id="Path_1259-2" data-name="Path 1259" class="cls-19" d="M132.5,89.615c.038-.038.086-.077.124-.115v2.487h-.057c0-.689,0-1.377-.01-2.056C132.557,89.816,132.605,89.7,132.5,89.615Z" transform="translate(-119.828 -80.912)"/>
        <path id="Path_1260-2" data-name="Path 1260" class="cls-19" d="M12.672,87.263c.105.086.067.21.067.316.01.689.01,1.377.01,2.056a11.407,11.407,0,0,1-1.329.765c-1.033.583-2.066,1.157-3.108,1.731-.574.316-1.148.631-1.712.956a.345.345,0,0,1-.411-.019Q3.2,91.175.2,89.31a.384.384,0,0,1-.2-.363c.01-.66,0-1.329,0-2.047.5.3.947.574,1.4.851,1.578.956,3.146,1.913,4.724,2.888a.459.459,0,0,0,.545.01c1.951-1.09,3.959-2.085,5.834-3.309A.679.679,0,0,1,12.672,87.263Z" transform="translate(0 -78.561)"/>
        <path id="Path_1261-2" data-name="Path 1261" class="cls-19" d="M37.992,51.488a3.632,3.632,0,0,1-.65.363c-.115.067-.21-.01-.306-.057-.545-.277-1.1-.555-1.645-.842-.191-.105-.287-.115-.277.153.01.631.01,1.253,0,1.884a.349.349,0,0,0,.191.344c.574.354,1.148.717,1.7,1.1a.344.344,0,0,0,.411,0c.947-.526,1.922-1.014,2.879-1.645v1.033a.247.247,0,0,1-.143.22c-.947.536-1.9,1.062-2.85,1.6a.214.214,0,0,1-.249-.029c-.928-.583-1.865-1.167-2.793-1.75a.3.3,0,0,1-.163-.3c.01-1.014.01-2.018,0-3.032a.276.276,0,0,1,.153-.3c.316-.172.631-.354.947-.536a2.178,2.178,0,0,0,.918.536l1.09.6c.01.21.22.21.344.3C37.705,51.23,37.945,51.24,37.992,51.488Z" transform="translate(-30.839 -44.918)"/>
        <path id="Path_1262-2" data-name="Path 1262" class="cls-19" d="M.1,39.4c.7.354,1.358.7,2.018,1.042.1.048.1.143.1.23v4.323a1.466,1.466,0,0,1-.5-.268c-.478-.287-.947-.574-1.415-.87C.2,43.79.11,43.742.11,43.589.1,42.212.1,40.835.1,39.4Z" transform="translate(-0.09 -35.603)"/>
        <path id="Path_1263-2" data-name="Path 1263" class="cls-19" d="M48.3,41.191c-.048-.249-.287-.258-.449-.363-.124-.086-.325-.086-.344-.3a8.275,8.275,0,0,0,1.368-.631c-.411-.21-.765-.4-1.128-.583a.183.183,0,0,0-.172-.038,4.054,4.054,0,0,0-1.157.65,2.282,2.282,0,0,1-.918-.536c.545-.325,1.081-.66,1.626-.975a.953.953,0,0,1,.956.057c.756.43,1.5.861,2.257,1.3a.5.5,0,0,1,.268.469c-.01.593-.01,1.2,0,1.788a.347.347,0,0,1-.21.354c-.23.124-.44.268-.717.43V40.894c0-.354,0-.344-.325-.182A5.528,5.528,0,0,1,48.3,41.191Z" transform="translate(-41.149 -34.62)"/>
        <path id="Path_1264-2" data-name="Path 1264" class="cls-19" d="M1.385,30.8c.019.21.21.249.354.325.536.268,1.071.545,1.588.861-.067.067-.172.077-.23.124-.43.44-.842.268-1.282,0S.907,31.632.4,31.364C.754,31.154,1.069,30.972,1.385,30.8Z" transform="translate(-0.362 -27.826)"/>
      </g>
      <g id="Group_2318" data-name="Group 2318" transform="translate(107.578 135.822)">
        <path id="Path_1258-3" data-name="Path 1258" class="cls-20" d="M22.563,5.247c-.564.306-1.081.708-1.626,1.042a3.193,3.193,0,0,0-.306.2c0-.325.01-.612,0-.9-.01-.4.143-.87-.057-1.186-.2-.3-.641-.43-.975-.631C18.6,3.181,17.6,2.607,16.605,2A.461.461,0,0,0,16.079,2q-1.521.861-3.041,1.693c-.1.057-.2.1-.3.143-.516-.306-1.052-.583-1.588-.861-.143-.077-.325-.115-.354-.325,1.339-.794,2.678-1.578,4.017-2.391A5.086,5.086,0,0,1,15.964-.3h.545a5.581,5.581,0,0,1,1.234.507C19.092,1,20.45,1.794,21.817,2.569a1.857,1.857,0,0,1,.756.708C22.563,3.956,22.563,4.606,22.563,5.247Z" transform="translate(-9.767 0.3)"/>
        <path id="Path_1259-3" data-name="Path 1259" class="cls-20" d="M132.5,89.615c.038-.038.086-.077.124-.115v2.487h-.057c0-.689,0-1.377-.01-2.056C132.557,89.816,132.605,89.7,132.5,89.615Z" transform="translate(-119.828 -80.912)"/>
        <path id="Path_1260-3" data-name="Path 1260" class="cls-20" d="M12.672,87.263c.105.086.067.21.067.316.01.689.01,1.377.01,2.056a11.407,11.407,0,0,1-1.329.765c-1.033.583-2.066,1.157-3.108,1.731-.574.316-1.148.631-1.712.956a.345.345,0,0,1-.411-.019Q3.2,91.175.2,89.31a.384.384,0,0,1-.2-.363c.01-.66,0-1.329,0-2.047.5.3.947.574,1.4.851,1.578.956,3.146,1.913,4.724,2.888a.459.459,0,0,0,.545.01c1.951-1.09,3.959-2.085,5.834-3.309A.679.679,0,0,1,12.672,87.263Z" transform="translate(0 -78.561)"/>
        <path id="Path_1261-3" data-name="Path 1261" class="cls-20" d="M37.992,51.488a3.632,3.632,0,0,1-.65.363c-.115.067-.21-.01-.306-.057-.545-.277-1.1-.555-1.645-.842-.191-.105-.287-.115-.277.153.01.631.01,1.253,0,1.884a.349.349,0,0,0,.191.344c.574.354,1.148.717,1.7,1.1a.344.344,0,0,0,.411,0c.947-.526,1.922-1.014,2.879-1.645v1.033a.247.247,0,0,1-.143.22c-.947.536-1.9,1.062-2.85,1.6a.214.214,0,0,1-.249-.029c-.928-.583-1.865-1.167-2.793-1.75a.3.3,0,0,1-.163-.3c.01-1.014.01-2.018,0-3.032a.276.276,0,0,1,.153-.3c.316-.172.631-.354.947-.536a2.178,2.178,0,0,0,.918.536l1.09.6c.01.21.22.21.344.3C37.705,51.23,37.945,51.24,37.992,51.488Z" transform="translate(-30.839 -44.918)"/>
        <path id="Path_1262-3" data-name="Path 1262" class="cls-20" d="M.1,39.4c.7.354,1.358.7,2.018,1.042.1.048.1.143.1.23v4.323a1.466,1.466,0,0,1-.5-.268c-.478-.287-.947-.574-1.415-.87C.2,43.79.11,43.742.11,43.589.1,42.212.1,40.835.1,39.4Z" transform="translate(-0.09 -35.603)"/>
        <path id="Path_1263-3" data-name="Path 1263" class="cls-20" d="M48.3,41.191c-.048-.249-.287-.258-.449-.363-.124-.086-.325-.086-.344-.3a8.275,8.275,0,0,0,1.368-.631c-.411-.21-.765-.4-1.128-.583a.183.183,0,0,0-.172-.038,4.054,4.054,0,0,0-1.157.65,2.282,2.282,0,0,1-.918-.536c.545-.325,1.081-.66,1.626-.975a.953.953,0,0,1,.956.057c.756.43,1.5.861,2.257,1.3a.5.5,0,0,1,.268.469c-.01.593-.01,1.2,0,1.788a.347.347,0,0,1-.21.354c-.23.124-.44.268-.717.43V40.894c0-.354,0-.344-.325-.182A5.528,5.528,0,0,1,48.3,41.191Z" transform="translate(-41.149 -34.62)"/>
        <path id="Path_1264-3" data-name="Path 1264" class="cls-20" d="M1.385,30.8c.019.21.21.249.354.325.536.268,1.071.545,1.588.861-.067.067-.172.077-.23.124-.43.44-.842.268-1.282,0S.907,31.632.4,31.364C.754,31.154,1.069,30.972,1.385,30.8Z" transform="translate(-0.362 -27.826)"/>
      </g>
    </g>
  </g>
</svg>
