<svg xmlns="http://www.w3.org/2000/svg" xmlns:xlink="http://www.w3.org/1999/xlink" viewBox="0 0 693 454">
  <defs>
    <style>
      .cls-1 {
        clip-path: url(#clip-img-11);
      }

      .cls-2, .cls-4 {
        fill: #066de8;
      }

      .cls-2, .cls-6 {
        opacity: 0.2;
      }

      .cls-3, .cls-6 {
        fill: #f5f5f5;
      }

      .cls-5 {
        fill: none;
        stroke: #535461;
        stroke-miterlimit: 10;
        stroke-width: 2px;
      }

      .cls-7 {
        fill: url(#linear-gradient);
      }

      .cls-8 {
        fill: #535461;
      }

      .cls-9 {
        fill: #fff;
      }

      .cls-10 {
        fill: url(#linear-gradient-3);
      }

      .cls-11 {
        fill: #dddbe2;
      }
    </style>
    <linearGradient id="linear-gradient" x1="0.5" y1="1" x2="0.5" gradientUnits="objectBoundingBox">
      <stop offset="0" stop-color="gray" stop-opacity="0.251"/>
      <stop offset="0.54" stop-color="gray" stop-opacity="0.122"/>
      <stop offset="1" stop-color="gray" stop-opacity="0.102"/>
    </linearGradient>
    <linearGradient id="linear-gradient-3" x1="0.5" y1="1" x2="0.5" y2="0" xlink:href="#linear-gradient"/>
    <clipPath id="clip-img-11">
      <rect width="693" height="454"/>
    </clipPath>
  </defs>
  <g id="img-11" class="cls-1">
    <g id="asdasd" transform="translate(0.001 31.024)">
      <path id="Path_3338" data-name="Path 3338" class="cls-2" d="M179.4,144.045c-5.185-.148-10.5,0-15.362,1.492C150.8,149.6,144.529,162.907,146.569,174.4S157,195.915,165.7,205.07s18.135,18.206,22.908,29.148c2.38,5.462,3.493,11.58,1.074,17.035-3.731,8.408-14.983,13.1-25.784,14.082s-21.647-.926-32.487-1.563c-4.548-.264-9.225-.3-13.51.933-4.7,1.338-8.62,4.072-12.223,6.922-14.056,11.181-25.308,26.434-23.487,42.459,2.059,18.161,20.419,32.513,40.529,40.213,6.658,2.573,13.7,4.619,19.563,8.26,15.44,9.6,18.907,27.617,17.369,43.514s-6.774,31.812-3.86,47.567c3.429,18.328,18.6,34.887,39.075,42.619,18.238,6.89,41.063,6.433,57.255-3.287,7.893-4.748,13.863-11.342,19.055-18.161A146.51,146.51,0,0,0,290.124,442c2.258-5.462,4.381-11.335,9.65-15.131,3.217-2.335,7.385-3.641,11.509-4.658,12.429-3.062,25.52-3.9,38.065-6.626s25.166-7.829,31.986-16.9c9.65-12.866,5.146-29.348,5.191-44.479.077-34.52,25.16-65.418,34.417-99.07,3.024-10.994,4.149-23.159-2.605-32.97-4.587-6.658-12.326-11.464-20.457-15.176-17.891-8.164-38.226-11.8-58.226-15.337-27.8-4.915-61.552-5.552-83.1-21.454C235.88,154.936,207.593,144.045,179.4,144.045Z" transform="translate(-82 -144)"/>
      <ellipse id="Ellipse_442" data-name="Ellipse 442" class="cls-3" cx="299.14" cy="80.105" rx="299.14" ry="80.105" transform="translate(68.191 233.497)"/>
      <path id="Path_3339" data-name="Path 3339" class="cls-4" d="M1021.246,330.86s-23.05,23.05-10.036,57.255S988.9,479.2,988.9,479.2s.38-.058,1.081-.18c47.341-8.363,70.867-62.5,44.543-102.731C1024.739,361.34,1016.7,343.816,1021.246,330.86Z" transform="translate(-405.481 -210.651)"/>
      <path id="Path_3340" data-name="Path 3340" class="cls-5" d="M1021.246,330.86s-13.014,28.254,0,51.3,2.232,87.741-32.346,97.037" transform="translate(-405.481 -210.651)"/>
      <path id="Path_3341" data-name="Path 3341" class="cls-4" d="M1059.045,475.63s-26.3-4.188-28.7,19.383-50.577,26.839-50.577,26.839l.9.6c39.782,26.112,77.841,16.636,72.051-18.013C1050.618,491.52,1050.792,478.57,1059.045,475.63Z" transform="translate(-402.224 -262.186)"/>
      <path id="Path_3342" data-name="Path 3342" class="cls-6" d="M1059.045,475.63s-26.3-4.188-28.7,19.383-50.577,26.839-50.577,26.839l.9.6c39.782,26.112,77.841,16.636,72.051-18.013C1050.618,491.52,1050.792,478.57,1059.045,475.63Z" transform="translate(-402.224 -262.186)"/>
      <path id="Path_3343" data-name="Path 3343" class="cls-5" d="M1059.045,475.79s-20.419,4.5-18.74,23.043-30.319,40.818-60.536,23.159" transform="translate(-402.224 -262.346)"/>
      <path id="Path_3344" data-name="Path 3344" class="cls-7" d="M768.558,448.482H727.232a13.782,13.782,0,0,0,1.441-6.156V254.118a13.838,13.838,0,0,0-13.838-13.838H394.89a13.838,13.838,0,0,0-13.844,13.838V442.331a13.779,13.779,0,0,0,1.441,6.157H339.7a3.66,3.66,0,0,0-3.66,3.66V455.1a20.47,20.47,0,0,0,20.47,20.451H751.748a20.47,20.47,0,0,0,20.47-20.47v-2.953a3.661,3.661,0,0,0-3.661-3.648ZM513.877,460.19l-3.525-4.021h87.954l-3.924,4.027Z" transform="translate(-172.613 -178.342)"/>
      <path id="Path_3383" data-name="Path 3383" class="cls-8" d="M29.955,0H309.791a29.955,29.955,0,0,1,29.955,29.955l-.51,175.908c0,16.544-12.9,5.136-29.446,5.136H29.955A29.955,29.955,0,0,1,0,181.045V29.955A29.955,29.955,0,0,1,29.955,0Z" transform="translate(212.363 64.601)"/>
      <rect id="Rectangle_1219" data-name="Rectangle 1219" class="cls-9" width="324.725" height="172.375" transform="translate(219.511 95.358)"/>
      <circle id="Ellipse_443" data-name="Ellipse 443" class="cls-9" cx="2.863" cy="2.863" r="2.863" transform="translate(379.013 77.474)"/>
      <path id="Path_3345" data-name="Path 3345" class="cls-8" d="M607.372,560.73l-11.161,11.445H517.534L507.453,560.73H347.307a3.577,3.577,0,0,0-3.577,3.577v2.882A20.007,20.007,0,0,0,363.737,587.2H750.014a20.007,20.007,0,0,0,20.007-20.007v-2.882a3.577,3.577,0,0,0-3.577-3.577Z" transform="translate(-175.356 -292.643)"/>
      <path id="Path_3346" data-name="Path 3346" class="cls-7" d="M497.494,301.65H360.514a12.551,12.551,0,0,0-12.564,12.532V503.959a12.551,12.551,0,0,0,12.564,12.532h136.98a12.551,12.551,0,0,0,12.564-12.532V314.182a12.551,12.551,0,0,0-12.564-12.532Z" transform="translate(-176.862 -200.232)"/>
      <rect id="Rectangle_1220" data-name="Rectangle 1220" class="cls-8" width="158.255" height="210.363" rx="20" transform="translate(173.012 103.991)"/>
      <rect id="Rectangle_1221" data-name="Rectangle 1221" class="cls-9" width="142.172" height="170.568" transform="translate(181.053 123.889)"/>
      <circle id="Ellipse_444" data-name="Ellipse 444" class="cls-9" cx="1.93" cy="1.93" r="1.93" transform="translate(249.566 111.711)"/>
      <circle id="Ellipse_445" data-name="Ellipse 445" class="cls-9" cx="5.79" cy="5.79" r="5.79" transform="translate(245.706 298.272)"/>
      <path id="Path_3347" data-name="Path 3347" class="cls-10" d="M375.25,401.65H304.917a6.954,6.954,0,0,0-6.967,6.941V562.613a6.954,6.954,0,0,0,6.967,6.941H375.25a6.954,6.954,0,0,0,6.967-6.941V408.591a6.954,6.954,0,0,0-6.967-6.941Z" transform="translate(-159.027 -235.901)"/>
      <rect id="Rectangle_1222" data-name="Rectangle 1222" class="cls-8" width="82.987" height="165.975" rx="11" transform="translate(139.56 167.036)"/>
      <rect id="Rectangle_1223" data-name="Rectangle 1223" class="cls-9" width="70.764" height="135.096" transform="translate(145.671 182.475)"/>
      <circle id="Ellipse_446" data-name="Ellipse 446" class="cls-9" cx="0.643" cy="0.643" r="0.643" transform="translate(172.047 174.112)"/>
      <rect id="Rectangle_1224" data-name="Rectangle 1224" class="cls-9" width="14.153" height="1.287" rx="0.643" transform="translate(175.907 174.112)"/>
      <circle id="Ellipse_447" data-name="Ellipse 447" class="cls-9" cx="4.503" cy="4.503" r="4.503" transform="translate(176.228 319.501)"/>
      <path id="Path_3348" data-name="Path 3348" class="cls-5" d="M283.868,629s-8.53-28.949,1.6-50.268a45.733,45.733,0,0,0,3.718-28.7,76.934,76.934,0,0,0-4.059-13.465" transform="translate(-152.807 -284.025)"/>
      <path id="Path_3349" data-name="Path 3349" class="cls-4" d="M290.316,512.063c0,3.551-6.433,13.838-6.433,13.838s-6.433-10.293-6.433-13.838a6.433,6.433,0,1,1,12.866,0Z" transform="translate(-151.715 -272.989)"/>
      <path id="Path_3350" data-name="Path 3350" class="cls-4" d="M306.838,540.55c-1.93,2.978-12.918,8.125-12.918,8.125s.2-12.133,2.129-15.111a6.433,6.433,0,1,1,10.788,6.986Z" transform="translate(-157.59 -281.816)"/>
      <path id="Path_3351" data-name="Path 3351" class="cls-4" d="M304.783,591.723c-3.172,1.6-15.253.5-15.253.5s6.3-10.37,9.463-11.966a6.433,6.433,0,0,1,5.79,11.477Z" transform="translate(-156.024 -299.402)"/>
      <path id="Path_3352" data-name="Path 3352" class="cls-4" d="M295.511,631.462c-2.856,2.11-14.951,3.062-14.951,3.062s4.452-11.284,7.308-13.394a6.433,6.433,0,0,1,7.642,10.332Z" transform="translate(-152.824 -313.801)"/>
      <path id="Path_3353" data-name="Path 3353" class="cls-4" d="M271.705,553.654c2.573,2.47,14.4,5.037,14.4,5.037s-2.9-11.779-5.449-14.249a6.433,6.433,0,1,0-8.955,9.219Z" transform="translate(-148.891 -286.107)"/>
      <path id="Path_3354" data-name="Path 3354" class="cls-4" d="M260.352,599.276c3.172,1.6,15.253.5,15.253.5s-6.3-10.37-9.463-11.966a6.433,6.433,0,1,0-5.79,11.477Z" transform="translate(-144.267 -302.008)"/>
      <path id="Path_3355" data-name="Path 3355" class="cls-4" d="M257.141,646.061c2.856,2.11,14.951,3.062,14.951,3.062s-4.452-11.284-7.308-13.394a6.433,6.433,0,0,0-7.643,10.332Z" transform="translate(-143.629 -319.008)"/>
      <path id="Path_3379" data-name="Path 3379" class="cls-11" d="M797.948,680a.6.6,0,0,1-.058.18,18.836,18.836,0,0,0-1.01,3.4c.154-.5.335-1.016.54-1.531A9.339,9.339,0,0,0,797.948,680Z" transform="translate(-336.989 -335.185)"/>
      <path id="Path_3382" data-name="Path 3382" class="cls-11" d="M702.891,686.217c-.341.09-.676.547-.991,1.171l.1-.039c.283-.077.765-.643,1.351-1.48a1.25,1.25,0,0,1-.463.347Z" transform="translate(-303.111 -337.279)"/>
    </g>
  </g>
</svg>
