<svg xmlns="http://www.w3.org/2000/svg" xmlns:xlink="http://www.w3.org/1999/xlink" viewBox="0 0 95.053 98.526">
  <defs>
    <style>
      .cls-1 {
        fill: url(#linear-gradient);
      }

      .cls-2 {
        fill: #fff;
        font-size: 14px;
        font-family: FontAwesome5BrandsRegular, "Font Awesome 5 Brands";
      }

      .cls-3 {
        filter: url(#Path_2959);
      }
    </style>
    <linearGradient id="linear-gradient" x1="0.5" x2="0.5" y2="1" gradientUnits="objectBoundingBox">
      <stop offset="0" stop-color="#2359f1"/>
      <stop offset="1" stop-color="#4c76cb"/>
    </linearGradient>
    <filter id="Path_2959" x="0" y="0" width="95.053" height="98.526" filterUnits="userSpaceOnUse">
      <feOffset dy="3" input="SourceAlpha"/>
      <feGaussianBlur stdDeviation="11" result="blur"/>
      <feFlood flood-opacity="0.161"/>
      <feComposite operator="in" in2="blur"/>
      <feComposite in="SourceGraphic"/>
    </filter>
  </defs>
  <g id="in" transform="translate(-99.062 -9117.362)">
    <g class="cls-3" transform="matrix(1, 0, 0, 1, 99.06, 9117.36)">
      <path id="Path_2959-2" data-name="Path 2959" class="cls-1" d="M14.916,33.026a3.4,3.4,0,0,1-1.565-.407L1.965,26.037A3.125,3.125,0,0,1,.4,23.335V8.39L13.372.907A3.047,3.047,0,0,1,14.937.5,3.4,3.4,0,0,1,16.5.907L27.888,7.49a3.125,3.125,0,0,1,1.565,2.7V25.136L16.5,32.619A3.181,3.181,0,0,1,14.916,33.026Z" transform="translate(32.6 29.5)"/>
    </g>
    <text id="_" data-name="" class="cls-2" transform="translate(140.57 9166.994)"><tspan x="0" y="0"></tspan></text>
  </g>
</svg>
