<svg xmlns="http://www.w3.org/2000/svg" viewBox="0 0 1339.21 1075.606">
  <defs>
    <style>
      .cls-1 {
        fill: none;
        stroke: #fff;
      }
    </style>
  </defs>
  <path id="lines" class="cls-1" d="M192.679,564.837l-.266.278.266-.278L51.707,533.1,21.02,565.114,51.707,533.1,0,521.457,51.707,533.1,165.234,414.658,93.782,398.571l71.453,16.087,89.67-93.552-94.021-21.168L254.9,321.106l91.806-95.78L232.837,199.689,346.71,225.327l99.945-104.271-20.6-4.637,20.6,4.637L538.438,25.3,426.059,0,538.438,25.3,562.688,0,538.438,25.3,679.41,57.039,734.082,0,679.41,57.039,825.037,89.825,911.135,0l-86.1,89.825,191.51,43.116L1143.972,0,1016.547,132.941l149.254,33.6-149.254-33.6L924.765,228.7,1165.8,282.961,924.765,228.7,824.82,332.967l147.759,33.266L824.82,332.967l-91.806,95.78,167.612,37.736L733.014,428.746,643.343,522.3l190.18,42.816L643.343,522.3,602.3,565.114l41.04-42.816-191.51-43.116-82.367,85.932,82.367-85.932L306.206,446.4,192.679,564.837,739.742,688Zm0,0L306.206,446.4,165.234,414.658,51.707,533.1ZM643.343,522.3l89.67-93.552L541.5,385.63l-89.67,93.552Zm-191.51-43.116L541.5,385.63,395.877,352.844,306.206,446.4ZM306.206,446.4l89.67-93.552L254.9,321.106l-89.67,93.552Zm426.807-17.65,91.806-95.78L633.31,289.851,541.5,385.63ZM541.5,385.63l91.806-95.78L487.683,257.065l-91.806,95.78ZM395.877,352.844l91.806-95.78L346.71,225.327,254.9,321.106ZM824.82,332.967,924.765,228.7l-191.51-43.116L633.31,289.851ZM633.31,289.851l99.945-104.271L587.628,152.793,487.683,257.065ZM487.683,257.065l99.945-104.271L446.655,121.055,346.71,225.327ZM924.765,228.7l91.782-95.755L825.037,89.825l-91.782,95.755Zm-191.51-43.116,91.782-95.755L679.41,57.039l-91.782,95.755ZM587.628,152.793,679.41,57.039,538.438,25.3l-91.782,95.755Z" transform="translate(258.014 0.493) rotate(22)"/>
</svg>
