<svg xmlns="http://www.w3.org/2000/svg" xmlns:xlink="http://www.w3.org/1999/xlink" viewBox="0 0 59.053 62.526">
  <defs>
    <style>
      .cls-1 {
        fill: url(#linear-gradient);
      }

      .cls-2 {
        fill: #fff;
      }

      .cls-3 {
        filter: url(#social-back);
      }
    </style>
    <linearGradient id="linear-gradient" x1="0.5" x2="0.5" y2="1" gradientUnits="objectBoundingBox">
      <stop offset="0" stop-color="#2359f1"/>
      <stop offset="1" stop-color="#0aadf3"/>
    </linearGradient>
    <filter id="social-back" x="0" y="0" width="59.053" height="62.526" filterUnits="userSpaceOnUse">
      <feOffset dy="3" input="SourceAlpha"/>
      <feGaussianBlur stdDeviation="5" result="blur"/>
      <feFlood flood-opacity="0.161"/>
      <feComposite operator="in" in2="blur"/>
      <feComposite in="SourceGraphic"/>
    </filter>
  </defs>
  <g id="ln" transform="translate(-435 -12171)">
    <g class="cls-3" transform="matrix(1, 0, 0, 1, 435, 12171)">
      <path id="social-back-2" data-name="social-back" class="cls-1" d="M14.916,33.026a3.4,3.4,0,0,1-1.565-.407L1.965,26.037A3.125,3.125,0,0,1,.4,23.335V8.39L13.372.907A3.047,3.047,0,0,1,14.937.5,3.4,3.4,0,0,1,16.5.907L27.888,7.49a3.125,3.125,0,0,1,1.565,2.7V25.136L16.5,32.619A3.181,3.181,0,0,1,14.916,33.026Z" transform="translate(14.6 11.5)"/>
    </g>
    <path id="Path_4237" data-name="Path 4237" class="cls-2" d="M-3.391.875V-7.3H-5.934V.875Zm-1.258-9.3a1.419,1.419,0,0,0,1.039-.437A1.419,1.419,0,0,0-3.172-9.9a1.419,1.419,0,0,0-.437-1.039,1.419,1.419,0,0,0-1.039-.437,1.419,1.419,0,0,0-1.039.438A1.419,1.419,0,0,0-6.125-9.9a1.419,1.419,0,0,0,.438,1.039A1.419,1.419,0,0,0-4.648-8.422ZM6.125.875V-3.609A5.53,5.53,0,0,0,5.578-6.4,2.714,2.714,0,0,0,3.09-7.52a2.7,2.7,0,0,0-1.531.438,2.185,2.185,0,0,0-.875.9H.656V-7.3H-1.777V.875H.738V-3.172a3.052,3.052,0,0,1,.273-1.449,1.281,1.281,0,0,1,1.23-.656,1.151,1.151,0,0,1,1.176.738,4.417,4.417,0,0,1,.164,1.422V.875Z" transform="translate(463.508 12203.632)"/>
  </g>
</svg>
