<svg xmlns="http://www.w3.org/2000/svg" viewBox="0 0 46.955 53.483">
  <defs>
    <style>
      .cls-1 {
        fill: #4470d1;
      }
    </style>
  </defs>
  <g id="logo-secondary" transform="translate(-463 -9262)">
    <path id="Path_1258" data-name="Path 1258" class="cls-1" d="M53.933,20.039c-2.069,1.122-3.963,2.595-5.961,3.822a11.708,11.708,0,0,0-1.122.736c0-1.192.035-2.244,0-3.3-.035-1.473.526-3.191-.21-4.348-.736-1.087-2.35-1.578-3.577-2.314-3.647-2.174-7.329-4.278-10.976-6.487a1.689,1.689,0,0,0-1.929-.035q-5.576,3.156-11.151,6.207c-.351.21-.736.351-1.087.526-1.894-1.122-3.857-2.139-5.821-3.156-.526-.281-1.192-.421-1.3-1.192,4.909-2.911,9.819-5.786,14.728-8.767A18.647,18.647,0,0,1,29.736-.3h2a20.464,20.464,0,0,1,4.524,1.859C41.2,4.469,46.183,7.38,51.2,10.22a6.81,6.81,0,0,1,2.77,2.595C53.933,15.3,53.933,17.689,53.933,20.039Z" transform="translate(455.987 9262.3)"/>
    <path id="Path_1259" data-name="Path 1259" class="cls-1" d="M132.5,89.921c.14-.14.316-.281.456-.421v9.117h-.21c0-2.525,0-5.05-.035-7.539C132.71,90.657,132.886,90.236,132.5,89.921Z" transform="translate(376.964 9203.99)"/>
    <path id="Path_1260" data-name="Path 1260" class="cls-1" d="M46.464,88.233c.386.316.245.771.245,1.157.035,2.525.035,5.05.035,7.539a41.831,41.831,0,0,1-4.874,2.805c-3.787,2.139-7.575,4.243-11.4,6.347-2.1,1.157-4.208,2.314-6.277,3.507a1.266,1.266,0,0,1-1.508-.07Q11.748,102.575.736,95.737A1.408,1.408,0,0,1,0,94.4c.035-2.42,0-4.874,0-7.5,1.823,1.087,3.472,2.1,5.12,3.121,5.786,3.507,11.537,7.013,17.323,10.59a1.684,1.684,0,0,0,2,.035C31.6,96.649,38.96,93,45.833,88.513A2.491,2.491,0,0,1,46.464,88.233Z" transform="translate(463 9205.679)"/>
    <path id="Path_1261" data-name="Path 1261" class="cls-1" d="M48.372,56.258a13.316,13.316,0,0,1-2.385,1.333c-.421.245-.771-.035-1.122-.21-2-1.017-4.033-2.034-6.032-3.086-.7-.386-1.052-.421-1.017.561.035,2.314.035,4.594,0,6.908a1.278,1.278,0,0,0,.7,1.262c2.1,1.3,4.208,2.63,6.242,4.033a1.262,1.262,0,0,0,1.508,0c3.472-1.929,7.049-3.717,10.555-6.032v3.787a.905.905,0,0,1-.526.807c-3.472,1.964-6.978,3.892-10.45,5.856a.783.783,0,0,1-.912-.105c-3.4-2.139-6.838-4.278-10.24-6.417a1.111,1.111,0,0,1-.6-1.087c.035-3.717.035-7.4,0-11.116a1.012,1.012,0,0,1,.561-1.087c1.157-.631,2.314-1.3,3.472-1.964A7.987,7.987,0,0,0,41.5,51.664l4,2.209c.035.771.807.771,1.262,1.087C47.32,55.311,48.2,55.346,48.372,56.258Z" transform="translate(440.858 9229.834)"/>
    <path id="Path_1262" data-name="Path 1262" class="cls-1" d="M.1,39.4c2.56,1.3,4.98,2.56,7.4,3.822.351.175.351.526.351.842v15.85a5.376,5.376,0,0,1-1.823-.982c-1.753-1.052-3.472-2.1-5.19-3.191-.386-.245-.7-.421-.7-.982C.1,49.71.1,44.66.1,39.4Z" transform="translate(462.935 9236.521)"/>
    <path id="Path_1263" data-name="Path 1263" class="cls-1" d="M55.775,48.864c-.175-.912-1.052-.947-1.648-1.333-.456-.316-1.192-.316-1.262-1.087a30.344,30.344,0,0,0,5.015-2.314c-1.508-.771-2.805-1.473-4.138-2.139a.673.673,0,0,0-.631-.14,14.865,14.865,0,0,0-4.243,2.385A8.37,8.37,0,0,1,45.5,42.271c2-1.192,3.963-2.42,5.961-3.577a3.5,3.5,0,0,1,3.507.21c2.77,1.578,5.506,3.156,8.276,4.769a1.84,1.84,0,0,1,.982,1.718c-.035,2.174-.035,4.383,0,6.558a1.272,1.272,0,0,1-.771,1.3c-.842.456-1.613.982-2.63,1.578V47.777c0-1.3,0-1.262-1.192-.666A20.27,20.27,0,0,1,55.775,48.864Z" transform="translate(433.456 9237.228)"/>
    <path id="Path_1264" data-name="Path 1264" class="cls-1" d="M4.012,30.8c.07.771.771.912,1.3,1.192,1.964.982,3.928,2,5.821,3.156-.245.245-.631.281-.842.456-1.578,1.613-3.086.982-4.7,0S2.259,33.851.4,32.869C1.7,32.1,2.855,31.431,4.012,30.8Z" transform="translate(462.74 9242.105)"/>
  </g>
</svg>
