<svg xmlns="http://www.w3.org/2000/svg" xmlns:xlink="http://www.w3.org/1999/xlink" viewBox="0 0 221.062 239.601">
  <defs>
    <style>
      .cls-1 {
        fill: url(#linear-gradient);
      }

      .cls-2 {
        fill: #fff;
      }

      .cls-3 {
        filter: url(#Path_2995);
      }
    </style>
    <linearGradient id="linear-gradient" x1="0.5" x2="0.5" y2="1" gradientUnits="objectBoundingBox">
      <stop offset="0" stop-color="#2359f1"/>
      <stop offset="1" stop-color="#0aadf3"/>
    </linearGradient>
    <filter id="Path_2995" x="0" y="0" width="221.062" height="239.601" filterUnits="userSpaceOnUse">
      <feOffset dy="3" input="SourceAlpha"/>
      <feGaussianBlur stdDeviation="11" result="blur"/>
      <feFlood flood-opacity="0.161"/>
      <feComposite operator="in" in2="blur"/>
      <feComposite in="SourceGraphic"/>
    </filter>
  </defs>
  <g id="logo-primary" transform="translate(-572.962 -5373)">
    <g class="cls-3" transform="matrix(1, 0, 0, 1, 572.96, 5373)">
      <path id="Path_2995-2" data-name="Path 2995" class="cls-1" d="M77.874,174.1a18.171,18.171,0,0,1-8.354-2.174L8.754,136.794A16.679,16.679,0,0,1,.4,122.375V42.613L69.634,2.674A16.264,16.264,0,0,1,77.988.5a18.171,18.171,0,0,1,8.354,2.174l60.766,35.132a16.679,16.679,0,0,1,8.354,14.419v79.762l-69.12,39.938A16.98,16.98,0,0,1,77.874,174.1Z" transform="translate(32.6 29.5)"/>
    </g>
    <g id="Group_2333" data-name="Group 2333" transform="translate(0 0.387)">
      <path id="Path_2997" data-name="Path 2997" class="cls-2" d="M74.8,68.4c-2,1.8-4.6,2.5-6.8,3.8-1.2.7-2.2-.1-3.2-.6-5.7-2.9-11.5-5.8-17.2-8.8-2-1.1-3-1.2-2.9,1.6.1,6.6.1,13.1,0,19.7a3.645,3.645,0,0,0,2,3.6c6,3.7,12,7.5,17.8,11.5,1.6,1.1,2.8.8,4.3,0C78.7,93.7,88.9,88.6,98.9,82V92.8a2.582,2.582,0,0,1-1.5,2.3c-9.9,5.6-19.9,11.1-29.8,16.7a2.233,2.233,0,0,1-2.6-.3c-9.7-6.1-19.5-12.2-29.2-18.3a3.168,3.168,0,0,1-1.7-3.1c.1-10.6.1-21.1,0-31.7,0-1.4.2-2.4,1.6-3.1,3.3-1.8,6.6-3.7,9.9-5.6a22.775,22.775,0,0,0,9.6,5.6l11.4,6.3c.1,2.2,2.3,2.2,3.6,3.1C71.8,65.7,74.3,65.8,74.8,68.4Z" transform="translate(617.336 5413.3)"/>
      <path id="Path_2996" data-name="Path 2996" class="cls-2" d="M74.8,68.4c-.5-2.6-3-2.7-4.7-3.8-1.3-.9-3.4-.9-3.6-3.1,4.9-1.4,9.3-4.1,14.3-6.6-4.3-2.2-8-4.2-11.8-6.1a1.918,1.918,0,0,0-1.8-.4c-4.2,2-8.7,3.5-12.1,6.8a23.867,23.867,0,0,1-9.6-5.6c5.7-3.4,11.3-6.9,17-10.2,3.3-1.8,6.8-1.2,10,.6,7.9,4.5,15.7,9,23.6,13.6a5.247,5.247,0,0,1,2.8,4.9c-.1,6.2-.1,12.5,0,18.7a3.628,3.628,0,0,1-2.2,3.7c-2.4,1.3-4.6,2.8-7.5,4.5V65.3c0-3.7,0-3.6-3.4-1.9C82.3,65.1,78.8,67.4,74.8,68.4Z" transform="translate(617.336 5413.3)"/>
    </g>
  </g>
</svg>
