<svg xmlns="http://www.w3.org/2000/svg" viewBox="0 0 56.642 64.517">
  <defs>
    <style>
      .cls-1 {
        fill: #fff;
      }
    </style>
  </defs>
  <g id="logo-white" transform="translate(-644 -8704)">
    <path id="Path_1258" data-name="Path 1258" class="cls-1" d="M62.831,24.235c-2.5,1.354-4.78,3.13-7.191,4.611a14.122,14.122,0,0,0-1.354.888c0-1.438.042-2.707,0-3.976-.042-1.777.635-3.849-.254-5.245-.888-1.311-2.834-1.9-4.315-2.792-4.4-2.623-8.841-5.161-13.24-7.826a2.038,2.038,0,0,0-2.327-.042Q27.424,13.659,20.7,17.34c-.423.254-.888.423-1.311.635-2.284-1.354-4.653-2.58-7.022-3.807-.635-.338-1.438-.508-1.565-1.438,5.922-3.511,11.844-6.98,17.767-10.575A22.494,22.494,0,0,1,33.643-.3h2.411a24.685,24.685,0,0,1,5.457,2.242c5.964,3.511,11.971,7.022,18.02,10.448a8.215,8.215,0,0,1,3.342,3.13C62.831,18.524,62.831,21.4,62.831,24.235Z" transform="translate(637.769 8704.3)"/>
    <path id="Path_1259" data-name="Path 1259" class="cls-1" d="M132.5,90.008c.169-.169.381-.338.55-.508v11H132.8c0-3.046,0-6.091-.042-9.095C132.754,90.9,132.965,90.388,132.5,90.008Z" transform="translate(567.549 8652.486)"/>
    <path id="Path_1260" data-name="Path 1260" class="cls-1" d="M56.049,88.507c.465.381.3.931.3,1.4.042,3.046.042,6.091.042,9.095a50.459,50.459,0,0,1-5.88,3.384c-4.569,2.58-9.137,5.118-13.748,7.657-2.538,1.4-5.076,2.792-7.572,4.23a1.527,1.527,0,0,1-1.819-.085Q14.171,105.809.888,97.56A1.7,1.7,0,0,1,0,95.952c.042-2.919,0-5.88,0-9.052,2.2,1.311,4.188,2.538,6.176,3.765,6.98,4.23,13.917,8.46,20.9,12.775a2.032,2.032,0,0,0,2.411.042C38.114,98.66,47,94.26,55.288,88.846A3.005,3.005,0,0,1,56.049,88.507Z" transform="translate(644 8653.986)"/>
    <path id="Path_1261" data-name="Path 1261" class="cls-1" d="M51.317,57.61a16.063,16.063,0,0,1-2.876,1.607c-.508.3-.931-.042-1.354-.254-2.411-1.227-4.865-2.453-7.276-3.723-.846-.465-1.269-.508-1.227.677.042,2.792.042,5.541,0,8.333a1.542,1.542,0,0,0,.846,1.523c2.538,1.565,5.076,3.173,7.53,4.865a1.523,1.523,0,0,0,1.819,0c4.188-2.327,8.5-4.484,12.733-7.276v4.569a1.092,1.092,0,0,1-.635.973c-4.188,2.369-8.418,4.7-12.606,7.064a.945.945,0,0,1-1.1-.127c-4.1-2.58-8.249-5.161-12.352-7.741A1.34,1.34,0,0,1,34.1,66.79c.042-4.484.042-8.926,0-13.41a1.221,1.221,0,0,1,.677-1.311c1.4-.761,2.792-1.565,4.188-2.369a9.634,9.634,0,0,0,4.061,2.369l4.822,2.665c.042.931.973.931,1.523,1.311C50.048,56.468,51.105,56.511,51.317,57.61Z" transform="translate(624.325 8675.45)"/>
    <path id="Path_1262" data-name="Path 1262" class="cls-1" d="M.1,39.4c3.088,1.565,6.007,3.088,8.926,4.611.423.212.423.635.423,1.015v19.12a6.485,6.485,0,0,1-2.2-1.184C5.134,61.693,3.061,60.424.988,59.112c-.465-.3-.846-.508-.846-1.184C.1,51.837.1,45.745.1,39.4Z" transform="translate(643.942 8681.394)"/>
    <path id="Path_1263" data-name="Path 1263" class="cls-1" d="M57.894,51.04c-.212-1.1-1.269-1.142-1.988-1.607-.55-.381-1.438-.381-1.523-1.311a36.6,36.6,0,0,0,6.049-2.792c-1.819-.931-3.384-1.777-4.992-2.58a.812.812,0,0,0-.761-.169c-1.777.846-3.68,1.481-5.118,2.876A10.1,10.1,0,0,1,45.5,43.088c2.411-1.438,4.78-2.919,7.191-4.315a4.217,4.217,0,0,1,4.23.254c3.342,1.9,6.641,3.807,9.983,5.753a2.22,2.22,0,0,1,1.184,2.073c-.042,2.623-.042,5.288,0,7.91a1.535,1.535,0,0,1-.931,1.565c-1.015.55-1.946,1.184-3.173,1.9v-8.5c0-1.565,0-1.523-1.438-.8A24.451,24.451,0,0,1,57.894,51.04Z" transform="translate(617.747 8682.021)"/>
    <path id="Path_1264" data-name="Path 1264" class="cls-1" d="M4.757,30.8c.085.931.931,1.1,1.565,1.438,2.369,1.184,4.738,2.411,7.022,3.807-.3.3-.761.338-1.015.55-1.9,1.946-3.723,1.184-5.668,0S2.642,34.48.4,33.3C1.965,32.365,3.361,31.561,4.757,30.8Z" transform="translate(643.769 8686.355)"/>
  </g>
</svg>
