<svg xmlns="http://www.w3.org/2000/svg" xmlns:xlink="http://www.w3.org/1999/xlink" viewBox="0 0 178.277 191.7">
  <defs>
    <style>
      .cls-1 {
        fill: url(#linear-gradient);
      }

      .cls-2 {
        fill: #fff;
      }

      .cls-3 {
        filter: url(#Path_2959);
      }
    </style>
    <linearGradient id="linear-gradient" x1="0.5" x2="0.5" y2="1" gradientUnits="objectBoundingBox">
      <stop offset="0" stop-color="#abdcff"/>
      <stop offset="1" stop-color="#0396ff"/>
    </linearGradient>
    <filter id="Path_2959" x="0" y="0" width="178.277" height="191.7" filterUnits="userSpaceOnUse">
      <feOffset dy="3" input="SourceAlpha"/>
      <feGaussianBlur stdDeviation="11" result="blur"/>
      <feFlood flood-opacity="0.161"/>
      <feComposite operator="in" in2="blur"/>
      <feComposite in="SourceGraphic"/>
    </filter>
  </defs>
  <g id="logo-2" transform="translate(-312 -11965)">
    <g class="cls-3" transform="matrix(1, 0, 0, 1, 312, 11965)">
      <path id="Path_2959-2" data-name="Path 2959" class="cls-1" d="M56.5,126.2a13.157,13.157,0,0,1-6.049-1.574l-44-25.438A12.077,12.077,0,0,1,.4,88.747V30.993L50.531,2.074A11.776,11.776,0,0,1,56.58.5a13.157,13.157,0,0,1,6.049,1.574l44,25.438a12.077,12.077,0,0,1,6.049,10.44V95.707L62.629,124.626A12.3,12.3,0,0,1,56.5,126.2Z" transform="translate(32.6 29.5)"/>
    </g>
    <g id="Group_2492" data-name="Group 2492" transform="translate(373.87 12026.776)">
      <path id="Path_1258" data-name="Path 1258" class="cls-2" d="M61.456,23.586c-2.43,1.318-4.654,3.048-7,4.489a13.749,13.749,0,0,0-1.318.865c0-1.4.041-2.636,0-3.871-.041-1.73.618-3.748-.247-5.107-.865-1.277-2.759-1.853-4.2-2.718-4.283-2.553-8.607-5.024-12.89-7.619a1.984,1.984,0,0,0-2.265-.041q-6.548,3.707-13.1,7.289c-.412.247-.865.412-1.277.618-2.224-1.318-4.53-2.512-6.836-3.707-.618-.329-1.4-.494-1.524-1.4,5.766-3.418,11.531-6.8,17.3-10.3A21.9,21.9,0,0,1,33.039-.3h2.347A24.033,24.033,0,0,1,40.7,1.883C46.506,5.3,52.354,8.719,58.243,12.055A8,8,0,0,1,61.5,15.1C61.456,18.027,61.456,20.827,61.456,23.586Z" transform="translate(-6.352 0.3)"/>
      <path id="Path_1259" data-name="Path 1259" class="cls-2" d="M132.5,89.994c.165-.165.371-.329.535-.494v10.708h-.247c0-2.965,0-5.93-.041-8.854C132.747,90.859,132.953,90.365,132.5,89.994Z" transform="translate(-77.932 -52.518)"/>
      <path id="Path_1260" data-name="Path 1260" class="cls-2" d="M54.568,88.465c.453.371.288.906.288,1.359.041,2.965.041,5.93.041,8.854a49.125,49.125,0,0,1-5.724,3.295c-4.448,2.512-8.9,4.983-13.385,7.454-2.471,1.359-4.942,2.718-7.372,4.118a1.487,1.487,0,0,1-1.771-.082Q13.8,105.309.865,97.278A1.654,1.654,0,0,1,0,95.713c.041-2.842,0-5.724,0-8.813,2.142,1.277,4.077,2.471,6.013,3.665C12.808,94.684,19.562,98.8,26.357,103a1.978,1.978,0,0,0,2.347.041c8.4-4.695,17.05-8.978,25.122-14.249A2.926,2.926,0,0,1,54.568,88.465Z" transform="translate(0 -50.988)"/>
      <path id="Path_1261" data-name="Path 1261" class="cls-2" d="M50.862,57.4a15.639,15.639,0,0,1-2.8,1.565c-.494.288-.906-.041-1.318-.247C44.4,57.525,42.007,56.331,39.66,55.1c-.824-.453-1.236-.494-1.194.659.041,2.718.041,5.4,0,8.113a1.5,1.5,0,0,0,.824,1.483c2.471,1.524,4.942,3.089,7.331,4.736a1.482,1.482,0,0,0,1.771,0c4.077-2.265,8.278-4.365,12.4-7.084V67.45a1.063,1.063,0,0,1-.618.947c-4.077,2.306-8.2,4.571-12.273,6.878a.92.92,0,0,1-1.071-.124c-3.995-2.512-8.031-5.024-12.026-7.537a1.3,1.3,0,0,1-.7-1.277c.041-4.365.041-8.69,0-13.055a1.188,1.188,0,0,1,.659-1.277c1.359-.741,2.718-1.524,4.077-2.306a9.38,9.38,0,0,0,3.954,2.306L47.485,54.6c.041.906.947.906,1.483,1.277C49.626,56.289,50.656,56.331,50.862,57.4Z" transform="translate(-20.056 -29.108)"/>
      <path id="Path_1262" data-name="Path 1262" class="cls-2" d="M.1,39.4c3.006,1.524,5.848,3.006,8.69,4.489.412.206.412.618.412.988V63.492A6.313,6.313,0,0,1,7.06,62.339C5,61.1,2.983,59.868.965,58.591.512,58.3.141,58.1.141,57.438.1,51.508.1,45.578.1,39.4Z" transform="translate(-0.059 -23.051)"/>
      <path id="Path_1263" data-name="Path 1263" class="cls-2" d="M57.567,50.7c-.206-1.071-1.236-1.112-1.936-1.565-.535-.371-1.4-.371-1.483-1.277a35.637,35.637,0,0,0,5.889-2.718c-1.771-.906-3.295-1.73-4.86-2.512a.79.79,0,0,0-.741-.165c-1.73.824-3.583,1.441-4.983,2.8A9.829,9.829,0,0,1,45.5,42.961c2.347-1.4,4.654-2.842,7-4.2a4.105,4.105,0,0,1,4.118.247c3.253,1.853,6.466,3.707,9.719,5.6a2.161,2.161,0,0,1,1.153,2.018c-.041,2.553-.041,5.148,0,7.7a1.494,1.494,0,0,1-.906,1.524c-.988.535-1.894,1.153-3.089,1.853V49.427c0-1.524,0-1.483-1.4-.782A23.806,23.806,0,0,1,57.567,50.7Z" transform="translate(-26.762 -22.411)"/>
      <path id="Path_1264" data-name="Path 1264" class="cls-2" d="M4.642,30.8c.082.906.906,1.071,1.524,1.4,2.306,1.153,4.613,2.347,6.836,3.707-.288.288-.741.329-.988.535-1.853,1.894-3.624,1.153-5.519,0S2.583,34.383.4,33.23C1.924,32.324,3.283,31.541,4.642,30.8Z" transform="translate(-0.235 -17.992)"/>
    </g>
  </g>
</svg>
