<svg xmlns="http://www.w3.org/2000/svg" xmlns:xlink="http://www.w3.org/1999/xlink" viewBox="0 0 106.888 122.068">
  <defs>
    <style>
      .cls-1, .cls-3, .cls-4 {
        fill: #6c63ff;
      }

      .cls-1, .cls-19, .cls-7 {
        opacity: 0.1;
      }

      .cls-2 {
        opacity: 0.35;
      }

      .cls-3 {
        opacity: 0.2;
      }

      .cls-5 {
        fill: url(#linear-gradient);
      }

      .cls-6 {
        fill: #4470d1;
      }

      .cls-8 {
        fill: #6affe1;
      }

      .cls-9 {
        fill: url(#linear-gradient-2);
      }

      .cls-10 {
        fill: url(#linear-gradient-3);
      }

      .cls-11 {
        fill: url(#linear-gradient-4);
      }

      .cls-12 {
        fill: #2d293d;
      }

      .cls-13 {
        fill: url(#linear-gradient-5);
      }

      .cls-14, .cls-15 {
        opacity: 0.05;
      }

      .cls-16 {
        fill: #ffcdd3;
      }

      .cls-17 {
        fill: #dce6f2;
      }

      .cls-18 {
        fill: #575988;
      }
    </style>
    <linearGradient id="linear-gradient" x1="0.5" y1="1" x2="0.5" gradientUnits="objectBoundingBox">
      <stop offset="0" stop-color="gray" stop-opacity="0.251"/>
      <stop offset="0.54" stop-color="gray" stop-opacity="0.122"/>
      <stop offset="1" stop-color="gray" stop-opacity="0.102"/>
    </linearGradient>
    <linearGradient id="linear-gradient-2" x1="0.5" y1="1" x2="0.5" y2="0" xlink:href="#linear-gradient"/>
    <linearGradient id="linear-gradient-3" x1="0.5" y1="1" x2="0.5" y2="0" xlink:href="#linear-gradient"/>
    <linearGradient id="linear-gradient-4" x1="0.5" y1="1" x2="0.5" y2="0" xlink:href="#linear-gradient"/>
    <linearGradient id="linear-gradient-5" x1="0.5" x2="0.5" y2="1" gradientUnits="objectBoundingBox">
      <stop offset="0" stop-color="#abdcff"/>
      <stop offset="1" stop-color="#0396ff"/>
    </linearGradient>
  </defs>
  <g id="p3" transform="translate(-29.484 -35.473)">
    <ellipse id="Ellipse_448" data-name="Ellipse 448" class="cls-1" cx="18.204" cy="3.05" rx="18.204" ry="3.05" transform="translate(99.964 151.44)"/>
    <g id="Group_2438" data-name="Group 2438" class="cls-2" transform="translate(67.857 46.148)">
      <path id="Path_3391" data-name="Path 3391" class="cls-3" d="M442.092,224.132V223h-17.84c-.82,0-.32,1.139-.32,1.139H414.24v25.389H456.8v-25.4Z" transform="translate(-414.24 -223)"/>
    </g>
    <path id="Path_3419" data-name="Path 3419" class="cls-4" d="M209.354,520.178c-.64,1.066-4.426,3-4.426,3s-.073-4.256.569-5.314a2.25,2.25,0,1,1,3.857,2.319Z" transform="translate(-172.698 -420.614)"/>
    <path id="Path_3438" data-name="Path 3438" class="cls-5" d="M208.347,177.068h-.071a17.841,17.841,0,0,0,1.013-2.981c-.048-.511-1.071.6-1.118.322s0-1.329-.465-1.329-.746.546-1.021.546-1.4-.184-1.4-.184l-1.428,3.626H193.1v33.788h26.7V177.068Z" transform="translate(-162.886 -135.43)"/>
    <rect id="Rectangle_1242" data-name="Rectangle 1242" class="cls-6" width="26.094" height="33.374" transform="translate(30.514 41.826)"/>
    <path id="Path_3439" data-name="Path 3439" class="cls-7" d="M255.618,197.61c-.55,1.428-1.169,2.933-1.311,3.292-.274.681-.455.318-.775.228s-.727.09-.909,0a5.732,5.732,0,0,0-1.251,0,3.518,3.518,0,0,0,0-.5c-.024-.18-1.253,0-1.253,0l1.171-3.018Z" transform="translate(-210.2 -155.784)"/>
    <path id="Path_3440" data-name="Path 3440" class="cls-8" d="M252.624,174.837l-2.5,6.417s1.229-.182,1.251,0a3.243,3.243,0,0,1,0,.5,5.641,5.641,0,0,1,1.253,0c.182.092.591-.092.909,0s.5.454.775-.228a58.423,58.423,0,0,0,2.23-6.053c-.046-.5-1.047.592-1.093.318s0-1.312-.455-1.312-.729.54-1,.54S252.624,174.837,252.624,174.837Z" transform="translate(-210.2 -136.591)"/>
    <g id="Group_2445" data-name="Group 2445" class="cls-2" transform="translate(34.095 50.684)">
      <rect id="Rectangle_1243" data-name="Rectangle 1243" class="cls-3" width="18.932" height="0.531"/>
    </g>
    <g id="Group_2446" data-name="Group 2446" class="cls-2" transform="translate(34.095 52.688)">
      <rect id="Rectangle_1244" data-name="Rectangle 1244" class="cls-3" width="18.932" height="0.531"/>
    </g>
    <g id="Group_2447" data-name="Group 2447" class="cls-2" transform="translate(34.095 54.69)">
      <rect id="Rectangle_1245" data-name="Rectangle 1245" class="cls-3" width="18.932" height="0.531"/>
    </g>
    <g id="Group_2448" data-name="Group 2448" class="cls-2" transform="translate(34.095 56.693)">
      <rect id="Rectangle_1246" data-name="Rectangle 1246" class="cls-3" width="18.932" height="0.531"/>
    </g>
    <g id="Group_2449" data-name="Group 2449" class="cls-2" transform="translate(34.095 58.695)">
      <rect id="Rectangle_1247" data-name="Rectangle 1247" class="cls-3" width="18.932" height="0.531"/>
    </g>
    <g id="Group_2450" data-name="Group 2450" class="cls-2" transform="translate(34.095 60.697)">
      <rect id="Rectangle_1248" data-name="Rectangle 1248" class="cls-3" width="18.932" height="0.531"/>
    </g>
    <rect id="Rectangle_1253" data-name="Rectangle 1253" class="cls-6" width="33.921" height="39.199" transform="translate(29.484 93.224)"/>
    <rect id="Rectangle_1254" data-name="Rectangle 1254" class="cls-7" width="6.918" height="5.34" transform="translate(43.926 93.224)"/>
    <rect id="Rectangle_1255" data-name="Rectangle 1255" class="cls-8" width="6.918" height="10.133" transform="translate(43.926 88.248)"/>
    <g id="Group_2454" data-name="Group 2454" class="cls-2" transform="translate(36.977 102.705)">
      <rect id="Rectangle_1256" data-name="Rectangle 1256" class="cls-3" width="18.932" height="1.35"/>
    </g>
    <g id="Group_2455" data-name="Group 2455" class="cls-2" transform="translate(36.977 105.39)">
      <rect id="Rectangle_1257" data-name="Rectangle 1257" class="cls-3" width="18.932" height="1.35"/>
    </g>
    <g id="Group_2456" data-name="Group 2456" class="cls-2" transform="translate(36.977 108.076)">
      <rect id="Rectangle_1258" data-name="Rectangle 1258" class="cls-3" width="18.932" height="1.35"/>
    </g>
    <g id="Group_2457" data-name="Group 2457" class="cls-2" transform="translate(36.977 110.76)">
      <rect id="Rectangle_1259" data-name="Rectangle 1259" class="cls-3" width="18.932" height="1.35"/>
    </g>
    <g id="Group_2458" data-name="Group 2458" class="cls-2" transform="translate(50.844 113.749)">
      <rect id="Rectangle_1260" data-name="Rectangle 1260" class="cls-3" width="5.068" height="4.096"/>
    </g>
    <g id="Group_2459" data-name="Group 2459" class="cls-2" transform="translate(36.977 118.815)">
      <rect id="Rectangle_1261" data-name="Rectangle 1261" class="cls-3" width="5.068" height="4.096"/>
    </g>
    <path id="Path_3445" data-name="Path 3445" class="cls-9" d="M491.5,475.319h-.048c.552-2.157.967-3.874.967-3.874l-2.353,1.106s-1.67-2.213-2.288-1.844S485.8,472,485.8,472l-1.8-.923-.689,4.244H469.09V505.94l.914.546c.754-.271,2-.73,2-.73l-.57,1.583.385.228.649-.587.24,1.122.771.461,1.217-.775-.34,1.3,1.142.681,3.321-1.248-1,2.635.659.395,1.5-.264s-.068.526-.111,1.1l1.508.9c.618-.24,1.2-.477,1.2-.477s-.06.575-.087,1.141l1.011.606c.8-.466,1.815-1.1,1.815-1.1l-.851,1.583h19.218V475.319Z" transform="translate(-391.896 -382.359)"/>
    <path id="Path_3446" data-name="Path 3446" class="cls-6" d="M504.719,499.55v39.2H485.87l.841-1.561s-1,.625-1.779,1.086l-.991-.6c.027-.557.087-1.125.087-1.125s-.572.233-1.178.47l-1.479-.89c.043-.562.107-1.081.107-1.081l-1.472.26-.645-.39.98-2.6-3.256,1.232-1.122-.681.327-1.287-1.192.764-.756-.454-.235-1.107-.637.582-.378-.226.56-1.561s-1.217.453-1.958.72l-.9-.538V499.55Z" transform="translate(-393.315 -406.326)"/>
    <g id="Group_2460" data-name="Group 2460" class="cls-2" transform="translate(84.977 105.39)">
      <rect id="Rectangle_1262" data-name="Rectangle 1262" class="cls-3" width="18.932" height="1.35"/>
    </g>
    <g id="Group_2461" data-name="Group 2461" class="cls-2" transform="translate(84.977 109.426)">
      <rect id="Rectangle_1263" data-name="Rectangle 1263" class="cls-3" width="18.932" height="1.35"/>
    </g>
    <g id="Group_2462" data-name="Group 2462" class="cls-2" transform="translate(84.977 113.46)">
      <rect id="Rectangle_1264" data-name="Rectangle 1264" class="cls-3" width="18.932" height="1.35"/>
    </g>
    <g id="Group_2463" data-name="Group 2463" class="cls-2" transform="translate(84.977 117.496)">
      <rect id="Rectangle_1265" data-name="Rectangle 1265" class="cls-3" width="3.793" height="1.35"/>
    </g>
    <path id="Path_3447" data-name="Path 3447" class="cls-7" d="M554.583,499.542c-.923,3.639-2.267,8.681-2.618,8.593-.545-.148-1.4-1.192-1.4-1.192s-2,1.881-2.972.911a2.092,2.092,0,0,0-2.307-.3l1.294-8.009Z" transform="translate(-455.125 -406.318)"/>
    <path id="Path_3448" data-name="Path 3448" class="cls-8" d="M547.232,473.025l-1.942,12.014a2.085,2.085,0,0,1,2.3.3c.97.972,2.974-.914,2.974-.914s.851,1.042,1.4,1.192,3.52-12.232,3.52-12.232l-2.306,1.093s-1.638-2.186-2.245-1.821S549,473.935,549,473.935Z" transform="translate(-455.125 -383.98)"/>
    <path id="Path_3449" data-name="Path 3449" class="cls-10" d="M512.431,161.442V160.29H494.367c-.829,0-.322,1.152-.322,1.152H484.23v25.694h43.084v-25.7Z" transform="translate(-404.458 -124.817)"/>
    <rect id="Rectangle_1266" data-name="Rectangle 1266" class="cls-6" width="42.553" height="25.396" transform="translate(80.044 36.748)"/>
    <path id="Path_3450" data-name="Path 3450" class="cls-7" d="M560.616,171.922H543.731s-.182-1.958.41-2.32-1.685-1.639-1.685-1.639a1.866,1.866,0,0,1-.066-.182h18.226v.592S562.938,170.42,560.616,171.922Z" transform="translate(-452.718 -131.032)"/>
    <path id="Path_3451" data-name="Path 3451" class="cls-8" d="M542.36,161.1H560.2v1.547s2.322,2.043,0,3.549H543.317s-.182-1.958.41-2.32-1.685-1.639-1.685-1.639S541.542,161.1,542.36,161.1Z" transform="translate(-452.304 -125.489)"/>
    <g id="Group_2464" data-name="Group 2464" class="cls-2" transform="translate(85.271 44.713)">
      <rect id="Rectangle_1267" data-name="Rectangle 1267" class="cls-3" width="32.101" height="0.531"/>
    </g>
    <g id="Group_2465" data-name="Group 2465" class="cls-2" transform="translate(85.271 46.715)">
      <rect id="Rectangle_1268" data-name="Rectangle 1268" class="cls-3" width="19.176" height="0.531"/>
    </g>
    <g id="Group_2466" data-name="Group 2466" class="cls-2" transform="translate(85.271 48.718)">
      <rect id="Rectangle_1269" data-name="Rectangle 1269" class="cls-3" width="32.101" height="0.531"/>
    </g>
    <g id="Group_2467" data-name="Group 2467" class="cls-2" transform="translate(85.271 50.72)">
      <rect id="Rectangle_1270" data-name="Rectangle 1270" class="cls-3" width="32.101" height="0.531"/>
    </g>
    <g id="Group_2468" data-name="Group 2468" class="cls-2" transform="translate(85.271 52.722)">
      <rect id="Rectangle_1271" data-name="Rectangle 1271" class="cls-3" width="32.101" height="0.531"/>
    </g>
    <path id="Path_3452" data-name="Path 3452" class="cls-11" d="M521.827,313.551c-.3-1.3-.492-2.434-.492-2.434a5.018,5.018,0,0,0-.563-2.47v-.352h0v-2.606a8.8,8.8,0,0,1,.657-1.362c.47-.82,0-3.823,0-3.823s-1.74-4.234-1.316-6.918-3.575-11.924-3.575-11.924a11.725,11.725,0,0,1,.376-2.64,2.1,2.1,0,0,0,.051-.553v-.046a20.511,20.511,0,0,0-1.459-5.09l.187-6.327a18.6,18.6,0,0,0-.563-8.738c-.511-1.748-.836-3.146-1.042-4.225q-.036-.184-.066-.352c3-.458,5.292-.839,5.292-.839s-1.741-7.286-2.916-8.559-2.116-5.277-2.116-5.277-.613-5.142.376-6.639a9.955,9.955,0,0,0,1.127-4.1s2.257-1.638,2.54-2.366a12.034,12.034,0,0,0,.752-3.234c0-.868-.283-1.639-.187-2.094s-.659-2.184-.283-3a2.211,2.211,0,0,0,.15-.79.092.092,0,0,0,0-.024v-.009a11.131,11.131,0,0,0-.2-2.136,6.017,6.017,0,0,0-2.232-1.192l-.049-.2-.128-.511a2.378,2.378,0,0,0-.223-.133v-.186l-.02-.739.354-1.663c.693-2.894-3.163-3.321-3.163-3.321a2.017,2.017,0,0,0-1.091-.963c-.776-.274-.129,4.348.233,4.642a17.212,17.212,0,0,1,1.522,2.383h0l.066.117a1.593,1.593,0,0,0-.17.186l.146,1,.022.153a4.168,4.168,0,0,0-.615,1.05,2.235,2.235,0,0,1,.565,1.638,5,5,0,0,0,.233,2c-.043-.048-.538-.586-1.033-.454s-1.872.546-1.872.546-1.035.182-.94.41-.706,1.229-.706,1.229l-2.78-2.635c-.027-.078-.054-.157-.08-.238a6.409,6.409,0,0,1-.242-1.154,6.333,6.333,0,0,0,.889-.283,1.918,1.918,0,0,0,.769-.492,2.965,2.965,0,0,0,.448-1.192,16.811,16.811,0,0,1,1.032-2.3,7.49,7.49,0,0,0,.555-4.131,2.713,2.713,0,0,0-.427-1.209c-.453-.625-1.277-.878-1.872-1.377s-.984-1.258-1.682-1.632a3.323,3.323,0,0,0-2.109-.182,11.357,11.357,0,0,0-3.941,1.433,2.053,2.053,0,0,1-1.318.432,1.749,1.749,0,0,1-.948-.7.349.349,0,0,1,.012-.039l-.031-.036a4.9,4.9,0,0,0-.432,2.08,2.92,2.92,0,0,0,.014.34v.117a.606.606,0,0,1,0,.1h0a.528.528,0,0,1-.021.146,1.085,1.085,0,0,1-.26.376,2.054,2.054,0,0,0-.226.308c.012-.037.024-.075.037-.112a1.643,1.643,0,0,0-.288.875.875.875,0,0,0,.209.628,2.951,2.951,0,0,0,.453.364,5.3,5.3,0,0,0,2.536,5.512c.032.078.063.158.1.238a6.793,6.793,0,0,1,.511,3.032c-.01.075-.02.148-.034.221-.036.037-.07.077-.1.116h0s-4.6.044-5.67-.935-2.724,2.383-2.724,2.383-1.646.32-1.975,0-2.257-.044-2.257-.044a4.146,4.146,0,0,0-2.868-1.047,8.495,8.495,0,0,0-2.106-1.171h0l-.053-.019h0a2.384,2.384,0,0,0-1.035-.131,21.49,21.49,0,0,1-2.914-2.867c-.657-.994-3.794-4.715-3.808-4.732l-.012-.17-.036-.541a1.978,1.978,0,0,1-.281.024l-.063-.187a10.179,10.179,0,0,0-.667-1.532s0-.681.2-.851a11.7,11.7,0,0,0-.082-2.674s-2.034-4.756-3.856-1.205c0,0-3.444,2.3-.553,4.971,0,0,1.152.56,1.316,1,.107.288.5,1.089.763,1.624.044.089.083.17.117.238l-.032.027.043.446.017.17c-.545.31-.914.615-.824.851a5.049,5.049,0,0,1,.328,1.229s4,5.006,4.514,7.149c0,0,10.724,6.372,14.248,6.828l-.611,3.185a25.541,25.541,0,0,0-.141,2.594c.048.683-.424,3.779-.424,3.779s-.611,4.55-1.129,5.187-.422,3.369-.422,3.369a22.988,22.988,0,0,1-.706,3.869,9.973,9.973,0,0,0-.14,3.867s-1.787,4.1,2.492,1.321c0,0,2.1-.131,4.519-.213v.24c0,.311-.01.649-.014,1-.032,2.346-.046,5.578.06,8.024.187,4.324,1.5,12.881,1.5,12.881v4.3a5.807,5.807,0,0,0-.124,1.229,8,8,0,0,0,1.159,4.3l.291,2.838a11.222,11.222,0,0,1,.788,3.018,1.656,1.656,0,0,1-.034.274,1.972,1.972,0,0,0-.037.439,24.672,24.672,0,0,0,.74,4.416s.048,3.141.511,3.323c.4.155-.536,1.809-.817,2.284a.558.558,0,0,0-.017-.09c-.036.061-.058.1-.058.1a2.229,2.229,0,0,0-.146.793,1.142,1.142,0,0,0,.521,1.1c.894.546,1.374,1,.616,1.192a8.257,8.257,0,0,0-.829.17c-.014-.036-.027-.071-.039-.106a.511.511,0,0,0-.31.55,2.328,2.328,0,0,0,.281,1.066,11.425,11.425,0,0,0,1.273,2.322l.361-.041a1.963,1.963,0,0,1-.209.388,1.506,1.506,0,0,1-.533.471,1.6,1.6,0,0,1-.642.22,1.82,1.82,0,0,0-1.333.649,1.382,1.382,0,0,0,.17,2.158l3.364,1.161s5.788.751,5.476-.546-.492-2.434-.492-2.434a5.14,5.14,0,0,0-.47-2.3,2.757,2.757,0,0,0-.2-.34l.2-.024s.422-2.867.987-3.4c.129-.126.158-.223.128-.3.06-.157-.089-.249-.278-.3l-.041.112a2.738,2.738,0,0,0-.562-.063s-.189-1.5.422-2.043a.573.573,0,0,0,.119-.446,2.416,2.416,0,0,0-.063-.611c0,.01-.014.024-.022.034a22.178,22.178,0,0,0-1.35-3.529,4.318,4.318,0,0,1,.328-1.91c.376-.548-.046-7.42-.046-7.42a22.457,22.457,0,0,0-.283-4.868,5.474,5.474,0,0,1,.511-3.369.685.685,0,0,0-.01-.1l.012-.024s-.02-.2-.055-.523a.23.23,0,0,0-.012.031c-.094-.878-.274-2.472-.405-3.209-.189-1.047.046-6.053.046-6.053l.851-2.138,1.5,3.685,1.6,4.916a4.2,4.2,0,0,1,.81,2.09.775.775,0,0,1-.01.153,2.749,2.749,0,0,0-.019.329,2.921,2.921,0,0,0,.487,1.752s.424,2.32,1.083,2.913a2.62,2.62,0,0,1,.657,1.729,29.228,29.228,0,0,0,1.176,3.959,5.768,5.768,0,0,1,.33,2.29h0v.123s.111,1.2.107,2.213a3.5,3.5,0,0,1-.012.359v-.026a3.633,3.633,0,0,1-.1.819.363.363,0,0,0-.014.046.719.719,0,0,1,.014-.17,8.629,8.629,0,0,0-.235,2.1,5.439,5.439,0,0,0,.9,3.486c1.27,1.457,2.07,1.275,2.07,1.275s-.613,1.82-1.362,2.184a.491.491,0,0,0-.08.051.761.761,0,0,0-.019-.106.884.884,0,0,0-.22.681,4.847,4.847,0,0,0,.931,2.7,1.507,1.507,0,0,0,.635.371,1.393,1.393,0,0,1-.119.073,2.275,2.275,0,0,1-.259.121,1.239,1.239,0,0,1-.383.1,1.8,1.8,0,0,0-1.336.64,1.38,1.38,0,0,0,.17,2.157l3.364,1.161S522.135,314.849,521.827,313.551Z" transform="translate(-391.251 -159.605)"/>
    <path id="Path_3453" data-name="Path 3453" class="cls-12" d="M634.2,837.789l-3.255-1.161a1.412,1.412,0,0,1-.158-2.159,1.739,1.739,0,0,1,1.289-.648,1.52,1.52,0,0,0,.621-.22,1.474,1.474,0,0,0,.511-.471,2.4,2.4,0,0,0,.371-1.258s3.575-1.047,4.552,0a2.615,2.615,0,0,1,.432.635,5.416,5.416,0,0,1,.456,2.3s.182,1.135.477,2.434S634.2,837.789,634.2,837.789Z" transform="translate(-525.711 -681.693)"/>
    <path id="Path_3454" data-name="Path 3454" class="cls-12" d="M727.776,828.369l-3.255-1.161a1.412,1.412,0,0,1-.158-2.157,1.729,1.729,0,0,1,1.289-.649,1.165,1.165,0,0,0,.373-.1,2.159,2.159,0,0,0,.25-.121,2.06,2.06,0,0,0,.887-1.729s3.575-1.047,4.552,0a2.531,2.531,0,0,1,.34.465,5.163,5.163,0,0,1,.545,2.472s.182,1.137.478,2.434S727.776,828.369,727.776,828.369Z" transform="translate(-603.36 -673.876)"/>
    <path id="Path_3455" data-name="Path 3455" class="cls-7" d="M652.053,831.873a2.623,2.623,0,0,1,.432.635h0l-5.355.621a2.4,2.4,0,0,0,.371-1.258S651.076,830.828,652.053,831.873Z" transform="translate(-539.629 -681.694)"/>
    <path id="Path_3456" data-name="Path 3456" class="cls-7" d="M742.241,822.917v1c-.832,1.372-4.862,1.072-6.031.383a2.164,2.164,0,0,0,.25-.121,2.059,2.059,0,0,0,.887-1.729s3.575-1.047,4.552,0A2.531,2.531,0,0,1,742.241,822.917Z" transform="translate(-613.545 -673.877)"/>
    <path id="Path_3457" data-name="Path 3457" class="cls-13" d="M642.763,542.739a9.04,9.04,0,0,0-.637,1.362v3.6c-.911,1.5-5.645,1-6.281.182s-1.319-2.958-.593-3.323,1.318-2.184,1.318-2.184-.775.182-2-1.275-.865-4.688-.635-5.461a16.016,16.016,0,0,0,0-3.369,6.746,6.746,0,0,0-.318-2.412,29.656,29.656,0,0,1-1.129-3.959,2.679,2.679,0,0,0-.638-1.729c-.638-.592-1.047-2.913-1.047-2.913a2.99,2.99,0,0,1-.455-1.956,3.968,3.968,0,0,0-.774-2.368l-1.547-4.915-1.456-3.687-.819,2.14s-.228,5.006-.046,6.053.454,3.823.454,3.823a5.62,5.62,0,0,0-.5,3.367,23.341,23.341,0,0,1,.274,4.87s.409,6.872.044,7.418a4.45,4.45,0,0,0-.318,1.912s1.872,4,1.275,4.55-.41,2.043-.41,2.043,1.275,0,.729.546-.956,3.4-.956,3.4l-5.5.638a11.1,11.1,0,0,1-1.232-2.322c-.722-1.684.136-1.5.868-1.684s.269-.637-.6-1.192-.364-1.775-.364-1.775,1.319-2.23.865-2.412-.5-3.323-.5-3.323-.911-3.731-.681-4.732-.737-3.4-.737-3.4l-.318-2.868a7.877,7.877,0,0,1-1-5.415v-4.409s-1.275-8.556-1.457-12.879c-.116-2.77-.084-6.549-.046-8.906.022-1.323.046-2.2.046-2.2L635.3,489.54a16.141,16.141,0,0,0,.357,2.921c.2,1.079.511,2.477,1.008,4.225a19.19,19.19,0,0,1,.547,8.738l-.182,6.324s1.729,4.233,1.362,5.689a12.1,12.1,0,0,0-.364,2.64s3.873,9.237,3.462,11.928,1.275,6.918,1.275,6.918S643.217,541.918,642.763,542.739Z" transform="translate(-513.43 -398.02)"/>
    <path id="Path_3458" data-name="Path 3458" class="cls-14" d="M709.34,658.877l5.985-.8S711.934,661.539,709.34,658.877Z" transform="translate(-591.249 -537.871)"/>
    <path id="Path_3459" data-name="Path 3459" class="cls-7" d="M734.093,623.73s.2,2.116-1.093,2.912C733,626.643,735.322,626.278,734.093,623.73Z" transform="translate(-610.882 -509.368)"/>
    <path id="Path_3460" data-name="Path 3460" class="cls-7" d="M702.776,584.16s-5,4.118-6.823,3.777S702.776,584.16,702.776,584.16Z" transform="translate(-579.932 -476.534)"/>
    <path id="Path_3461" data-name="Path 3461" class="cls-7" d="M646.663,674.13s-3.8.863-3.915,2.383S646.663,674.13,646.663,674.13Z" transform="translate(-535.991 -551.189)"/>
    <path id="Path_3462" data-name="Path 3462" class="cls-14" d="M650.6,785.61s-5.371,1-3.845,1.685a25.93,25.93,0,0,0,4.028,1.227S652.508,788.614,650.6,785.61Z" transform="translate(-539.088 -643.692)"/>
    <g id="Group_2469" data-name="Group 2469" class="cls-15" transform="translate(102.118 93.424)">
      <path id="Path_3463" data-name="Path 3463" d="M638.344,798.078a1.058,1.058,0,0,1-.492-.778l-.055.1s-.5,1.229.364,1.775l.281.184c.158-.029.33-.051.5-.094C639.672,799.079,639.209,798.624,638.344,798.078Z" transform="translate(-633.884 -746.817)"/>
      <path id="Path_3464" data-name="Path 3464" d="M681.114,795.174c.146-.136.141-.485.051-.935a2.534,2.534,0,0,0-.3,1.318A1.085,1.085,0,0,1,681.114,795.174Z" transform="translate(-669.735 -744.277)"/>
      <path id="Path_3465" data-name="Path 3465" d="M675.723,666.72a6.1,6.1,0,0,0-.363,1.673,6.587,6.587,0,0,1,.415-1.149S675.755,667.038,675.723,666.72Z" transform="translate(-665.171 -638.464)"/>
      <path id="Path_3466" data-name="Path 3466" d="M749.239,650.257a1.991,1.991,0,0,0,.049-.5c-.066.341-.114.655-.148.931C749.169,650.55,749.2,650.405,749.239,650.257Z" transform="translate(-726.392 -624.391)"/>
      <path id="Path_3467" data-name="Path 3467" d="M676.116,756.841a2.931,2.931,0,0,0,.136-1.011,3.556,3.556,0,0,0-.262,1.277A1.253,1.253,0,0,1,676.116,756.841Z" transform="translate(-665.694 -712.406)"/>
      <path id="Path_3468" data-name="Path 3468" d="M645.234,812.19a17.831,17.831,0,0,0-.628,2.8l-5.5.637a11.046,11.046,0,0,1-1.232-2.32c-.063-.148-.114-.281-.155-.4-.33.152-.46.494-.027,1.493a11.552,11.552,0,0,0,1.232,2.322l5.5-.642s.41-2.867.957-3.4C645.649,812.4,645.477,812.258,645.234,812.19Z" transform="translate(-633.684 -759.172)"/>
      <path id="Path_3469" data-name="Path 3469" d="M619.785,545.574s.046,3.141.5,3.323h0c.23-.519.383-1.021.17-1.095-.454-.18-.5-3.321-.5-3.321s-.911-3.733-.681-4.734-.729-3.413-.729-3.413l-.318-2.867a7.882,7.882,0,0,1-1-5.417v-4.412s-1.275-8.557-1.457-12.881c-.116-2.768-.083-6.547-.046-8.9,0-.427.015-.805.022-1.123l-.158.015s-.024.877-.046,2.2c-.038,2.358-.07,6.128.046,8.906.182,4.324,1.457,12.879,1.457,12.879v4.416a7.876,7.876,0,0,0,1,5.415l.318,2.868s.955,2.412.729,3.4S619.785,545.574,619.785,545.574Z" transform="translate(-615.507 -500.73)"/>
      <path id="Path_3470" data-name="Path 3470" d="M730.52,814.592a5.3,5.3,0,0,1-.872-2.162c-.562.511.083,2.477.681,3.255.637.819,5.371,1.319,6.281-.182v-.866C735.388,815.857,731.122,815.366,730.52,814.592Z" transform="translate(-710.04 -759.371)"/>
      <path id="Path_3471" data-name="Path 3471" d="M773.348,794.729a8.941,8.941,0,0,0-.638,1.362v.638c.1-.233.252-.545.456-.911a2.761,2.761,0,0,0,.2-1.129C773.359,794.705,773.353,794.719,773.348,794.729Z" transform="translate(-745.95 -744.651)"/>
      <path id="Path_3472" data-name="Path 3472" d="M724.761,766.354a8.641,8.641,0,0,0,.449-1.081s-.774.182-2-1.273c-.894-1.06-.945-3.064-.817-4.37-.23.775-.592,4.005.635,5.461A3.243,3.243,0,0,0,724.761,766.354Z" transform="translate(-704.002 -715.559)"/>
      <path id="Path_3473" data-name="Path 3473" d="M684.313,617.83a24.245,24.245,0,0,1,.09,2.7,3.887,3.887,0,0,1,.094-.422,16,16,0,0,0,0-3.367,6.745,6.745,0,0,0-.318-2.412,30.084,30.084,0,0,1-1.145-3.959,2.682,2.682,0,0,0-.637-1.73c-.637-.591-1.047-2.912-1.047-2.912a3,3,0,0,1-.455-1.958,3.968,3.968,0,0,0-.774-2.366l-1.547-4.916-1.455-3.685-.82,2.138s-.012.269-.027.691l.666-1.738,1.456,3.687,1.547,4.914a3.97,3.97,0,0,1,.775,2.368,2.989,2.989,0,0,0,.454,1.956s.41,2.322,1.047,2.912a2.723,2.723,0,0,1,.648,1.73A29.881,29.881,0,0,0,684,615.418,6.7,6.7,0,0,1,684.313,617.83Z" transform="translate(-665.927 -577.127)"/>
    </g>
    <path id="Path_3474" data-name="Path 3474" class="cls-16" d="M724.167,227.057l-.34,1.661.02.739.014.546-1.906.187-.213-.393h0a17.368,17.368,0,0,0-1.474-2.383c-.351-.3-.977-4.916-.225-4.642a1.99,1.99,0,0,1,1.057.957S724.835,224.164,724.167,227.057Z" transform="translate(-599.836 -176.654)"/>
    <path id="Path_3475" data-name="Path 3475" class="cls-7" d="M733.863,261.493l-1.9.2-.213-.393h0a1.67,1.67,0,0,1,2.1-.34Z" transform="translate(-609.845 -208.151)"/>
    <path id="Path_3476" data-name="Path 3476" class="cls-17" d="M733.831,263.289l-2.507.589-.053-.375-.141-1a1.723,1.723,0,0,1,2.424-.332l.124.511Z" transform="translate(-609.33 -209.049)"/>
    <path id="Path_3477" data-name="Path 3477" class="cls-16" d="M479.234,210.067l-2.669,1.437s-.1-.211-.242-.511c-.255-.533-.633-1.336-.737-1.624-.158-.443-1.275-1-1.275-1-2.8-2.674.536-4.972.536-4.972,1.764-3.549,3.731,1.205,3.731,1.205a12.108,12.108,0,0,1,.08,2.674c-.192.169-.192.851-.192.851a10.333,10.333,0,0,1,.643,1.532C479.19,209.913,479.234,210.067,479.234,210.067Z" transform="translate(-395.301 -159.493)"/>
    <path id="Path_3478" data-name="Path 3478" class="cls-7" d="M494.491,246.926l-2.669,1.437s-.1-.211-.242-.511c.376-.315,1.714-1.4,2.153-1.35a3.2,3.2,0,0,0,.633.015C494.447,246.773,494.491,246.926,494.491,246.926Z" transform="translate(-410.557 -196.352)"/>
    <path id="Path_3479" data-name="Path 3479" class="cls-17" d="M495.113,248.624l-3,1.481-.06-.647-.049-.453s1.74-1.491,2.254-1.433a2.691,2.691,0,0,0,.785,0l.034.541Z" transform="translate(-410.906 -197.24)"/>
    <path id="Path_3480" data-name="Path 3480" class="cls-16" d="M649.793,263.249s-13.1,1.478-10.649.681a3.282,3.282,0,0,0,2.523-2.841,6.844,6.844,0,0,0-.487-3.03,13.051,13.051,0,0,0-1.171-2.366s10.013-5.508,8-.511a8.036,8.036,0,0,0-.567,2.373,6.669,6.669,0,0,0,.257,2.4A7.15,7.15,0,0,0,649.793,263.249Z" transform="translate(-532.749 -201.817)"/>
    <path id="Path_3481" data-name="Path 3481" class="cls-7" d="M653.719,255.214a8.042,8.042,0,0,0-.567,2.373c-.943.792-1.978.74-3.306.74-1.021,0-2.15.247-2.965-.245a13.053,13.053,0,0,0-1.171-2.366S655.723,250.208,653.719,255.214Z" transform="translate(-538.451 -201.838)"/>
    <circle id="Ellipse_450" data-name="Ellipse 450" class="cls-16" cx="5.417" cy="5.417" r="5.417" transform="translate(105.802 46.003)"/>
    <path id="Path_3482" data-name="Path 3482" class="cls-7" d="M649.793,294.016s-13.1,1.478-10.649.681a3.282,3.282,0,0,0,2.523-2.841,7.2,7.2,0,0,1,2.8-1.486,3.928,3.928,0,0,1,2.383-.039,3.275,3.275,0,0,1,.863.4A7.149,7.149,0,0,0,649.793,294.016Z" transform="translate(-532.749 -232.583)"/>
    <path id="Path_3483" data-name="Path 3483" class="cls-7" d="M734.52,267.2l-2.508.589-.053-.374a2.213,2.213,0,0,1,2.407-.822Z" transform="translate(-610.019 -212.956)"/>
    <path id="Path_3484" data-name="Path 3484" class="cls-7" d="M495.354,251.287l-3,1.481-.06-.647a22.08,22.08,0,0,1,3.03-1.341Z" transform="translate(-411.146 -199.903)"/>
    <path id="Path_3485" data-name="Path 3485" class="cls-7" d="M635.824,492.448c-5.073.8-12.292,1.844-13.438,1.495a33.6,33.6,0,0,0-6.627-.17c.022-1.323.046-2.2.046-2.2l19.661-2.043A16.14,16.14,0,0,0,635.824,492.448Z" transform="translate(-513.599 -398.012)"/>
    <path id="Path_3486" data-name="Path 3486" class="cls-13" d="M534.567,294.035s-16.7,2.868-18.5,2.322-10.995.046-10.995.046c-4.141,2.775-2.412-1.321-2.412-1.321a10.168,10.168,0,0,1,.136-3.868,23.657,23.657,0,0,0,.681-3.869s-.09-2.724.41-3.367,1.091-5.188,1.091-5.188.456-3.095.41-3.777.136-2.594.136-2.594l.594-3.18c-3.4-.454-13.788-6.826-13.788-6.826-.5-2.14-4.37-7.149-4.37-7.149a5.281,5.281,0,0,0-.318-1.229c-.274-.729,3.823-2.184,3.823-2.184s3.049,3.731,3.685,4.732a20.781,20.781,0,0,0,2.822,2.868,2.189,2.189,0,0,1,1,.131.205.205,0,0,1,.053.015h0a8.274,8.274,0,0,1,2.043,1.169,3.954,3.954,0,0,1,2.776,1.047s1.873-.272,2.184.046,1.912,0,1.912,0,1.593-3.369,2.64-2.383,5.488.933,5.488.933a6.569,6.569,0,0,1,2.933-1.641,3.927,3.927,0,0,1,2.383-.039,3.023,3.023,0,0,1,.936.453l2.695,2.638s.774-1,.681-1.229.911-.409.911-.409,1.319-.41,1.82-.546.96.405,1,.453a5.3,5.3,0,0,1-.226-2,2.357,2.357,0,0,0-.546-1.639c1.593-3.915,5.188-.637,5.188-.637a7.491,7.491,0,0,1,.046,2.958c-.364.819.364,2.553.272,3s.182,1.229.182,2.094a12.389,12.389,0,0,1-.729,3.234c-.274.73-2.467,2.358-2.467,2.358a10.294,10.294,0,0,1-1.093,4.1c-.955,1.5-.364,6.639-.364,6.639s.911,4.005,2.043,5.277S534.567,294.035,534.567,294.035Z" transform="translate(-407.282 -200.791)"/>
    <path id="Path_3487" data-name="Path 3487" class="cls-7" d="M609.216,310.15s-.5-1.5-.955-1.639a10.6,10.6,0,0,1-1.321-.591l.293-.56s1.711.468,1.983.969A3.944,3.944,0,0,1,609.216,310.15Z" transform="translate(-506.28 -246.852)"/>
    <path id="Path_3488" data-name="Path 3488" class="cls-7" d="M546.382,298.438c-.09.456-4.141.865-4.141.865l2.043-2.053h0l.051.017h0A8.1,8.1,0,0,1,546.382,298.438Z" transform="translate(-452.594 -238.463)"/>
    <circle id="Ellipse_451" data-name="Ellipse 451" class="cls-18" cx="0.364" cy="0.364" r="0.364" transform="translate(81.704 53.364)"/>
    <circle id="Ellipse_452" data-name="Ellipse 452" class="cls-18" cx="0.364" cy="0.364" r="0.364" transform="translate(82.17 54.092)"/>
    <circle id="Ellipse_453" data-name="Ellipse 453" class="cls-18" cx="0.364" cy="0.364" r="0.364" transform="translate(82.626 54.765)"/>
    <circle id="Ellipse_454" data-name="Ellipse 454" class="cls-18" cx="0.364" cy="0.364" r="0.364" transform="translate(83.103 55.492)"/>
    <circle id="Ellipse_455" data-name="Ellipse 455" class="cls-18" cx="0.296" cy="0.296" r="0.296" transform="translate(126.071 55.521)"/>
    <circle id="Ellipse_456" data-name="Ellipse 456" class="cls-18" cx="0.296" cy="0.296" r="0.296" transform="translate(126.117 56.191)"/>
    <circle id="Ellipse_457" data-name="Ellipse 457" class="cls-18" cx="0.296" cy="0.296" r="0.296" transform="translate(126.158 56.864)"/>
    <path id="Path_3489" data-name="Path 3489" class="cls-7" d="M620.439,396.2c-.041-.053,10.214,12.9,18.182,5.417C638.621,401.612,626.038,403.323,620.439,396.2Z" transform="translate(-517.482 -320.568)"/>
    <path id="Path_3490" data-name="Path 3490" class="cls-7" d="M585.82,435.77s6.138.17,6.782,1.934v1.837a1.169,1.169,0,0,1-1.142,0c-.62-.34-4.331-2.213-5.64-1.312Z" transform="translate(-488.755 -353.403)"/>
    <path id="Path_3492" data-name="Path 3492" class="cls-7" d="M605.51,357.46a19.751,19.751,0,0,0,2.383,4.085,16.027,16.027,0,0,0,3.726,3.6S605.612,358.3,605.51,357.46Z" transform="translate(-505.094 -288.424)"/>
    <path id="Path_3493" data-name="Path 3493" class="cls-7" d="M593.71,315.55s1.021,4.426,3.663,5.924Z" transform="translate(-495.302 -253.648)"/>
    <path id="Path_3494" data-name="Path 3494" class="cls-7" d="M584.036,318.173c-.026-.082-.909,3.5,3.4,5.476C587.438,323.649,585.607,323.028,584.036,318.173Z" transform="translate(-487.199 -255.823)"/>
    <path id="Path_3495" data-name="Path 3495" class="cls-7" d="M741.992,300.746a31.486,31.486,0,0,1,2.724,2.043C744.716,302.794,743.283,300.654,741.992,300.746Z" transform="translate(-618.342 -241.361)"/>
    <path id="Path_3496" data-name="Path 3496" class="cls-12" d="M638.369,223.27a1.131,1.131,0,0,0,.422.732,1.156,1.156,0,0,0,.511.114,11.009,11.009,0,0,0,4.9-.461,1.848,1.848,0,0,0,.744-.494,3.038,3.038,0,0,0,.432-1.192,17.153,17.153,0,0,1,1-2.3,7.726,7.726,0,0,0,.536-4.13,2.8,2.8,0,0,0-.414-1.21c-.439-.625-1.236-.878-1.816-1.375s-.952-1.258-1.627-1.632a3.129,3.129,0,0,0-2.043-.182,10.769,10.769,0,0,0-3.813,1.432,1.9,1.9,0,0,1-1.275.434,1.753,1.753,0,0,1-.936-.718,5.033,5.033,0,0,0-.407,2.359,1,1,0,0,1-.012.356,1.054,1.054,0,0,1-.252.374,1.38,1.38,0,0,0-.259,1.7c.17.208.444.322.614.533.306.381.2.928.2,1.415a.719.719,0,0,0,.119.48.7.7,0,0,0,.669.16,1.851,1.851,0,0,1,.712-.068,1.192,1.192,0,0,1,.62.477A8.423,8.423,0,0,1,638.369,223.27Z" transform="translate(-528.614 -166.941)"/>
    <g id="Group_2470" data-name="Group 2470" class="cls-19" transform="translate(105.242 45.287)">
      <path id="Path_3497" data-name="Path 3497" d="M645.126,244.728a1.848,1.848,0,0,1-.744.494,10.917,10.917,0,0,1-4.9.46,1.133,1.133,0,0,1-.511-.112,1.165,1.165,0,0,1-.422-.732,8.46,8.46,0,0,0-1.38-3.2,1.191,1.191,0,0,0-.62-.477,1.852,1.852,0,0,0-.712.068.706.706,0,0,1-.669-.16.72.72,0,0,1-.119-.48c0-.487.109-1.035-.2-1.415-.17-.213-.439-.325-.616-.533a1.072,1.072,0,0,1-.1-1.088,1.241,1.241,0,0,0-.077,1.45c.17.209.444.322.614.535.3.38.2.928.2,1.415a.721.721,0,0,0,.119.48.7.7,0,0,0,.669.16,1.851,1.851,0,0,1,.712-.068,1.192,1.192,0,0,1,.62.477,8.507,8.507,0,0,1,1.38,3.2.852.852,0,0,0,.933.844,11.01,11.01,0,0,0,4.9-.46,1.848,1.848,0,0,0,.744-.494,1.44,1.44,0,0,0,.235-.439C645.161,244.679,645.144,244.7,645.126,244.728Z" transform="translate(-633.856 -234.212)"/>
      <path id="Path_3498" data-name="Path 3498" d="M638.091,220.565a.773.773,0,0,0,.17-.274,1,1,0,0,0,.012-.356,5.064,5.064,0,0,1,.254-1.959l-.029-.036a5.029,5.029,0,0,0-.407,2.359A1.4,1.4,0,0,1,638.091,220.565Z" transform="translate(-637.36 -217.94)"/>
    </g>
    <path id="Path_3499" data-name="Path 3499" class="cls-7" d="M654.69,301.509s6.766.9,7.374-.119" transform="translate(-545.902 -241.898)"/>
    <path id="Path_3500" data-name="Path 3500" class="cls-7" d="M732,285.65s3.759,0,4.586,1.413" transform="translate(-610.052 -228.837)"/>
  </g>
</svg>
