<svg xmlns="http://www.w3.org/2000/svg" xmlns:xlink="http://www.w3.org/1999/xlink" viewBox="0 0 140 127">
  <defs>
    <style>
      .cls-1 {
        fill: #4470d1;
      }

      .cls-2 {
        fill: url(#linear-gradient);
      }

      .cls-3, .cls-7 {
        fill: #fff;
      }

      .cls-3 {
        opacity: 0.1;
      }

      .cls-4 {
        fill: url(#linear-gradient-2);
      }

      .cls-5 {
        opacity: 0.4;
        fill: url(#linear-gradient-3);
      }

      .cls-6 {
        fill: url(#linear-gradient-4);
      }
    </style>
    <linearGradient id="linear-gradient" x1="0.5" x2="0.5" y2="1" gradientUnits="objectBoundingBox">
      <stop offset="0" stop-color="#005bea"/>
      <stop offset="1" stop-color="#00c6fb"/>
    </linearGradient>
    <linearGradient id="linear-gradient-2" x1="0.5" x2="0.5" y2="1" gradientUnits="objectBoundingBox">
      <stop offset="0" stop-color="#0dad7d"/>
      <stop offset="1" stop-color="#16c792"/>
    </linearGradient>
    <linearGradient id="linear-gradient-3" x1="0.5" x2="0.5" y2="1" gradientUnits="objectBoundingBox">
      <stop offset="0" stop-color="#22ea7c"/>
      <stop offset="1" stop-color="#28c76f"/>
    </linearGradient>
    <linearGradient id="linear-gradient-4" x1="0.5" x2="0.5" y2="1" gradientUnits="objectBoundingBox">
      <stop offset="0" stop-color="#2af598"/>
      <stop offset="1" stop-color="#009efd"/>
    </linearGradient>
  </defs>
  <g id="pdf" transform="translate(-1001 -8177)">
    <rect id="Rectangle_1229" data-name="Rectangle 1229" class="cls-1" width="126" height="116" rx="7" transform="translate(1015 8177)"/>
    <rect id="Rectangle_1228" data-name="Rectangle 1228" class="cls-2" width="126" height="116" rx="7" transform="translate(1001 8188)"/>
    <path id="Path_3385" data-name="Path 3385" class="cls-3" d="M7,0H119a7,7,0,0,1,7,7C126,112.866,39.191,38.586,7,116a7,7,0,0,1-7-7V7A7,7,0,0,1,7,0Z" transform="translate(1001 8188)"/>
    <g id="_016-data" data-name="016-data" transform="translate(995.448 8202)">
      <path id="Path_4211" data-name="Path 4211" class="cls-4" d="M87.518,0V9.042h48.226V78.367h9.042V0Z" transform="translate(-43.924)"/>
      <path id="Path_4212" data-name="Path 4212" class="cls-5" d="M87.518,35.31v3.014h48.226v69.325h3.014V36.817a1.508,1.508,0,0,0-1.507-1.507Z" transform="translate(-43.924 -29.282)"/>
      <path id="Path_4213" data-name="Path 4213" class="cls-6" d="M91.82,131.333H34.552V52.966H91.82Z" transform="translate(0 -43.924)"/>
      <g id="Group_2754" data-name="Group 2754" transform="translate(40.58 15.071)">
        <path id="Path_4218" data-name="Path 4218" class="cls-7" d="M71.369,88.276h42.2a1.508,1.508,0,0,1,1.507,1.507h0a1.508,1.508,0,0,1-1.507,1.507h-42.2a1.508,1.508,0,0,1-1.507-1.507h0A1.508,1.508,0,0,1,71.369,88.276Z" transform="translate(-69.862 -88.276)"/>
        <path id="Path_4219" data-name="Path 4219" class="cls-7" d="M71.369,132.414h42.2a1.508,1.508,0,0,1,1.507,1.507h0a1.508,1.508,0,0,1-1.507,1.507h-42.2a1.508,1.508,0,0,1-1.507-1.507h0A1.508,1.508,0,0,1,71.369,132.414Z" transform="translate(-69.862 -124.879)"/>
        <path id="Path_4220" data-name="Path 4220" class="cls-7" d="M71.369,176.552h42.2a1.508,1.508,0,0,1,1.507,1.507h0a1.508,1.508,0,0,1-1.507,1.507h-42.2a1.508,1.508,0,0,1-1.507-1.507h0A1.508,1.508,0,0,1,71.369,176.552Z" transform="translate(-69.862 -161.481)"/>
        <path id="Path_4221" data-name="Path 4221" class="cls-7" d="M71.369,220.69h33.155a1.508,1.508,0,0,1,1.507,1.507h0a1.508,1.508,0,0,1-1.507,1.507H71.369a1.508,1.508,0,0,1-1.507-1.507h0A1.508,1.508,0,0,1,71.369,220.69Z" transform="translate(-69.862 -198.084)"/>
        <path id="Path_4222" data-name="Path 4222" class="cls-7" d="M71.369,264.828H100a1.508,1.508,0,0,1,1.507,1.507h0A1.508,1.508,0,0,1,100,267.842H71.369a1.508,1.508,0,0,1-1.507-1.507h0A1.508,1.508,0,0,1,71.369,264.828Z" transform="translate(-69.862 -234.687)"/>
      </g>
      <path id="Union_15" data-name="Union 15" class="cls-7" d="M16.667,39.077Q8.63,33.977.541,28.954A1.035,1.035,0,0,1,0,27.975c.026-1.777,0-3.58,0-5.512,1.34.8,2.55,1.545,3.761,2.293,4.251,2.576,8.475,5.152,12.725,7.779a1.237,1.237,0,0,0,1.468.026c5.255-2.936,10.665-5.616,15.713-8.913a1.827,1.827,0,0,1,.464-.206c.1-.1.232-.206.335-.309v6.7h-.129a30.724,30.724,0,0,1-3.58,2.061c-2.782,1.571-5.564,3.117-8.372,4.662-1.546.85-3.091,1.7-4.611,2.576a1.04,1.04,0,0,1-.513.159A1.125,1.125,0,0,1,16.667,39.077Zm17.5-15.6-.03-.027ZM16.744,28.8c-2.5-1.571-5.023-3.143-7.522-4.714a.816.816,0,0,1-.438-.8c.026-2.731.026-5.435,0-8.166a.743.743,0,0,1,.412-.8c.85-.464,1.7-.953,2.55-1.443a5.869,5.869,0,0,0,2.473,1.443l2.912,1.609v-.012a22.283,22.283,0,0,0,3.684-1.7c-1.108-.567-2.061-1.082-3.04-1.571a.5.5,0,0,0-.464-.1A10.922,10.922,0,0,0,14.194,14.3a6.146,6.146,0,0,1-2.473-1.442c1.468-.876,2.911-1.777,4.379-2.627a2.568,2.568,0,0,1,2.576.155c2.035,1.159,4.044,2.318,6.079,3.5a1.352,1.352,0,0,1,.721,1.262c-.026,1.6-.026,3.22,0,4.817a.935.935,0,0,1-.567.953c-.618.335-1.185.721-1.932,1.159V16.9c0-.953,0-.927-.876-.489A14.9,14.9,0,0,1,19.268,17.7a9.776,9.776,0,0,1-1.752.979c-.309.18-.567-.026-.824-.154-1.468-.747-2.962-1.494-4.431-2.267-.515-.283-.773-.309-.747.412.026,1.7.026,3.374,0,5.075a.939.939,0,0,0,.515.927c1.546.953,3.091,1.932,4.585,2.962a.927.927,0,0,0,1.107,0c2.55-1.417,5.178-2.73,7.754-4.431v2.782a.665.665,0,0,1-.386.593c-2.55,1.442-5.126,2.859-7.676,4.3a.56.56,0,0,1-.27.078A.762.762,0,0,1,16.744,28.8Zm1.34-12.056a4.7,4.7,0,0,1,.957.508,5.42,5.42,0,0,0-.983-.533c-.261-.181-.647-.221-.829-.5C17.4,16.521,17.814,16.558,18.083,16.744Zm-13.7,7.831C3.091,23.8,1.829,23.029.567,22.231c-.283-.18-.515-.309-.515-.721C.026,17.8.026,14.091.026,10.227c1.88.953,3.658,1.88,5.435,2.808.258.129.258.386.258.618V25.3A3.951,3.951,0,0,1,4.379,24.575Zm24.884-8.707c-.026-1.082.386-2.344-.154-3.194-.541-.8-1.726-1.159-2.628-1.7C23.8,9.376,21.1,7.831,18.418,6.208A1.241,1.241,0,0,0,17,6.182q-4.1,2.318-8.192,4.56c-.258.155-.541.258-.8.386C6.62,10.3,5.178,9.557,3.735,8.81c-.386-.206-.876-.309-.953-.876C6.389,5.8,9.995,3.684,13.6,1.494A13.7,13.7,0,0,1,16.692,0h1.468a15.026,15.026,0,0,1,3.323,1.365c3.632,2.138,7.29,4.276,10.974,6.363a5,5,0,0,1,2.035,1.906c-.026,1.829-.026,3.581-.026,5.307-1.52.824-2.911,1.906-4.379,2.808a8.645,8.645,0,0,0-.824.541C29.263,17.414,29.289,16.641,29.263,15.868ZM3.916,11.54C2.731,10.819,1.468,10.252.1,9.531c.953-.567,1.8-1.056,2.653-1.52.051.567.567.67.953.876,1.442.721,2.885,1.468,4.276,2.318-.18.18-.464.206-.618.335a2.08,2.08,0,0,1-1.517.725A3.922,3.922,0,0,1,3.916,11.54Z" transform="translate(69.256 46.614)"/>
    </g>
  </g>
</svg>
