<svg xmlns="http://www.w3.org/2000/svg" xmlns:xlink="http://www.w3.org/1999/xlink" viewBox="0 0 59.053 62.526">
  <defs>
    <style>
      .cls-1 {
        fill: url(#linear-gradient);
      }

      .cls-2 {
        fill: #fff;
      }

      .cls-3 {
        filter: url(#social-back);
      }
    </style>
    <linearGradient id="linear-gradient" x1="0.5" x2="0.5" y2="1" gradientUnits="objectBoundingBox">
      <stop offset="0" stop-color="#2359f1"/>
      <stop offset="1" stop-color="#0aadf3"/>
    </linearGradient>
    <filter id="social-back" x="0" y="0" width="59.053" height="62.526" filterUnits="userSpaceOnUse">
      <feOffset dy="3" input="SourceAlpha"/>
      <feGaussianBlur stdDeviation="5" result="blur"/>
      <feFlood flood-opacity="0.161"/>
      <feComposite operator="in" in2="blur"/>
      <feComposite in="SourceGraphic"/>
    </filter>
  </defs>
  <g id="rd" transform="translate(-435 -12171)">
    <g class="cls-3" transform="matrix(1, 0, 0, 1, 435, 12171)">
      <path id="social-back-2" data-name="social-back" class="cls-1" d="M14.916,33.026a3.4,3.4,0,0,1-1.565-.407L1.965,26.037A3.125,3.125,0,0,1,.4,23.335V8.39L13.372.907A3.047,3.047,0,0,1,14.937.5,3.4,3.4,0,0,1,16.5.907L27.888,7.49a3.125,3.125,0,0,1,1.565,2.7V25.136L16.5,32.619A3.181,3.181,0,0,1,14.916,33.026Z" transform="translate(14.6 11.5)"/>
    </g>
    <path id="Path_4233" data-name="Path 4233" class="cls-2" d="M5.031-6.7a1.353,1.353,0,0,1,1.148.547,1.474,1.474,0,0,1,.287,1.2,1.344,1.344,0,0,1-.779.984,2.6,2.6,0,0,1,.082.684A3.206,3.206,0,0,1,4.99-1.189,5.4,5.4,0,0,1,2.9.314,7.27,7.27,0,0,1,.014.875,7.27,7.27,0,0,1-2.871.314a5.4,5.4,0,0,1-2.092-1.5,3.206,3.206,0,0,1-.779-2.092,2.488,2.488,0,0,1,.082-.656,1.414,1.414,0,0,1-.807-1.012,1.474,1.474,0,0,1,.287-1.2,1.288,1.288,0,0,1,1.148-.52,1.419,1.419,0,0,1,1.039.438A6.773,6.773,0,0,1-.273-7.41l.848-3.773a.336.336,0,0,1,.109-.15.205.205,0,0,1,.191-.041l2.652.6a1.079,1.079,0,0,1,.4-.437,1.03,1.03,0,0,1,.561-.164,1.058,1.058,0,0,1,.779.314,1.042,1.042,0,0,1,.314.766,1.042,1.042,0,0,1-.314.766,1.042,1.042,0,0,1-.766.314,1.042,1.042,0,0,1-.766-.314,1.026,1.026,0,0,1-.314-.752l-2.406-.547L.246-7.41A7.106,7.106,0,0,1,2.3-7.068a6.95,6.95,0,0,1,1.7.807A1.578,1.578,0,0,1,5.031-6.7Zm-8.5,2.9a1,1,0,0,0,.328.752,1.072,1.072,0,0,0,.766.314,1.026,1.026,0,0,0,.752-.314,1.042,1.042,0,0,0,.314-.766,1.042,1.042,0,0,0-.314-.766,1.026,1.026,0,0,0-.752-.314,1.072,1.072,0,0,0-.766.314A1.036,1.036,0,0,0-3.473-3.8ZM2.406-1.258a.184.184,0,0,0,.082-.164.262.262,0,0,0-.082-.191A.262.262,0,0,0,2.215-1.7a.262.262,0,0,0-.191.082,2.19,2.19,0,0,1-1.217.52A4.8,4.8,0,0,1-.848-1.107a2.385,2.385,0,0,1-1.2-.506A.184.184,0,0,0-2.215-1.7a.262.262,0,0,0-.191.082.262.262,0,0,0-.082.191.184.184,0,0,0,.082.164,2.692,2.692,0,0,0,1.449.67,5.2,5.2,0,0,0,1.914,0A2.692,2.692,0,0,0,2.406-1.258ZM2.379-2.734a1.072,1.072,0,0,0,.766-.314,1.02,1.02,0,0,0,.328-.766,1.02,1.02,0,0,0-.328-.766,1.072,1.072,0,0,0-.766-.314,1,1,0,0,0-.752.328,1.072,1.072,0,0,0-.314.766,1.026,1.026,0,0,0,.314.752A1.026,1.026,0,0,0,2.379-2.734Z" transform="translate(463.508 12203.632)"/>
  </g>
</svg>
