<svg xmlns="http://www.w3.org/2000/svg" viewBox="0 0 568.031 398.784">
  <defs>
    <style>
      .cls-1 {
        fill: #066de8;
        opacity: 0.1;
      }
    </style>
  </defs>
  <path id="shape-10" class="cls-1" d="M197.28,14.668C169.589,16.149,141.609,24.239,120,41.631,101.048,56.9,87.377,80.9,90.712,105.013c3.937,28.468,29.335,49.176,38.756,76.331,6.062,17.457,5.117,36.721,1.15,54.78-2.552,11.636-6.477,23.285-14.02,32.507-13.587,16.591-38.105,24.6-44.781,44.974-7.26,22.159,11.034,43.891,28.221,59.65,13.719,12.575,28.088,25.091,45.377,31.983,12.642,5.045,26.361,6.857,39.96,7.579a266.5,266.5,0,0,0,110.163-17.6c16.8-6.519,33.055-14.785,50.639-18.716,37.473-8.38,76.03,3.7,114.009,9.361a340.987,340.987,0,0,0,98.225.289c20.5-2.926,41.687-8.205,57.128-22,15.652-14.008,23.477-35.691,22.61-56.7s-9.728-41.236-22.779-57.73c-16.856-21.3-40.1-36.462-60.331-54.618a260.863,260.863,0,0,1-51.9-64.159c-7.946-13.846-14.706-28.54-25-40.73-16.055-19-39.34-30.3-62.606-39.026-53.673-20.106-109.344-24.2-165.3-33.085C232.737,15.312,215,13.741,197.28,14.668Z" transform="translate(-70.182 -14.401)"/>
</svg>
