<svg xmlns="http://www.w3.org/2000/svg" xmlns:xlink="http://www.w3.org/1999/xlink" viewBox="0 0 1366 145">
  <defs>
    <style>
      .cls-1 {
        clip-path: url(#clip-shape-4);
      }

      .cls-2 {
        fill: #1a1a92;
      }

      .cls-3, .cls-4 {
        stroke: none;
      }

      .cls-4 {
        fill: #707070;
      }
    </style>
    <clipPath id="clip-shape-4">
      <rect width="1366" height="145"/>
    </clipPath>
  </defs>
  <g id="shape-4" class="cls-1">
    <g id="Path_3663" data-name="Path 3663" class="cls-2" transform="translate(4270.626 4008.465) rotate(180)">
      <path class="cls-3" d="M 4274.12646484375 5427.05810546875 L 2904.66943359375 5427.05810546875 L 2904.66943359375 3956.962890625 C 2906.84814453125 3956.35302734375 2918.708740234375 3953.0703125 2937.856689453125 3948.445068359375 C 2957.392333984375 3943.726318359375 2988.723876953125 3936.605712890625 3027.046630859375 3929.4814453125 C 3070.118408203125 3921.474365234375 3113.061279296875 3915.094482421875 3154.6826171875 3910.51904296875 C 3206.705322265625 3904.800048828125 3256.79736328125 3901.900634765625 3303.567626953125 3901.900634765625 C 3324.164306640625 3901.900634765625 3344.437255859375 3902.466552734375 3363.82373046875 3903.583251953125 C 3384.3955078125 3904.76806640625 3404.52978515625 3906.60498046875 3423.6669921875 3909.04296875 C 3443.87451171875 3911.617431640625 3463.525634765625 3914.932861328125 3482.07421875 3918.897216796875 C 3501.57861328125 3923.065673828125 3520.402587890625 3928.067138671875 3538.02294921875 3933.76220703125 C 3553.377197265625 3938.724853515625 3570.0400390625 3943.089111328125 3587.548828125 3946.734130859375 C 3604.31298828125 3950.22412109375 3622.2978515625 3953.1474609375 3641.004638671875 3955.4228515625 C 3658.86328125 3957.595458984375 3677.850830078125 3959.234619140625 3697.439453125 3960.295166015625 C 3716.077880859375 3961.304443359375 3735.747802734375 3961.81591796875 3755.90283203125 3961.81591796875 C 3785.097412109375 3961.81591796875 3816.236328125 3960.744873046875 3848.455078125 3958.632080078125 C 3877.74365234375 3956.71142578125 3908.58203125 3953.887451171875 3940.114013671875 3950.238525390625 C 3993.21826171875 3944.09326171875 4049.246826171875 3935.524169921875 4106.64306640625 3924.77001953125 C 4157.70751953125 3915.2021484375 4200.42431640625 3905.639404296875 4227.26708984375 3899.302001953125 C 4253.251953125 3893.167236328125 4269.77685546875 3888.789794921875 4273.12744140625 3887.893310546875 L 4274.12646484375 5427.05810546875 Z"/>
      <path class="cls-4" d="M 4272.6279296875 3888.5439453125 C 4268.1591796875 3889.73388671875 4252.0205078125 3893.9716796875 4227.3818359375 3899.78857421875 C 4200.5341796875 3906.126953125 4157.8095703125 3915.69140625 4106.7353515625 3925.26123046875 C 4049.32763671875 3936.017578125 3993.28759765625 3944.58837890625 3940.171630859375 3950.73486328125 C 3908.631591796875 3954.384765625 3877.78466796875 3957.20947265625 3848.48828125 3959.130859375 C 3816.258544921875 3961.244140625 3785.108642578125 3962.31591796875 3755.9033203125 3962.31591796875 C 3735.7392578125 3962.31591796875 3716.06005859375 3961.8037109375 3697.412841796875 3960.7939453125 C 3677.81298828125 3959.7333984375 3658.814208984375 3958.0927734375 3640.9443359375 3955.9189453125 C 3622.223876953125 3953.64208984375 3604.224853515625 3950.71630859375 3587.447265625 3947.2236328125 C 3569.920654296875 3943.57470703125 3553.240234375 3939.20556640625 3537.869140625 3934.23779296875 C 3520.264892578125 3928.5478515625 3501.45751953125 3923.55078125 3481.969482421875 3919.3857421875 C 3463.434814453125 3915.42431640625 3443.797607421875 3912.111328125 3423.603759765625 3909.53857421875 C 3404.47802734375 3907.10205078125 3384.35546875 3905.2666015625 3363.794921875 3904.08203125 C 3344.418212890625 3902.96630859375 3324.154541015625 3902.400390625 3303.5673828125 3902.400390625 C 3256.81787109375 3902.400390625 3206.7470703125 3905.298828125 3154.7451171875 3911.01513671875 C 3113.1376953125 3915.5888671875 3070.208984375 3921.96630859375 3027.150390625 3929.970703125 C 2988.83837890625 3937.0927734375 2957.51513671875 3944.2109375 2937.98486328125 3948.92822265625 C 2919.72509765625 3953.3388671875 2908.09423828125 3956.5283203125 2905.16943359375 3957.34228515625 L 2905.16943359375 5426.55810546875 L 4273.6259765625 5426.55810546875 L 4272.6279296875 3888.5439453125 M 4273.626953125 3887.2412109375 L 4274.62646484375 5427.55810546875 L 2904.16943359375 5427.55810546875 L 2904.16943359375 3956.583984375 C 2904.16943359375 3956.583984375 3098.431396484375 3901.400390625 3303.5673828125 3901.400390625 C 3383.765380859375 3901.400390625 3465.60009765625 3909.8291015625 3538.1767578125 3933.2861328125 C 3601.09228515625 3953.62109375 3677.0546875 3961.31591796875 3755.9033203125 3961.31591796875 C 4000.665771484375 3961.31591796875 4273.626953125 3887.2412109375 4273.626953125 3887.2412109375 Z"/>
    </g>
  </g>
</svg>
