<svg xmlns="http://www.w3.org/2000/svg" xmlns:xlink="http://www.w3.org/1999/xlink" viewBox="0 0 59.053 62.526">
  <defs>
    <style>
      .cls-1 {
        fill: url(#linear-gradient);
      }

      .cls-2 {
        fill: #fff;
      }

      .cls-3 {
        filter: url(#social-back);
      }
    </style>
    <linearGradient id="linear-gradient" x1="0.5" x2="0.5" y2="1" gradientUnits="objectBoundingBox">
      <stop offset="0" stop-color="#2359f1"/>
      <stop offset="1" stop-color="#0aadf3"/>
    </linearGradient>
    <filter id="social-back" x="0" y="0" width="59.053" height="62.526" filterUnits="userSpaceOnUse">
      <feOffset dy="3" input="SourceAlpha"/>
      <feGaussianBlur stdDeviation="5" result="blur"/>
      <feFlood flood-opacity="0.161"/>
      <feComposite operator="in" in2="blur"/>
      <feComposite in="SourceGraphic"/>
    </filter>
  </defs>
  <g id="te" transform="translate(-435 -12171)">
    <g class="cls-3" transform="matrix(1, 0, 0, 1, 435, 12171)">
      <path id="social-back-2" data-name="social-back" class="cls-1" d="M14.916,33.026a3.4,3.4,0,0,1-1.565-.407L1.965,26.037A3.125,3.125,0,0,1,.4,23.335V8.39L13.372.907A3.047,3.047,0,0,1,14.937.5,3.4,3.4,0,0,1,16.5.907L27.888,7.49a3.125,3.125,0,0,1,1.565,2.7V25.136L16.5,32.619A3.181,3.181,0,0,1,14.916,33.026Z" transform="translate(14.6 11.5)"/>
    </g>
    <path id="Path_4234" data-name="Path 4234" class="cls-2" d="M6.1-9.543a.851.851,0,0,0-.137-.807.611.611,0,0,0-.656-.1L-5.551-6.262q-.547.219-.574.492t.438.41l2.789.875L3.555-8.559a.65.65,0,0,1,.26-.1q.123-.014.164.055t-.068.15l-5.223,4.73L-1.531-.848A.684.684,0,0,0-1.176-.93a1.6,1.6,0,0,0,.219-.191L.41-2.434,3.227-.355a.689.689,0,0,0,.643.1.8.8,0,0,0,.369-.588Z" transform="translate(463.508 12203.632)"/>
  </g>
</svg>
